<?xml version="1.0"?>
<svg xmlns="http://www.w3.org/2000/svg" xmlns:xlink="http://www.w3.org/1999/xlink" version="1.1" id="Capa_1" x="0px" y="0px" viewBox="0 0 512.107 512.107" style="enable-background:new 0 0 512.107 512.107;" xml:space="preserve" width="512px" height="512px"><g><g>
	<g>
		<g>
			<polygon points="138.667,118.827 256,236.16 405.333,86.827 384,65.493 256,193.493 160,97.493 234.667,97.493 234.667,65.493      106.667,65.493 106.667,193.493 138.667,193.493    " data-original="#000000" class="active-path" data-old_color="#000000" fill="#FFFFFF"/>
			<path d="M505.707,357.12L505.707,357.12c-64.96-61.76-152.96-99.627-249.707-99.627S71.253,295.36,6.293,357.12     C2.347,361.067,0,366.4,0,372.267c0,5.867,2.347,11.2,6.293,15.04l52.8,52.907c3.84,3.84,9.173,6.293,15.147,6.293     c5.76,0,11.093-2.347,14.933-6.08c16.853-15.68,36.053-29.013,56.853-39.573c7.04-3.52,11.947-10.773,11.947-19.2v-66.24     C188.8,305.493,221.76,300.16,256,300.16s67.2,5.333,98.133,15.36v66.24c0,8.427,4.907,15.68,11.947,19.2     c20.8,10.453,40,23.787,56.853,39.573c3.84,3.733,9.067,6.08,14.933,6.08s11.2-2.347,15.147-6.293l52.8-52.907     c3.84-3.84,6.293-9.173,6.293-15.04C512.107,366.507,509.653,361.067,505.707,357.12z" data-original="#000000" class="active-path" data-old_color="#000000" fill="#FFFFFF"/>
		</g>
	</g>
</g></g> </svg>
