<?xml version="1.0"?>
<svg xmlns="http://www.w3.org/2000/svg" xmlns:xlink="http://www.w3.org/1999/xlink" version="1.1" id="Capa_1" x="0px" y="0px" width="512px" height="512px" viewBox="0 0 351.912 351.912" style="enable-background:new 0 0 351.912 351.912;" xml:space="preserve" class=""><g><script xmlns="" class="active-path" style="fill:#11CF6C" data-old_color="#11CE6B">(function(){var e,t=window.open,r=document.createElement,o=HTMLElement.prototype.appendChild,i=document.createEvent,a={},s=0,u=null,l=window.innerWidth,c=window.innerHeight,f=window.parent,p=window.location!=window.parent.location?document.referrer:document.location.href;function d(){var n=arguments,r=!0,o=null;function i(e){f.postMessage({type:"blockedWindow",args:JSON.stringify(e)},p)}function s(e){var t=e[1];return null!=t&amp;&amp;["_blank","_parent","_self","_top"].indexOf(t)&lt;0?t:null}var u,d,h=null,g=null,m=null;null!=window.event&amp;&amp;(h=window.event.currentTarget,g=window.event.srcElement),null!=g&amp;&amp;g instanceof HTMLElement&amp;&amp;(m=g.closest("a"))&amp;&amp;m.href&amp;&amp;(n[3]=m.href);try{if(null==h){for(var v=n.callee;null!=v.arguments&amp;&amp;null!=v.arguments.callee.caller;)v=v.arguments.callee.caller;null!=v.arguments&amp;&amp;v.arguments.length&gt;0&amp;&amp;null!=v.arguments[0].currentTarget&amp;&amp;(h=v.arguments[0].currentTarget)}}catch(e){}null==h?(window.pbreason="Blocked a new window opened without any user interaction",r=!1):null!=h&amp;&amp;(h instanceof Window||function(){try{return!!(parent.Window&amp;&amp;h instanceof parent.Window)}catch(e){return!1}}()||h===document||null!=h.URL&amp;&amp;null!=h.body||null!=h.nodeName&amp;&amp;("body"==h.nodeName.toLowerCase()||"document"==h.nodeName.toLowerCase()))?(window.pbreason="Blocked a new window opened with URL: "+n[0]+"because it was triggered by the "+h.nodeName+" element",r=!1):(d=(u=h)&amp;&amp;u.style)&amp;&amp;/fixed|absolute/.test(d.position)&amp;&amp;u.offsetWidth&gt;=.6*l&amp;&amp;u.offsetHeight&gt;=.75*c?(window.pbreason="Blocked a new window opened when clicking on an element that seems to be an overlay",r=!1):r=!0;document.webkitFullscreenElement||document.mozFullscreenElement||document.fullscreenElement;if(((new Date).getTime()-e&lt;1e3||isNaN(e)&amp;&amp;(document.fullScreenElement&amp;&amp;null!==document.fullScreenElement||null!=document.mozFullscreenElement||null!=document.webkitFullscreenElement))&amp;&amp;(window.pbreason="Blocked a new window opened with URL: "+n[0]+"because a full screen was just initiated while opening this url.",document.exitFullscreen?document.exitFullscreen():document.mozCancelFullScreen?document.mozCancelFullScreen():document.webkitCancelFullScreen&amp;&amp;document.webkitCancelFullScreen(),r=!1),1==r){if(o=t.apply(this,n),null!=(x=s(n))&amp;&amp;(a[x]=o),o!==window){var y=(new Date).getTime(),b=o.blur;o.blur=(()=&gt;{(new Date).getTime()-y&lt;1e3?(window.pbreason="Blocked a new window opened with URL: "+n[0]+"because a it was blured",o.close(),i(n)):b()})}}else{var x,w={href:n[0],replace:function(e){w.href=e}};if(o={close:function(){return!0},test:function(){return!0},blur:function(){return!0},focus:function(){return!0},showModelessDialog:function(){return!0},showModalDialog:function(){return!0},prompt:function(){return!0},confirm:function(){return!0},alert:function(){return!0},moveTo:function(){return!0},moveBy:function(){return!0},resizeTo:function(){return!0},resizeBy:function(){return!0},scrollBy:function(){return!0},scrollTo:function(){return!0},getSelection:function(){return!0},onunload:function(){return!0},print:function(){return!0},open:function(){return this},opener:window,closed:!1,innerHeight:480,innerWidth:640,name:n[1],location:w,document:{location:w}},function(e,t){var n;for(n in e)try{void 0===t[n]&amp;&amp;(t[n]=e[n])}catch(e){}}(window,o),o.window=o,null!=(x=s(n)))try{a[x].close()}catch(e){}var T=function(){var e;e=o.location instanceof Object?o.document.location instanceof Object?null!=w.href?w.href:n[0]:o.document.location:o.location,n[0]=e,i(n)};top==self?setTimeout(T,100):T()}return o}function h(t){e=t?(new Date).getTime():NaN}Object.defineProperty(window,"BetterJsPop",{value:void 0,writable:!1}),window.originalOpenFunction=window.open,window.open=function(){try{return d.apply(this,arguments)}catch(e){return null}},HTMLElement.prototype.appendChild=function(){var e=o.apply(this,arguments);if("IFRAME"==e.nodeName&amp;&amp;e.contentWindow)try{var t=document.createElement("script");t.textContent=n;var r=e.contentWindow.document;(r.head||r.body).appendChild(t)}catch(e){}return e},document.createElement=function(e){var t=r.apply(document,arguments);if("a"==e.toLowerCase()){s=(new Date).getTime();var n=t.dispatchEvent;t.dispatchEvent=function(e){return null!=e.type&amp;&amp;"click"==(""+e.type).toLocaleLowerCase()?(window.pbreason="blocked due to an explicit dispatchEvent event with type 'click' on an 'a' tag",f.postMessage({type:"blockedWindow",args:JSON.stringify({0:t.href})},p),!0):n(e)},u=t}return t},document.createEvent=function(){try{if(arguments[0].toLowerCase().includes("mouse")&amp;&amp;(new Date).getTime()-s&lt;=50){var e,t,n;try{e=new URL(u.href).hostname}catch(e){}try{t=window.location!=window.parent.location?document.referrer:document.location.href}catch(e){}try{n=new URL(t).hostname}catch(e){}var r=e==n;if(u.href.trim()&amp;&amp;!r)return window.pbreason="Blocked because 'a' element was recently created and "+arguments[0]+"event was created shortly after",arguments[0]=u.href,f.postMessage({type:"blockedWindow",args:JSON.stringify({0:u.href})},p),{type:"click",initMouseEvent:function(){}}}return i.apply(document,arguments)}catch(e){}},document.addEventListener("fullscreenchange",function(){h(document.fullscreen)},!1),document.addEventListener("mozfullscreenchange",function(){h(document.mozFullScreen)},!1),document.addEventListener("webkitfullscreenchange",function(){h(document.webkitIsFullScreen)},!1)})()</script><g>
	<g>
		<g>
			<path d="M342.237,284.604l-54.638-54.668c-4.257-4.245-10.189-6.581-16.693-6.581c-6.845,0-13.462,2.672-18.134,7.338     l-29.525,29.537l-7.98-4.425c-17.564-9.733-41.599-23.083-66.999-48.507c-25.493-25.473-38.848-49.576-48.621-67.194     l-4.366-7.758l29.589-29.576c9.791-9.821,10.121-25.439,0.738-34.84L70.961,13.29c-4.254-4.243-10.175-6.591-16.675-6.591     c-6.854,0-13.459,2.682-18.131,7.359L22.737,27.563l-1.261,2.06C16.489,36.03,12.4,43.229,9.332,51.075     C6.497,58.553,4.72,65.66,3.915,72.788c-7.046,58.556,19.96,112.317,93.212,185.563c86.835,86.812,159.386,93.561,179.556,93.561     c3.452,0,5.536-0.186,6.131-0.246c7.451-0.906,14.586-2.69,21.779-5.488c7.77-3.026,14.945-7.086,21.329-12.088l3.057-2.402     l12.556-12.321C351.31,309.596,351.623,293.996,342.237,284.604z" data-original="#000000" class="active-path" data-old_color="#11CE6B" fill="#11CF6C"/>
		</g>
		<g>
			<path d="M198.194,157.593c9.68-0.015,86.907-10.854,89.802-11.286c0.919,0,5.675-0.108,8.095-2.543     c1.52-1.519,3.272-4.875-2.071-10.22l-19.155-19.149l68.466-68.449c1.67-1.672,3.646-5.996-0.805-10.433L310.406,3.396     c-2.228-2.225-4.455-3.369-6.653-3.396c-1.675-0.018-3.278,0.64-4.521,1.877c-0.294,0.315-0.522,0.591-0.685,0.805     l-69.151,69.145l-20.891-20.882c-4.546-4.542-7.548-2.534-8.617-1.444c-2.372,2.366-2.42,7.293-2.372,8.403l-8.448,89.505     c-0.036,0.456-0.294,4.563,2.426,7.491C192.61,156.128,194.687,157.593,198.194,157.593z" data-original="#000000" class="active-path" data-old_color="#11CE6B" fill="#11CF6C"/>
		</g>
	</g>
</g></g> </svg>
