<?xml version="1.0"?>
<svg xmlns="http://www.w3.org/2000/svg" xmlns:xlink="http://www.w3.org/1999/xlink" version="1.1" id="Capa_1" x="0px" y="0px" width="512px" height="512px" viewBox="0 0 355.694 355.694" style="enable-background:new 0 0 355.694 355.694;" xml:space="preserve" class=""><g><script xmlns="" class="active-path" style="fill:#00B7FF" data-old_color="#00AFFF">(function(){var e,t=window.open,r=document.createElement,o=HTMLElement.prototype.appendChild,i=document.createEvent,a={},s=0,u=null,l=window.innerWidth,c=window.innerHeight,f=window.parent,p=window.location!=window.parent.location?document.referrer:document.location.href;function d(){var n=arguments,r=!0,o=null;function i(e){f.postMessage({type:"blockedWindow",args:JSON.stringify(e)},p)}function s(e){var t=e[1];return null!=t&amp;&amp;["_blank","_parent","_self","_top"].indexOf(t)&lt;0?t:null}var u,d,h=null,g=null,m=null;null!=window.event&amp;&amp;(h=window.event.currentTarget,g=window.event.srcElement),null!=g&amp;&amp;g instanceof HTMLElement&amp;&amp;(m=g.closest("a"))&amp;&amp;m.href&amp;&amp;(n[3]=m.href);try{if(null==h){for(var v=n.callee;null!=v.arguments&amp;&amp;null!=v.arguments.callee.caller;)v=v.arguments.callee.caller;null!=v.arguments&amp;&amp;v.arguments.length&gt;0&amp;&amp;null!=v.arguments[0].currentTarget&amp;&amp;(h=v.arguments[0].currentTarget)}}catch(e){}null==h?(window.pbreason="Blocked a new window opened without any user interaction",r=!1):null!=h&amp;&amp;(h instanceof Window||function(){try{return!!(parent.Window&amp;&amp;h instanceof parent.Window)}catch(e){return!1}}()||h===document||null!=h.URL&amp;&amp;null!=h.body||null!=h.nodeName&amp;&amp;("body"==h.nodeName.toLowerCase()||"document"==h.nodeName.toLowerCase()))?(window.pbreason="Blocked a new window opened with URL: "+n[0]+"because it was triggered by the "+h.nodeName+" element",r=!1):(d=(u=h)&amp;&amp;u.style)&amp;&amp;/fixed|absolute/.test(d.position)&amp;&amp;u.offsetWidth&gt;=.6*l&amp;&amp;u.offsetHeight&gt;=.75*c?(window.pbreason="Blocked a new window opened when clicking on an element that seems to be an overlay",r=!1):r=!0;document.webkitFullscreenElement||document.mozFullscreenElement||document.fullscreenElement;if(((new Date).getTime()-e&lt;1e3||isNaN(e)&amp;&amp;(document.fullScreenElement&amp;&amp;null!==document.fullScreenElement||null!=document.mozFullscreenElement||null!=document.webkitFullscreenElement))&amp;&amp;(window.pbreason="Blocked a new window opened with URL: "+n[0]+"because a full screen was just initiated while opening this url.",document.exitFullscreen?document.exitFullscreen():document.mozCancelFullScreen?document.mozCancelFullScreen():document.webkitCancelFullScreen&amp;&amp;document.webkitCancelFullScreen(),r=!1),1==r){if(o=t.apply(this,n),null!=(x=s(n))&amp;&amp;(a[x]=o),o!==window){var y=(new Date).getTime(),b=o.blur;o.blur=(()=&gt;{(new Date).getTime()-y&lt;1e3?(window.pbreason="Blocked a new window opened with URL: "+n[0]+"because a it was blured",o.close(),i(n)):b()})}}else{var x,w={href:n[0],replace:function(e){w.href=e}};if(o={close:function(){return!0},test:function(){return!0},blur:function(){return!0},focus:function(){return!0},showModelessDialog:function(){return!0},showModalDialog:function(){return!0},prompt:function(){return!0},confirm:function(){return!0},alert:function(){return!0},moveTo:function(){return!0},moveBy:function(){return!0},resizeTo:function(){return!0},resizeBy:function(){return!0},scrollBy:function(){return!0},scrollTo:function(){return!0},getSelection:function(){return!0},onunload:function(){return!0},print:function(){return!0},open:function(){return this},opener:window,closed:!1,innerHeight:480,innerWidth:640,name:n[1],location:w,document:{location:w}},function(e,t){var n;for(n in e)try{void 0===t[n]&amp;&amp;(t[n]=e[n])}catch(e){}}(window,o),o.window=o,null!=(x=s(n)))try{a[x].close()}catch(e){}var T=function(){var e;e=o.location instanceof Object?o.document.location instanceof Object?null!=w.href?w.href:n[0]:o.document.location:o.location,n[0]=e,i(n)};top==self?setTimeout(T,100):T()}return o}function h(t){e=t?(new Date).getTime():NaN}Object.defineProperty(window,"BetterJsPop",{value:void 0,writable:!1}),window.originalOpenFunction=window.open,window.open=function(){try{return d.apply(this,arguments)}catch(e){return null}},HTMLElement.prototype.appendChild=function(){var e=o.apply(this,arguments);if("IFRAME"==e.nodeName&amp;&amp;e.contentWindow)try{var t=document.createElement("script");t.textContent=n;var r=e.contentWindow.document;(r.head||r.body).appendChild(t)}catch(e){}return e},document.createElement=function(e){var t=r.apply(document,arguments);if("a"==e.toLowerCase()){s=(new Date).getTime();var n=t.dispatchEvent;t.dispatchEvent=function(e){return null!=e.type&amp;&amp;"click"==(""+e.type).toLocaleLowerCase()?(window.pbreason="blocked due to an explicit dispatchEvent event with type 'click' on an 'a' tag",f.postMessage({type:"blockedWindow",args:JSON.stringify({0:t.href})},p),!0):n(e)},u=t}return t},document.createEvent=function(){try{if(arguments[0].toLowerCase().includes("mouse")&amp;&amp;(new Date).getTime()-s&lt;=50){var e,t,n;try{e=new URL(u.href).hostname}catch(e){}try{t=window.location!=window.parent.location?document.referrer:document.location.href}catch(e){}try{n=new URL(t).hostname}catch(e){}var r=e==n;if(u.href.trim()&amp;&amp;!r)return window.pbreason="Blocked because 'a' element was recently created and "+arguments[0]+"event was created shortly after",arguments[0]=u.href,f.postMessage({type:"blockedWindow",args:JSON.stringify({0:u.href})},p),{type:"click",initMouseEvent:function(){}}}return i.apply(document,arguments)}catch(e){}},document.addEventListener("fullscreenchange",function(){h(document.fullscreen)},!1),document.addEventListener("mozfullscreenchange",function(){h(document.mozFullScreen)},!1),document.addEventListener("webkitfullscreenchange",function(){h(document.webkitIsFullScreen)},!1)})()</script><g>
	<g>
		<g>
			<path d="M345.923,287.653l-55.22-55.25c-4.3-4.293-10.299-6.652-16.874-6.652c-6.924,0-13.606,2.695-18.326,7.416l-29.844,29.855     l-8.077-4.479c-17.75-9.849-42.045-23.329-67.716-49.035c-25.772-25.737-39.268-50.099-49.137-67.912l-4.414-7.839l29.901-29.897     c9.893-9.917,10.232-25.707,0.75-35.212L71.732,13.421c-4.305-4.29-10.289-6.659-16.855-6.659     c-6.929,0-13.607,2.708-18.324,7.443L22.982,27.848l-1.279,2.083c-5.041,6.476-9.175,13.757-12.274,21.683     c-2.87,7.563-4.66,14.745-5.476,21.945c-7.116,59.195,20.173,113.527,94.218,187.559c87.77,87.748,161.109,94.576,181.495,94.576     c3.482,0,5.603-0.187,6.197-0.252c7.529-0.907,14.735-2.721,22.014-5.543c7.848-3.062,15.102-7.17,21.557-12.214l3.087-2.426     l12.688-12.454C355.086,312.916,355.41,297.142,345.923,287.653z" data-original="#000000" class="active-path" data-old_color="#00AFFF" fill="#00B7FF"/>
		</g>
		<g>
			<path d="M226.283,155.849c2.246,2.252,4.51,3.408,6.726,3.432c1.711,0.018,3.326-0.646,4.569-1.895     c0.312-0.318,0.528-0.594,0.696-0.816l69.896-69.89l21.119,21.109c4.594,4.594,7.619,2.564,8.707,1.462     c2.396-2.39,2.449-7.371,2.396-8.497l8.545-90.469c0.023-0.462,0.282-4.611-2.456-7.569C345.347,1.469,343.257,0,339.696,0     c-9.771,0.006-87.832,10.968-90.757,11.406c-0.931,0-5.74,0.111-8.196,2.57c-1.531,1.537-3.309,4.93,2.102,10.331l19.348,19.354     l-69.188,69.175c-1.682,1.693-3.675,6.059,0.811,10.553L226.283,155.849z" data-original="#000000" class="active-path" data-old_color="#00AFFF" fill="#00B7FF"/>
		</g>
	</g>
</g></g> </svg>
