<svg height="512pt" viewBox="-11 0 512 512" width="512pt" xmlns="http://www.w3.org/2000/svg"><path d="m423.550781 185.976562v47.027344l-167.617187 131.597656c-6.082032 4.773438-14.636719 4.773438-20.714844 0l-167.617188-131.597656v-47.027344h-59.898437v300.996094c0 9.574219 7.761719 17.335938 17.335937 17.335938h441.078126c9.574218 0 17.332031-7.761719 17.332031-17.335938v-300.996094zm0 0" fill="#fda537"/><path d="m37.050781 486.972656v-300.996094h-29.347656v300.996094c0 9.574219 7.761719 17.335938 17.332031 17.335938h29.347656c-9.570312 0-17.332031-7.761719-17.332031-17.335938zm0 0" fill="#f9972d"/><path d="m423.550781 185.976562v-47.027343l59.898438 47.027343zm0 0" fill="#fda537"/><path d="m67.601562 185.976562h-59.898437l59.898437-47.027343zm0 0" fill="#fda537"/><path d="m67.601562 138.949219-59.898437 47.027343h29.347656l30.550781-23.984374zm0 0" fill="#f9972d"/><path d="m67.601562 185.976562h-59.898437l59.898437 47.027344zm0 0" fill="#feb644"/><path d="m37.050781 185.976562h-29.347656l29.347656 23.042969zm0 0" fill="#fda537"/><path d="m423.550781 185.976562v47.027344l59.898438-47.027344zm0 0" fill="#feb644"/><path d="m255.933594 364.601562c-6.078125 4.773438-14.632813 4.773438-20.714844 0l-35.824219-28.125-191.691406 150.496094c0 9.574219 7.761719 17.335938 17.332031 17.335938h441.082032c9.574218 0 17.332031-7.761719 17.332031-17.335938l-191.6875-150.496094zm0 0" fill="#feb644"/><path d="m54.382812 504.308594c-9.570312 0-17.332031-7.761719-17.332031-17.335938v-23.039062l-29.347656 23.039062c0 2.527344.550781 4.921875 1.523437 7.085938 2 4.449218 5.808594 7.902344 10.5 9.414062 1.671876.539063 3.457032.835938 5.308594.835938zm0 0" fill="#fda537"/><path d="m235.125 364.570312c6.136719 4.816407 14.765625 4.816407 20.902344 0l169.109375-132.769531v-214.472656c0-7.308594-5.925781-13.234375-13.234375-13.234375h-332.65625c-7.308594 0-13.230469 5.925781-13.230469 13.234375v214.472656zm0 0" fill="#e4eaf8"/><path d="m96.019531 16.152344c0-4.941406 2.386719-9.3125 6.0625-12.058594h-22.835937c-7.308594 0-13.230469 5.925781-13.230469 13.234375v214.472656l30 23.554688v-239.203125zm0 0" fill="#d8dce5"/><path d="m293.511719 142.277344v-6.136719c0-26.285156-20.832031-48.277344-47.113281-48.71875-26.851563-.449219-48.757813 21.183594-48.757813 47.929687v6.925782c0 27.894531-11.03125 54.65625-30.683594 74.453125h157.242188c-19.65625-19.792969-30.6875-46.558594-30.6875-74.453125zm0 0" fill="#ffc850"/><path d="m227.644531 142.277344v-6.925782c0-21.214843 13.789063-39.199218 32.886719-45.511718-4.449219-1.488282-9.195312-2.332032-14.132812-2.417969-26.851563-.449219-48.757813 21.183594-48.757813 47.929687v6.925782c0 27.894531-11.03125 54.660156-30.683594 74.453125h30c19.65625-19.792969 30.6875-46.558594 30.6875-74.453125zm0 0" fill="#feb644"/><path d="m217.050781 246.691406c.320313 15.9375 13.332031 28.761719 29.347657 28.761719 16.015624 0 29.027343-12.824219 29.34375-28.761719zm0 0" fill="#ffc850"/><path d="m246.398438 246.691406h-29.347657c.320313 15.9375 13.332031 28.761719 29.347657 28.761719 5.347656 0 10.355468-1.433594 14.671874-3.933594-8.613281-4.984375-14.460937-14.210937-14.671874-24.828125zm0 0" fill="#feb644"/><path d="m326.046875 214.730469h-160.941406c-6.765625 0-12.300781 5.535156-12.300781 12.300781v9.359375c0 6.765625 5.535156 12.300781 12.300781 12.300781h160.941406c6.765625 0 12.300781-5.535156 12.300781-12.300781v-9.359375c0-6.765625-5.535156-12.300781-12.300781-12.300781zm0 0" fill="#feb644"/><path d="m326.046875 226.46875h-160.941406c-4.410157 0-8.285157-2.359375-10.457031-5.871094-1.160157 1.878906-1.84375 4.078125-1.84375 6.433594v9.355469c0 6.765625 5.535156 12.304687 12.300781 12.304687h160.941406c6.765625 0 12.300781-5.535156 12.300781-12.304687v-9.355469c0-2.359375-.679687-4.558594-1.84375-6.433594-2.171875 3.511719-6.046875 5.871094-10.457031 5.871094zm0 0" fill="#f9972d"/><path d="m0 487.148438v.015624c0 13.695313 11.140625 24.835938 24.835938 24.835938h441.078124c13.695313 0 24.835938-11.140625 24.835938-24.835938v-300.996093c0-1.398438-.421875-2.921875-1.277344-4.1875 0-.054688-.820312-1.109375-1.59375-1.710938l-57.027344-44.777343v-40.582032c0-4.140625-3.359374-7.5-7.5-7.5-4.144531 0-7.5 3.359375-7.5 7.5v134.636719l-164.75 129.347656c-3.371093 2.644531-8.082031 2.648438-11.449218 0-7.84375-6.15625-158.902344-124.753906-164.75-129.347656 0-25.449219-.003906-174.300781-.003906-208.929687 0-3.09375 2.519531-5.613282 5.617187-5.613282h147.359375c4.140625 0 7.5-3.359375 7.5-7.5 0-4.144531-3.359375-7.49999975-7.5-7.49999975h-147.359375c-11.367187-.00390625-20.617187 9.24609375-20.617187 20.61328175v114.875l-57.027344 44.777343c-1.828125 1.429688-2.86718775 3.6875-2.86718775 5.898438v300.980469zm430.851562-293.480469h30.695313l-30.695313 24.101562zm44.894532 7.925781v270.148438l-172.042969-135.074219c19.132813-15.023438 166.828125-130.980469 172.042969-135.074219zm-460.746094 0c7.570312 5.941406 162.347656 127.460938 172.046875 135.074219l-172.046875 135.070312zm44.898438 16.175781-30.699219-24.101562h30.699219zm-35.0625 279.230469c-4.058594 0-7.875-2.5625-9.28125-6.621094l183.636718-144.175781 31.195313 24.492187c9.015625 7.074219 21.371093 6.75 29.980469 0l31.191406-24.492187 183.640625 144.175781c-1.390625 4.003906-5.152344 6.621094-9.285157 6.621094zm436.714843-318.332031h-30.699219v-24.101563zm-401.652343-24.101563v24.101563h-30.699219zm0 0"/><path d="m246.195312 59.707031c-4.144531 0-7.5 3.359375-7.5 7.5v13.304688c-26.945312 3.195312-48.757812 26.152343-48.757812 55.03125v6.925781c0 25.097656-9.371094 48.777344-26.445312 67.023438-10.261719.730468-18.390626 9.289062-18.390626 19.730468v5.355469c0 10.917969 8.882813 19.800781 19.800782 19.800781h44.527344c3.734374 16.402344 18.546874 28.765625 35.945312 28.765625s32.210938-12.363281 35.945312-28.765625h44.527344c10.917969 0 19.800782-8.882812 19.800782-19.800781v-5.355469c0-10.441406-8.128907-19-18.386719-19.730468-17.078125-18.246094-26.449219-41.925782-26.449219-67.023438v-6.136719c0-27.957031-20.546875-51.460937-47.117188-55.574219v-13.550781c0-4.140625-3.359374-7.5-7.5-7.5zm-.820312 208.4375c-9.117188 0-17.035156-5.722656-20.285156-13.765625h40.566406c-3.246094 8.042969-11.164062 13.765625-20.28125 13.765625zm85.269531-33.566406c0 2.601563-2.195312 4.800781-4.796875 4.800781-25.160156 0-143.488281 0-160.945312 0-2.601563 0-4.800782-2.199218-4.800782-4.800781v-5.355469c0-2.601562 2.199219-4.800781 4.800782-4.800781h160.945312c2.601563 0 4.796875 2.199219 4.796875 4.800781zm-44.835937-98.246094v6.136719c0 24.40625 7.683594 47.648438 21.902344 66.953125h-124.675782c14.222656-19.300781 21.902344-42.546875 21.902344-66.953125 0-7.617188-1.339844-22.550781 12.085938-35.757812 7.789062-7.660157 18.09375-11.777344 29.046874-11.597657 21.910157.367188 39.738282 18.855469 39.738282 41.21875zm0 0"/><path d="m423.351562 67.410156c4.140626 0 7.5-3.359375 7.5-7.5v-39.292968c0-11.367188-9.25-20.617188-20.617187-20.617188h-147.359375c-4.144531 0-7.5 3.359375-7.5 7.5 0 4.144531 3.355469 7.5 7.5 7.5h147.359375c3.097656 0 5.613281 2.519531 5.613281 5.617188v39.292968c0 4.140625 3.359375 7.5 7.503906 7.5zm0 0"/></svg>