<?xml version="1.0" encoding="utf-8"?>
<!-- Generator: Adobe Illustrator 19.0.0, SVG Export Plug-In . SVG Version: 6.00 Build 0)  -->
<svg version="1.1" id="Layer_1" xmlns="http://www.w3.org/2000/svg" xmlns:xlink="http://www.w3.org/1999/xlink" x="0px" y="0px"
	 viewBox="0 0 612 792" style="enable-background:new 0 0 612 792;" xml:space="preserve">
<style type="text/css">
	.st0{fill:#ED1F24;}
</style>
<path id="XMLID_5_" class="st0" d="M461.1,195.9c0,8.6,0.1,15.6,0,22.5c-0.1,7.4-4.3,12-10.7,11.9c-6.1-0.1-10.4-4.4-10.5-11.5
	c-0.2-15.7-0.3-31.4,0-47.1c0.1-8.4,3.7-12,12.1-12.1c15.9-0.2,31.9-0.2,47.8,0c7.1,0.1,11.1,4.4,10.9,10.8c-0.2,6-4.2,9.8-11,10
	c-7.1,0.2-14.3,0-21.4,0c-0.4,0.6-0.8,1.3-1.2,1.9c3,2.6,6.1,5.1,9,7.8c44.6,41.7,72.8,92.6,81.5,152.9c13.7,94.3-15,174.8-85.4,239
	c-52.1,47.5-114.7,69.3-185.1,67.4c-124-3.3-231.6-97-252.1-219.1c-24.2-144,68.4-278.2,211.6-306.2c14.4-2.8,29.2-3.6,43.9-4.6
	c10.9-0.8,15.7,2.8,15.9,10.1c0.2,7.4-4.6,11-15.2,11.2c-59.3,1.3-112.1,20.9-155.8,60.7C72.7,268.1,45.9,351,70.6,446
	c24.4,93.7,86.9,154,181.5,176.1c133.5,31.2,265.3-53.6,292.4-187.6c17.6-87.3-7.2-163.2-70.5-226.3
	C470.2,204.4,466.3,200.8,461.1,195.9z"/>
<path id="XMLID_4_" class="st0" d="M451.3,548.5c-13.3,16.2-30.8,18.3-49.4,15.4c-31.2-5-58.4-19.7-84.2-37
	C250,481.6,194.1,424.5,152.4,354.2c-12-20.2-21.9-41.5-25.4-65c-2.8-18.6-0.9-36.2,15.9-50.2c5.1,5.3,9.9,10.5,15,15.6
	c28.7,28.7,57.4,57.4,86,86.1c2.5,2.5,4.6,5.6,6.2,8.7c20.8,40,51.1,70.4,91.1,91.2c2.5,1.3,5.2,2.7,7.2,4.6
	c33.6,33.4,67,66.9,100.5,100.4C449.7,546.4,450.3,547.4,451.3,548.5z"/>
<path id="XMLID_3_" class="st0" d="M254.7,320c-32.5-32.6-64.2-64.3-96.7-96.9c5.2-4.9,10.7-11,17.1-15.7c6.8-5,17.2-3.5,24,3.1
	c22.9,22.5,45.7,45.1,68.1,68c8.4,8.6,7.4,20.4-1,29.2C262.3,311.9,258.4,316.2,254.7,320z"/>
<path id="XMLID_2_" class="st0" d="M467.8,533.8c-33-33.1-64.7-64.8-96.9-97.1c5-5,10-10.6,15.7-15.2c7.1-5.7,18.2-5,25.3,1.9
	c23.1,22.6,46,45.4,68.6,68.6c8.3,8.5,7.3,20.1-0.8,28.6C475.7,524.9,472,529.2,467.8,533.8z"/>
</svg>
