<?xml version="1.0" encoding="utf-8"?>
<!-- Generator: Adobe Illustrator 23.0.3, SVG Export Plug-In . SVG Version: 6.00 Build 0)  -->
<svg version="1.1" id="Capa_1" xmlns="http://www.w3.org/2000/svg" xmlns:xlink="http://www.w3.org/1999/xlink" x="0px" y="0px"
	 viewBox="0 0 512 512" style="enable-background:new 0 0 512 512;" xml:space="preserve">
<style type="text/css">
	.st0{fill:#B7B7B7;}
</style>
<path class="st0" d="M404.8,287.8l61.6-68.6c0.6-0.7,1.2-1.4,1.7-2.1c27-32.1,26.5-82.7-1.7-114c-13.9-15.5-32.5-24-52.2-24
	c-19.7,0-38.2,8.5-52.2,24L184.8,300.4L135,244.9c-28.8-32-75.6-32-104.3,0C16.7,260.4,9,281,9,302.9c0,21.5,7.4,41.7,20.8,57.1
	c0.3,0.3,0.5,0.7,0.8,1l101.9,113.4c0,0,0.1,0.1,0.1,0.2c13.9,15.5,32.5,24,52.2,24c19.7,0,38.2-8.5,52.2-24l0,0L404.8,287.8z
	 M65.7,283.9c9.4-10.5,24.8-10.5,34.2,0l67.4,75c0.6,0.7,1.2,1.3,1.9,1.9c4.5,4.1,10.1,6.2,15.6,6.2c5.6,0,11.1-2.1,15.6-6.2
	c0.6-0.6,1.3-1.2,1.9-1.9l194.8-216.7c4.6-5.1,10.6-7.9,17.1-7.9c6.5,0,12.5,2.8,17.1,7.9c9.4,10.5,9.4,27.6,0,38.1L202,435.5
	c-4.6,5.1-10.6,7.9-17.1,7.9c-6.5,0-12.5-2.8-17.1-7.9L65.7,322c0,0,0,0,0,0c-4.6-5.1-7.1-11.8-7.1-19
	C58.6,295.7,61.1,289,65.7,283.9z M369.8,326.8l-34.2,38.1"/>
</svg>
