<svg version="1.1" id="Layer_1" xmlns="http://www.w3.org/2000/svg" x="0" y="0" viewBox="0 0 150.6 150.6" xml:space="preserve"><style>.st26{fill:#fff}.st143{fill:#1995a4}</style><path d="M75.3 0C33.7 0 0 33.7 0 75.3c0 41.6 33.7 75.3 75.3 75.3 41.6 0 75.3-33.7 75.3-75.3C150.6 33.7 116.9 0 75.3 0z" fill="#1aafbe"/><path class="st143" d="M139 114.5c-.2-.3-.4-.6-.7-.8-.2-.3-.4-.6-.7-.8-.2-.3-.4-.6-.7-.8-.2-.3-.4-.6-.7-.8-.2-.3-.4-.6-.7-.8-.2-.3-.4-.6-.7-.8-.2-.3-.4-.6-.7-.8-.2-.3-.4-.6-.7-.8-.2-.3-.4-.6-.7-.8-.2-.3-.4-.6-.7-.8-.2-.3-.4-.6-.7-.8-.2-.3-.4-.6-.7-.8-.2-.3-.4-.6-.7-.8-.2-.3-.4-.6-.7-.8-.2-.3-.4-.6-.7-.8-.2-.3-.4-.6-.7-.8-.2-.3-.4-.6-.7-.8-.2-.3-.4-.6-.7-.8-.2-.3-.4-.6-.7-.8-.2-.3-.4-.6-.7-.8-.2-.3-.4-.6-.7-.8-.2-.3-.4-.6-.7-.8-.2-.3-.4-.6-.7-.8-.2-.3-.4-.6-.7-.8-.2-.3-.4-.6-.7-.8-.2-.3-.4-.6-.7-.8-.2-.3-.4-.6-.7-.8-.2-.3-.4-.6-.7-.8-.2-.3-.4-.6-.7-.8-.2-.3-.4-.6-.7-.8-.2-.3-.4-.6-.7-.8-.2-.3-.4-.6-.7-.8-.2-.3-.4-.6-.7-.8-.2-.3-.4-.6-.7-.8-.2-.3-.4-.6-.7-.8-.2-.3-.4-.6-.7-.8-.2-.3-.4-.6-.7-.8-.2-.3-.4-.6-.7-.8-.2-.3-.4-.6-.7-.8-.2-.3-.4-.6-.7-.8-.2-.3-.4-.6-.7-.8-.2-.3-.4-.6-.7-.8-.2-.3-.4-.5-.7-.8-.2-.3-.4-.6-.7-.8-.2-.3-.4-.6-.7-.8-.2-.3-.4-.6-.7-.8-.2-.3-.4-.6-.7-.8-.2-.3-.4-.6-.7-.8-.2-.3-.4-.6-.7-.8-.2-.3-.4-.6-.7-.8-.2-.3-.4-.6-.7-.8-.2-.3-.4-.6-.7-.8-.2-.3-.4-.6-.7-.8-.2-.3-.4-.6-.7-.8-.2-.3-.4-.6-.7-.8-.2-.3-.4-.6-.7-.8-.2-.3-.4-.6-.7-.8-.2-.3-.4-.6-.7-.8-.2-.3-.4-.6-.7-.8-.2-.3-.4-.6-.7-.8-.2-.3-.4-.6-.7-.8-.2-.3-.4-.6-.7-.8-.2-.3-.4-.6-.7-.8-.2-.3-.4-.6-.7-.8-.2-.3-.4-.6-.7-.8-.2-.3-.4-.6-.7-.8-.2-.3-.4-.6-.7-.8-.2-.3-.4-.6-.7-.8-.2-.3-.4-.6-.7-.8-.2-.3-.4-.6-.7-.8-.2-.3-.4-.6-.7-.8-.2-.3-.4-.6-.7-.8-.2-.3-.4-.6-.7-.8-.2-.3-.4-.6-.7-.8-.2-.3-.4-.5-.7-.8-.2-.3-.4-.6-.7-.8-.2-.3-.4-.6-.7-.8-.2-.3-.4-.6-.7-.8-.2-.3-.4-.6-.7-.8-.2-.3-.4-.6-.7-.8-.2-.3-.4-.6-.7-.8-.2-.3-.4-.6-.7-.8-.2-.3-.4-.6-.7-.8-.2-.3-.4-.5-.6-.8-.3-.5-.7-.9-1.1-1.3-1.5-1.4-3.2-2.1-5.3-2.1-2.1 0-3.8.7-5.3 2.1-1.5 1.4-2.2 3-2.2 5 0 1.7.6 3.2 1.8 4.4.2.3.4.5.7.8.2.3.4.6.7.8.2.3.4.6.7.8.2.3.4.6.7.8.2.3.4.6.7.8.2.3.4.6.7.8.2.3.4.6.7.8.2.3.4.6.7.8.2.3.4.6.7.8.2.3.4.6.7.8.2.3.4.6.7.8.2.3.4.6.7.8.2.3.4.6.7.8.2.3.4.6.7.8.2.3.4.6.7.8.2.3.4.5.7.8.2.3.4.6.7.8.2.3.4.6.7.8.2.3.4.6.7.8.2.3.4.6.7.8.2.3.4.6.7.8.2.3.4.6.7.8.2.3.4.6.7.8.2.3.4.6.7.8.2.3.4.5.7.8.2.3.4.6.7.8.2.3.4.6.7.8.2.3.4.6.7.8.2.3.4.6.7.8.2.3.4.6.7.8.2.3.4.6.7.8.2.3.4.6.7.8.2.3.4.6.7.8.2.3.4.6.7.8.2.3.4.6.7.8.2.3.4.5.7.8.2.3.4.6.7.8.2.3.4.6.7.8.2.3.4.6.7.8.2.3.4.6.7.8.2.3.4.6.7.8.2.3.4.6.7.8.2.3.4.6.7.8.2.3.4.6.7.8.2.3.4.6.7.8.2.3.4.6.7.8.2.3.4.6.7.8.2.3.4.6.7.8.2.3.4.6.7.8.2.3.4.6.7.8.2.3.4.6.7.8.2.3.4.6.7.8.2.3.4.6.7.8.2.3.4.6.7.8.2.3.4.6.7.8.2.3.4.6.7.8.2.3.4.6.7.8.2.3.4.6.7.8.2.3.4.6.7.8.2.3.4.6.7.8.2.3.4.6.7.8.2.3.4.6.7.8.2.3.4.6.7.8.2.3.4.6.7.8.2.3.4.6.7.8.2.3.4.6.7.8.2.3.4.6.7.8.2.3.4.6.7.8.2.3.4.6.7.8.2.3.4.6.7.8.2.3.4.6.7.8.2.3.4.6.7.8.2.3.4.6.7.8.2.3.4.6.7.8.2.3.4.6.7.8.2.3.4.6.7.8.2.3.4.6.7.8.2.3.4.6.7.8.2.3.4.6.7.8.2.3.4.6.7.8.2.3.4.6.7.8.2.3.4.6.7.8.2.3.4.6.7.8.2.3.4.6.7.8.2.3.4.6.7.8.2.3.4.6.7.8.2.3.4.6.7.8.2.3.4.6.7.8.2.3.4.6.7.8 0 0 0 .1.1.1 3.4-3.6 6.5-7.6 9.1-11.9-.5 0-.5-.2-.7-.3zM128.6 128.5c-.2-.3-.4-.5-.6-.8-.2-.3-.4-.6-.7-.8-.2-.3-.4-.6-.7-.8-.2-.3-.4-.6-.7-.8-.2-.3-.4-.6-.7-.8-.2-.3-.4-.6-.7-.8-.2-.3-.4-.6-.7-.8-.2-.3-.4-.6-.7-.8-.2-.3-.4-.6-.7-.8-.2-.3-.4-.6-.7-.8-.2-.3-.4-.6-.7-.8-.2-.3-.4-.6-.7-.8-.2-.3-.4-.6-.7-.8-.2-.3-.4-.6-.7-.8-.2-.3-.4-.6-.7-.8-.2-.3-.4-.6-.7-.8-.2-.3-.4-.6-.7-.8-.2-.3-.4-.6-.7-.8-.2-.3-.4-.6-.7-.8-.2-.3-.4-.6-.7-.8-.2-.3-.4-.6-.7-.8-.2-.3-.4-.6-.7-.8-.2-.3-.4-.6-.7-.8-.2-.3-.4-.6-.7-.8-.2-.3-.4-.6-.7-.8-.2-.3-.4-.6-.7-.8-.2-.3-.4-.6-.7-.8-.2-.3-.4-.6-.7-.8-.2-.3-.4-.6-.7-.8-.2-.3-.4-.6-.7-.8-.2-.3-.4-.6-.7-.8-.2-.3-.4-.6-.7-.8-.2-.3-.4-.6-.7-.8-.2-.3-.4-.6-.7-.8-.2-.3-.4-.6-.7-.8-.2-.3-.4-.6-.7-.8-.2-.3-.4-.6-.7-.8-.2-.3-.4-.6-.7-.8-.2-.3-.4-.6-.7-.8-.2-.3-.4-.6-.7-.8-.2-.3-.4-.6-.7-.8-.2-.3-.4-.6-.7-.8-.2-.3-.4-.6-.7-.8-.2-.3-.4-.6-.7-.8-.2-.3-.4-.6-.7-.8-.2-.3-.4-.6-.7-.8-.2-.3-.4-.6-.7-.8-.2-.3-.4-.6-.7-.8-.2-.3-.4-.6-.7-.8-.2-.3-.4-.6-.7-.8-.2-.3-.4-.6-.7-.8-.2-.3-.4-.6-.7-.8-.2-.3-.4-.6-.7-.8-.2-.3-.4-.6-.7-.8-.2-.3-.4-.6-.7-.8-.2-.3-.4-.6-.7-.8-.2-.3-.4-.6-.7-.8-.2-.3-.4-.6-.7-.8-.2-.3-.4-.6-.7-.8-.2-.3-.4-.6-.7-.8-.2-.3-.4-.6-.7-.8-.2-.3-.4-.6-.7-.8-.2-.3-.4-.6-.7-.8-.2-.3-.4-.6-.7-.8-.2-.3-.4-.6-.7-.8-.2-.3-.4-.6-.7-.8-.2-.3-.4-.6-.7-.8-.2-.3-.4-.6-.7-.8-.2-.3-.4-.6-.7-.8-.2-.3-.4-.6-.7-.8-.2-.3-.4-.6-.7-.8-.2-.3-.4-.6-.7-.8-.2-.3-.4-.6-.7-.8-.2-.3-.4-.6-.7-.8-.2-.3-.4-.6-.7-.8-.2-.3-.4-.6-.7-.8-.3-.5-.7-1-1.2-1.4-1.6-1.5-4-2.2-7-2.2-1.7 0-3.5.3-5.4.9-1.9.6-3.9 1.3-5.9 2.2l2 1.5.9-.3-.3 1.2.9-.3-.3 1.2.9-.3-.1 1 .9-.3-.2 1.1.9-.3-.3 1.2.9-.3-.2 1.1.9-.3-.3 1.2.9-.3-.3 1.2.9-.3-.1 1 .9-.3-.3 1.1.9-.3-.3 1.2c.2-.1.4-.1.6-.2l-3 10.7c-.3 1.2-.5 2.2-.6 3.2-.1.9-.2 1.8-.2 2.7 0 2 .7 3.6 1.9 5 .2.3.4.6.7.8.2.3.4.6.7.8.2.3.4.6.7.8.2.3.4.6.7.8.2.3.4.6.7.8.2.3.4.6.7.8.2.3.4.6.7.8.2.3.4.6.7.8.2.3.4.6.7.8.2.3.4.6.7.8.2.3.4.6.7.8.2.3.4.6.7.8.2.3.4.6.7.8.2.3.4.6.7.8.2.3.4.6.7.8.2.3.4.6.7.8.2.3.4.6.7.8.2.3.4.6.7.8.2.3.4.6.7.8.2.3.4.6.7.8.2.3.4.6.7.8.2.3.4.6.7.8.2.3.4.6.7.8.2.3.4.6.7.8.2.3.4.6.7.8.2.3.4.6.7.8.2.3.4.6.7.8.2.3.4.6.7.8.2.3.4.6.7.8.2.3.4.6.7.8.2.3.4.6.7.8.2.3.4.6.7.8.2.3.4.6.7.8.2.3.4.6.7.8.2.3.4.6.7.8.2.3.4.6.7.8.2.3.4.6.7.8.2.3.4.6.7.8.2.3.4.6.7.8.2.3.4.6.7.8.2.3.4.6.7.8.2.3.4.6.7.8.2.3.4.6.7.8.2.3.4.6.7.8.2.3.4.6.7.8.2.3.4.6.7.8.2.3.4.6.7.8.2.3.4.6.7.8.2.3.4.6.7.8.2.3.4.6.7.8.2.3.4.6.7.8.2.3.4.6.7.8.2.3.4.6.7.8.2.3.4.6.7.8.2.3.4.6.7.8.2.3.4.6.7.8.1.2.3.4.5.6 8.1-2.6 17.4-8.6 25-16.2z"/><path class="st26" d="M83.8 95.6L83 99c-2.5 1-4.5 1.7-6 2.3-1.5.5-3.2.8-5.2.8-3.1 0-5.4-.7-7.1-2.2-1.7-1.5-2.5-3.4-2.5-5.7 0-.9.1-1.8.2-2.7.1-.9.3-2 .6-3.2l3-11.2c.3-1.1.5-2.1.7-3 .2-1 .3-1.8.3-2.6 0-1.4-.3-2.4-.9-3-.6-.5-1.7-.8-3.4-.8-.8 0-1.7.1-2.5.4-.9.3-1.6.5-2.2.7l.8-3.4c2.1-.9 4.1-1.6 5.9-2.2 1.9-.6 3.7-.9 5.4-.9 3 0 5.4.7 7 2.2 1.6 1.5 2.5 3.4 2.5 5.7 0 .5-.1 1.3-.2 2.6-.1 1.2-.3 2.3-.6 3.4l-3.1 11.1c-.3.9-.5 1.9-.7 3.1-.2 1.2-.3 2-.3 2.6 0 1.5.3 2.5 1 3s1.8.8 3.4.8c.8 0 1.6-.1 2.6-.4 1-.4 1.7-.6 2.1-.8zm.9-46.7c0 1.9-.7 3.6-2.2 5-1.5 1.4-3.2 2-5.3 2-2.1 0-3.8-.7-5.3-2-1.5-1.4-2.2-3-2.2-5 0-1.9.7-3.6 2.2-5 1.5-1.4 3.3-2.1 5.3-2.1 2.1 0 3.8.7 5.3 2.1 1.4 1.4 2.2 3.1 2.2 5zM41.4 29.5c-.2.9-.7 1.7-1.5 2.3-2.2 1.8-4.8 1.1-6.5-1s-1.8-4.8.4-6.6c2.1-1.7 4.8-1.1 6.5 1 1 1.2 1.4 2.5 1.2 3.7l1.8-.1v.5l-1.9.2zm-.5-.5c.1-1.1-.3-2.4-1.1-3.4-1.5-1.8-3.9-2.5-5.7-1-1.9 1.5-1.7 4-.2 5.8 1.5 1.8 3.9 2.5 5.7 1 .7-.5 1.1-1.2 1.2-1.9l-1.7.1v-.5l1.8-.1zM39.8 20l2.8 4.8c.6 1 1.9 2.9 4.2 1.5 2-1.1 2-2.7.9-4.5L45 17.1l.5-.3 2.8 4.8c1.1 1.9 1.3 3.8-1.1 5.2-2.9 1.7-4.4-.6-5-1.7l-2.8-4.8.4-.3zM47.7 15.8l.5-.2 3.9 8.4-.5.2-3.9-8.4zM58.1 14.8c-.7-1.4-2.3-1.8-3.8-1.3-2.3.8-3 3.1-2.2 5.4.8 2.2 2.8 3.7 5.1 2.9 1.7-.6 2.5-2.6 2-4.2l.5-.2c.5 2.2-.5 4.2-2.4 4.9-2.6.9-4.9-.6-5.8-3.2s0-5.1 2.6-6c3.1-1.1 4.4 1.5 4.5 1.6l-.5.1zM60.1 11.4l.6-.1 1 5.3 4.8-6.3.7-.1-3.5 4.6 5.4 4.5-.7.1-5.1-4.2-1.6 2.1.6 3.2-.6.1-1.6-9.2zM79.6 18.5c-.7.5-1.6.8-2.6.7-2.8-.1-4.4-2.3-4.3-5 .1-2.7 1.8-4.8 4.6-4.7 2.8.1 4.3 2.3 4.3 5 0 1.5-.6 2.8-1.5 3.6l1.4 1.1-.3.4-1.6-1.1zm0-.7c.9-.8 1.3-2 1.4-3.3.1-2.4-1.3-4.4-3.7-4.5-2.4-.1-3.9 1.9-4 4.3-.1 2.4 1.3 4.4 3.7 4.5.9 0 1.6-.2 2.2-.6l-1.4-1 .3-.4 1.5 1zM84.6 10.3l-1 5.5c-.2 1.1-.4 3.4 2.2 3.9 2.2.4 3.2-.8 3.6-2.8l1-5.5.6.1-1 5.5c-.4 2.2-1.5 3.7-4.3 3.2-3.2-.6-2.9-3.3-2.7-4.5l1-5.5.6.1zM96.8 22.6l-.2.5-6-2 3-8.8 5.9 2-.2.5-5.3-1.9-1.2 3.5 5 1.7-.2.5-5-1.7-1.3 3.9 5.5 1.8zM105.7 20.1c.6-1.5-.1-2.7-1.6-3.5-.9-.5-2.5-.7-3.2.6-.7 1.3.6 2.3 1.9 3.3 1.3 1 2.5 2.1 1.7 3.7-.9 1.7-2.8 1.5-4.1.9-1.9-1-3.1-2.6-2-4.7l.5.3c-1 1.8.1 3.2 1.8 4 1 .5 2.6.7 3.4-.7.7-1.4-.6-2.4-1.9-3.4-1.3-1-2.5-2-1.7-3.6s2.6-1.5 3.9-.8c1.7.9 2.7 2.3 1.9 4.2l-.6-.3zM108.4 19.2l.3-.4 5.9 3.9-.3.4-2.7-1.8-4.9 7.3-.5-.3 4.9-7.3-2.7-1.8zM115.6 23.5l.4.4-5.7 7.3-.4-.4 5.7-7.3zM114.2 34.9c-2-1.9-1.7-4.6.2-6.6s4.6-2.4 6.6-.4c2 1.9 1.7 4.6-.2 6.6s-4.6 2.4-6.6.4zm.4-.3c1.7 1.7 4.1 1.2 5.8-.5 1.7-1.7 2-4.1.3-5.8-1.7-1.7-4.2-1.2-5.8.5-1.7 1.7-2.1 4.1-.3 5.8zM125.6 33l.4.6-3.3 9.8 6.8-5.1.3.5-7.4 5.6-.4-.5 3.3-9.9-6.9 5.2-.3-.5 7.5-5.7zM125.4 46.8l.3.6-1.2.7-.3-.6 1.2-.7zm3.3-4.6c1.6-.9 3.2-.6 4.1 1 .7 1.2.6 2.6-.8 3.4-1 .5-1.7.3-2.5.1-.7-.3-1.6-.6-2.9.2l-.2-.4c1.2-.7 2.1-.6 2.9-.3.8.3 1.7.5 2.5.1 1.1-.6 1.1-1.8.6-2.7-.8-1.4-2.1-1.5-3.4-.8l-.3-.6zM137.4 54.2l.5 1.6-7.7 6.3-.5-1.7 2.1-1.6-1.1-3.5-2.6-.1-.5-1.6 9.8.6zm-5.5 1.2l.9 2.7 3.4-2.6-4.3-.1zM133.5 63.3c-1.4.2-1.8 1.4-1.6 2.6.2 1.4 1 1.8 1.7 1.7.7-.1.9-.5 1-.9.1-.7.2-1.5.3-2.9.2-1.6 1-2.3 2-2.4 1.8-.3 3 1.2 3.3 2.9.3 1.9-.4 3.7-2.3 4l-.3-1.6c1.2-.3 1.5-1.1 1.3-2.2-.1-.7-.6-1.6-1.5-1.5-.6.1-.9.6-1 1.3 0 .1-.2 2.3-.3 2.8-.2 1.3-1.1 2-2 2.2-2.1.3-3.2-1.3-3.5-3.2-.4-2.1.4-3.9 2.6-4.4l.3 1.6zM140.8 70.6v1.6l-4.2.1 4.3 4.1v2l-3.8-3.6-5.5 4.1v-2l4.4-3.1-1.3-1.3-3.1.1V71l9.2-.4zM140.3 84.7l-.3 1.6-5.3-1.1c-1.2-.2-2.7-.5-3.1 1.6-.4 2.1 1 2.4 2.2 2.7l5.3 1.1-.3 1.6L133 91c-2.3-.5-3.2-2.2-2.7-4.4s1.9-3.5 4.3-3l5.7 1.1zM131.8 94c-1.3-.5-2.2.3-2.7 1.5-.5 1.3 0 2.1.6 2.3.7.2 1.1 0 1.3-.3.5-.5.9-1.3 1.7-2.3 1-1.3 2-1.4 2.9-1.1 1.7.6 2 2.6 1.4 4.1-.7 1.8-2.2 3-4 2.3l.6-1.5c1.1.3 1.8-.3 2.2-1.3.3-.7.3-1.7-.5-2-.6-.2-1.1.1-1.5.6-.1.1-1.3 1.9-1.6 2.3-.8 1-1.9 1.2-2.8.9-2-.7-2.1-2.7-1.4-4.5.7-2 2.3-3.2 4.5-2.5l-.7 1.5z"/></svg>