<svg version="1.1" id="Layer_1" xmlns="http://www.w3.org/2000/svg" x="0" y="0" viewBox="0 0 217.8 130" xml:space="preserve"><style></style><path d="M5.1 98L0 85.8h5.7l2 7h.1l2-7h5.7L10.3 98v7.9H5.1V98zM22 85.4c5.3 0 7.1 2.9 7.1 10.4s-1.8 10.4-7.1 10.4-7.1-2.9-7.1-10.4 1.8-10.4 7.1-10.4zm0 17.3c1.6 0 1.8-1.5 1.8-6.9S23.6 89 22 89s-1.8 1.5-1.8 6.9.2 6.8 1.8 6.8zM36 85.8v14.4c0 1.9.6 2.4 1.6 2.4s1.6-.5 1.6-2.4V85.8h5.2V99c0 5.6-2.4 7.3-6.8 7.3s-6.8-1.7-6.8-7.3V85.8H36zM56.1 85.8h6.6l4.9 20H62l-.5-3.5h-4.2l-.5 3.5h-5.6l4.9-20zm3.4 4.1L58 98.4h2.9l-1.4-8.5zM76.2 91.6v-.5c0-1.2-.5-2.2-1.5-2.2-1.1 0-1.6.9-1.6 1.8 0 4 8.5 2 8.5 9.3 0 4.3-2.5 6.2-7.1 6.2-4.3 0-6.7-1.5-6.7-5.6v-.7h5v.5c0 1.7.7 2.3 1.7 2.3 1.1 0 1.7-.8 1.7-1.9 0-4-8.2-2-8.2-9.1 0-4 2.2-6.3 6.6-6.3 4.5 0 6.5 1.9 6.5 6.2h-4.9zM83.3 85.8h5.2v7.7h.1l3.9-7.7H98l-5 8.7 5.7 11.3h-5.9l-3.1-7-1.1 1.7v5.3h-5.2v-20z"/><g><path d="M9.3 109.6H14l2 13.8h.1l1.4-13.8h5l-3.4 20h-5.7l-1.7-13.5h-.1l-1.7 13.5H4.2l-3.4-20h5l1.6 13.8h.1l1.8-13.8zM23.8 109.6h11.9v4.3H29v3.4h6.2v4.1H29v4h6.9v4.3H23.8v-20.1zM47.3 109.6h6.6l4.9 20h-5.6l-.5-3.5h-4.2l-.5 3.5h-5.6l4.9-20zm3.3 4.1l-1.5 8.5H52l-1.4-8.5zM59.6 109.6h5.8l3.4 12.3h.1v-12.3h4.9v20H68l-3.5-12.4h-.1v12.4h-4.9v-20zM84 115.4v-.5c0-1.2-.5-2.2-1.5-2.2-1.1 0-1.6.9-1.6 1.8 0 4 8.5 2 8.5 9.3 0 4.3-2.5 6.2-7.1 6.2-4.3 0-6.7-1.5-6.7-5.6v-.7h5v.5c0 1.7.7 2.3 1.7 2.3 1.1 0 1.7-.8 1.7-1.9 0-4-8.2-2-8.2-9.1 0-4 2.2-6.3 6.6-6.3 4.5 0 6.5 1.9 6.5 6.2H84zM98.6 109.6h4.7l2 13.8h.1l1.4-13.8h5l-3.4 20h-5.7l-1.7-13.5h-.1l-1.7 13.5h-5.7l-3.4-20h5l1.6 13.8h.1l1.8-13.8zM113.1 109.6H125v4.3h-6.6v3.4h6.2v4.1h-6.2v4h6.9v4.3h-12.1v-20.1zM127.1 109.6h8.2c4 0 5.5 2.2 5.5 5.3 0 2.7-1 4.4-3.4 4.8v.1c2.5.2 3.3 1.8 3.3 4.5v1.7c0 1 0 2.4.3 2.8.1.2.3.4.6.6v.3h-5.5c-.5-1.1-.5-3-.5-3.8v-1.3c0-2.3-.4-2.9-1.7-2.9h-1.4v8h-5.2v-20.1zm5.2 8.5h1c1.5 0 2.2-1 2.2-2.4 0-1.6-.6-2.3-2.2-2.3h-1v4.7z"/></g><g><path d="M216.2 33.4c-1.3-3.8-3.3-7.5-6.1-10.9-2.8-3.4-6.2-6.6-10.3-9.5-12-8.4-27.9-13-44.9-13s-33 4.6-44.9 13c-11.6 8.1-18 18.8-18 30.1 0 11.8 7.3 23.3 20 31.5l1.9 1.2 1.3.9-2.9 2.6c-2.9 2.7-4.5 6.2-4.5 10 0 5 2.7 9.4 6.9 11.9v-.1c0-5.2 2.2-10.1 5.8-13.5 2.3-2.2 5.2-3.9 8.6-4.7l.8-.2.8.2c3.3.9 6.7 1.7 10.1 2.2 1.1.2 2.2.3 3.3.5 1.9.2 3.8.4 5.7.5 1.7.1 3.4.1 5.1.1 3 0 6-.1 8.9-.4 13.6-1.3 26.2-5.6 36.1-12.5 11.6-8.1 18-18.8 18-30.1-.1-3.4-.7-6.6-1.7-9.8zm-75.1-16.2c3.8-3.3 8.3-5 13.6-5 5.2 0 9.6 1.6 13 4.7 3.3 3 5 6.6 5.1 11v.6c0 2.3-.5 4.5-1.4 6.6-.9 2.1-2 3.7-3.2 4.8-1.2 1.1-3.8 3.1-7.7 6-1.1.8-1.8 1.6-2.1 2.3-.3.8-.5 2.4-.5 4.9h-8v-5.6c0-1.9.4-3.3 1.1-4.4.8-1.1 2.4-2.6 5-4.6 3.6-2.8 5.6-5.7 5.8-8.8V29c0-2.5-.8-4.5-2.3-6-1.5-1.5-3.5-2.2-6-2.2-5.7 0-9 3.9-10 11.8l-9-1.6c.7-5.8 2.8-10.4 6.6-13.8zm18.5 52.2h-9.7V59.1h9.7v10.3z" fill="#60c4e4"/></g></svg>