<svg xmlns="http://www.w3.org/2000/svg" viewBox="0 0 127.8 88.4"><style>.st172{fill:#ffb800}.st296{fill:#2e2459}.st297{fill:#51e0e0}</style><g id="Layer_1"><path d="M110.7 0H22.2c-5 0-9.1 4.1-9.1 9.1V70c0 5 4.1 9.1 9.1 9.1h67.6l15.8 9c.6.4 1.4.2 1.9-.2.4-.3.6-.7.6-1.3V79h2.7c5 0 9.1-4.1 9.1-9.1V9.1c-.1-5-4.2-9.1-9.2-9.1z" fill="#423275"/><path class="st296" d="M33.1 10.4c4.5-.2 7 2.5 7.3 7.4l.1 1-4.3.2-.1-1.3c-.2-2.2-1-3-2.5-2.9-1.5.1-2.2 1-2.1 3.2.2 2.2 1.2 3.8 4.4 6.4 4 3.3 5.4 5.7 5.6 9.2.3 4.7-1.8 7.6-6.2 7.8-4.4.2-6.9-2.4-7.2-7.1l-.1-1.8 4.3-.2.2 2.1c.2 2.1 1.1 2.8 2.5 2.8 1.4-.1 2.3-.9 2.1-3-.2-2.2-1.2-3.8-4.3-6.3-4-3.3-5.4-5.8-5.7-9.3-.5-5 1.6-7.9 6-8.2zM54.1 18.5l.4 3.4c.5 4.1-1.1 6.6-4.9 7.1l-1.8.2 1.2 9.5-3.8.5-3.4-25.7 5.7-.7c3.9-.5 6.1 1.5 6.6 5.7zm-8-1.7l1.1 8.8 1.8-.2c1.2-.2 1.8-.8 1.6-2.7l-.5-3.9c-.2-1.9-1-2.4-2.2-2.2l-1.8.2zM60.7 23.7l6.7.7-.4 4.1-6.7-.7-.6 8.2 8.3.8-.4 4-13.1-1.3 2.4-28.7 13.5 1.3-.4 4.2-8.5-.8-.8 8.2zM86.1 42.7h-4.7l-.4-5.6-5.7-.1-1.2 5.5h-4.3l6.9-31.2 7 .1 2.4 31.3zm-9.9-9.8h4.5L79.6 17h-.1l-3.3 15.9zM94.4 30.6l-1.7 2.3-1.5 7.8-3.9-.3 4.8-25.9 4 .3L94 26.1h.1l7.3-11 4 .3-7.8 11.3 2.7 14.6-4-.3-1.9-10.4z"/><g><path class="st296" d="M30.4 46.8l11.1-.7.3 3.4-3.8.2 1.7 19.6-3.5.2-1.8-19.6-3.7.2-.3-3.3zM44.7 49.9c.4-4 2.6-6 6.3-5.6 3.7.4 5.6 2.9 5.2 6.9l-1.3 12.6c-.4 3.8-2.6 5.8-6.2 5.4-3.7-.4-5.5-2.8-5.1-6.6l1.1-12.7zm2.6 13.3c-.2 1.7.5 2.4 1.7 2.6 1.2.1 2-.4 2.2-2.1l1.3-13.1c.2-1.8-.5-2.5-1.7-2.7-1.2-.1-2 .5-2.2 2.2l-1.3 13.1zM66.9 46.5L68.1 65c.1 1.7.9 2.2 2 2.1 1.2-.1 1.9-.7 1.8-2.4l-1.2-18.5 3.5-.3 1.1 18.3c.2 3.8-1.5 6-5.1 6.3-3.6.3-5.6-1.7-5.9-5.5L63 46.8l3.9-.3zM85 45.7c4.1.3 6 3 5.6 7.4l-.1.9-4-.3.1-1.1c.2-2-.5-2.8-1.9-2.9-1.3-.1-2.2.6-2.3 2.6-.2 2 .5 3.5 3.1 6.2 3.2 3.4 4.1 5.7 3.8 8.7-.4 4.2-2.7 6.5-6.8 6.2-4-.3-5.9-2.8-5.6-7.1l.1-1.6 3.9.3-.2 1.9c-.2 1.9.6 2.6 1.9 2.7 1.3.1 2.2-.5 2.4-2.4.2-1.9-.5-3.4-3-6.1-3.2-3.4-4.1-5.7-3.9-8.8.5-4.5 2.8-6.9 6.9-6.6zM92.4 64l.9-6.9V57l1.5-8.2c.1-.8.9-1.3 1.7-1.2l.8.1c.8.1 1.3.9 1.1 1.7l-1.6 8.2v.1l-1.7 6.8c-.2.7-.9 1.2-1.6 1.1-.7-.2-1.2-.9-1.1-1.6zm2.3 4.8l-.1.6c-.1.8-.9 1.3-1.6 1.2l-.6-.1c-.8-.1-1.3-.8-1.1-1.6l.1-.6c.1-.8.9-1.3 1.6-1.2l.6.1c.7.1 1.2.8 1.1 1.6z"/></g><g><path class="st297" d="M33.1 8.7c4.5-.2 7 2.5 7.3 7.4l.1 1-3.2.2c-.6 0-1.1-.4-1.1-1v-.2c-.2-2.2-1-3-2.5-2.9-1.5.1-2.2 1-2.1 3.2.2 2.2 1.2 3.8 4.4 6.4 4 3.3 5.4 5.7 5.6 9.2.3 4.7-1.8 7.6-6.2 7.8-4.4.2-6.9-2.4-7.2-7.1l-.2-.9c0-.6.4-1.1 1-1.2l2.1-.1c.6 0 1.1.4 1.1 1l.1 1.1c.2 2.1 1.1 2.8 2.5 2.8 1.4-.1 2.3-.9 2.1-3-.2-2.2-1.2-3.8-4.3-6.3-4-3.3-5.4-5.8-5.7-9.3-.3-4.9 1.8-7.9 6.2-8.1zM54.1 16.7l.4 3.4c.5 4.1-1.1 6.6-4.9 7.1l-.7.1c-.6.1-1 .6-.9 1.2l1 7.3c.1.6-.3 1.1-.9 1.2l-1.6.2c-.6.1-1.1-.3-1.2-.9l-3.2-23.5c-.1-.6.3-1.1.9-1.2l4.7-.6c3.7-.5 5.9 1.5 6.4 5.7zm-7.9-.6l.9 6.6c.1.6.6 1 1.2.9l.7-.1c1.2-.2 1.8-.8 1.6-2.7l-.4-3.8c-.2-1.9-1-2.4-2.2-2.2l-.8.1c-.6 0-1 .6-1 1.2zM61.8 22l4.6.4c.6.1 1 .6 1 1.2l-.2 1.9c-.1.6-.6 1-1.2 1l-4.5-.4c-.6-.1-1.1.4-1.2 1l-.5 6.1c-.1.6.4 1.1 1 1.2l6.2.6c.6.1 1 .6 1 1.2l-.3 1.8c-.1.6-.6 1-1.2 1l-11-1.1c-.6-.1-1-.6-1-1.2l2.2-26.5c.1-.6.6-1.1 1.2-1l11.3 1.1c.6.1 1 .6 1 1.2l-.2 2c-.1.6-.6 1-1.2 1l-6.3-.6c-.6-.1-1.1.4-1.2 1l-.5 5.9c0 .6.4 1.1 1 1.2zM84.9 41h-2.5c-.6 0-1-.4-1.1-1l-.2-3.5c0-.6-.5-1-1.1-1h-3.8c-.5 0-1 .4-1.1.9l-.8 3.6c-.1.5-.6.9-1.1.9h-2c-.7 0-1.2-.6-1.1-1.3l6.4-29.1c.1-.5.6-.9 1.1-.9h5.1c.6 0 1 .4 1.1 1L86 39.8c.1.6-.4 1.2-1.1 1.2zm-7.4-9.8h2c.6 0 1.1-.5 1.1-1.2l-1-14.7h-.1l-3.1 14.6c-.1.6.4 1.2 1.1 1.3zM92.9 30.9c-.1.1-.2.3-.2.4l-1.2 6.6c-.1.5-.6.9-1.2.9l-1.7-.1c-.6 0-1.1-.6-1-1.3L92 13.6c.1-.5.6-.9 1.2-.9l1.8.1c.6.1 1.1.6 1 1.3l-2 10.3h.1L101 14c.2-.3.6-.5 1-.5l1.5.1c.8.1 1.3 1 .8 1.7l-6.4 9.3c-.2.2-.2.5-.2.8l2.3 12.8c.1.7-.4 1.3-1.2 1.3l-1.7-.1c-.5 0-.9-.4-1-.9l-1.3-7.1c-.1-1-1.4-1.3-1.9-.5z"/><g><path class="st297" d="M31.5 45l8.9-.6c.6 0 1.1.4 1.2 1l.1 1.2c.1.6-.4 1.1-1 1.2l-1.5.1c-.6 0-1.1.6-1 1.2l1.5 17.4c.1.6-.4 1.1-1 1.2l-1.3.1c-.6 0-1.1-.4-1.2-1l-1.6-17.5c-.1-.6-.6-1-1.2-1l-1.6.1c-.6 0-1.1-.4-1.2-1l-.1-1.2c-.1-.7.4-1.2 1-1.2zM44.7 48.1c.4-4 2.6-6 6.3-5.6 3.7.4 5.6 2.9 5.2 6.9L54.9 62c-.4 3.8-2.6 5.8-6.2 5.4-3.7-.4-5.5-2.8-5.1-6.6l1.1-12.7zm2.6 13.4c-.2 1.7.5 2.4 1.7 2.6 1.2.1 2-.4 2.2-2.1l1.3-13.1c.2-1.8-.5-2.5-1.7-2.7-1.2-.1-2 .5-2.2 2.2l-1.3 13.1zM65.8 44.8c.6 0 1.1.4 1.2 1l1.2 17.4c.1 1.7.9 2.2 2 2.1 1.2-.1 1.9-.7 1.8-2.4l-1.1-17.4c0-.6.4-1.1 1-1.2l1.4-.1c.6 0 1.1.4 1.2 1l1 17.2c.2 3.8-1.5 6-5.1 6.3-3.6.3-5.6-1.7-5.9-5.5l-1.2-17.1c0-.6.4-1.1 1-1.2l1.5-.1zM85 43.9c4.1.3 6 3 5.6 7.4l-.1.9-2.8-.2c-.6 0-1.1-.6-1-1.2.2-2-.5-2.8-1.9-2.9-1.3-.1-2.2.6-2.3 2.6-.2 2 .5 3.5 3.1 6.2 3.2 3.4 4.1 5.7 3.8 8.7-.4 4.2-2.7 6.5-6.8 6.2-4-.3-5.9-2.8-5.6-7.1v-.6c0-.6.6-1 1.2-1l1.8.1c.6 0 1.1.6 1 1.2l-.2.8c-.2 1.9.6 2.6 1.9 2.7 1.3.1 2.2-.5 2.4-2.4.2-1.9-.5-3.4-3-6.1-3.2-3.4-4.1-5.7-3.9-8.8.4-4.4 2.7-6.8 6.8-6.5zM92.4 62.2l.9-6.9v-.1l1.5-8.2c.1-.8.9-1.3 1.7-1.2l.8.1c.8.1 1.3.9 1.1 1.7l-1.6 8.2v.1l-1.7 6.8c-.2.7-.9 1.2-1.6 1.1-.7-.1-1.2-.8-1.1-1.6zm2.3 4.8l-.1.6c-.1.8-.9 1.3-1.6 1.2l-.6-.1c-.8-.1-1.3-.8-1.1-1.6l.1-.6c.1-.8.9-1.3 1.6-1.2l.6.1c.7.1 1.2.9 1.1 1.6z"/></g></g><g><path class="st172" d="M112.4 42.6s15.2 5 15.3 2.3c0 0 .2-3.4-.5-4.3-.7-.8-18.9.3-14.8 2zM105.6 48.9s6.8 10.2 8.2 8.7c0 0 1.7-2 1.7-2.8 0-.9-11.6-8.8-9.9-5.9zM108.6 35.2s15.8-2.3 14.7-4.4c0 0-1.4-2.7-2.4-3.1-1.1-.3-16.8 7.9-12.3 7.5z"/></g><g><path class="st172" d="M15.5 40.4S0 44.3 0 41.6c0 0 .1-3.4.8-4.2s18.9 1.7 14.7 3zM21.7 47.2s-7.6 9.7-8.8 8c0 0-1.6-2.1-1.5-3s12.3-7.8 10.3-5zM19.9 33.4S4.3 29.9 5.6 27.9c0 0 1.6-2.6 2.6-2.9 1.1-.3 16.1 9.1 11.7 8.4z"/></g></g></svg>