<svg xmlns="http://www.w3.org/2000/svg" viewBox="0 0 188.4 118.9"><style>.st0{fill:#fff}.st66{fill:#e29700}.st105{fill:#fed524}</style><g id="Layer_1"><path d="M113.9 29.1L19 31.4c-4.8.1-9.2 2-12.6 5-4.1 3.7-6.5 9-6.4 14.9L1 90c.2 6 3 11.3 7.4 14.8 3.5 2.7 7.8 4.3 12.6 4.2l81.8-2c.2 2.2 2.3 11.7 19.9 11.8.7 0 1.1-.7.7-1.3-1.2-1.9-3.1-5.8-3.4-11.4 8.7-2.1 15-10.1 14.8-19.4l-1-38.6c-.2-7.8-5-14.5-11.8-17.4-2.5-1.1-5.2-1.6-8.1-1.6z" fill="#ff3131"/><path d="M134.8 86.7l-1-38.6c0-.3 0-.6-.1-.9-6.6 3.4-11.4 9.8-12.6 17.7l-3 20.7c-1.2.2-2.3.7-3 1.6-.6.7-1.1 1.6-1.2 2.6l-.4 2.6c-.2 1.7.4 3.3 1.6 4.4.7.6 1.6 1.1 2.6 1.2l2.6.4 9.9 1.4c3-3.4 4.8-8.1 4.6-13.1z" fill="#e22b2b"/><path class="st0" d="M31 48.3c-.1.2-.2.4-.4.5-.1.1-.3.1-.5.1s-.4-.1-.7-.2c-.3-.1-.6-.3-.9-.5-.3-.2-.7-.3-1.2-.5-.5-.1-1-.2-1.6-.2-.6 0-1 .1-1.5.2-.4.1-.8.3-1 .6-.3.2-.5.5-.6.9-.1.3-.2.7-.2 1.1 0 .5.2.9.5 1.3.3.3.7.6 1.2.8.5.2 1 .4 1.6.6l1.8.6c.6.2 1.2.4 1.9.7.6.3 1.1.6 1.6 1s.9.9 1.2 1.6c.3.6.5 1.4.5 2.3 0 1-.1 1.9-.4 2.8-.3.9-.8 1.6-1.4 2.3-.6.6-1.4 1.2-2.3 1.6-.9.4-2 .6-3.2.6-.7 0-1.4 0-2-.2-.7-.1-1.3-.3-1.9-.5-.6-.2-1.2-.5-1.7-.9-.5-.3-1-.7-1.5-1.1l1.1-2c.1-.1.2-.3.4-.4.2-.1.3-.1.5-.2.2 0 .5.1.8.3.3.2.6.4 1 .7.4.2.9.5 1.4.7.5.2 1.2.3 1.9.3 1.1 0 2-.3 2.6-.9.6-.6.9-1.3.9-2.4 0-.6-.2-1-.5-1.4-.3-.4-.7-.6-1.2-.9-.5-.2-1-.4-1.6-.6-.6-.2-1.2-.3-1.8-.5-.6-.2-1.2-.4-1.8-.7-.6-.3-1.1-.6-1.6-1.1-.5-.4-.9-1-1.2-1.7-.3-.7-.5-1.5-.5-2.5 0-.8.1-1.6.4-2.3.3-.8.7-1.4 1.3-2 .6-.6 1.3-1.1 2.2-1.4.9-.4 1.9-.6 3-.6 1.3 0 2.5.1 3.6.5s2 .9 2.8 1.6l-1 2zM39.8 58.2l.2 7.6-4 .1-.5-21.7 7.1-.2c1.4 0 2.7.1 3.8.4 1.1.3 2 .8 2.7 1.4.7.6 1.2 1.3 1.6 2.2.3.8.5 1.8.6 2.8 0 1-.1 2-.5 2.9-.3.9-.8 1.6-1.5 2.3-.7.6-1.5 1.2-2.6 1.5-1 .4-2.3.6-3.7.6l-3.2.1zm-.1-3.2l3-.1c.7 0 1.4-.1 1.9-.3.5-.2 1-.5 1.3-.8.4-.4.6-.8.8-1.3.2-.5.2-1.1.2-1.7 0-.6-.1-1.1-.3-1.6-.2-.5-.5-.9-.8-1.2-.4-.3-.8-.6-1.4-.7-.6-.2-1.2-.2-1.9-.2l-3 .1.2 7.8zM67.7 43.5l.1 3.2-9.6.2.1 6 7.6-.2.1 3.1-7.6.2.1 6.1 9.6-.2.1 3.2-13.7.3-.5-21.7 13.7-.2zM90.7 64.7l-3.1.1c-.3 0-.6-.1-.9-.2-.2-.2-.4-.4-.5-.6l-1.7-4.4-9 .2-1.5 4.4c-.1.2-.2.4-.5.6-.2.2-.5.3-.9.3l-3.1.1 8-21.9 4.1-.1 9.1 21.5zm-14.2-7.9l6.9-.2-2.8-7.2c-.1-.3-.3-.7-.4-1.1-.2-.4-.3-.9-.5-1.4-.1.5-.3 1-.4 1.4-.1.4-.2.8-.4 1.2l-2.4 7.3zM96.9 52h.9c.4 0 .7-.1.9-.2.2-.1.5-.3.6-.5l5.8-7.7c.2-.3.5-.6.8-.7.3-.1.6-.2 1-.2l3.5-.1-7.1 9.2c-.2.3-.4.5-.6.7-.2.2-.4.4-.7.5.3.1.6.3.9.5.3.2.5.5.8.8l7.7 10-3.6.1c-.5 0-.8 0-1.1-.2-.2-.1-.4-.3-.6-.6l-6.3-7.9c-.2-.3-.4-.4-.7-.5-.1-.2-.4-.2-.9-.2h-1.3l.2 9.5-4 .1-.5-21.6 4-.1.3 9.1zM35.2 74.3l.1 3.3-6.5.1.4 18.4-4 .1-.4-18.4-6.6.2-.1-3.3 17.1-.4zM57.6 84.6c0 1.6-.2 3.1-.7 4.4-.5 1.4-1.2 2.6-2.2 3.6-.9 1-2.1 1.8-3.4 2.4-1.3.6-2.8.9-4.5.9-1.6 0-3.1-.2-4.5-.7-1.4-.5-2.5-1.3-3.5-2.2-1-1-1.8-2.1-2.3-3.5-.6-1.3-.9-2.8-.9-4.4 0-1.6.2-3.1.7-4.4.5-1.4 1.2-2.6 2.2-3.6.9-1 2.1-1.8 3.4-2.4 1.3-.6 2.8-.9 4.5-.9 1.6 0 3.1.2 4.5.7 1.4.5 2.5 1.3 3.5 2.2 1 1 1.8 2.1 2.3 3.5.6 1.4.9 2.8.9 4.4zm-4.1.1c0-1.2-.2-2.3-.5-3.2-.3-.9-.8-1.7-1.4-2.4-.6-.6-1.3-1.1-2.2-1.5-.9-.3-1.8-.5-2.9-.5-1.1 0-2 .2-2.9.6-.8.4-1.6.9-2.1 1.6-.6.7-1 1.5-1.3 2.4-.3 1-.4 2-.4 3.2 0 1.2.2 2.3.5 3.2.3.9.8 1.7 1.4 2.4.6.6 1.3 1.1 2.2 1.5.9.3 1.8.5 2.9.5 1.1 0 2-.2 2.8-.6.8-.4 1.5-.9 2.1-1.6.6-.7 1-1.5 1.3-2.4.3-.9.5-2 .5-3.2zM75.4 91.8c.8 0 1.5-.2 2.1-.4.6-.3 1.1-.6 1.5-1.1.4-.5.7-1.1.9-1.7.2-.7.3-1.4.3-2.3l-.3-13 4-.1.3 13c0 1.3-.2 2.5-.5 3.6-.4 1.1-1 2.1-1.7 2.9-.8.8-1.7 1.5-2.8 1.9-1.1.5-2.3.7-3.7.7-1.4 0-2.6-.2-3.8-.6-1.1-.4-2.1-1-2.9-1.8-.8-.8-1.4-1.7-1.8-2.8-.4-1.1-.7-2.3-.7-3.6l-.3-13 4-.1.3 13c0 .8.1 1.6.4 2.2.2.7.6 1.2 1 1.7s1 .8 1.6 1.1c.7.3 1.4.4 2.1.4zM99.8 76.8c-.1.2-.2.4-.4.5-.1.1-.3.1-.5.1s-.4-.1-.7-.2c-.3-.1-.6-.3-.9-.5-.3-.2-.7-.3-1.2-.5-.5-.1-1-.2-1.6-.2-.6 0-1 .1-1.5.2-.4.1-.8.3-1 .6-.3.2-.5.5-.6.9-.1.3-.2.7-.2 1.1 0 .5.2.9.5 1.3.3.3.7.6 1.2.8.5.2 1 .4 1.6.6l1.8.6c.6.2 1.2.4 1.9.7.6.3 1.1.6 1.6 1s.9.9 1.2 1.6c.3.6.5 1.4.5 2.3 0 1-.1 1.9-.4 2.8-.3.9-.8 1.6-1.4 2.3-.6.6-1.4 1.2-2.3 1.5-.9.4-2 .6-3.2.6-.7 0-1.4 0-2-.2-.7-.1-1.3-.3-1.9-.5-.6-.2-1.2-.5-1.7-.9-.5-.3-1-.7-1.5-1.1l1.1-2c.1-.1.2-.3.4-.4.2-.1.3-.1.5-.2.2 0 .5.1.8.3.3.2.6.4 1 .7.4.2.9.5 1.4.7.5.2 1.2.3 1.9.3 1.1 0 2-.3 2.7-.9.6-.6.9-1.3.9-2.4 0-.6-.2-1-.5-1.4-.3-.4-.7-.6-1.2-.9-.5-.2-1-.4-1.6-.6-.6-.2-1.2-.3-1.8-.5-.6-.2-1.2-.4-1.8-.7-.6-.3-1.1-.6-1.6-1.1-.5-.4-.9-1-1.2-1.7-.3-.7-.5-1.5-.5-2.5 0-.8.1-1.6.4-2.3.3-.8.7-1.4 1.3-2 .6-.6 1.3-1.1 2.2-1.4.9-.4 1.9-.6 3-.6 1.3 0 2.5.1 3.5.5 1.1.4 2 .9 2.8 1.6l-1 2.1zM105.6 92.4c0-.3 0-.6.2-.9.1-.3.3-.5.5-.7.2-.2.4-.4.7-.5.3-.1.6-.2.9-.2.3 0 .6 0 .9.2.3.1.5.3.7.5.2.2.4.4.5.7.1.3.2.6.2.9 0 .3 0 .6-.2.9-.1.3-.3.5-.5.7-.2.2-.4.4-.7.5-.3.1-.6.2-.9.2-.3 0-.6 0-.9-.2-.3-.1-.5-.3-.7-.5-.2-.2-.4-.4-.5-.7-.1-.3-.2-.6-.2-.9zm3.6-19.7l.2 8.6c0 .9 0 1.8-.1 2.7-.1.9-.2 1.8-.3 2.8l-2.5.1c-.2-1-.3-1.9-.4-2.8-.1-.9-.2-1.8-.2-2.7l-.2-8.6 3.5-.1z"/><g><path d="M156.2.1c-2.5-.4-4.8.5-6.5 2-1.4 1.3-2.3 3.2-2.4 5.3L146.1 35c0 .6.1 1.2.3 1.8.6 1.7 2.1 3 4 3.3H150.7c1.7.2 3.3-.4 4.4-1.6.5-.6.9-1.3 1.1-2.1l6.6-26.8c.6-2.4 0-4.8-1.4-6.6-1.3-1.5-3.1-2.6-5.2-2.9z" fill="#292e3d"/><path class="st66" d="M155 48.8l-11.4-1.7 1-6.6c.2-1.2 1-2.1 2.1-2.4.4-.1.9-.2 1.3-.1l5.5.8c.7.1 1.3.4 1.7.9.6.6.9 1.6.8 2.5l-1 6.6z"/><path d="M161.4 102.8L122 97.1c-2.1-.3-3.6-2.3-3.3-4.4l4.2-29.1c1.2-8.4 6.7-15.1 13.9-18.3 4-1.8 8.5-2.5 13.1-1.8 7.2 1 13.2 5.2 16.7 10.9 2.9 4.6 4.2 10.3 3.4 16.1l-4.2 29.1c-.3 2-2.2 3.5-4.4 3.2z" fill="#fc0"/><circle class="st66" cx="138.9" cy="99.5" r="7.7"/><path d="M164 103.2l-44.5-6.5c-1-.1-1.9-.6-2.6-1.2-1.2-1.1-1.8-2.7-1.6-4.4l.4-2.6c.1-1 .6-1.9 1.2-2.6 1.1-1.2 2.7-1.8 4.4-1.6l44.5 6.5c1.4.2 2.5.9 3.3 2s1.1 2.3.9 3.7l-.4 2.6c-.3 2-1.8 3.6-3.7 4.1-.6 0-1.3.1-1.9 0z" fill="#ffd41f"/></g><g><path class="st105" d="M174.2 47.4c-.2 0-.3.1-.4.3-.4.4-.3 1 .1 1.4 8.2 7.5 4.6 15.5 4.5 15.5-.2.5 0 1 .5 1.3.5.2 1 0 1.3-.5 0-.1 4.2-9.3-5-17.8-.3-.2-.7-.3-1-.2zM180.6 43.3c-.1 0-.3.1-.4.2-.4.4-.4 1-.1 1.4 9 10 5.8 19.9 5.8 20-.2.5.1 1 .6 1.2.5.2 1-.1 1.2-.6.2-.4 3.6-11-6.2-21.9-.2-.3-.6-.4-.9-.3z"/></g><g><path class="st105" d="M119.1 42c.1.2.2.3.3.4.4.3 1 .2 1.3-.2 6.5-9 14.8-6.5 14.9-6.4.5.2 1-.1 1.2-.6.2-.5-.1-1-.6-1.2-.1 0-9.7-3-17 7.1-.2.3-.3.6-.1.9zM114.2 36.2c.1.1.1.2.3.3.4.3 1 .3 1.3-.1 8.8-10.2 19-8.2 19.1-8.2.5.1 1-.2 1.1-.7.1-.5-.2-1-.7-1.1-.5-.1-11.3-2.2-20.9 8.8-.3.3-.4.7-.2 1z"/></g><g><path class="st0" d="M124.1 78.1c-.5 0-.8-.4-.8-.8.5-8 3.2-26.9 17.7-31.4.1 0 .2 0 .2-.1.3-.2.7-.1 1 .2.3.3.2.8-.1 1.1-.1.1-.3.2-.6.2-13.6 4.1-16.1 22.3-16.6 29.9 0 .6-.3.9-.8.9z"/></g></g></svg>