<svg xmlns="http://www.w3.org/2000/svg" viewBox="0 0 164.5 120.3"><style>.st0{fill:#fff}.st170{fill:#00cbbe}.st171{fill:#f35850}.st172{fill:#ffb800}.st173{fill:#00baa8}.st175{fill:#e24844}</style><g id="Layer_1"><path class="st170" d="M5.6 34.9c0-.2 0-.3-.1-.5-.3-.6-.4-1.3-.3-1.9 0-.2 0-.5-.1-.7v-.4c.1-.1.1-.4-.1-.6-.4-.6-.2-1.3-.3-1.9 0-.2 0-.4-.1-.6-.2-.8-.7-1.6-.5-2.4.1-.5-.1-.9-.3-1.3-.1-.2-.2-.4-.1-.7.1-.2 0-.6 0-.8 0-.3.1-.6 0-.9-.1-.1 0-.4-.1-.7 0-.3-.1-.7 0-1 0-.4-.2-.7-.3-1.1V19c.2-.5 0-1.1-.2-1.6-.1-.4-.2-.8-.3-1.4 0-.4.2-.8-.2-1.1v-.1c.3-.5-.2-.8-.2-1.3-.1-.3-.1-.6-.1-.9-.1-.5-.1-1-.1-1.4 0-.2-.1-.5-.2-.6.1-.2.2-.2.4-.2h4.2c.4 0 .7.3 1.1.1.3-.1.6-.3.9-.4.4.2.7.4 1.2.7.1.2.1.5.1.9 0 .1 0 .2.1.3.5.4.5.8.4 1.3-.1.5.1.7.4.9.1.6 0 1.1 0 1.7 0 .5.4.8.3 1.3 0 .4.3.7.2 1.2v.1c.4.4.3.9.3 1.4 0 .2.1.5.2.6.3.3.4.7.4 1.2 0 .2 0 .5.1.7.2.7.5 1.4.2 2.2 0 .2 0 .5.1.7.2.3.4.5.2.8v.2c.6.2.3.7.4 1.2 0 .2.1.4.1.7.1.2.2.5.1.7-.1.4.2.7.1 1.1-.1.5.2.7.2 1.2 0 .4.3.4.7.5.1-.2.1-.4.2-.6 0-.5-.2-1 .3-1.3.1-.1 0-.4 0-.6 0-.3 0-.6.1-.9.2-.4.5-.7.4-1.1V27c.5-.5.3-1 .1-1.6.5-.5.6-1.2.9-1.7v-.4c0-.2 0-.6-.1-.8.1-.1.3-.3.6-.5 0-.4 0-.8.1-1.3 0-.3.4-.7.2-1.1.4-.4 0-1 .5-1.3-.2-.7.6-1.3.3-2 0-.1.1-.3.2-.4.1-.1.1-.3 0-.5v-.3c.4-.7.3-1.4.3-2.1 0-.5 0-.9.4-1.2 0 0 0-.2.1-.2.2-.3-.3-.6 0-.8.3-.1 0-.4.2-.7.1 0 .3 0 .5-.1.4-.2.9-.6 1.4-.5.5.2.9-.1 1.4 0 .4.1.7-.2 1.2 0 0 0 .3 0 .4-.1.2-.1.3-.1.5-.1.4 0 .7 0 1.1-.1.4 0 .7-.1 1.1-.1.3 0 .7.1.8.5 0 .4.4.7.3 1.2.6.6.3 1.4.9 2.1.3.4.3.9.5 1.4.2.8.6 1.5.9 2.2 0 .1 0 .2.1.4.2.3-.2.7.1.9.2.2.2.5.3.7.2.3.4.6.4.9.2 1 .7 1.9.7 3 0 .1.1.3.2.4 0 .1.1.1.1.2-.2.7.3 1.4.6 2.1 0 .2.1.4.1.6 0 .2 0 .4.2.7.1 0 .1.2.1.2-.2.4 0 .8.1 1.2 0 .2.3.5.1.7-.1.4.3.5.4.7 0 .1 0 .3.1.4 0 .3 0 .6.2.8v.3c-.1.3-.1.6 0 .7.2.3.3.5.2.9 0 0 0 .2.1.2.3.2-.1.4 0 .7.1 0 .2.1.4.3v.5c0 .2.1.4.4.4.4-.7.4-1.6.6-2.4 0-.2.1-.4.2-.6.1 0 .1 0 .1-.1 0-.3-.3-.7.1-1 .3-.3.1-.7.3-1 0-.1.1-.3 0-.4-.2-.4 0-.7.1-1.1.1-.5.4-.9.3-1.5.2-.4.4-.7.4-1.2 0-.1-.1-.1-.3-.3.3-.3.6-.6.5-1.1 0-.1.1-.3.1-.5s.2-.5.1-.8v-.3c.2-.4.4-.8.3-1.3-.2-.5 0-.9.2-1.3.2-.3.2-.5.2-.9 0-.3 0-.7.4-.9.2-.3.3-.8.1-1.2 0-.3-.1-.7.3-.9 0 0 .1-.2.1-.3 0-.4.3-.7.1-1.1-.1-.4-.2-.8.3-1.1 0-.6.5-1.2.1-1.8-.1-.3 0-.7 0-1 .1-.4.2-.7.3-1.1h1.4c.3 0 .7-.2 1.1.2.8 0 1.7.1 2.6.3.2 0 .4 0 .7.1.1.1.4 0 .6 0 .2 0 .6-.1.7 0 .6.3 1 .1 1.5 0 .1 0 .2 0 .4-.1.4 0 .7.2.7.7 0 .4-.1.8-.1 1.3v.3c.2.4 0 .8-.1 1.2-.1.2-.3.5-.2.7.3.5 0 1.1.1 1.5v.3c-.3.9-.2 1.8-.5 2.7-.2.6-.3 1.3-.3 1.9 0 .1-.1.2-.2.3-.1.4-.3.7-.3 1.1 0 .6-.2 1.2-.4 1.8-.3.6-.5 1.2-.5 1.8 0 .2-.1.3-.2.4-.1.2-.3.4-.4.6-.1.6 0 1.2-.2 1.7s-.3 1.1-.3 1.6c0 .2 0 .5-.2.7 0 .1-.1.2-.1.4.1.5-.2.9-.3 1.4 0 .1-.1.2 0 .3.1.2 0 .3 0 .4-.2.2-.2.4-.3.7-.1.7-.1 1.4-.6 2-.1.1 0 .4 0 .6 0 .3-.2.6-.5.7 0 .1.1.4.1.6v.4c-.4.2-.3.6-.4.9-.1.6-.5 1-.6 1.6v.8c-.1.7-.2 1.4-.2 2.1 0 .1-.1.2-.1.4-.1.4-.3.7-.1 1 0 0 0 .2-.1.2-.3.1-.3.3-.3.6 0 .1-.2.3-.1.6 0 .3-.1.5-.4.6-.2.1-.4.2-.7.3-.2 0-.4.2-.6.1-.6-.1-1.2.1-1.8.1-.1 0-.2 0-.3.1l-.1.1c-.5-.1-1 .2-1.5.1-.1 0-.2-.1-.3-.3 0 0-.1 0-.2.1-.4.3-.8.4-1.3.3-.6-.1-1.2 0-1.8.1-.3.1-.7.2-1.1 0 0 0-.2 0-.3.1-.7.2-1.4.2-2 .1-.3 0-.6-.3-1-.1 0 0-.3-.3-.3-.4.1-.7-.4-1.2-.6-1.8-.1-.3-.3-.6-.2-.9l-.2-.2v-.2c.2-.3-.2-.2-.3-.4v-.9c0-.1-.2-.3-.3-.4-.2-.2-.2-.3-.2-.6 0-.1-.1-.3-.2-.4 0-.1-.1-.2-.1-.3.5-.6-.3-1-.1-1.6-.2-.3-.3-.6-.6-.9 0-.1.1-.2.2-.4-.2-.2-.5-.4-.3-.7.1-.3-.2-.5-.4-.7-.1-.3.3-.4 0-.7-.2-.2-.2-.6-.3-.8 0-.1 0-.2.1-.3.1-.1.1-.3 0-.4-.2-.2 0-.5 0-.7-.1 0-.3 0-.3-.2-.2-.3-.3-.6-.3-.9 0-.2 0-.3-.2-.5s0-.4 0-.7c-.1-.1-.2-.2-.4-.3-.1-1-.3-1.5-.8-2.3-.4.1-.5.5-.6.9 0 .2-.2.2-.2.4s.1.4.1.6c0 .2-.2.4-.3.6 0 .1-.1.3 0 .4.3.3 0 .6-.2.9-.1.1-.2.3-.1.4 0 .2.1.5-.1.7-.2.1 0 .5-.3.6v.3c-.1.3-.2.5-.3.8s-.1.5-.1.8c0 .1-.1.2-.2.3-.5.4-.5.9-.3 1.5-.2.3-.4.4-.4.7 0 .3 0 .6-.1.8-.6.9-.6 1.9-.7 2.9 0 .2 0 .5-.1.6-.3.4-.2.8-.3 1.2 0 .4-.1.7-.1 1.1 0 .3 0 .6-.3.9-.1.1-.1.4-.2.6-.1.4-.2.4-.7.4h-.3c-.6.3-1.4.4-2 .4h-.2c-.8.2-1.5 0-2.3 0-.5 0-1 0-1.4.3 0 .1-.2 0-.3 0h-.5c-.5.4-1.1.2-1.7.3-.5 0-1-.4-1.1-1.1 0-.4-.2-.7-.2-1.2 0-.3-.3-.6-.4-1 0-.2 0-.6-.1-.8-.1-.5-.3-.9-.2-1.4 0 0-.1-.2-.1-.3 0-.1-.1-.2 0-.4 0-.2.1-.3-.1-.5-.1-.1 0-.4 0-.6 0-.5 0-1-.2-1.4-.1-.1-.1-.4-.1-.5.1-.4 0-.7-.1-1.1-.1-.2-.1-.5-.1-.8V37c0-.3-.6-.4-.5-.7.2-.3.1-.5 0-.7 0-.3-.1-.5-.4-.7.2.3.2.1.3 0z"/><path class="st171" d="M71.4 39c.5.2.9.2 1.4.1.2 0 .4 0 .6.1.1.2.2.6.2.8 0 .3 0 .7.2 1v.6c0 .4 0 .8.1 1.3.1.4 0 .7 0 1 0 .3 0 .7.1 1 .1.2.1.5.1.8-.1.4 0 .8 0 1.3l-1.4.2h-.4c-.8.2-1.6.4-2.5.3h-.1c-.6.4-1.2.1-1.7.2-.2 0-.4-.2-.7-.1l-.7.2H63.8h-.2c-.2.1-.5.1-.6 0-.3-.2-.7-.1-1 0-.4.1-.8 0-1.2-.1-.3-.1-.6-.1-.9.1-.1.1-.3.2-.4.1-.4-.2-.8 0-1.3 0l-1 .1h-.3l-2.1-.1c-.4 0-.8-.1-1.3-.1.3-.5 0-.9.3-1.4v-.2c-.3-.8-.6-1.8-.2-2.7 0-.1 0-.4-.1-.6-.1-.2-.1-.5 0-.7.1-.1 0-.2 0-.4v-1.4-.3c-.1-.5 0-1 .1-1.4.2-.5 0-1-.1-1.4 0-.1-.1-.3 0-.4.5-.9.4-1.9.4-2.9 0-.6.1-1.2.1-1.8 0-.4 0-.7-.1-1.1v-.3c.1-.2.3-.4.1-.7-.1-.2.2-.6 0-.8.3-.7-.1-1.4-.1-2.3.4-.2.2-.7.2-1.1 0-.1-.1-.3 0-.3.3-.3-.1-.7.1-1 .3-.4.1-.7.1-1.1 0-.4-.1-.8 0-1.3.1-.3-.1-.7-.1-.9l.4-.4c-.3-.4-.5-.7-.2-1-.2-.2.1-.3.1-.5v-.7c0-.3-.2-.5 0-.7v-.2c-.2-.9.2-1.7 0-2.6l.3-.3v-.2c-.1-.2-.2-.4-.1-.7v-.7c-.2-.4-.3-.8-.1-1.3.1-.2 0-.6 0-.8-.1-.5 0-.8.2-1.2.3-.2.7 0 1 0 .3-.1.6-.3.9-.4l.5.3c.5-.5 1.1-.2 1.7-.2.1 0 .3.1.3 0 .2-.1.4-.1.6-.1.7 0 1.4-.2 2 0 .1 0 .2-.1.4-.1.1-.1.2-.1.3 0 .2.2.4.1.6 0 .1 0 .2-.1.2 0 .3.3.6-.1.8 0 .2.2.5.1.7.1.5 0 .9.1 1.4 0 .6-.1 1.2.1 1.8 0 .2 0 .5-.1.6 0 .5.3.9.1 1.4 0 .7-.1 1.4.1 2.1 0 0 0 .2 0 .2.1.2.4.6.2.9.1.3.3.4.6.4 1.1v2c0 .4 0 .7.1 1.2 0 .2.2.5 0 .8v.1c.4.7 0 1.3 0 1.9 0 .2 0 .4.2.6v.4l-.4 1.1c-.7 0-1.4.2-2 0-.5.2-1.1-.3-1.6.1h-.4c-.4-.2-.8-.1-1.2 0H68c-.7-.3-1.5 0-2.2 0h-.4c-.3-.3-.5 0-.8.2-.4-.2-.8-.5-1.3 0-.1.1-.4 0-.7 0-.3.2-.6.6-.3 1.1-.2.6 0 1.1 0 1.6v1.5l.1.1c.2 0 .6 0 .8.1.3.1.5 0 .8 0 .6 0 1.1 0 1.7.1.5 0 1.1.2 1.6.1.6-.1 1.2 0 1.8 0h.4c.3-.2.6.1.8.2 1.1-.3 2.1-.1 3.2 0l-.1.6.4.6v.2c-.3.3-.4.7-.4 1 .1.6 0 1.2 0 1.7v1.2c0 .4.1.7-.1 1v.3c0 .3 0 .6-.1.8 0 .4-.3.6-.6.6-.5 0-1 .1-1.5 0h-1.2c-.7 0-1.3.1-1.9 0-.5-.1-1-.1-1.5 0h-2.3c-.5.1-1 0-1.5 0h-.5c-.2.4-.5.7-.2 1.1.1 0 .1.2 0 .3-.1.6 0 1.1-.2 1.5v.5c0 .3.3.6 0 .8v.2c.2.4 0 .7-.1 1.1.1.2.3.4.4.7H65c.7 0 1.4-.1 2.1 0 .5.1 1 0 1.5-.1.5 0 1-.1 1.5-.1.2 0 .2 0 .6.4.2.5.4.4.7.5z"/><path class="st172" d="M110.6 44c-.1-.2-.1-.6-.1-.9.5-.3 0-.9.2-1.3.1-.2-.2-.6-.2-.8 0-.3.1-.6.1-.9V40c-.1-.7-.4-1.3-.2-2v-.2c-.3-.6-.2-1.2 0-1.7-.3-.2-.4-.4-.4-.5v-.8c0-.2-.1-.5-.1-.7 0-.8 0-1.5-.1-2.3-.2-.8-.3-1.8-.4-2.7v-.6c.1-.4 0-.7-.2-.9-.2-.2.2-.5 0-.8-.2-.5-.3-1.1-.3-1.6s0-.9-.3-1.3c-.1-.2-.3-.5-.1-.7v-.4c-.4-.6-.3-1.3-.2-2 .1-.3 0-.7-.2-.8-.3-.3-.3-.6-.3-1.1 0-.2 0-.5-.1-.7-.2-.3 0-.7.1-.9-.4-.4-.5-.8-.6-1.4-.1-.5-.1-1-.4-1.4-.1-.1-.2-.3-.1-.5.2-.4 0-.9-.2-1.4-.1-.3-.1-.5-.3-.8-.1-.2-.1-.5-.2-.7-.3-.6-.5-1.3-.4-2l-.1-.1c-.9-.2-2.5-.3-3.1-.1-.2 0-.4.1-.6.1-.5-.1-1-.1-1.4 0-.5.1-1-.2-1.5 0-.5-.1-.9 0-1.4 0-.5.5-1 .1-1.4.2 0 .1-.1.1-.1.1-.3.4-.7.2-1.2.1H94c-.5.1-1 .2-1.5.1h-.7c-.3.7-.3 1.3-.7 1.8 0 .7-.4 1.4-.1 2.3.1.2 0 .6-.1.9 0 .1-.1.2-.1.4-.1.9-.3 1.8-.2 2.7 0 .4 0 .8-.4 1.1-.2.2-.2.5-.2.7 0 .7 0 1.4-.5 2-.1.2-.1.5-.1.7 0 .4.1.7-.3 1-.1 0-.1.3-.1.4 0 .1.1.3 0 .3-.4.3-.2.7-.1 1.1 0 .3 0 .6-.2.7-.2.3-.3.6-.3 1 0 .5-.3 1 0 1.6 0 0-.1.2-.1.3-.3.2-.3.6-.4.9-.1.4 0 .9-.4 1.3v1.1c0 .1-.3 1.4-.3 1.5-.3.2-.4.7-.2 1 .1.6-.2 1.1 0 1.7 0 0-.1.1-.1.2-.7 1.1-.9 1.8-.9 2.6 0 .2 0 .3-.2.5V40.9c0 .3-.1.7-.2 1.1-.1.3.2.7-.1 1.2-.2.4-.2.7 0 1.2.1.2 0 .3-.1.4-.2 0-.4 0-.4.2 0 .7-.3 1.4.2 2.2h1.4c.4-.1 1 .3 1.5-.1h.1c1.1.1 2.1.2 3.2.1.9.4 1.3-.4 1.9-.7.1 0 .1-.3.1-.5s-.1-.4-.2-.6c.4-.2.3-.5.4-.8 0-.3.1-.6.2-1 0-.1-.1-.2-.2-.4.3-.3.6-.7.6-1.2 0-.8 0-1.6-.1-2.4.1-.1.3-.2.4-.3v-1.7c.1-.6 0-1.3.2-1.9.2-.5.3-.8 0-1.2.1-.3.3-.6.5-.8.4-.7.8-.8 1.5-.7h.2c.5 0 1 0 1.4-.1.4-.1.6-.4 1-.1.4-.2.8-.1 1.1 0 .1.2.2.4.4.6-.1.2-.4.5-.1.7.5.4.5.8.4 1.3 0 .3 0 .7.1 1 .1.3.1.7.1 1-.1.4 0 .7 0 1 .1.4.1.7.1 1v.9c.2.9.3 1.8.1 2.7-.1.4-.1.7.2 1 .1.2.2.3.1.5-.2.5.3 1 0 1.5.2.2.4.5.3.7-.1.4 0 .9.2 1.3.4 0 .9.1 1.3 0 .6-.1 1.2-.1 1.8 0h2c.3 0 .7.2 1-.1.4-.3.7 0 1.1 0 .1 0 .2 0 .3-.1.3-.1.6-.3.9-.4.1-.8.1-1.5.1-2.4.1-.1.1-.5-.2-1zM96.2 27.3s.1-1.1.2-1.6 0-.6.3-.9c.3-.3.2-.4 0-1.2s.6-1.4.6-1.4.2-1.1.2-1.6-.2-.4 1.1-.4-.1.6.3 1c.2.2.7 2.9.8 3 .1.1.1.4.1.6.1.5.1 1.1.3 1.4.2.3.2 1.1.2 1.1h-4.1z"/><path class="st171" d="M141.1 48.9c-.1-.3-1.1-1.1-1.2-1.4 0-.4-.1-.7-.4-.9v-.3c0-.7-.9-1.9-1-2.6-.4-.4-.5-.8-.5-1.3-.1-.5-.4-1-.5-1.5-.4-.4-.3-1.1-.8-1.4-.1 0-.1-.2-.1-.3 0-.1 0-.3-.1-.4-.3-.2-.2-.7-.4-.9-.1-.2 0-.6-.4-.7l-.2-.3c-.1-.4-.1-1.2-.4-1.4-.3-.3-.2-.9-.7-1.1-.1 0-.1-.1-.1-.1.1-.3 0-.6-.4-.7-.1-.4-.6-.6-.6-1.1 0-.1-.1-.3-.2-.3s-.3-.1-.5-.2l.5-.3c.3-.2.6-.5 1.1-.5.1 0 .2 0 .3-.1.1-.2.4-.3.6-.4.6-.2 1-.7 1.4-1.1.1-.5.7-.7.7-1.1 0-.2.1-.3.2-.5.1-.1.2-.3.2-.5v-.4l.6-1.2c0-.2.1-.3 0-.5v-.6c.2-.2.2-.4.2-.6 0-.5 0-.9.1-1.4-.2-.4-.1-.9-.1-1.4 0-.2.1-.4.1-.7v-.4c-.2-.6-.1-1.2-.2-1.8 0-.2 0-.3-.1-.5-.3-.4-.3-.7-.2-1.1 0-.2 0-.4-.1-.6-.2-.1-.3-.3-.3-.5 0-.6-.4-.9-.6-1.3-.1-.2-.5-.4-.7-.6-.3-.6-.6-1.2-1.3-1.4-.1-.5-.7-.6-.9-1.1 0-.2-.2-.3-.5-.2-.3.1-.4-.2-.5-.4-.3-.1-.5-.1-.8-.2-.3-.1-.6-.1-.8-.3-.1 0-.2-.1-.3-.1-.5 0-.9 0-1.2-.4-.1-.1-.5 0-.7-.1-.7-.2-1.4.1-2-.4h-.3c-.5.3-1 .1-1.5-.1h-.5c-.6.1-1.3 0-1.9.2-.5-.3-.9 0-1.4-.1-.3 0-.6 0-.8.1-.6.3-1.2.4-1.8.1h-.3c-.1.2-.3.2-.6.2-.2-.1-.5 0-.7 0-.4 0-.8 0-1.2.2-.3.1-.5-.2-.7 0-.1.2-.3.2-.6.2-.6 0-1.1.3-1.3.7v1.5c-.1 1 .1 1.9 0 2.9 0 .5-.1 1 0 1.4.1.5 0 .9 0 1.4v2c0 .2-.1.5-.1.7 0 .2 0 .4.1.7l.2.5-.4.8.5 1.4c0 .1-.4.3-.2.6.2.5.1.9 0 1.4 0 .3 0 .5.1.7.2.2.2.5 0 .7-.2.3 0 .7-.1.9 0 .3.2.7 0 .9.4.4.1.8 0 1.2 0 .1-.1.3 0 .4.2.3.1.6 0 .8v1c0 .4-.1.7-.1 1.1 0 .3-.1.6 0 .8.2.6.2 1 .2 1.5 0 .4 0 .7-.2 1v.6c.1.3 0 .6 0 .9 0 .3.1.7.2 1v.2c-.1.5-.1.9-.1 1.3 0 .3.2.7.1 1 0 .5-.1 1-.2 1.5 0 .2.4.4.2.7-.2.3-.1.7.1 1 .2.2.2.4 0 .6-.2.3-.2.6 0 1 .8 0 1.7-.1 2.6.1.1 0 .2 0 .3-.1.3-.1.7 0 .9-.3.3-.3.6-.1.9-.1h1.7c.2 0 .6-.1.8.1h.2c.3-.3.6-.1.9 0 .4.1.6 0 .7-.3.2-.4.1-1 .5-1.5v-.3c-.1-.4-.1-.8 0-1.2v-1.1c.1-.6.1-1.1.1-1.6v-1.7c0-.7.1-1.3 0-1.9 0-.3-.1-.8 0-1.1.1-.5 0-1.1 0-1.6 0-.4 0-.7.4-1l.6.3c0 .4 0 .7.3 1 .2.2.4.6.4.9.1.4.2.7.5 1 .3.4.2.8.4 1.2.1.2.2.3.3.6.1.3.3.6.5.8-.2.4.2.8.2 1.3 0 .4.2.7.4 1.1 0 .1.2.2.2.3.1.3.2.6.2.9 0 .4.4.6.5.9 0 .1.1.2 0 .3-.1.2-.1.3 0 .5.2.2 0 .7.4.8v.5c0 .4 0 .7.3 1 .1 0 0 .3.1.4.2.4 0 .8.3 1.2.2.2.3.5.5.7.5 0 1 .3 1.6.1.1 0 .4 0 .5.1.4.1.8 0 1.2-.1.6.4.7.5 1 .4.4 0 .7-.2 1-.2.4.1.7 0 1.1 0 .1 0 .4-.1.5 0 .3.3.5.1.8 0 .5-.2.7-.2 1.2 0l.5-.4c.4 0 1.7.3 1.6 0zM130.4 23c-.4.6-.3 1-.9 1.7-.6.8-2.8.5-3.6.6-.9.1-1.9.2-1.9.2l-.3-1.2-.3-3.5v-2.4-.6c0-.6 0 0 .2-.4s0 0 1.4-.6 1.3-.4 1.3-.4.4-.1.8 0 1.9.9 1.9.9.4.4.9 1.3.6 1 .6 1 .3 2.8-.1 3.4z"/><path class="st170" d="M160.2 39c.5.2.9.2 1.4.1.2 0 .4 0 .6.1.1.2.2.6.2.8 0 .3 0 .7.2 1v.6c0 .4 0 .8.1 1.3.1.4 0 .7 0 1 0 .3 0 .7.1 1 .1.2.1.5.1.8-.1.4 0 .8 0 1.3l-1.4.2h-.4c-.8.2-1.6.4-2.5.3h-.1c-.6.4-1.2.1-1.7.2-.2 0-.4-.2-.7-.1l-.7.2H152.6h-.2c-.2.1-.5.1-.6 0-.3-.2-.7-.1-1 0-.4.1-.8 0-1.2-.1-.3-.1-.6-.1-.9.1-.1.1-.3.2-.4.1-.4-.2-.8 0-1.3 0l-1 .1h-.3l-2.1-.1c-.4 0-.8-.1-1.3-.1.3-.5 0-.9.3-1.4v-.2c-.3-.8-.6-1.8-.2-2.7 0-.1 0-.4-.1-.6-.1-.2-.1-.5 0-.7.1-.1 0-.2 0-.4v-1.4-.3c-.1-.5 0-1 .1-1.4.2-.5 0-1-.1-1.4 0-.1-.1-.3 0-.4.5-.9.4-1.9.4-2.9 0-.6.1-1.2.1-1.8 0-.4 0-.7-.1-1.1v-.3c.1-.2.3-.4.1-.7-.1-.2.2-.6 0-.8.3-.7-.1-1.4-.1-2.3.4-.2.2-.7.2-1.1 0-.1-.1-.3 0-.3.3-.3-.1-.7.1-1 .3-.4.1-.7.1-1.1 0-.4-.1-.8 0-1.3.1-.3-.1-.7-.1-.9l.4-.4c-.3-.4-.5-.7-.2-1-.2-.2.1-.3.1-.5v-.7c0-.3-.2-.5 0-.7v-.2c-.2-.9.2-1.7 0-2.6l.3-.3v-.2c-.1-.2-.2-.4-.1-.7v-.7c-.2-.4-.3-.8-.1-1.3.1-.2 0-.6 0-.8-.1-.5 0-.8.2-1.2.3-.2.7 0 1 0 .3-.1.6-.3.9-.4l.5.3c.5-.5 1.1-.2 1.7-.2.1 0 .3.1.3 0 .2-.1.4-.1.6-.1.7 0 1.4-.2 2 0 .1 0 .2-.1.4-.1.1-.1.2-.1.3 0 .2.2.4.1.6 0 .1 0 .2-.1.2 0 .3.3.6-.1.8 0 .2.2.5.1.7.1.5 0 .9.1 1.4 0 .6-.1 1.2.1 1.8 0 .2 0 .5-.1.6 0 .5.3.9.1 1.4 0 .7-.1 1.4.1 2.1 0 0 0 .2 0 .2.1.2.4.6.2.9.1.3.3.4.6.4 1.1v2c0 .4 0 .7.1 1.2 0 .2.2.5 0 .8v.1c.4.7 0 1.3 0 1.9 0 .2 0 .4.2.6v.4l-.4 1.1c-.7 0-1.4.2-2 0-.5.2-1.1-.3-1.6.1h-.4c-.4-.2-.8-.1-1.2 0h-.1c-.7-.3-1.5 0-2.2 0h-.4c-.3-.3-.5 0-.8.2-.4-.2-.8-.5-1.3 0-.1.1-.4 0-.7 0-.3.2-.6.6-.3 1.1-.2.6 0 1.1 0 1.6v1.5l.1.1c.2 0 .6 0 .8.1.3.1.5 0 .8 0 .6 0 1.1 0 1.7.1.5 0 1.1.2 1.6.1.6-.1 1.2 0 1.8 0h.4c.3-.2.6.1.8.2 1.1-.3 2.1-.1 3.2 0l-.1.6.4.6v.2c-.3.3-.4.7-.4 1 .1.6 0 1.2 0 1.7v1.2c0 .4.1.7-.1 1v.3c0 .3 0 .6-.1.8 0 .4-.3.6-.6.6-.5 0-1 .1-1.5 0h-1.2c-.7 0-1.3.1-1.9 0-.5-.1-1-.1-1.5 0h-2.3c-.5.1-1 0-1.5 0h-.7c-.2.4-.5.7-.2 1.1.1 0 .1.2 0 .3-.1.6 0 1.1-.2 1.5v.5c0 .3.3.6 0 .8v.2c.2.4 0 .7-.1 1.1.1.2.3.4.4.7H153.8c.7 0 1.4-.1 2.1 0 .5.1 1 0 1.5-.1.5 0 1-.1 1.5-.1.2 0 .2 0 .6.4.2.5.4.4.7.5zM5.6 57.1c.1.1.3.1.3.1.6-.3 1.2-.2 1.8-.2 1.4-.1 2.8-.1 4.2 0 .9.1 1.8-.1 2.6-.1l.9.9c0 .4-.1.8-.1 1.2-.1.8-.4 1.5.1 2.2-.1 1 .2 2-.1 3-.1.3.1.7 0 1-.1.4-.3.6-.4.9 0 .1 0 .3.1.4.1.3.1.4 0 .6-.1.1-.1.5-.1.6.1.3.3.7.1 1 .3 1-.5 2-.1 2.9v.2c-.4.8-.2 1.5-.1 2.3.1.9.1 1.7-.4 2.5.5.3.9.5 1.3.7.3-.1.6-.1.8-.2.6-.1 1.3-.1 1.8-.4.4-.2.8-.2 1.2-.3.4.3.7 0 1 .1.8.1 1.6-.3 2.4-.2.3 0 .6-.1.9-.1.6 0 1-.4 1.3-.9.3-1.1.5-2.3-.5-3.2.2-.9.6-1.8.3-2.7.3-1 .3-2.1-.1-3.1 0-.1.1-.2.1-.4.3-.2.3-.3 0-.5-.3-.4.3-.7-.1-1.1-.3-.3.1-.7.1-1 .1-.3.1-.4 0-.6-.4-1.4-.5-1.9-.3-3.2.1-.2 0-.4-.1-.8.5-.2.9-.5 1.5-.3.6.1 1.1-.5 1.6 0 .1.1.3-.1.4-.1.3-.1.4-.3.6-.3.4-.1.8 0 1.1.2.4-.4.7-.5 1.2-.4.9.1 1.9-.2 3-.2.6 0 1.2-.4 1.6.2h1.3c.1.9.5 1.8.1 2.7.3.4.1 1 .1 1.6 0 .7.3 1.4-.1 2.1-.1.1 0 .4 0 .7V66c0 .3 0 .6.1.9.3.9.3 2 .1 3v.9c.1.4.4.8.2 1.3-.1.2.1.5.3.8.1.2.1.3-.1.5-.4.4-.5 1.1-.1 1.6.2.3.3.5.3.8.1.4-.3.8-.1 1.3.3.3.1.9.1 1.4v1.4c.1.8 0 1.5.1 2.3.1.8-.1 1.6-.1 2.5-.1.8.2 1.6 0 2.5-.1.6 0 1.3 0 1.9 0 .3-.1.4 0 .6.1.6.4 1.1.3 1.6-.3.6-.1 1.1-.2 1.6-.1.6-.2 1.1-.3 1.8-.1.4-.2.7.1 1 .1.2.1.5.1.7-.1 1.1.3 2.3-.1 3.4.3.6.1 1.1-.1 1.5-.1.3-.1.6 0 .8.2.6 0 1.3-.1 1.9 0 .2-.2.4-.2.6 0 .5.2.9.2 1.4.1.4-.3.8 0 1.1.2.4 0 1 .2 1.3.4.6-.3.8-.1 1.1-.6 0-1-.1-1.4.3-.3.2-.8 0-1.1.2-.3.3-.6.3-.8 0-1.2.4-2.4.1-3.6.3-.3.1-.7.1-1 .2-.4.1-.8.4-1.2.1-.3-.1-.6.1-.9.1-.1 0-.3-.1-.4-.1-.3-.3-.6-.3-.9-.2-.2.1-.4.1-.6.1-.3-.1-.6-.1-.8-.3-.3-.6-.5-1.2-.7-1.8.4-.9.1-1.8.4-2.8.1-.3-.1-.4-.3-.7.2-.4.3-.8.4-1.1.1-.4.1-.8 0-1.2-.1-.8-.2-1.6 0-2.4.2-.6.1-1.3.1-1.9-.4-.3-.1-.8-.1-1.2.1-.4-.1-.9-.3-1.3 0-.1.1-.2.1-.2.4-.4.1-.8-.3-.9 0-.9.6-1.6.5-2.6-.1-.8-.1-1.6-.2-2.3-.4-.1-.8-.3-1.2-.6-.4.4-.6.5-1.1.3-.2-.2-.6-.2-.9-.1-1.2.3-2.5.4-3.7.3-.6-.1-1.3.1-2 .1-.2.2-.5.4-.4.9.1.4-.4.9-.1 1.4 0 0-.1.3-.2.3-.1.1-.2.3-.1.4.1.2.1.3.1.4-.5.5-.1 1-.1 1.6 0 .2 0 .5-.1.8 0 .2-.1.4-.1.6.3.7.1 1.4.1 2.1 0 .4.1.8-.1 1.1-.1.1-.1.3-.1.3.4 1-.1 2.1.3 3.1-.4.5.3 1.3-.4 1.6-.1.1-.1.4-.1.6.4.7.3 1.4.1 2.2-.1.3 0 .6-.1 1-.1.3-.1.6-.3.9-.3.6-.8.9-1.5.9-.3 0-.4 0-.7.1-.6.2-1.2-.5-1.7-.1s-1.1.1-1.6.4c-.7.3-1.3-.1-2-.4-.3-.1-.6-.1-.9 0-.9.2-1.8.4-2.6.2-.9-.1-1.3-.7-1.2-1.4.1-.3.2-.5.2-.8.1-.3.1-.7.1-.9-.1-.3-.4-.6-.3-1 .1-.3-.3-.6.1-1-.5-.8.4-1.6-.1-2.3.3-.6.2-1.1.3-1.7 0-.5-.1-1 .1-1.4.1-.6.2-1-.1-1.4.5-1.1-.2-2.3.2-3.2v-.2c-.4-1.8.3-3.7-.1-5.6-.1-.6.1-1.3-.1-2-.1-.5.2-1.2.2-1.8 0-.8 0-1.7-.1-2.5-.1-1.2.1-2.4.3-3.6 0-.3 0-.6-.1-.9-.1-.4-.2-.8.1-1.1.1-.1.1-.3.1-.3-.5-1.3-.1-1.7-.1-2.1 0-.8 0-1.6.3-2.4v-.3c-.1-.4-.3-.8-.3-1.1 0-.4.1-.8-.1-1.1-.1-.2-.1-.4.1-.6.3-.6.3-1.2.3-1.8.1-1.3-.1-2.5.2-3.8-.3-1.1.1-2.1-.3-3.1-.1-.1-.1-.3-.1-.4.4-.9.1-1.9.1-3 1.1-.2 2-.5 3-.3z"/><path class="st172" d="M67 97.6c.6.3 1.3.3 1.9.2.3 0 .5.1.8.1.1.3.3.8.3 1.1.1.4.1.9.3 1.3.1.2.1.5.1.8-.1.6 0 1.1.2 1.7.1.5 0 .9 0 1.4 0 .4 0 .9.2 1.4.2.3.2.7.1 1.1-.1.6-.1 1.1-.1 1.8l-2 .3c-.2.1-.3 0-.5.1-1.1.3-2.2.6-3.3.4h-.1c-.8.6-1.6.1-2.3.3-.3.1-.6-.3-.9-.2l-1 .3c-.1.1-.2 0-.3-.1-1.2-.1-2.3.1-3.5-.1-.1-.1-.3 0-.3.1-.3.2-.6.2-.8 0-.4-.3-.9-.2-1.3-.1-.6.1-1.1.1-1.6-.2-.4-.2-.8-.2-1.2.1-.1.1-.4.3-.6.2-.6-.3-1.1 0-1.7.1l-1.6.1c-.1 0-.3.1-.4.1l-2.9-.1c-.5-.1-1.1-.1-1.7-.1.4-.6 0-1.3.4-1.8.1-.1 0-.3 0-.3-.4-1.1-.8-2.4-.3-3.6.1-.2-.1-.5-.1-.8-.1-.3-.2-.6 0-.9.1-.1.1-.3.1-.5 0-.6-.1-1.3-.1-1.9 0-.1.1-.3.1-.4-.1-.6 0-1.3.2-1.9.3-.6.1-1.3-.1-1.9-.1-.2-.1-.4-.1-.6.6-1.3.6-2.6.5-3.9-.1-.8.2-1.6.1-2.4-.1-.5.1-1-.1-1.5-.1-.2-.1-.3 0-.4.1-.3.4-.6.2-1-.2-.3.3-.8-.1-1.1.4-1-.2-1.9-.1-3.1.6-.3.3-.9.3-1.4 0-.2-.1-.4-.1-.4.4-.4-.2-.9.1-1.3.4-.5.2-1 .1-1.4-.1-.6-.2-1.1-.1-1.7.1-.4-.1-.9-.2-1.3l.5-.5c-.4-.5-.7-.9-.3-1.4-.3-.3.1-.4.1-.6.1-.3 0-.7-.1-1-.1-.4-.3-.7.1-.9.1-.1.1-.2.1-.3-.3-1.2.3-2.3-.1-3.5l.4-.4c0-.1 0-.2-.1-.3-.2-.3-.3-.6-.1-.9.1-.3.1-.6 0-.9-.3-.6-.4-1.1-.2-1.8.1-.3 0-.8-.1-1.1-.2-.6-.1-1.1.3-1.6.4-.3.9 0 1.3-.1s.8-.4 1.3-.6l.6.4c.7-.7 1.5-.3 2.3-.3.2 0 .4.1.4 0 .3-.2.6-.2.8-.1.9.1 1.8-.3 2.7-.1.2 0 .3-.1.5-.2s.3-.1.4-.1c.3.3.6.2.8.1.1-.1.3-.1.3-.1.4.4.8-.2 1.1 0 .3.3.6.2.9.2.6-.1 1.3.1 1.9.1.8-.1 1.6.2 2.5.1.3-.1.6-.1.8 0 .6.4 1.2.1 1.8.1.9-.1 1.9.1 2.8.1.1-.1.3.1.3.1.3.5.8.3 1.2.1.4.4.5.8.5 1.4 0 .9.1 1.9 0 2.8-.1.5.1 1 .1 1.6.1.3.3.7 0 1.1 0 0-.1.2 0 .2.6.9 0 1.8 0 2.6 0 .3 0 .6.3.8.1.1.1.4.1.6l-.2 1.2c-.9-.1-1.8.3-2.8 0-.7.3-1.4-.4-2.1.1-.1.1-.4.1-.5 0-.6-.3-1.1-.2-1.6 0h-.2c-1-.4-2-.1-3 0-.2 0-.4 0-.5-.1-.4-.4-.7.1-1.1.3-.6-.3-1.1-.7-1.8 0-.2.1-.6 0-1 0-.4.3-.8.8-.4 1.5-.3.8.1 1.4.1 2.1.1.8 0 1.4-.1 2.1 0 0 .1.1.1.2.3.1.8 0 1.1.2.4.2.7-.1 1.1-.1.8.1 1.5 0 2.3.1.7.1 1.4.3 2.2.1.8-.2 1.6 0 2.5.1.1 0 .4.1.5 0 .4-.3.8.1 1.1.3 1.4-.4 2.9-.2 4.3.1l-.2.8.6.8c0 .1 0 .2-.1.3-.4.4-.5.9-.5 1.4.1.8 0 1.6 0 2.3 0 .5-.1 1.1 0 1.6 0 .5.2.9-.1 1.3-.1.1 0 .3 0 .4.1.4-.1.8-.2 1.1-.1.5-.4.8-.8.8-.7.1-1.3.1-2 .1-.4.1-1 .1-1.5.1-.9 0-1.7.1-2.6 0-.7-.2-1.4-.1-2.1-.1-1.1 0-2.1-.1-3.1.1-.6.1-1.3.1-2 .1h-.6c-.3.5-.6.9-.3 1.5.1.1.1.3.1.4-.1.8.1 1.4-.3 2.1-.1.2 0 .4 0 .6.1.4.4.8 0 1.1v.2c.3.5 0 .9-.1 1.5.2.3.4.6.5.9.1 0 .2.1.3.1 1.2 0 2.4-.1 3.6.1.9.1 1.9-.1 2.8.1.6.1 1.4-.1 2.1-.1.7-.1 1.3-.1 2-.1.3-.1.3 0 .8.5.3-.4.5-.6 1-.4z"/><path class="st171" d="M111.9 111c-.2-.4-1.5-1.5-1.6-1.9-.1-.5-.1-.9-.5-1.2-.1-.1-.1-.3-.1-.4-.1-1-1.2-2.6-1.4-3.5-.6-.5-.6-1.1-.6-1.8-.1-.7-.6-1.3-.6-2-.5-.5-.4-1.4-1.1-1.8-.1-.1-.1-.3-.1-.4-.1-.2 0-.4-.1-.5-.4-.3-.3-.9-.5-1.3-.1-.3 0-.8-.5-1l-.3-.4c-.2-.5-.2-1.6-.5-2-.4-.4-.3-1.2-1-1.4-.1 0-.1-.1-.1-.2.1-.4-.1-.8-.5-.9-.2-.5-.8-.8-.8-1.4 0-.1-.1-.4-.3-.4-.2-.1-.4-.1-.7-.3l.6-.4c.4-.3.8-.6 1.4-.6.1.1.3-.1.4-.2.2-.3.5-.4.8-.5.8-.3 1.3-1 1.9-1.4.2-.6.9-.9 1-1.5.1-.3.2-.4.3-.6.2-.1.3-.4.3-.6 0-.2 0-.4.1-.6.3-.5.5-1.1.8-1.6.1-.3.1-.4.1-.7-.1-.2-.1-.6.1-.8.3-.3.3-.5.3-.8-.1-.6-.1-1.2.2-1.8-.3-.6-.1-1.2-.1-1.9 0-.3.1-.6.1-.9 0-.1.1-.3 0-.5-.3-.8-.2-1.6-.3-2.4 0-.3 0-.4-.2-.6-.4-.5-.4-1-.3-1.4.1-.3.1-.6-.2-.8-.3-.1-.4-.4-.4-.7 0-.8-.5-1.2-.8-1.8-.2-.3-.6-.5-.9-.8-.4-.8-.8-1.6-1.8-1.8-.2-.6-.9-.8-1.2-1.4-.1-.3-.3-.4-.6-.3-.4.1-.5-.3-.7-.6-.4-.1-.7-.1-1.1-.3-.4-.1-.8-.1-1.1-.4-.1-.1-.3-.1-.4-.1-.6 0-1.2-.1-1.6-.6-.2-.1-.6-.1-.9-.1-.9-.3-1.9.1-2.7-.6-.1-.1-.3-.1-.4 0-.7.4-1.3.2-2-.1-.2-.1-.4-.1-.6 0-.8.1-1.8-.1-2.6.3-.6-.4-1.2-.1-1.8-.2-.4-.1-.8-.1-1.1.1-.8.4-1.6.5-2.5.2-.1 0-.4 0-.4.1-.2.3-.4.3-.8.3-.3-.1-.6 0-1 0-.6.1-1.1.1-1.6.3-.4.1-.7-.3-.9 0-.2.3-.4.3-.8.3-.8.1-1.4.4-1.8.9-.1.8-.1 1.4-.1 2.1-.1 1.3.1 2.6.1 3.9-.1.6-.1 1.4 0 2 .1.6-.1 1.2 0 1.9.1.9.1 1.8.1 2.7 0 .3-.1.6-.1.9 0 .3.1.6.1.9l.3.7-.5 1.1.6 1.9c-.1.2-.5.4-.3.8.3.6.1 1.2 0 1.8 0 .4-.1.7.1 1 .3.3.3.7.1.9-.3.4 0 .9-.1 1.3s.3.9-.1 1.3c.5.6.1 1.1.1 1.6 0 .2-.1.4-.1.5.3.4.1.8.1 1.1-.1.4 0 .9 0 1.3 0 .6-.2.9-.1 1.4 0 .4-.1.8.1 1.1.3.8.3 1.3.3 2-.1.5-.1.9-.3 1.4-.1.2-.1.5 0 .8.2.4 0 .8 0 1.3-.1.4.1.9.3 1.3 0 .1-.1.2-.1.3-.2.6-.1 1.2-.2 1.8 0 .4.3.9.2 1.4 0 .6-.2 1.3-.3 2.1.1.3.5.6.3.9-.3.4-.1.9.1 1.3.3.3.3.6.1.8-.3.4-.3.8.1 1.3 1.1.1 2.3-.2 3.5.1.1 0 .3-.1.4-.1.4-.2 1-.1 1.3-.4.4-.4.8-.1 1.3-.1.8-.1 1.4.1 2.3-.1.3-.1.8-.2 1.1.1h.3c.4-.4.8-.1 1.3 0s.8 0 1-.4c.3-.6.2-1.3.7-2 .1-.1 0-.3 0-.4-.2-.6-.2-1.1-.1-1.6.1-.3 0-.5-.1-.8v-.7c.1-.8.1-1.4.1-2.1 0-.8.1-1.6 0-2.3-.1-.9.2-1.7.1-2.5-.1-.4-.2-1.1-.1-1.5.2-.7.1-1.4 0-2.1-.1-.6.1-1 .5-1.4l.8.4c0 .5.1 1 .4 1.4.3.3.5.8.6 1.3.2.5.3 1 .6 1.3.4.5.3 1.1.5 1.6.1.3.3.4.4.8.1.4.4.8.6 1.1-.3.6.3 1.1.3 1.7.1.5.3 1 .5 1.5.1.1.3.3.3.4.1.4.3.8.3 1.2.1.5.5.8.6 1.3.1.1.1.3.1.4-.2.3-.1.4.1.6.3.3-.1.9.5 1.1.1.1.1.4.1.6 0 .5-.1 1 .4 1.3.1.1.1.4.1.5.3.5 0 1.1.4 1.6.3.3.4.6.7.9.6 0 1.4.4 2.1.1.2-.1.5.1.7.1.6.2 1.1.1 1.6-.1.8.6.9.6 1.4.5.5-.1 1-.3 1.4-.3.5.1 1 0 1.5.1.2.1.6-.2.6-.1.4.4.7.2 1.1.1.6-.3.9-.3 1.6 0l.6-.6c-.4-.7 1.4-.3 1.2-.7zM97.4 76.1c-.5.8-.4 1.3-1.2 2.4-.8 1.1-3.7.7-4.9.7-1.2.1-2.6.3-2.6.3l-.4-1.7-.4-4.7v-3.3-.8c0-.8 0 0 .2-.6s0 0 1.9-.8 1.8-.6 1.8-.6.5-.1 1.1 0c.5.1 2.6 1.3 2.6 1.3s.5.5 1.2 1.8c.6 1.3.8 1.4.8 1.4s.5 3.8-.1 4.6z"/><path class="st170" d="M137.7 97.6c.6.3 1.3.3 1.9.2.3 0 .5.1.8.1.1.3.3.8.3 1.1.1.4.1.9.3 1.3.1.2.1.5.1.8-.1.6 0 1.1.2 1.7.1.5 0 .9 0 1.4 0 .4 0 .9.2 1.4.2.3.2.7.1 1.1-.1.6-.1 1.1-.1 1.8l-2 .3c-.2.1-.3 0-.5.1-1.1.3-2.2.6-3.3.4h-.1c-.8.6-1.6.1-2.3.3-.3.1-.6-.3-.9-.2l-1 .3c-.1.1-.2 0-.3-.1-1.2-.1-2.3.1-3.5-.1-.1-.1-.3 0-.3.1-.3.2-.6.2-.8 0-.4-.3-.9-.2-1.3-.1-.6.1-1.1.1-1.6-.2-.4-.2-.8-.2-1.2.1-.1.1-.4.3-.6.2-.6-.3-1.1 0-1.7.1l-1.6.1c-.1 0-.3.1-.4.1l-2.9-.1c-.5-.1-1.1-.1-1.7-.1.4-.6 0-1.3.4-1.8.1-.1 0-.3 0-.3-.4-1.1-.8-2.4-.3-3.6.1-.2-.1-.5-.1-.8-.1-.3-.2-.6 0-.9.1-.1.1-.3.1-.5 0-.6-.1-1.3-.1-1.9 0-.1.1-.3.1-.4-.1-.6 0-1.3.2-1.9.3-.6.1-1.3-.1-1.9-.1-.2-.1-.4-.1-.6.6-1.3.6-2.6.5-3.9-.1-.8.2-1.6.1-2.4-.1-.5.1-1-.1-1.5-.1-.2-.1-.3 0-.4.1-.3.4-.6.2-1-.2-.3.3-.8-.1-1.1.4-1-.2-1.9-.1-3.1.6-.3.3-.9.3-1.4 0-.2-.1-.4-.1-.4.4-.4-.2-.9.1-1.3.4-.5.2-1 .1-1.4-.1-.6-.2-1.1-.1-1.7.1-.4-.1-.9-.2-1.3l.5-.5c-.4-.5-.7-.9-.3-1.4-.3-.3.1-.4.1-.6.1-.3 0-.7-.1-1-.1-.4-.3-.7.1-.9.1-.1.1-.2.1-.3-.3-1.2.3-2.3-.1-3.5l.4-.4c0-.1 0-.2-.1-.3-.2-.3-.3-.6-.1-.9.1-.3.1-.6 0-.9-.3-.6-.4-1.1-.2-1.8.1-.3 0-.8-.1-1.1-.2-.6-.1-1.1.3-1.6.4-.3.9 0 1.3-.1s.8-.4 1.3-.6l.6.4c.7-.7 1.5-.3 2.3-.3.2 0 .4.1.4 0 .3-.2.6-.2.8-.1.9.1 1.8-.3 2.7-.1.2 0 .3-.1.5-.2s.3-.1.4-.1c.3.3.6.2.8.1.1-.1.3-.1.3-.1.4.4.8-.2 1.1 0 .3.3.6.2.9.2.6-.1 1.3.1 1.9.1.8-.1 1.6.2 2.5.1.3-.1.6-.1.8 0 .6.4 1.2.1 1.8.1.9-.1 1.9.1 2.8.1.1-.1.3.1.3.1.3.5.8.3 1.2.1.4.4.5.8.5 1.4 0 .9.1 1.9 0 2.8-.1.5.1 1 .1 1.6.1.3.3.7 0 1.1 0 0-.1.2 0 .2.6.9 0 1.8 0 2.6 0 .3 0 .6.3.8.1.1.1.4.1.6l-.5 1.5c-.9-.1-1.8.3-2.8 0-.7.3-1.4-.4-2.1.1-.1.1-.4.1-.5 0-.6-.3-1.1-.2-1.6 0h-.2c-1-.4-2-.1-3 0-.2 0-.4 0-.5-.1-.4-.4-.7.1-1.1.3-.6-.3-1.1-.7-1.8 0-.2.1-.6 0-1 0-.4.3-.8.8-.4 1.5-.3.8.1 1.4.1 2.1.1.8 0 1.4-.1 2.1 0 0 .1.1.1.2.3.1.8 0 1.1.2.4.2.7-.1 1.1-.1.8.1 1.5 0 2.3.1.7.1 1.4.3 2.2.1.8-.2 1.6 0 2.5.1.1 0 .4.1.5 0 .4-.3.8.1 1.1.3 1.4-.4 2.9-.2 4.3.1l-.2.8.6.8c0 .1 0 .2-.1.3-.4.4-.5.9-.5 1.4.1.8 0 1.6 0 2.3 0 .5-.1 1.1 0 1.6 0 .5.2.9-.1 1.3-.1.1 0 .3 0 .4.1.4-.1.8-.2 1.1-.1.5-.4.8-.8.8-.7.1-1.3.1-2 .1-.5 0-1.1.1-1.6.1-.9-.1-1.7.1-2.6-.1-.7-.2-1.4-.1-2.1-.1-1.1 0-2.1-.1-3.1.1-.6.1-1.3.1-2 .1h-.6c-.3.5-.6.9-.3 1.5.1.1.1.3.1.4-.1.8.1 1.4-.3 2.1-.1.2 0 .4 0 .6.1.4.4.8 0 1.1.3.5 0 .9-.1 1.5.2.3.4.6.5.9.1 0 .2.1.3.1 1.2 0 2.4-.1 3.6.1.9.1 1.9-.1 2.8.1.6.1 1.4-.1 2.1-.1.7-.1 1.3-.1 2-.1.3-.1.3 0 .8.5.7-.4 1-.6 1.4-.4z"/><path class="st173" d="M14.4 99.1c0-.1 0-.2.1-.3.3-.3.1-.8.1-1.1v-.5h-1c-.8.9-2.1 1.5-3.3 1.8-2.6.5-5.9.6-8.1-1.1-.1-.1-.2-.2-.2-.3.2.4.1.8.1 1.4-.2.4-.1.9-.1 1.4-.1.6 0 1.1-.3 1.7.5.8-.4 1.6.1 2.3-.4.4.1.8-.1 1-.2.4.2.7.3 1 0 .3 0 .6-.1.9 0 .3-.1.5-.2.8-.1.8.3 1.3 1.2 1.4.8.2 1.7 0 2.6-.2.3-.1.6-.1.9 0 .6.3 1.3.7 2 .4.5-.3 1.1 0 1.6-.4s1.1.3 1.7.1c.3-.1.4-.1.7-.1.7 0 1.2-.4 1.5-.9l.3-.9c.1-.4 0-.7.1-1 .2-.8.4-1.5-.1-2.2-.1-.2-.1-.4.1-.6.7-.4.1-1.1.4-1.6-.4-.9.1-2-.3-3zM37.4 99.3c.2-.5.2-1.1.2-1.6h-.5c-.2.3-.4.5-.8.7-3.8 2.3-8.2 2.1-11.6-.8h-.5c0 .1.1.2.2.3 0 .6.1 1.3-.1 1.9-.2.8-.1 1.6 0 2.4.1.4.1.8 0 1.2-.1.4-.2.8-.4 1.1.3.3.4.4.3.7-.4.9-.1 1.9-.4 2.8.2.6.4 1.3.7 1.8.1.1.5.2.8.3.3 0 .4 0 .6-.1.4-.1.6-.1.9.2.1.1.3.1.4.1.3 0 .6-.1.9-.1.4.3.8 0 1.2-.1.3-.1.7-.1 1-.2 1.2-.2 2.4.1 3.6-.3.3.3.6.3.8 0 .3-.2.8 0 1.1-.2.4-.4.8-.3 1.4-.3-.1-.4.5-.6.1-1.1-.2-.3 0-.9-.2-1.3-.3-.4.1-.8 0-1.1 0-.5-.2-.9-.2-1.4 0-.2.2-.4.2-.6.1-.6.3-1.3.1-1.9-.1-.2-.1-.5 0-.8.3-.5.5-1 .2-1.6z"/><path d="M70.7 105.6c-.2-.5-.2-.9-.2-1.4s.1-.9 0-1.4c-.2-.6-.3-1.1-.2-1.7 0-.3 0-.6-.1-.8-.3-.4-.3-.9-.3-1.3-.1-.3-.2-.8-.3-1.1-.3-.1-.5-.1-.8-.1-.7.1-1.3.1-1.9-.2-.4-.2-.7 0-1 .3-.4-.5-.4-.6-.8-.5-.7 0-1.3.1-2 .1-.7.1-1.4.3-2.1.1-.9-.2-1.9 0-2.8-.1-1.2-.1-2.4-.1-3.6-.1-.1 0-.2-.1-.3-.1 0-.1-.1-.1-.1-.2h-.5c-2.4 3.1-7 3.3-10.4 1.6-.2-.1-.4-.3-.6-.4v1c0 .1-.1.3-.1.4 0 .6.1 1.3.1 1.9 0 .2.1.4-.1.5-.2.3-.1.6 0 .9.1.3.2.6.1.8-.4 1.2-.1 2.5.3 3.6 0 .1.1.3 0 .3-.4.6 0 1.2-.4 1.8.6 0 1.2.1 1.7.1l2.9.1c.1 0 .3-.1.4-.1l1.6-.1c.6-.1 1.1-.3 1.7-.1.1.1.4-.1.6-.2.4-.3.8-.3 1.2-.1.5.3 1 .3 1.6.2.4-.1.9-.3 1.3.1.2.2.5.2.8 0 .1-.1.3-.1.3-.1 1.2.1 2.3 0 3.5.1.1.1.3.1.3.1l1-.3c.3-.1.6.3.9.2.8-.1 1.6.3 2.3-.3h.3c1.1.1 2.3-.2 3.3-.4.2-.1.3 0 .5-.1l2-.3c0-.7-.1-1.2.1-1.8 0-.3 0-.6-.2-.9z" fill="#eda400"/><path class="st175" d="M89 104c.1-.3 0-.5-.1-.8v-.7c.1-.8.1-1.4.1-2.1 0-.8.1-1.6 0-2.3 0-.6.1-1.2.1-1.8-3.5 2.8-8.8 3.1-12.5.6-.2-.1-.4-.3-.5-.5h-.4v.1c.2.4 0 .8 0 1.3-.1.4.1.9.3 1.3 0 .1-.1.2-.1.3-.2.6-.1 1.2-.2 1.8 0 .4.3.9.2 1.4 0 .6-.2 1.3-.3 2.1.1.3.5.6.3.9-.3.4-.1.9.1 1.3.3.3.3.6.1.8-.3.4-.3.8.1 1.3 1.1.1 2.3-.2 3.5.1.1 0 .3-.1.4-.1.4-.2 1-.1 1.3-.4.4-.4.8-.1 1.3-.1.8-.1 1.4.1 2.3-.1.3-.1.8-.2 1.1.1h.3c.4-.4.8-.1 1.3 0s.8 0 1-.4c.3-.6.2-1.3.7-2 .1-.1 0-.3 0-.4-.5-.6-.5-1.1-.4-1.7zM111.9 111c-.2-.4-1.5-1.5-1.6-1.9-.1-.5-.1-.9-.5-1.2-.1-.1-.1-.3-.1-.4-.1-1-1.2-2.6-1.4-3.5-.6-.5-.6-1.1-.6-1.8-.1-.7-.6-1.3-.6-2-.5-.5-.4-1.4-1.1-1.8-.1-.1-.1-.3-.1-.4-.1-.2 0-.4-.1-.5-.3-.2-.3-.6-.4-.9-2.5 4-8.4 3-11.7.5-.3-.2-.5-.5-.7-.8h-.4c0 .1.1.2.1.3.1.3.3.4.4.8.1.4.4.8.6 1.1-.3.6.3 1.1.3 1.7.1.5.3 1 .5 1.5.1.1.3.3.3.4.1.4.3.8.3 1.2.1.5.5.8.6 1.3.1.1.1.3.1.4-.2.3-.1.4.1.6.3.3-.1.9.5 1.1.1.1.1.4.1.6 0 .5-.1 1 .4 1.3.1.1.1.4.1.5.3.5 0 1.1.4 1.6.3.3.4.6.7.9.6 0 1.4.4 2.1.1.2-.1.5.1.7.1.6.2 1.1.1 1.6-.1.8.6.9.6 1.4.5.5-.1 1-.3 1.4-.3.5.1 1 0 1.5.1.2.1.6-.2.6-.1.4.4.7.2 1.1.1.6-.3.9-.3 1.6 0l.6-.6c-.4-.4 1.4 0 1.2-.4z"/><path class="st173" d="M141.5 105.6c-.2-.5-.2-.9-.2-1.4s.1-.9 0-1.4c-.2-.6-.3-1.1-.2-1.7 0-.3 0-.6-.1-.8-.3-.4-.3-.9-.3-1.3-.1-.3-.2-.8-.3-1.1-.3-.1-.5-.1-.8-.1-.7.1-1.2.1-1.8-.2h-.7c-.1.1-.2.1-.4.2-.1-.1-.2-.2-.2-.3-.9 0-1.8-.1-2.6-.1-.7.1-1.4.2-2 .1-.9-.2-1.9 0-2.8-.1-1.2-.1-2.4-.1-3.6-.1-3.8 1.8-7.9 3.4-11.2-.3-.1-.1-.2-.3-.3-.4 0 .2 0 .5-.1.7-.2.6-.3 1.3-.2 1.9 0 .1-.1.3-.1.4 0 .6.1 1.3.1 1.9 0 .2.1.4-.1.5-.2.3-.1.6 0 .9.1.3.2.6.1.8-.4 1.2-.1 2.5.3 3.6 0 .1.1.3 0 .3-.4.6 0 1.2-.4 1.8.6 0 1.2.1 1.7.1l2.9.1c.1 0 .3-.1.4-.1l1.6-.1c.6-.1 1.1-.3 1.7-.1.1.1.4-.1.6-.2.4-.3.8-.3 1.2-.1.5.3 1 .3 1.6.2.4-.1.9-.3 1.3.1.2.2.5.2.8 0 .1-.1.3-.1.3-.1 1.2.1 2.3 0 3.5.1.1.1.3.1.3.1l1-.3c.3-.1.6.3.9.2.8-.1 1.6.3 2.3-.3h.1c1.1.1 2.3-.2 3.3-.4.2-.1.3 0 .5-.1l2-.3c0-.7-.1-1.2.1-1.8 0-.2 0-.5-.2-.8z"/><path class="st171" d="M146.2 64.4c0-.1 0-.1.1-.1.3-.4-.3-.6-.3-.9.1-.4.2-.6.3-.9 0-.4-.1-.8-.1-1.1-.1-.3-.1-.5-.2-.8-.2-.3-.1-.6.1-1 .1-.1-.1-.4-.1-.5.3-.3.5-.5.9-.8.6.1 1.3-.3 1.8.3h2c.2 0 .3-.1.4-.1.6-.2 1.2.5 1.8.1.4-.5 1.2-.3 1.8-.2.8 0 1.4.1 2.2.2.4.1.9.3 1.4.2.4-.1.9.1 1.4.1.3.6.1 1.4 0 1.9-.1.6-.1 1.1.1 1.8 0 .3.3.6.1 1.1-.1.2 0 .6.1.8.4.6.3 1.2.3 2 0 .6-.1 1.2.3 1.8.2.3 0 .8.2 1.1.1.4.1.9-.2 1.3.4.3.6.6.7 1.2.1 1.3-.2 2.5-.1 3.6.2 1.1.1 2.2.6 3.1-.1.3-.3.5-.2.6.7 1.5.4 2.9.1 4.3-.1.3-.1.5-.1.6.6.8.4 1.4-.1 2 .1.4.3.7.4 1 .1.3.1.5-.2.6-.4.3-.1.9-.3 1.3 0 .1.1.3.2.3.4.4.4.8.1 1.3-.1.1-.3.4-.2.4.6.6-.1 1.1-.1 1.8 0 .2-.1.5-.1.6.4.5.1.9.1 1.4.1.6-.2.9-.7.9-.9 0-1.6.3-2.5.1-.1-.1-.3-.1-.4 0-.6.4-1-.1-1.6.1-.4.1-.6-.6-.9-.3-.4.4-.8-.1-1.1.1-.3.1-.8 0-1.2.2-.4.1-.9.2-1.3.1-.9-.1-2-.2-2.9-.1-.7.1-1.1-.2-1.7-.1-.4-.5-.5-1-.1-1.6.1-.2 0-.4 0-.7 0-.1-.3-.3-.2-.4.3-.7.4-1.4 0-2.1-.1-.2 0-.5.2-.8.3-.8.3-1.6.1-2.5-.1-.3-.1-.5.1-.9.3-.3-.1-.8-.1-1.3 0-.1-.3-.3-.3-.3.3-1-.3-2 0-3 .3-.6.3-1.1-.1-1.5-.1-.1-.1-.3-.1-.4.4-.7 0-1.4.1-2 .1-.6-.2-1.1.1-1.6-.5-.9 0-1.6-.1-2.3-.1-1.3-.1-2.6 0-3.8 0-.1-.1-.3-.1-.4-.3-.6-.2-1.1-.1-1.6.1-.4 0-.7-.2-1.1-.3-.6-.3-.6.3-1.3-.5-.8-.5-1.3-.4-1.8zm7.4 35.3c.4.1.9-.2 1.3.1.5.3 1-.1 1.4.1.4.1.8.6 1.3 0 .1-.1.6.1.7.3.3.3.9.4 1.3.4 1.1.1 1.9 1.2 1.9 2.3 0 .2 0 .4.1.6 0 .1.2.3.1.3-.3.6-.2 1.1-.1 1.6 0 .2-.2.4-.3.6.2.2.3.4.4.7.1.1.1.3.1.3-.4.4-.4 1-.4 1.5-.1.4-.4.8-.9.8-.6.1-1.2 0-1.8.4-.1.1-.3.1-.3 0-.4-.3-.9-.2-1.4-.1-.4.1-.9.2-1.3-.1-.7-.4-1.3-.2-1.9-.1-.4 0-.8.3-1.1.3-.2 0-.6-.3-.9-.3-.2-.1-.5 0-.7.1-.4.2-.9-.1-1.4 0-.6.1-.9-.4-1.3-.5-.3-.4-.4-.8.1-1.3.2-.3.3-.7.3-1.1 0-.6-.1-1.2-.3-1.8-.3-.8-.3-1.6-.1-2.5.1-.4.1-.8-.1-.9-.6-.6-.1-1 .3-1.6 1.6-.2 3.2-.3 5-.1zM162.8 120.3H1.7c-.9 0-1.7-.8-1.7-1.7 0-.9.8-1.7 1.7-1.7h161.1c.9 0 1.7.8 1.7 1.7 0 1-.8 1.7-1.7 1.7z"/><path class="st170" d="M162.8 3.4H1.7C.8 3.4 0 2.6 0 1.7 0 .8.8 0 1.7 0h161.1c.9 0 1.7.8 1.7 1.7 0 .9-.8 1.7-1.7 1.7z"/><path class="st0" d="M10 46.1c-.8-.9-.2-2.9-.3-4-.1-1-.5-1.8-.8-2.7-.9-2.8-1-6-1.4-9-.9-6.1-1.7-12.2-2.6-18.3-.1-.6-1-.3-.9.2C5 18.9 5.9 25.5 6.8 32c.4 3 .8 5.9 1.7 8.8.5 1.9-.5 4.5.8 6 .4.4 1.1-.3.7-.7zM56.8 12.3c0-.6-.9-.6-.9 0-.9 11 .8 22.1-.6 33.1-.1.6.9.6.9 0 1.4-11-.3-22.1.6-33.1zM117.3 12.2c0-.6-.9-.6-.9 0-.9 11 .8 22.1-.6 33.1-.1.6.9.6.9 0 1.4-11-.3-22.1.6-33.1zM145.8 12.1c0-.6-.9-.6-.9 0-.9 11 .8 22.1-.6 33.1-.1.6.9.6.9 0 1.4-11-.2-22 .6-33.1zM149.2 63.5c0-.6-.9-.5-.9.1-.3 11.1 1.7 16.7 1 27.8 0 .6.9.5.9-.1.7-11.1-1.3-16.7-1-27.8zM92.8 13.2c-.2 3.1-1 6.3-1.6 9.4-.5 2.6-1.5 4.7-2.4 7.1-.8 2.2-.7 4.7-.8 7-.1 1.4 0 2.9-.2 4.2-.2 1.3-.9 2.3-1.1 3.6-.1.6.8.8.9.2.2-1.1.8-1.9 1.1-3 .2-1.1.2-2.2.3-3.3.2-3.4 0-6.7 1.5-9.8 1.1-2.3 1.6-4.6 2-7 .5-2.8 1.2-5.6 1.4-8.4-.2-.6-1.1-.6-1.1 0zM117.6 84.4c0-7.8-.2-15.6-.9-23.4-.1-.6-1-.6-.9 0 .8 8.1.9 16.2.9 24.3 0 3.7.1 7.5-.3 11.2-.4 3.5-1.5 6.9-.4 10.4.2.6 1.1.3.9-.2-1.2-3.8.3-7.6.6-11.4.2-3.6.1-7.3.1-10.9zM79.2 98.3c0-4.1 0-8.2-.1-12.3-.1-8.1-.3-16.1-.5-24.2 0-.6-.9-.6-.9 0 .2 7.5.4 14.9.5 22.4.1 3.7.1 7.3.1 11v5.5c0 2.1.3 4.6-.6 6.5-.3.5.5 1 .8.5 1.4-2.9.7-6.5.7-9.4zM47.3 61.7c.1-.6-.8-.8-.9-.2-1.2 7.7-.2 15.5-.6 23.3-.2 4-.6 8-.8 12-.2 3.7-.7 7.5-.1 11.1.1.6 1 .3.9-.2-.6-3.8 0-7.9.2-11.8.3-3.7.6-7.4.8-11.1.4-7.7-.6-15.5.5-23.1zM5.8 61.8c0-.6-.9-.6-.9 0 0 4 .6 7.8 0 11.7-.6 3.5-.8 6.9-.9 10.4l-.3 23.6c0 .6.9.6.9 0l.3-23.6c0-4 .5-7.7 1-11.7.5-3.4-.1-6.9-.1-10.4z"/></g></svg>