<svg xmlns="http://www.w3.org/2000/svg" viewBox="0 0 149.9 88.2"><style>.st0{fill:#fff}.st463{fill:#ef714b}</style><g id="Layer_1"><path class="st463" d="M145.6 44.4c-.2-.2-.4-.3-.7-.5l-.6-.6c-2.3-2-5.3-3-8.5-2.8.2-1.6 0-3.3-.4-5-.6-2.1-1.6-4-3.1-5.6-.6-.6-1.2-1.1-1.8-1.6-1.1-1.1-2.3-1.9-3.8-2.6-1.5-.7-3.1-1.1-4.8-1.3-.8-.1-1.6-.1-2.4 0L41 30.2c-1.2.1-2.4.4-3.6.8-1.6.6-3.2 1.5-4.5 2.7-.9.8-1.8 1.8-2.5 2.8-.3.5-.6.9-.9 1.3-.4.7-.9 1.4-1.5 2.3-.7 1.2-1.4 2.5-2 3.8-.5 1.1-.9 2.3-1.2 3.5h-.6l-13.3 1c-3.3.2-6.2 1.7-8.2 4-2.1 2.4-3.1 5.5-2.9 8.8l1.1 15c.2 3.3 1.7 6.2 4 8.2.2.2.4.4.7.5.2.2.4.4.6.5 2.4 2.1 5.5 3.1 8.8 2.9l21.4-1.6c1.9-.1 3.7-.7 5.3-1.7l36.1-2.6c2.1-.2 4-.6 5.8-1.4 2.7 1.3 5.9 1.9 9.5 1.6l5.6-.4c1.9-.1 3.7-.7 5.3-1.7l31.7-2.3c3.2-.2 6.1-1.7 8.1-4 2-2.4 3-5.4 2.8-8.6l-.1-1.8.1-.1c2.1-2.4 3.1-5.4 2.8-8.7l-.2-2.4c.2-3.3-1.2-6.2-3.6-8.2z"/><path class="st0" d="M91 78c-3.6.3-6.7-.4-9.3-2-1.8 1-3.8 1.6-6 1.8L39 80.5c-1.4.9-3 1.5-4.7 1.6l-21.4 1.6c-2.6.2-5-.6-6.9-2.2-1.8-1.6-3-3.9-3.1-6.4L1.7 60c-.2-2.6.6-5 2.2-6.9 1.6-1.9 3.9-3 6.5-3.2l13.3-1c.8-.1 1.7 0 2.5.1.1-.4.1-.7.2-1.1.3-1.4.8-2.8 1.3-4.1.5-1.2 1.1-2.4 1.8-3.4.5-.9 1-1.6 1.4-2.2.2-.3.5-.7.8-1.2.6-.9 1.4-1.7 2.1-2.4 1.1-1 2.4-1.8 3.7-2.3.9-.3 1.9-.6 2.8-.6L119 26h2c1.4.1 2.7.5 3.9 1.1 1.3.6 2.5 1.5 3.5 2.6 1.2 1.3 2 2.8 2.5 4.5.5 1.8.5 3.6.2 5.3-.2 1.1-.6 2.1-1.2 3.1l5.2-.4c2.5-.2 4.9.6 6.8 2.2 1.8 1.6 3 3.9 3.1 6.4l.2 2.4c.2 2.5-.6 4.9-2.2 6.8-.3.3-.5.6-.8.8l.2 2.9c.2 2.5-.6 4.9-2.2 6.8-1.6 1.8-3.8 3-6.4 3.1L101.4 76c-1.4.9-3 1.5-4.7 1.6L91 78z"/><path class="st463" d="M141.3 45c-1.7-1.4-3.9-2.2-6.2-2l-7 .5c.1-.1.2-.3.3-.4.9-1.2 1.4-2.5 1.8-3.9.3-1.6.3-3.2-.1-4.9-.4-1.6-1.2-3-2.3-4.2-.9-1-2-1.8-3.2-2.4-1.1-.5-2.4-.9-3.6-1-.6-.1-1.2-.1-1.9 0l-78.5 5.8c-.9.1-1.8.3-2.6.6-1.3.5-2.4 1.2-3.4 2.1-.7.7-1.4 1.4-2 2.2-.3.4-.6.8-.8 1.2-.4.6-.9 1.4-1.4 2.2-.7 1.1-1.2 2.2-1.8 3.3-.6 1.3-1 2.6-1.3 3.9-.1.7-.2 1.3-.3 2-1-.3-2.1-.4-3.2-.3l-13.3 1c-2.4.3-4.5 1.3-5.9 3-1.5 1.7-2.2 3.9-2 6.3l1.1 15c.2 2.3 1.2 4.4 2.9 5.9s3.9 2.2 6.3 2l21.4-1.6c1.7-.1 3.2-.7 4.5-1.6l7.3-.5 6.5-.5 3.2-.2 13.9-1 6.2-.4c2.6-.2 4.6-1 6-2 2.5 1.7 5.5 2.4 9.2 2.1l5.6-.4c1.7-.1 3.2-.7 4.5-1.6l1.3-.1 4.7-.3 3-.2 3.8-.3 2.9-.2 4.9-.4 3-.2 5.8-.4 3.2-.2c2.3-.2 4.4-1.2 5.8-2.9 1.4-1.7 2.2-3.9 2-6.2l-.2-3.4c.4-.3.8-.7 1.1-1 1.5-1.7 2.2-3.9 2-6.2l-.2-2.4c-.3-2.3-1.3-4.4-3-5.8z"/><path class="st0" d="M34.7 52.3c-.2-.7-.2-1.5 0-2.4.2-.8.5-1.7.8-2.5.4-.8.8-1.6 1.3-2.4.5-.8.9-1.4 1.3-2 .2-.3.4-.6.7-1 .3-.4.6-.7.9-1 .3-.3.7-.5 1.1-.7.4-.1.8-.1 1.2 0 .4.1.6.4.7.7.1.3.2.6.2 1s0 .7-.1 1.1c-.1.4-.1.7-.2 1-.1.8-.3 1.7-.4 2.5-.1.8-.2 1.6-.2 2.4 0 .3 0 .5.1.6.1.1.1.1.2 0s.2-.2.3-.4.2-.4.4-.5c.3-.5.7-1 1-1.7.4-.6.7-1.3 1-2.1s.6-1.4.9-2.2c.3-.7.5-1.4.6-2.1v-.4c0-.1 0-.2.1-.3.1-.1.2-.2.3-.2.1 0 .2-.1.4-.1s.2 0 .3.1c.1.1.2.1.3.3.1.2.2.4.2.7v.7c0 .6-.1 1.3-.3 2l-.6 2.1c-.3.7-.5 1.3-.9 2-.3.6-.6 1.2-.9 1.7l-.6.9c-.2.3-.4.6-.7.9-.3.3-.5.5-.8.7-.3.2-.6.4-.9.5-.4.1-.9.1-1.3 0s-.8-.4-1-.8c-.2-.4-.4-.8-.5-1.3-.1-.5-.1-1-.1-1.6 0-.6.1-1.2.2-1.8.1-.6.2-1.3.4-1.9.1-.6.2-.9.1-1-.1-.1-.3.2-.7.7-.3.5-.6 1-1 1.6-.4.6-.7 1.3-1 2-.3.7-.6 1.4-.9 2-.3.7-.4 1.2-.5 1.7 0 .2-.1.3-.1.5s-.1.3-.3.4c.1.3-.1.3-.2.3s-.2 0-.4-.1l-.3-.3c0-.1-.1-.2-.1-.3zM50.6 49.4c.3.2.6.3 1 .2.3 0 .7-.1 1.1-.3.4-.2.7-.4 1.1-.6.4-.3.7-.5 1-.8.3-.3.6-.6.9-.8.3-.3.5-.5.6-.7l.3-.3h.3c.1.1.1.2.2.3v.4c-.5 1.3-1.3 2.4-2.2 3.3-.3.3-.6.5-1 .8-.4.2-.7.4-1.1.6-.4.2-.8.3-1.2.3-.4 0-.8 0-1.2-.1-.5-.1-.9-.3-1.2-.6-.3-.3-.5-.6-.7-1-.2-.4-.2-.8-.3-1.2 0-.4 0-.9.1-1.3s.2-.9.4-1.3l.6-1.2c.2-.3.4-.7.7-1 .3-.3.5-.6.9-.9.3-.3.6-.5 1-.7.4-.2.7-.3 1.1-.4.5-.1.9-.1 1.4.1.5.2.8.5 1.1.9.3.4.4.8.4 1.2 0 .4-.1.9-.2 1.3-.2.4-.4.8-.7 1.2-.3.4-.6.7-.9.9-.6.4-1.1.6-1.7.7-.6.1-1.2.1-1.7-.1-.1.3-.1.5-.1.7-.3.1-.2.3 0 .4zm1.4-2.9c.4-.2.8-.5 1.1-.9.1-.1.2-.2.3-.4.1-.2.2-.4.2-.5 0-.2 0-.3-.1-.3h-.4c-.2.1-.4.2-.5.3l-.4.4c-.2.2-.4.5-.6.8-.2.3-.4.6-.5.8.2 0 .6 0 .9-.2z"/><path class="st0" d="M58.6 48.8c.3.2.6.3 1 .2.3 0 .7-.1 1.1-.3.4-.2.7-.4 1.1-.6.4-.3.7-.5 1-.8.3-.3.6-.6.9-.8.3-.3.5-.5.6-.7l.3-.3h.3c.1.1.1.2.2.3v.4c-.5 1.3-1.3 2.4-2.2 3.3-.3.3-.6.5-1 .8-.4.2-.7.4-1.1.6-.4.2-.8.3-1.2.3-.4 0-.8 0-1.2-.1-.5-.1-.9-.3-1.2-.6-.3-.3-.5-.6-.7-1-.2-.4-.2-.8-.3-1.2 0-.4 0-.9.1-1.3s.2-.9.4-1.3l.6-1.2c.2-.3.4-.7.7-1 .3-.3.5-.6.9-.9.3-.3.6-.5 1-.7.4-.2.7-.3 1.1-.4.5-.1.9-.1 1.4.1.5.2.8.5 1.1.9.3.4.4.8.4 1.2 0 .4-.1.9-.2 1.3-.2.4-.4.8-.7 1.2-.3.4-.6.7-.9.9-.6.4-1.1.6-1.7.7-.6.1-1.2.1-1.7-.1-.1.3-.1.5-.1.7-.2.1-.2.3 0 .4zm1.4-2.9c.4-.2.8-.5 1.1-.9.1-.1.2-.2.3-.4.1-.2.2-.4.2-.5 0-.2 0-.3-.1-.3h-.4c-.2.1-.4.2-.5.3l-.4.4c-.2.2-.4.5-.6.8-.2.3-.4.6-.5.8.2 0 .6 0 .9-.2z"/><path class="st0" d="M73.4 45.2s.1-.1.1-.2.1-.1.2-.2.1-.1.2-.1.1 0 .2.1.1.1.1.2v.3c0 .1-.1.2-.1.3 0 .1-.1.2-.1.2-.3.8-.6 1.5-1.1 2.2-.5.7-1 1.3-1.6 1.8l-.6.3c-.2.1-.5.1-.7.1-.3-.1-.6-.2-.8-.4-.2-.2-.3-.5-.4-.8-.1-.3-.1-.6 0-1s.1-.6.3-.9c-.1.2-.3.5-.4.8-.2.3-.3.6-.5.9-.2.3-.4.6-.6.8-.2.3-.4.5-.7.6-.2.2-.5.3-.8.3-.3.1-.5 0-.8-.1-.4-.2-.8-.4-1-.7-.2-.3-.4-.7-.4-1.1-.1-.4-.1-.8 0-1.3.1-.4.2-.9.3-1.3.1-.4.3-.8.5-1.2.2-.4.4-.7.5-1 .3-.5.7-1 1.1-1.5.4-.5.9-.9 1.4-1.2.2-.1.4-.2.7-.3.2-.1.5-.1.8-.2h.8c.3 0 .5.2.7.3.1.1.2.2.2.3.1-.2.1-.4.2-.7.1-.3.2-.6.4-.9.1-.3.3-.6.5-1l.6-.9c.2-.3.4-.5.6-.6.2-.2.5-.2.7-.2.2 0 .4.1.6.2.2.1.3.2.4.4.1.2.2.3.2.6v.6c-.1.3-.2.5-.3.8-.1.2-.3.5-.4.7-.2.2-.3.5-.5.7-.2.2-.3.5-.5.7-.4.9-.8 1.7-1.1 2.6-.4.9-.7 1.7-.9 2.6-.1.2 0 .4.1.4.1.1.3-.1.6-.3l.7-.7c-.1-.1.2-.5.6-1zm-4.3-2.1c-.3.2-.6.6-1 .9l-.9 1.2c-.3.4-.5.9-.7 1.3-.2.4-.3.8-.4 1.2-.1.3 0 .4.1.5.1.1.3 0 .6-.2.2-.2.5-.4.7-.7.3-.3.5-.6.8-1 .3-.3.5-.7.8-1 .3-.4.5-.7.7-.9l.3-.9.3-.9c-.2 0-.4.1-.6.1-.2 0-.4.1-.7.4zM86.4 38.3c-.4.6-.7 1.2-1.1 1.8s-.8 1.2-1.1 1.8c.5.1.9.2 1.3.3.4.2.8.4 1.1.8.2-.6.5-1.2.9-1.8.4-.6.7-1.2 1.1-1.8.4-.6.8-1.1 1.2-1.6.4-.5.8-.8 1.2-1 .2-.1.4-.2.6-.1.2 0 .3.1.4.2.1.1.2.3.1.5 0 .2-.1.4-.3.6-.4.4-.8 1-1.2 1.7-.4.7-.8 1.4-1.2 2.2-.4.8-.7 1.5-1 2.3-.3.8-.5 1.4-.6 2-.1.4-.1.7.1.7.1.1.4 0 .7-.3l.4-.4c.2-.2.3-.4.5-.6.2-.2.4-.5.7-.8.3-.3.6-.7.9-1.1.1-.2.3-.3.4-.3h.3c.1.1.1.1.1.3 0 .1 0 .3-.1.5-.2.4-.3.8-.5 1.2-.2.4-.3.8-.5 1.1-.2.4-.4.7-.6 1-.2.3-.5.6-.8.9-.3.2-.6.4-.9.5-.3.1-.7.2-1 .2s-.6-.1-1-.2c-.3-.1-.6-.4-.7-.7-.3-.5-.4-1.1-.4-1.7 0-.6.2-1.3.4-1.9-.1-.2-.2-.3-.5-.4 0-.2-.3-.2-.6-.3-.3 0-.6 0-.9.1-.3.1-.6.1-.8.2-.1.3-.3.6-.4 1-.1.3-.3.7-.4 1-.1.3-.2.7-.2 1v1c0 .1.1.3.1.4 0 .1.1.3.1.4 0 .2-.1.4-.2.5-.2.1-.3.2-.5.2s-.4-.1-.5-.2c-.2-.1-.3-.3-.4-.5l-.3-.6c-.1-.2-.1-.4-.2-.6-.1-.5-.1-1-.1-1.5.1-.5.1-1 .3-1.5-.3.1-.5.1-.7.2-.2.1-.4.1-.6.2-.2 0-.3.1-.4 0-.1 0-.2-.1-.2-.1-.1-.1-.1-.2 0-.4 0-.1.1-.3.2-.4.1-.1.2-.3.3-.4.1-.1.2-.2.2-.3.3-.3.6-.5.9-.7.4-.2.8-.4 1.3-.6.2-.5.5-.9.8-1.4s.6-1 1-1.4c.3-.5.7-.9 1.1-1.3.4-.4.9-.7 1.3-.9.2-.1.4-.1.6-.1.2 0 .3.1.4.2.1.1.2.2.2.4-.1.1-.1.3-.3.5z"/><path class="st0" d="M93.7 46.3c.3.2.6.3 1 .2.3 0 .7-.1 1.1-.3.4-.2.7-.4 1.1-.6.4-.3.7-.5 1-.8.3-.3.6-.6.9-.8.3-.3.5-.5.6-.7l.3-.3h.3c.1.1.1.2.2.3v.4c-.5 1.3-1.3 2.4-2.2 3.3-.3.3-.6.5-1 .8-.4.2-.7.4-1.1.6-.4.2-.8.3-1.2.3-.4 0-.8 0-1.2-.1-.5-.1-.9-.3-1.2-.6-.3-.3-.5-.6-.7-1-.2-.4-.2-.8-.3-1.2 0-.4 0-.9.1-1.3s.2-.9.4-1.3l.6-1.2c.2-.3.4-.7.7-1 .3-.3.5-.6.9-.9.3-.3.6-.5 1-.7.4-.2.7-.3 1.1-.4.5-.1.9-.1 1.4.1.5.2.8.5 1.1.9.3.4.4.8.4 1.2 0 .4-.1.9-.2 1.3-.2.4-.4.8-.7 1.2-.3.4-.6.7-.9.9-.6.4-1.1.6-1.7.7-.6.1-1.2.1-1.7-.1-.1.3-.1.5-.1.7-.3.1-.2.3 0 .4zm1.3-2.9c.4-.2.8-.5 1.1-.9.1-.1.2-.2.3-.4.1-.2.2-.4.2-.5 0-.2 0-.3-.1-.3h-.4c-.2.1-.4.2-.5.3l-.4.4c-.2.2-.4.5-.6.8-.2.3-.4.6-.5.8.3 0 .6-.1.9-.2z"/><path class="st0" d="M102.7 41c-.4.9-.8 1.8-1.1 2.4-.3.7-.5 1.3-.6 2-.1.4 0 .6.2.7.2.1.4 0 .6-.2.5-.5.9-1 1.3-1.5s.8-1.1 1.1-1.6c.1-.2.3-.2.4-.2.2 0 .2.2.2.4 0 .1 0 .2-.1.5-.1.2-.1.4-.2.7l-.3.6c-.1.2-.1.3-.2.4-.3.7-.6 1.2-1 1.7s-.7.8-1.1 1.1c-.4.2-.7.4-1.1.4-.4 0-.7-.1-1-.3-.3-.2-.5-.4-.7-.7l-.3-.9v-1c0-.3.1-.7.1-.9.1-.7.3-1.4.6-2 .2-.7.5-1.3.8-1.9.1-.2.2-.5.4-.9s.4-.8.6-1.3c.2-.5.5-.9.8-1.4s.6-.8.9-1.1c.3-.3.6-.5 1-.6.3-.1.7 0 1 .2.3.2.4.5.5.8 0 .3 0 .7-.1 1.1-.1.4-.3.8-.5 1.2-.2.4-.5.8-.8 1.2-.3.4-.5.7-.8.9-.2-.1-.4.1-.6.2z"/><path class="st0" d="M107.7 39.6v.4c.2-.3.4-.6.5-.9.2-.3.4-.6.7-.8.3-.2.5-.3.8-.4h.8c.3.1.5.2.7.4.2.2.4.4.5.7.2.4.3.8.3 1.2 0 .4 0 .8-.1 1.3l-.3 1.2c-.1.4-.3.8-.4 1.1-.2.5-.5.9-.8 1.4-.3.4-.6.8-.9 1.1-.3.3-.7.6-1 .8-.4.2-.7.4-1.1.4-.4.1-.9.1-1.4 0s-.8-.3-1.1-.7c-.2.4-.4.9-.6 1.4-.2.5-.3.9-.5 1.4 0 .1-.1.3-.1.4 0 .1-.1.3-.1.4 0 .1-.1.3-.2.4l-.3.3c-.2.1-.3.2-.5.2s-.3 0-.5-.1-.3-.2-.4-.3c-.1-.1-.2-.3-.2-.5-.1-.2-.1-.5 0-.7 0-.3.1-.5.2-.8s.2-.5.3-.8c.1-.3.2-.5.3-.7.1-.3.3-.6.4-1 .2-.4.4-.8.6-1.3l.6-1.5.6-1.5c.2-.5.4-.9.6-1.4.2-.4.3-.8.4-1.1 0-.2 0-.4.1-.6.1-.2.2-.3.4-.4.2-.1.3-.1.5-.2.2 0 .4 0 .5.1.2.1.3.2.4.3.2.4.3.6.3.8zm-.5 5.7c.2-.1.4-.3.6-.5.2-.2.4-.5.5-.7.2-.3.3-.5.4-.8.1-.3.3-.5.4-.8.1-.2.2-.4.3-.7.1-.3.2-.5.3-.8.1-.3.1-.5.1-.7 0-.2 0-.3-.1-.4-.1-.1-.3 0-.5.2s-.6.5-1 1c-.3.3-.5.7-.8 1-.2.4-.5.7-.7 1.1 0 .1-.1.1-.1.2s-.1.2-.2.3c-.1.1-.1.3-.2.5s-.2.4-.3.7c0 .1.1.2.2.3l.3.3c.1.1.3.1.4.1.1-.2.2-.2.4-.3zM116.3 46.4c-.1.2-.3.4-.5.5-.2.1-.4.2-.7.3-.2 0-.5 0-.7-.1-.2-.1-.4-.3-.6-.6-.1-.2-.1-.4-.1-.6 0-.2 0-.4.1-.6.1-.2.2-.4.3-.5.1-.2.3-.3.4-.4.3-.2.6-.2.9-.2.3.1.5.2.7.4.2.2.3.5.3.8.1.3 0 .6-.1 1zm-.2-7.4c-.2-.2-.2-.4-.3-.7v-.7c.1-.2.1-.5.2-.7.1-.2.2-.4.4-.6.3-.4.7-.8 1.2-1.1.5-.3.9-.5 1.5-.6.4-.1.7-.1 1.1-.1.4 0 .7.1 1.1.3l.9.6c.2.3.4.6.5 1 .1.4.1.8 0 1.1-.1.3-.2.7-.4 1-.2.3-.5.6-.8.8-.3.2-.6.5-1 .7-.3.2-.7.4-1 .6-.3.2-.7.3-1 .5-.5.2-.9.5-1.3.8-.4.3-.8.6-1.2 1l-.3.3c-.1.1-.3 0-.4-.1-.1-.1-.1-.2-.1-.3v-.3c0-.1.1-.2.1-.3 0-.1.1-.2.1-.3.1-.3.3-.5.5-.8.2-.2.4-.5.7-.7.2-.2.5-.4.8-.6.3-.2.5-.4.8-.5.1-.1.3-.2.6-.4s.5-.4.8-.6c.3-.2.5-.4.7-.6.2-.2.3-.4.2-.5s-.2-.2-.3-.2c-.2 0-.4 0-.6.1-.2.1-.5.1-.7.2-.2.1-.4.2-.5.2-.1.1-.3.1-.5.2s-.3.2-.5.3c-.2.1-.3.3-.4.4-.1.1-.2.3-.2.5s-.2.3-.3.3c-.1 0-.3 0-.4-.2z"/><g><path class="st0" d="M26.4 74.7l-12.6.9c-.3 0-.5 0-.7-.2-.2-.1-.2-.4-.3-.7l-1.2-16c0-.3 0-.5.2-.7.1-.2.4-.2.7-.3l3.8-.3c.3 0 .5 0 .7.2.2.1.2.4.3.7l.9 12.2 3.4-.2-.3-4c0-.3 0-.5.2-.7.1-.2.4-.2.7-.3l3.6-.3c.3 0 .5 0 .7.2.2.1.2.4.3.7l.6 7.8c0 .3 0 .5-.2.7-.3.2-.5.3-.8.3zM39 72.4l-9.7.7c-.3 0-.5 0-.6-.1-.1-.1-.2-.3-.2-.6l-1-13.6c0-.3 0-.5.1-.6.1-.1.3-.2.6-.2l9.7-.7c.3 0 .5 0 .6.1.1.1.2.3.2.6l.2 2.5c0 .3 0 .5-.1.6-.1.1-.3.2-.6.2l-5.8.4.1 1.6 4.1-.3c.3 0 .5 0 .6.1s.2.3.2.6l.2 2.2c0 .3 0 .5-.1.6s-.3.2-.6.2l-4.1.3.1 1.8 5.8-.4c.3 0 .5 0 .6.1.1.1.2.3.2.6l.2 2.5c0 .3 0 .5-.1.6-.2.1-.4.2-.6.2zM49.3 71.7l-3.4.2c-.3 0-.5 0-.6-.1-.1-.1-.2-.3-.2-.6l-.7-10.3-3.1.2c-.3 0-.5 0-.6-.1-.1-.1-.2-.3-.2-.6l-.2-2.5c0-.3 0-.5.1-.6s.3-.2.6-.2l11.1-.8c.3 0 .5 0 .6.1s.2.3.2.6l.2 2.5c0 .3 0 .5-.1.6-.1.1-.3.2-.6.2l-3.1.2.7 10.3c0 .3 0 .5-.1.6-.1.2-.3.2-.6.3zM57.8 63.8l-1.6.1c-.3 0-.5 0-.6-.1-.1-.1-.2-.3-.2-.6l-.1-.8c0-.3 0-.5.1-.6s.3-.2.6-.2l1.4-.1c.2 0 .3-.1.4-.2.1-.1.1-.3.1-.4v-.3l-2.3.2c-.3 0-.5 0-.6-.1-.1-.1-.2-.3-.2-.6l-.2-3.1c0-.3 0-.5.1-.6.1-.1.3-.2.6-.2l4.2-.3c.3 0 .5 0 .6.1.1.1.2.3.2.6l.3 3.9c.1 1.1-.1 1.9-.7 2.4-.4.5-1.2.8-2.1.9zM70.8 70.1l-6.6.5c-.3 0-.5 0-.6-.1-.1-.1-.2-.3-.2-.6l-.2-2.5c0-.3 0-.5.1-.6.1-.1.3-.2.6-.2l5.6-.4c.2 0 .3-.1.4-.2.1-.1.1-.3.1-.4 0-.2-.1-.4-.2-.5-.1-.1-.2-.2-.4-.2l-3.2-.2c-1-.1-1.8-.3-2.4-.8-.6-.5-1-1.3-1.1-2.5l-.2-2.2c-.1-1.2.2-2.1 1-2.8.7-.7 1.8-1.1 3.1-1.2l5.9-.4c.3 0 .5 0 .6.1.1.1.2.3.2.6l.2 2.5c0 .3 0 .5-.1.6-.1.1-.3.2-.6.2l-4.8.3c-.2 0-.3.1-.4.2-.1.1-.1.3-.1.5s.1.3.2.5c.1.1.3.2.4.2l3.2.2c1 .1 1.8.3 2.4.8.6.5 1 1.3 1.1 2.5l.2 2.2c.1 1.2-.2 2.1-1 2.8-.8.6-1.8 1-3.2 1.1zM93.2 69.8l-6 .4c-2.1.1-3.6-.2-4.7-.9-1.1-.8-1.7-2-1.8-3.7l-.6-7.6c-.1-1.7.3-3 1.2-3.9.9-.9 2.4-1.4 4.5-1.6l6-.4c.3 0 .5 0 .7.2.2.1.2.4.3.7l.2 3c0 .3 0 .5-.2.7-.1.2-.4.2-.7.3l-5 .4c-.5 0-.9.2-1.1.4-.2.2-.3.5-.3 1l.4 5.9c0 .4.2.7.4.9.3.2.6.2 1.2.2l5-.4c.3 0 .5 0 .7.2s.2.4.3.7l.2 2.9c0 .3 0 .5-.2.7 0-.2-.2-.1-.5-.1zM99.3 68l-3.3.2c-.3 0-.5 0-.6-.1-.1-.1-.2-.3-.2-.6l-1-13.6c0-.3 0-.5.1-.6.1-.1.3-.2.6-.2l3.3-.2c.3 0 .5 0 .6.1.1.1.2.3.2.6l.3 4.6 3.5-.3-.3-4.6c0-.3 0-.5.1-.6.1-.1.3-.2.6-.2l3.3-.2c.3 0 .5 0 .6.1.1.1.2.3.2.6l1 13.6c0 .3 0 .5-.1.6-.1.1-.3.2-.6.2l-3.3.2c-.3 0-.5 0-.6-.1-.1-.1-.2-.3-.2-.6l-.3-4.7-3.5.3.3 4.7c0 .3 0 .5-.1.6-.1.1-.3.2-.6.2zM115.5 66.1c0 .3 0 .5-.1.6-.1.1-.3.2-.6.2l-3.1.2c-.3 0-.5 0-.6-.1-.1-.1-.2-.3-.2-.6l-.4-5.5c0-.4 0-.9.1-1.5s.3-1.2.5-2l1.5-4.9c.1-.2.2-.4.4-.6.2-.1.4-.2.7-.2l5.6-.4c.3 0 .5 0 .7.1.2.1.3.3.4.5l2.2 4.6c.3.7.6 1.3.8 1.9.2.5.3 1 .3 1.4l.4 5.5c0 .3 0 .5-.1.6-.1.1-.3.2-.6.2l-3.2.2c-.3 0-.5 0-.6-.1-.1-.1-.2-.3-.2-.6l-.2-2.9-3.7.3v3.1zm.5-10l-.8 3.3 3.3-.2-1.2-3.1c-.1-.1-.1-.2-.2-.3-.1-.1-.1-.1-.2-.1h-.5c-.1 0-.2 0-.2.1-.1 0-.2.1-.2.3zM132.9 65.6l-3.4.2c-.3 0-.5 0-.6-.1-.1-.1-.2-.3-.2-.6l-.7-10.3-3.1.2c-.3 0-.5 0-.6-.1-.1-.1-.2-.3-.2-.6l-.2-2.5c0-.3 0-.5.1-.6.1-.1.3-.2.6-.2l11.1-.8c.3 0 .5 0 .6.1s.2.3.2.6l.2 2.5c0 .3 0 .5-.1.6-.1.1-.3.2-.6.2l-3.1.2.7 10.3c0 .3 0 .5-.1.6-.2.2-.4.3-.6.3z"/></g><g><path class="st463" d="M5.8 50.6L2.3 17.7c-.6-4.8 1.1-9.6 4.6-13C9.6 2 13.1.3 16.9 0c1-.1 2-.1 3 .1l104.3 11.3.1-1.1c.1-2 1.7-3.6 3.7-3.8 1.2-.1 2.4.4 3.2 1.3l13.6 14.7c.8.9 1.2 2.1 1 3.3-.2 1.2-.9 2.3-1.9 2.9l-15.2 8.9c-.5.3-1.1.5-1.7.5-1.2.1-2.3-.3-3.1-1.2-.8-.8-1.2-2-1.1-3.2l.2-2L21.5 19.4l3.1 29-18.8 2.2z"/><path class="st0" d="M142.4 23.4L128.7 8.7c-.3-.3-.7-.5-1.2-.5-.7.1-1.3.6-1.3 1.4l-.2 3.8L19 1.8c-.8-.1-1.7-.1-2.5-.1-3.2.3-6.2 1.7-8.5 3.9-2.9 2.9-4.3 6.9-3.8 11l3.9 34.7c.8-.3 1.6-.4 2.4-.5l11.3-.8L18 15.6l107 13.1-.4 4.5c0 .4.1.8.4 1.1.3.3.7.5 1.1.4.2 0 .4-.1.6-.2l15.2-8.9c.4-.2.6-.6.7-1 .2-.4.1-.8-.2-1.2z"/><path class="st463" d="M141.7 24L128.1 9.3c-.4-.4-1-.2-1 .4l-.2 4c0 .3-.3.6-.6.5L18.9 2.7c-3.8-.4-7.5.9-10.3 3.6C5.9 9 4.6 12.7 5 16.6l3.8 33.7c.5-.1 1.1-.2 1.6-.3l10.5-.8-3.8-34c0-.1 0-.2.1-.3.1-.1.3-.1.3-.1L125.4 28c.3 0 .5.3.5.6l-.4 4.7c0 .5.5.8.9.6l15.2-8.9c.3-.3.4-.7.1-1z"/><path class="st0" d="M129.1 14.9c-.3 0-.6-.1-.9-.4-.2-.2-.4-.5-.4-.9v-.2c0-.1 0-.2.1-.2 0-.1.1-.1.1-.2s.1-.1.2-.2c.4-.5 1.3-.5 1.7 0l.2.2c0 .1.1.1.1.2s.1.2.1.2v.2c0 .3-.1.6-.4.9-.1.1-.2.2-.4.3-.1 0-.3.1-.4.1zM131.5 18.1c-.5-.5-.4-1.3.1-1.7.5-.5 1.3-.4 1.7.1.5.5.4 1.3-.1 1.7-.2.2-.5.3-.8.3-.3 0-.7-.2-.9-.4zM135.7 22.1c-.3 0-.6-.1-.9-.4-.2-.2-.4-.5-.4-.9 0-.3.1-.6.4-.9l.2-.2c.1 0 .1-.1.2-.1s.2-.1.2-.1h.5c.1 0 .2 0 .2.1.1 0 .1.1.2.1s.1.1.2.2c.2.2.4.5.4.9 0 .3-.1.6-.4.9-.2.2-.5.4-.8.4zM139 25.5c-.2 0-.3 0-.5-.1-.1-.1-.3-.2-.4-.3-.2-.2-.4-.5-.4-.9V24c0-.1 0-.2.1-.2 0-.1.1-.1.1-.2s.1-.1.2-.2.1-.1.2-.1.1-.1.2-.1.2-.1.2-.1h.5c.1 0 .2 0 .2.1.1 0 .1.1.2.1s.1.1.2.1l.2.2c0 .1.1.1.1.2s.1.2.1.2v.2c0 .3-.1.6-.4.9-.1.1-.2.2-.4.3-.1.1-.2.1-.4.1zM132.5 27.7c-.3-.6-.1-1.3.5-1.6.6-.3 1.3-.1 1.7.5.3.6.1 1.3-.5 1.6-.2.1-.4.1-.6.1-.4.1-.9-.2-1.1-.6zM128.2 31.3c-.3 0-.6-.1-.9-.4l-.2-.2c0-.1-.1-.1-.1-.2s-.1-.2-.1-.2v-.2-.2c0-.1 0-.2.1-.2 0-.1.1-.1.1-.2s.1-.1.2-.2l.2-.2c.1 0 .1-.1.2-.1s.2-.1.2-.1c.4-.1.8 0 1.1.3l.2.2c0 .1.1.1.1.2s.1.1.1.2v.2c0 .3-.1.6-.4.9l-.2.2c-.1 0-.1.1-.2.1s-.2.1-.2.1h-.2z"/><g><path class="st0" d="M126 27.4c-.3 0-.6-.1-.9-.4-.2-.2-.4-.5-.4-.9v-.2c0-.1 0-.2.1-.2 0-.1.1-.1.1-.2s.1-.1.2-.2l.2-.2c.1 0 .1-.1.2-.1s.2 0 .2-.1h.5c.1 0 .2 0 .2.1.1 0 .1.1.2.1s.1.1.2.2c.2.2.4.5.4.9 0 .3-.1.6-.4.9-.2.2-.5.3-.8.3zM17.2 40.3c-.1-.7.4-1.3 1.1-1.3.7-.1 1.3.4 1.3 1.1.1.7-.4 1.3-1.1 1.3h-.1c-.6 0-1.2-.5-1.2-1.1zm-.7-5.9c-.1-.7.4-1.3 1.1-1.4.7-.1 1.3.4 1.3 1.1.1.7-.4 1.3-1.1 1.3h-.1c-.6 0-1.1-.4-1.2-1zm-.7-6c-.1-.7.4-1.3 1.1-1.4.7-.1 1.3.4 1.3 1.1.1.7-.4 1.3-1.1 1.3H17c-.6.1-1.1-.4-1.2-1zm104.1-1.7c-.7-.1-1.1-.7-1.1-1.4.1-.7.7-1.1 1.4-1.1.7.1 1.1.7 1.1 1.4-.1.6-.6 1.1-1.2 1.1h-.2zM114 26c-.7-.1-1.1-.7-1.1-1.4.1-.7.7-1.1 1.4-1.1.7.1 1.1.7 1.1 1.4-.1.6-.6 1.1-1.2 1.1h-.2zm-6-.8c-.7-.1-1.1-.7-1.1-1.4.1-.7.7-1.1 1.4-1.1.7.1 1.1.7 1.1 1.4-.1.6-.6 1.1-1.2 1.1-.1.1-.1.1-.2 0zm-5.9-.7c-.7-.1-1.1-.7-1.1-1.4.1-.7.7-1.1 1.4-1.1.7.1 1.1.7 1.1 1.4-.1.6-.6 1.1-1.2 1.1h-.2zm-5.9-.7c-.7-.1-1.1-.7-1.1-1.4.1-.7.7-1.1 1.4-1.1.7.1 1.1.7 1.1 1.4-.1.6-.6 1.1-1.2 1.1h-.2zm-81-1.3c-.1-.7.4-1.3 1.1-1.3.7-.1 1.3.4 1.3 1.1.1.7-.4 1.3-1.1 1.3h-.1c-.6 0-1.2-.5-1.2-1.1zm75 .6c-.7-.1-1.1-.7-1.1-1.4.1-.7.7-1.1 1.4-1.1.7.1 1.1.7 1.1 1.4-.1.6-.6 1.1-1.2 1.1h-.2zm-5.9-.8c-.7-.1-1.1-.7-1.1-1.4.1-.7.7-1.1 1.4-1.1.7.1 1.1.7 1.1 1.4-.1.6-.6 1.1-1.2 1.1h-.2zm-6-.7c-.7-.1-1.1-.7-1.1-1.4.1-.7.7-1.1 1.4-1.1.7.1 1.1.7 1.1 1.4-.1.6-.6 1.1-1.2 1.1h-.2zm-5.9-.7c-.7-.1-1.1-.7-1.1-1.4.1-.7.7-1.1 1.4-1.1.7.1 1.1.7 1.1 1.4-.1.6-.6 1.1-1.2 1.1h-.2zm-5.9-.7c-.7-.1-1.1-.7-1.1-1.4.1-.7.7-1.1 1.4-1.1.7.1 1.1.7 1.1 1.4-.1.6-.6 1.1-1.2 1.1h-.2zm-6-.8c-.7-.1-1.1-.7-1.1-1.4.1-.7.7-1.1 1.4-1.1.7.1 1.1.7 1.1 1.4-.1.6-.6 1.1-1.2 1.1h-.2zm-5.9-.7c-.7-.1-1.1-.7-1.1-1.4.1-.7.7-1.1 1.4-1.1.7.1 1.1.7 1.1 1.4-.1.6-.6 1.1-1.2 1.1h-.2zm-5.9-.7c-.7-.1-1.1-.7-1.1-1.4.1-.7.7-1.1 1.4-1.1.7.1 1.1.7 1.1 1.4-.1.6-.6 1.1-1.2 1.1h-.2zm-34.2-1.5c-.1-.7.4-1.3 1.1-1.3.7-.1 1.3.4 1.3 1.1.1.7-.4 1.3-1.1 1.3h-.1c-.6 0-1.1-.5-1.2-1.1zm28.2.7c-.7-.1-1.1-.7-1.1-1.4.1-.7.7-1.1 1.4-1.1.7.1 1.1.7 1.1 1.4-.1.6-.6 1.1-1.2 1.1-.1.1-.1.1-.2 0zm-5.9-.7c-.7-.1-1.1-.7-1.1-1.4.1-.7.7-1.1 1.4-1.1.7.1 1.1.7 1.1 1.4-.1.6-.6 1.1-1.2 1.1h-.2zm-5.9-.7c-.7-.1-1.1-.7-1.1-1.4.1-.7.7-1.1 1.4-1.1.7.1 1.1.7 1.1 1.4-.1.6-.6 1.1-1.2 1.1h-.2zm-6-.7c-.7-.1-1.1-.7-1.1-1.4.1-.7.7-1.1 1.4-1.1.7.1 1.1.7 1.1 1.4-.1.6-.6 1.1-1.2 1.1h-.2zm-5.9-.8c-.7-.1-1.1-.7-1.1-1.4.1-.7.7-1.1 1.4-1.1.7.1 1.1.7 1.1 1.4-.1.6-.6 1.1-1.2 1.1H19zM19.1 47.3c-.3 0-.6-.1-.9-.4-.2-.2-.4-.5-.4-.9v-.2c0-.1 0-.2.1-.2 0-.1.1-.1.1-.2s.1-.1.2-.2c.5-.5 1.3-.5 1.7 0l.2.2c0 .1.1.1.1.2s.1.2.1.2v.2c0 .3-.1.6-.4.9-.2.3-.5.4-.8.4z"/></g><g><path class="st0" d="M10.5 46.4c-.2 0-.3 0-.5-.1-.1-.1-.3-.2-.4-.3-.2-.2-.4-.5-.4-.9v-.2c0-.1 0-.2.1-.2 0-.1.1-.1.1-.2s.1-.1.2-.2l.2-.2c.1 0 .1-.1.2-.1s.2 0 .2-.1h.5c.1 0 .2 0 .2.1.1 0 .1.1.2.1s.1.1.2.2l.2.2c0 .1.1.1.1.2s.1.1.1.2v.2c0 .3-.1.6-.4.9-.2.3-.5.4-.8.4zM8.6 39.4c-.1-.7.4-1.3 1.1-1.4.7-.1 1.3.4 1.3 1.1.1.7-.4 1.3-1.1 1.3h-.1c-.6.1-1.2-.4-1.2-1zm-.7-6c-.1-.7.4-1.3 1.1-1.4.7-.1 1.3.4 1.3 1.1.1.7-.4 1.3-1.1 1.3h-.1c-.6.1-1.1-.4-1.2-1zm-.7-6c-.1-.7.4-1.3 1.1-1.3.7-.1 1.3.4 1.4 1 .1.7-.4 1.3-1.1 1.4h-.1c-.7 0-1.2-.5-1.3-1.1zm-.6-6c-.1-.7.4-1.3 1.1-1.3.6-.1 1.2.4 1.3 1.1.1.7-.4 1.3-1.1 1.3h-.1c-.6 0-1.2-.4-1.2-1.1zm113.9-4.6c-.7-.1-1.2-.7-1.1-1.3.1-.7.7-1.2 1.3-1.1.7.1 1.2.7 1.1 1.3-.1.6-.6 1.1-1.2 1.1h-.1zM5.9 15.3c0-.7.5-1.2 1.2-1.2s1.2.5 1.2 1.2-.5 1.2-1.2 1.2c-.6 0-1.1-.5-1.2-1.2zm108.6.9c-.7-.1-1.2-.7-1.1-1.3.1-.7.7-1.2 1.3-1.1.7.1 1.2.7 1.1 1.3-.1.6-.6 1.1-1.2 1.1h-.1zm-5.9-.7c-.7-.1-1.2-.7-1.1-1.3.1-.7.7-1.2 1.3-1.1.7.1 1.2.7 1.1 1.3-.1.6-.6 1.1-1.2 1.1h-.1zm-6-.6c-.7-.1-1.2-.7-1.1-1.3.1-.7.7-1.2 1.3-1.1.7.1 1.2.7 1.1 1.3-.1.6-.6 1.1-1.2 1.1h-.1zm-6-.7c-.7-.1-1.2-.7-1.1-1.3.1-.7.7-1.2 1.3-1.1.7.1 1.2.7 1.1 1.3-.1.6-.6 1.1-1.2 1.1h-.1zm-6-.6c-.7-.1-1.2-.7-1.1-1.3.1-.7.7-1.2 1.3-1.1.7.1 1.2.7 1.1 1.3-.1.6-.6 1.1-1.2 1.1h-.1zm-6-.7c-.7-.1-1.2-.7-1.1-1.3.1-.7.7-1.2 1.3-1.1.7.1 1.2.7 1.1 1.3-.1.6-.6 1.1-1.2 1.1h-.1zm-5.9-.6c-.7-.1-1.2-.7-1.1-1.3.1-.7.7-1.2 1.3-1.1.7.1 1.2.7 1.1 1.3-.1.6-.6 1.1-1.2 1.1h-.1zm-6-.7c-.7-.1-1.2-.7-1.1-1.3.1-.7.7-1.2 1.3-1.1.7.1 1.2.7 1.1 1.3-.1.6-.6 1.1-1.2 1.1h-.1zm-6-.6c-.7-.1-1.2-.7-1.1-1.3.1-.7.7-1.2 1.4-1.1.7.1 1.2.7 1.1 1.3-.1.6-.7 1.1-1.3 1.1h-.1zm-58.6-.4c-.6-.3-.7-1.1-.4-1.6.4-.6 1.1-.7 1.7-.4.6.4.7 1.1.4 1.7-.2.4-.6.6-1 .6-.3-.1-.5-.1-.7-.3zm52.6-.3c-.7-.1-1.2-.7-1.1-1.3.1-.7.7-1.2 1.3-1.1.7.1 1.2.7 1.1 1.3-.1.6-.6 1.1-1.2 1.1 0 .1 0 .1-.1 0zm-6-.6c-.7-.1-1.2-.7-1.1-1.3.1-.7.7-1.2 1.3-1.1.7.1 1.2.7 1.1 1.3-.1.6-.6 1.1-1.2 1.1h-.1zm-5.9-.6c-.7-.1-1.2-.7-1.1-1.3.1-.8.7-1.2 1.3-1.2.7.1 1.2.7 1.1 1.3-.1.6-.6 1.1-1.2 1.1 0 .1-.1.1-.1.1zm-6-.7c-.7-.1-1.2-.7-1.1-1.3.1-.7.7-1.2 1.3-1.1.7.1 1.2.7 1.1 1.3-.1.6-.6 1.1-1.2 1.1h-.1zm-6-.6c-.7-.1-1.2-.7-1.1-1.3.1-.7.7-1.2 1.3-1.1.7.1 1.2.7 1.1 1.3-.1.6-.6 1.1-1.2 1.1h-.1zm-6-.7c-.7-.1-1.2-.7-1.1-1.3.1-.7.7-1.2 1.3-1.1.7.1 1.2.7 1.1 1.3-.1.6-.6 1.1-1.2 1.1h-.1zm-18.7-.9c-.3-.6 0-1.3.6-1.6.6-.3 1.3 0 1.6.6.3.6 0 1.3-.6 1.6-.2.1-.4.1-.5.1-.5-.1-.9-.3-1.1-.7zm12.7.3c-.7-.1-1.2-.7-1.1-1.3.1-.7.7-1.2 1.4-1.2.7.1 1.2.7 1.1 1.3-.1.7-.6 1.2-1.2 1.2h-.2zm-5.9-.7c-.7-.1-1.2-.7-1.1-1.3.1-.7.7-1.2 1.3-1.1.7.1 1.2.7 1.1 1.3-.1.6-.6 1.1-1.2 1.1h-.1zM126.6 17.5c-.2 0-.3 0-.5-.1s-.3-.2-.4-.3c-.2-.2-.4-.5-.4-.9V16c0-.1 0-.2.1-.2 0-.1.1-.1.1-.2s.1-.1.2-.2c.5-.5 1.3-.5 1.7 0 .1.1.1.1.1.2s.1.1.1.2.1.2.1.2v.2c0 .3-.1.6-.4.9-.1.1-.3.2-.4.3.1 0-.1.1-.3.1z"/></g></g></g></svg>