<svg version="1.1" id="Layer_1" xmlns="http://www.w3.org/2000/svg" x="0" y="0" viewBox="0 0 154.7 113.8" xml:space="preserve"><style>.st26{fill:#fff}</style><path d="M154.7 113.6c.2-2-1.7 0 0 0z" fill="#01aeb4"/><path d="M136.9 38.4c-4.2-11.2-25-26.6-44.1-32.9C71-1.8 40.8-4.1 19 12.9 4.5 24.3-3.5 44.3 1.5 59.7c6.9 21.2 18.6 28.2 38.8 28.7 10 .3 21.8-.5 33-5.2 11.7-5 12.6.8 11.6 13.2-.5 6.3-.9 12-3.3 17.4 8.7-7.2 18.7-18 25.6-30.2 20.2-9.6 37.7-24.2 29.7-45.2z" fill="#61bfbc"/><path class="st26" d="M61.8 43.3c0 1.7-1.4 3.1-3.1 3.1-1.7 0-3.1-1.4-3.1-3.1 0-1.7 1.4-3.1 3.1-3.1 1.7 0 3.1 1.4 3.1 3.1zM74.2 43.3c0 1.7-1.4 3.1-3.1 3.1-1.7 0-3.1-1.4-3.1-3.1 0-1.7 1.4-3.1 3.1-3.1 1.7 0 3.1 1.4 3.1 3.1zM86.6 43.3c0 1.7-1.4 3.1-3.1 3.1-1.7 0-3.1-1.4-3.1-3.1 0-1.7 1.4-3.1 3.1-3.1 1.7 0 3.1 1.4 3.1 3.1z"/></svg>