<svg xmlns="http://www.w3.org/2000/svg" viewBox="0 0 83 74.6"><style>.st0{fill:#fff}.st467{fill:#ffc0e3}.st468{fill:#735caa}</style><g id="Layer_1"><path class="st467" d="M.5 55.8V40.3l74.1 9.2V65z"/><path class="st468" d="M1 40.9l73.1 9v14.6L1 55.4V40.9m-1-1.2v16.6l75.1 9.4V49L0 39.7z"/><path class="st467" d="M16 74.2V58.6l45.5 6.7-3.8 2.4c-.1.1-.1.3 0 .4l3.7 6-45.4.1z"/><path class="st468" d="M16.5 59.1l44.3 6.5-3.5 1.8c-.1.3-.1.6 0 .9l3.3 5.2-44 .2V59.1M15.5 58v16.6h46.8l-4.1-6.8 4.1-2.9L15.5 58z"/><path class="st467" d="M6.4 34.9V19.3L82.5 28v15.6z"/><path class="st468" d="M6.9 19.9L82 28.4V43L6.9 34.5V19.9m-1-1.2v16.6L83 44.2V27.6L5.9 18.7z"/><path class="st467" d="M24.5 16.2L28 8.6v-.4L24.6.7l52 8.2v15.6l-52.1-8.3z"/><path class="st468" d="M25.5 1.3l50.6 7.9v14.6l-50.9-8 3.2-7c.1-.3.1-.6 0-.8l-2.9-6.7M23.8 0l3.8 8.4-3.8 8.2L77.1 25V8.4L23.8 0z"/><path class="st468" d="M77.1 25L5.9 35.3V18.7L77.1 8.4zM75.1 65.6l-59.6 8.9V57.9L75.1 49zM83 44.2L0 56.3V39.7l83-12.1z"/><g><path class="st0" d="M8.5 51.1c-.3 0-.6.1-.8 0-.2 0-.4-.1-.5-.2l-.3-.3c-.1-.1-.1-.3-.2-.4h-.1l-.2 1.1-1 .1v-2.7l1.2-.2c0 .3 0 .6.1.8.1.2.2.4.4.5.1.1.3.2.5.2h.7c.3 0 .5-.1.7-.2.2-.1.3-.2.5-.4.1-.1.2-.3.3-.5.1-.2.1-.4.1-.5 0-.4-.1-.7-.3-.9-.2-.2-.5-.3-.8-.5-.3-.1-.7-.2-1-.3-.4-.1-.7-.2-1-.3-.3-.2-.6-.4-.8-.7-.2-.3-.3-.7-.3-1.2 0-.4.1-.7.2-1 .1-.3.3-.6.5-.8.2-.2.5-.4.7-.5l.9-.3h.6c.2 0 .4.1.5.1.2.1.3.2.4.3.1.1.2.3.2.6h.1l.2-1.2 1-.1v3l-1.2.2c0-.2 0-.5-.1-.7-.1-.2-.2-.5-.3-.7-.1-.2-.3-.3-.5-.4h-.8c-.2 0-.4.1-.5.2-.2.1-.3.2-.4.3-.1.1-.2.3-.3.4-.1.2-.1.3-.1.5 0 .4.1.6.3.8.2.2.5.3.8.4.3.1.7.2 1 .3.4.1.7.2 1 .4.3.2.6.4.8.7.2.3.3.7.3 1.3 0 .8-.2 1.4-.7 1.9-.3.5-.9.8-1.8.9zM15.6 49.2v.7l-3.5.5v-.7l1.2-.4v-6.9l-1.2-.1v-.7l3.5-.5c.7-.1 1.3-.1 1.7 0 .4.1.7.3.9.5.2.2.3.5.4.9.1.3.1.7.1 1.1 0 .4 0 .8-.1 1.1-.1.4-.2.7-.5 1-.2.3-.5.6-.9.8-.4.2-.9.4-1.6.5h-1.1v2.1l1.1.1zm-.2-3.3c.4-.1.8-.2 1-.3.3-.1.5-.3.6-.5.1-.2.2-.4.3-.7 0-.2.1-.5.1-.8 0-.3 0-.6-.1-.8 0-.2-.1-.4-.3-.6-.1-.2-.3-.3-.6-.3-.3-.1-.6-.1-1 0l-1 .1v4l1-.1zM19.4 48.6l1.2-.4v-6.9l-1.2-.1v-.7l5.9-.9v2.7l-1 .1-.2-1.8-2.3.4v3l2.3-.3v1l-2.3.3v3.1l2.4-.4.2-2 1-.1v2.9l-5.9.9v-.8zM29.3 39l1.7-.3 2.4 7.6.9.1v.7l-3.3.5v-.7l1.1-.4-.6-2-2.8.5-.6 2.1 1.1.1v.7l-3.3.5v-.7l.9-.4 2.5-8.3zm-.3 4.9l2.3-.3-1.1-3.7-1.2 4zM38.9 45.8l1-.3-2.4-2.9-.5.6v2.5l1.2.1v.7l-3.5.5v-.7l1.2-.4V39h-1.3v-.7l3.4-.5v.7l-1 .4v2.9l2.6-3.3h-.9v-.7l3.6-.5v.7l-1.1.4-2.8 3.3 2.9 3.6 1.1.1v.6l-3.5.5v-.7zM50.9 36.7l-1.7.3v7l1.3.1v.7l-3.8.6v-.7l1.3-.4v-7l-1.7.3-.3 1.7-1 .1v-2.8l7-1v2.8l-1 .1-.1-1.8zM56.4 44.1c-.7.1-1.3.1-1.8-.1-.4-.2-.8-.5-1-.8-.2-.4-.4-.8-.5-1.4-.1-.5-.1-1.1-.1-1.8 0-.6 0-1.2.1-1.8.1-.6.2-1.1.5-1.5.2-.5.6-.8 1-1.1s1-.5 1.7-.6c.7-.1 1.3-.1 1.8.1.4.2.8.5 1 .8.2.4.4.9.5 1.4.1.5.1 1.1.1 1.8 0 .6 0 1.2-.1 1.8-.1.6-.2 1.1-.5 1.5-.2.5-.6.8-1 1.1-.4.3-1 .5-1.7.6zm0-.9c.5-.1.9-.2 1.2-.5.3-.2.5-.5.6-.9.1-.4.2-.8.2-1.2v-1.4-1.4c0-.4-.1-.8-.2-1.2-.1-.3-.3-.6-.6-.7-.3-.2-.7-.2-1.2-.1s-.9.2-1.2.5c-.3.2-.5.5-.6.9l-.3 1.2c0 .5-.1.9-.1 1.5 0 .5 0 1 .1 1.4 0 .4.1.8.3 1.1.1.3.4.5.6.7.3.1.7.1 1.2.1zM70.1 34v4c0 .5 0 1-.1 1.5s-.2 1-.4 1.4c-.2.4-.5.8-.9 1.1-.4.3-1 .5-1.7.6-.7.1-1.3.1-1.7-.1-.4-.2-.7-.4-.9-.8-.2-.4-.4-.8-.4-1.3-.1-.5-.1-1-.1-1.5V35l-1.2-.1v-.7l3.5-.5v.7l-1.2.4v4c0 .4 0 .8.1 1.1 0 .4.1.7.2 1 .1.3.3.5.6.7.3.2.6.2 1 .1s.8-.2 1-.4c.3-.2.4-.5.6-.8.1-.3.2-.7.3-1.1 0-.4.1-.8.1-1.1v-4l-1.2-.1v-.7l3.5-.5v.7l-1.1.3zM75 41.3c-.3 0-.6.1-.8 0-.2 0-.4-.1-.5-.2l-.3-.3c-.1-.1-.1-.3-.2-.4h-.1l-.2 1.1-1 .1v-2.7l1.2-.2c0 .3 0 .6.1.8.1.2.2.4.4.5s.3.2.5.2h.7c.3 0 .5-.1.7-.2.2-.1.3-.2.5-.4.1-.1.2-.3.3-.5.1-.2.1-.4.1-.5 0-.4-.1-.7-.3-.9s-.5-.3-.8-.5-.7-.2-1-.3c-.4-.1-.7-.2-1-.3s-.6-.4-.8-.7c-.2-.3-.3-.7-.3-1.2 0-.4.1-.7.2-1 .1-.3.3-.6.5-.8.2-.2.5-.4.7-.5l.9-.3h.6c.2 0 .4.1.5.1.2.1.3.2.4.3.1.1.2.3.2.6h.1l.2-1.2 1-.1v3l-1.2.2c0-.2 0-.5-.1-.7-.1-.2-.2-.5-.3-.7-.1-.2-.3-.3-.5-.4-.2-.1-.4-.1-.7-.1-.2 0-.4.1-.5.2-.2.1-.3.2-.4.3-.1.1-.2.3-.3.4-.1.2-.1.3-.1.5 0 .4.1.6.3.8.2.2.5.3.8.4.3.1.7.2 1 .3.4.1.7.2 1 .4.3.2.6.4.8.7.2.3.3.7.3 1.3 0 .8-.2 1.4-.7 1.9-.4.6-1.1.9-1.9 1z"/></g><g><path class="st0" d="M15.6 28.7v-5.5l-.7-.1v-.6l2.6-.4v.6l-.9.3v6.3l-1.7.2-2.4-5.9v5.5l.7.1v.6l-2.6.4v-.6l.9-.3v-5.5l-.9-.1v-.6l2.6-.4 2.4 6zM19 28.4l.9-.3v-5.5l-.9-.1v-.6l4.7-.7v2.2l-.8.1-.1-1.4-1.9.3v2.3l1.8-.3v.8l-1.8.3V28l1.9-.3.1-1.6.8-.1v2.3L19 29v-.6zM25.5 27.4l.9-.3v-5.5l-.9-.1V21l4.7-.7v2.2l-.8.1-.1-1.4-1.9.3v2.3l1.8-.3v.8l-1.8.3V27l1.9-.3.1-1.6.8-.1v2.3l-4.7.7v-.6zM34.8 19.6c.6-.1 1.1-.1 1.5 0 .4.1.7.3.9.6.2.3.4.6.4 1 .1.4.1.9.1 1.4 0 .5 0 1-.1 1.4-.1.4-.2.8-.4 1.2-.2.4-.5.7-.8.9-.4.2-.8.4-1.4.5l-3 .4v-.6l.9-.3v-5.5H32V20l2.8-.4zm-1 .9V26l1.1-.2c.4-.1.7-.2 1-.4.2-.2.4-.4.5-.7.1-.3.2-.6.2-.9v-1.1c0-.4 0-.8-.1-1.1 0-.3-.1-.6-.2-.8-.1-.2-.3-.4-.5-.5-.2-.1-.6-.1-1 0l-1 .2zM48.9 18.1l-.9.3v5.5l.9.1v.6l-2.7.4v-.6l.9-.3v-2.4l-2.8.4v2.4l.9.1v.6l-2.8.4V25l.9-.3v-5.5l-.9-.1v-.6l2.8-.4v.6l-1 .3v2.3l2.8-.4v-2.3l-.9-.1v-.6l2.8-.4v.6zM50.6 23.7l.9-.3v-5.5l-.9-.1v-.6l4.7-.7v2.2l-.8.1-.1-1.4-1.9.3V20l1.8-.3v.8l-1.8.3v2.4l1.9-.3.1-1.6.8-.1v2.3l-4.7.7v-.5zM60.8 20.5l.8-.1v2.3l-4.5.7v-.6l.9-.3V17l-.9-.1v-.6l2.8-.4v.6l-.9.3v5.5l1.7-.3.1-1.5zM65.9 21.5v.5l-2.8.4v-.6l.9-.3V16h-.9v-.6l2.8-.4c.6-.1 1-.1 1.3 0 .3.1.6.2.7.4.2.2.3.4.3.7 0 .3.1.6.1.9 0 .3 0 .6-.1.9-.1.3-.2.5-.4.8-.2.2-.4.4-.7.6-.3.2-.7.3-1.2.4H65v1.7l.9.1zm-.1-2.6c.3-.1.6-.1.8-.2.2-.1.4-.2.5-.4.1-.2.2-.3.2-.5s.1-.4.1-.6c0-.2 0-.4-.1-.6 0-.2-.1-.4-.2-.5-.1-.1-.3-.2-.5-.3h-.8l-.8.1V19l.8-.1zM72.2 19.5l-.9.1-.1-1.7c.2-.2.4-.3.5-.5.2-.1.3-.3.5-.5.1-.2.2-.3.3-.5.1-.2.1-.4.1-.6v-.4c0-.1-.1-.2-.1-.3-.1-.1-.2-.1-.3-.2h-.4c-.4.1-.6.2-.7.5-.1.3-.2.6-.2.9l-1 .1c0-.3 0-.6.1-.8.1-.3.2-.5.3-.7.1-.2.3-.4.6-.5.2-.1.6-.2.9-.3.4-.1.7 0 .9 0l.6.3c.1.1.2.3.3.5.1.2.1.4.1.7 0 .3 0 .6-.1.8l-.3.6c-.1.2-.3.4-.4.5l-.5.5-.2 1.5zm-1 .8l1.1-.2v1l-1.1.2v-1z"/></g><g><path class="st0" d="M38.2 59.1l-1.2.4v7l1.2.1v.7l-3.6.5v-.7l1.2-.4v-3l-3.6.5v3l1.2.1v.7l-3.6.5v-.7l1.2-.4v-7l-1.2-.1v-.7l3.6-.5v.7l-1.2.4v2.9l3.6-.5v-2.9l-1.2-.1v-.7l3.6-.5v.7zM39 66.5l1.2-.4v-7L39 59v-.7l6-.9v2.7l-1 .1-.2-1.8-2.4.4v3l2.3-.3v1l-2.3.3v3.1l2.4-.4.2-2 1-.1v2.9l-6 .9v-.7zM50.3 64.8l.9-.2-1.7-2.8-1 .2v2.9l1.2.1v.7l-3.6.5v-.7l1.2-.4v-7l-1.2-.1v-.7l3.9-.6c.6-.1 1-.1 1.4 0 .4.1.6.2.8.4.2.2.3.5.4.8.1.3.1.6.1 1 0 .3 0 .6-.1.9 0 .3-.1.5-.3.8-.1.2-.3.5-.6.6-.2.2-.6.4-.9.5l1.8 2.7.8.1v.7l-3.1.5v-.9zm-.6-4c.4-.1.7-.1.9-.2.2-.1.4-.2.5-.4.1-.2.2-.3.2-.5v-.6-.7c0-.2-.1-.4-.2-.5-.1-.1-.3-.2-.5-.3h-.9l-1.3.2V61l1.3-.2zM54 64.3l1.2-.4v-7l-1.2-.1V56l6-.9v2.7l-1 .1-.2-1.8-2.4.4v3l2.3-.3v1l-2.3.3v3.1l2.4-.4.2-2 1-.1V64l-6 1v-.7z"/></g></g></svg>