<svg xmlns="http://www.w3.org/2000/svg" viewBox="0 0 140.6 125.5"><style>.st0{fill:#fff}.st50{fill:#ffbe1d}</style><g id="Layer_1"><path d="M111.3 102.7H31.5L44 125.5s59.5 1 67.3-22.8z" opacity=".15"/><path class="st50" d="M53 60c19.3-1.3 34.9-8.5 34.9-8.5l.9-19.7C72.1 39.3 49.2 41.9 31.9 43 10.8 44.4-.9 53.1.1 61.1.3 63.4 10 75.7 10 75.7 5.7 62.7 37 61.1 53 60z"/><path d="M106.4 69.3C102.8 59 97 57 90.7 57.2c-28.1 1.1-80.1 15.2-89.3 6.6 0 0 1.5 3.1 2.9 5.3 8.7 13 17.3 20.3 17.3 20.3s3.2 4.8 39.1-.5c22.8-3.4 41.6-10.6 40.9 3.6 9.2-11.2 6.2-19 4.8-23.2z" fill="#efac16"/><path class="st50" d="M107.9 75c-3.4 20-76.4 22.9-76.4 22.9l13.6 24.9s61.4 1.1 67.6-23.9c1.3-5.3-3.2-18.2-4.8-23.9z"/><path fill="#5e95e5" d="M98.8 31.1l3.3 14.8 30.5-38.6z"/><path fill="#55a2ff" d="M80.9 25.1l15.4 4.4 24-13.6-21.5 15.2 17.3 9.3L140.6 0z"/><ellipse transform="rotate(-75.357 83.354 43.757)" class="st0" cx="83.4" cy="43.8" rx="2.8" ry="2.2"/><g><path d="M88.9 46.9c-2.7-.7-4.8-2.6-5-2.7-.3-.3-.4-.8-.1-1.2.3-.3.8-.4 1.2-.1 0 0 3.6 3.1 6.6 2.5 1.3-.3 2.3-1.2 3.1-2.8 2.6-5.4 4.2-6.8 6.7-7.9.4-.2.9 0 1.1.4.2.4 0 .9-.4 1.1-1.9.8-3.3 1.7-5.9 7.1-1 2.1-2.4 3.3-4.3 3.7-1 .2-2 .1-3-.1z" fill="#a3b8cc"/></g><g><path class="st0" d="M36.7 70.9l3.1-.5 1 13.7 4.6-.8.2 3-7.7 1.3-1.2-16.7zM46.8 69.1l9-1.5.2 3.1-5.9 1 .2 3 5.9-1 .2 3.1-5.9 1 .3 4.4 5.9-1 .2 3.1-9 1.5-1.1-16.7zM57 67.4l9.1-1.5.2 3.1-3 .5 1 13.6-3.2.5-1-13.6-2.9.5-.2-3.1zM68.1 65.1l2.8-.5.1 1.6c.1 1 0 1.9-.2 2.6-.2.8-.5 1.6-1.1 2.4l-1.2-.7c.2-.5.4-.8.5-1.2.1-.3.2-.7.3-1.3l-1.1.2-.1-3.1zM83.5 65.2l-2.2 2.5c-.9-1-1.8-1.5-2.6-1.3-.4.1-.7.2-1 .5-.2.3-.4.5-.3.8 0 .3.1.5.3.8.3.3 1.1.9 2.5 1.8 1.3.8 2 1.3 2.3 1.6.7.5 1.2 1.1 1.5 1.6.3.6.5 1.2.5 1.9.1 1.4-.3 2.6-1.1 3.6-.9 1.1-2 1.7-3.5 2-1.2.2-2.2.1-3.1-.4s-1.7-1.2-2.4-2.4l2.5-2.1c.9 1.3 1.9 1.9 2.9 1.8.5-.1 1-.3 1.3-.7.3-.4.5-.8.5-1.2 0-.4-.2-.7-.5-1.1-.3-.3-1-.8-2-1.4-1.9-1.2-3.1-2.1-3.7-2.9-.6-.7-.9-1.5-1-2.3-.1-1.2.3-2.2 1.1-3.2s1.8-1.6 3.1-1.8c.8-.1 1.6-.1 2.4.2.7.3 1.5.8 2.5 1.7z"/></g><g><path class="st0" d="M64.6 104.2l-1.8 2.1c-1.4-1.3-3-1.8-4.6-1.7-1.4.1-2.5.6-3.4 1.6-.9 1-1.3 2.2-1.2 3.5.1 1 .3 1.8.8 2.6.5.7 1.1 1.3 1.9 1.7.8.4 1.7.6 2.6.5.8-.1 1.5-.3 2.2-.6.6-.4 1.3-1 2.1-1.8.7.6 1.4 1.2 2 1.7-1 1.2-2 2-2.9 2.5-.9.5-2 .8-3.2.9-2.3.1-4.2-.5-5.7-1.9s-2.4-3.2-2.6-5.5c-.1-1.4.1-2.7.7-3.9.6-1.1 1.4-2 2.6-2.8 1.2-.7 2.5-1.1 3.9-1.2 1.2-.1 2.4.1 3.5.5 1.2.3 2.2.9 3.1 1.8zM66.8 101.3c.9-.1 1.9-.3 2.8-.4.1 1.8.3 3.6.4 5.5 1.6-.3 3.2-.6 4.9-.9-.1-1.8-.3-3.6-.4-5.5.9-.2 1.9-.4 2.8-.6.4 4.8.7 9.7 1.1 14.5-.9.2-1.9.4-2.8.6-.2-2.1-.3-4.2-.5-6.4-1.6.3-3.2.6-4.9.9.2 2.1.3 4.2.5 6.4-.9.2-1.9.3-2.8.4-.4-4.8-.7-9.7-1.1-14.5zM85 97.4c.9-.3 1.9-.6 2.8-.9l6.6 12.6c-.9.3-1.9.7-2.8 1-.4-.9-.9-1.7-1.3-2.6-1.9.7-3.9 1.3-5.9 1.8-.3 1.1-.6 2.2-1 3.3-1 .3-1.9.5-2.9.7 1.5-5.2 3-10.6 4.5-15.9zm1.7 3.4c-.5 1.9-1 3.7-1.6 5.6 1.3-.4 2.6-.8 3.8-1.2-.7-1.5-1.4-2.9-2.2-4.4zM94 94.4c2.6-1 5.2-2.1 7.8-3.2.1.9.1 1.8.2 2.7-.9.4-1.7.8-2.6 1.1.3 3.9.6 7.8.9 11.8-.9.4-1.8.8-2.7 1.1-.3-3.9-.6-7.8-.9-11.8-.8.3-1.7.7-2.5 1-.1-.9-.2-1.8-.2-2.7z"/></g></g></svg>