<svg version="1.1" id="Layer_1" xmlns="http://www.w3.org/2000/svg" x="0" y="0" viewBox="0 0 246.4 81.6" xml:space="preserve"><style>.st26{fill:#fff}.st278{fill:#df3e19}</style><path d="M196.1 27.4c-2.4 0-4.2-2.2-3.8-4.5C194.3 9.4 204.1 0 218.8 0c20.8 0 27.6 13 27.6 21.4 0 21-18 18.3-20.1 31.4 0 .2-.1.4-.1.7 0 2.1-1.7 3.9-3.9 3.9h-7.2c-2.1 0-3.9-1.7-3.9-3.9v-.9-.4c1.6-19 18-17.2 17.7-29.2 0-6.7-3.5-10-9.4-10-6.8 0-10.3 4.7-11.2 11-.3 1.9-1.9 3.4-3.9 3.4h-8.3zm17.5 36.5h9.6c2.1 0 3.9 1.7 3.9 3.9v9.3c0 2.1-1.7 3.9-3.9 3.9h-9.6c-2.1 0-3.9-1.7-3.9-3.9v-9.3c0-2.1 1.7-3.9 3.9-3.9z" fill="#eb622b"/><path class="st278" d="M222.5.1c-1.7 1.5-2.5 2.4-4.2 3.9v9c.4 0 .8-.1 1.3-.1 5.9 0 9.4 3.2 9.4 10 .2 6.5-4.6 9-9.3 13-.9.7-1.4 1.8-1.4 3v14.5c0 2.1 1.7 3.9 3.9 3.9h.1c2.1 0 3.9-1.7 3.9-3.9 0-.2 0-.4.1-.7 2.1-13 20.1-10.4 20.1-31.4 0-7.8-6-19.7-23.9-21.2zM223.2 63.9h-1c-2.1 0-3.9 1.7-3.9 3.9v9.3c0 2.1 1.7 3.9 3.9 3.9h1c2.1 0 3.9-1.7 3.9-3.9v-9.3c0-2.1-1.8-3.9-3.9-3.9z"/><path d="M189.4 81.6H3.9c-2.1 0-3.9-1.7-3.9-3.9v-16c0-2.1 1.7-3.9 3.9-3.9h185.5c2.1 0 3.9 1.7 3.9 3.9v16c0 2.1-1.8 3.9-3.9 3.9z" fill="#2d5166"/><g><path class="st26" d="M9.7 67c0-.6 0-1.7-.8-1.7-1 0-1.1.7-1.1 4.6 0 4.1.1 4.6 1.1 4.6.6 0 .9-.6.9-2.4V71h3.8v.9c0 3.2-1.3 5.1-4.7 5.1-5 0-5-2.8-5-7.2 0-4.3 0-7.2 5-7.2 4.1 0 4.6 2.2 4.6 4.4v1H9.7v-1zM19.3 62.8c5 0 5 2.9 5 7.2 0 4.4 0 7.2-5 7.2s-5-2.8-5-7.2c0-4.3 0-7.2 5-7.2zm0 2.5c-.8 0-1 .6-1 4.6s.2 4.6 1 4.6 1-.6 1-4.6-.2-4.6-1-4.6zM31.7 63h3.7v13.9h-4.2L29 68.3v8.6h-3.5V63h4.2l2 8.5V63zM37 63h8.4v3.2h-4.5v2.1H45v3h-4.2v5.6H37V63zM51.9 63h3.9v9.2c0 3.3-1.3 5-4.8 5-3.8 0-4.8-1.5-4.8-5V63h3.9v9.9c0 1.2.2 1.7.9 1.7s.9-.5.9-1.7V63zM62.5 66.5c0-.6-.3-1.1-.9-1.1-.6 0-.9.5-.9 1 0 2.8 5.8 1.3 5.8 6.3 0 3.2-1.5 4.5-5.1 4.5-3 0-4.6-1-4.6-4.1v-.4h3.8v.6c0 .7.3 1.2 1 1.2s1-.6 1-1.2c0-.9-.3-1.1-.8-1.4-.5-.3-1.2-.6-1.9-.9-2.1-1-2.8-1.8-2.8-3.9 0-1.9.6-3 1.5-3.6.7-.5 1.7-.9 3.2-.9 3.9 0 4.6 1.9 4.6 4.3h-3.7v-.4zM67.6 63H76v3.2h-4.5v2.1h4.2v3h-4.2v2.4h4.7v3.2h-8.5V63zM77.3 63h5.6c1.7 0 2.9.7 3.5 1.8.6 1.1.7 1.8.7 5.1 0 3-.1 6.9-4.2 6.9h-5.7V63zm3.9 11.1h.8c1 0 1.1-1.1 1.1-2.1v-4c0-1.4-.2-2.1-1.4-2.1h-.6v8.2zM88.2 67.4c0-1.1.1-2.2.7-3.1.8-1.2 2.3-1.6 3.7-1.6.9 0 4.2.2 4.2 3.9 0 1.1-.4 2.1-1.1 2.9L94.5 71c-.4.4-.4 1.1-.4 1.8h-3.4c0-1.4.1-2.7.8-3.5l1.3-1.5c.4-.4.5-1 .5-1.5 0-.6-.2-1.2-.8-1.2-.5 0-.8.6-.8 1.3v1.1h-3.5zm2.4 6.2h3.5v3.3h-3.5v-3.3zM103.2 63h3.9v10.7h4.2v3.2h-8.1V63zM112.2 63h8.4v3.2h-4.5v2.1h4.2v3h-4.2v2.4h4.7v3.2h-8.5V63zM121.1 63h9.2v3.3h-2.6v10.6h-3.9V66.3h-2.6V63zM131 63h3.4v3c0 2.7-.4 4.4-3.4 4.5v-1.8c.9-.1 1.2-.4 1.3-1.8H131V63zM141.4 66.5c0-.6-.3-1.1-.9-1.1-.6 0-.9.5-.9 1 0 2.8 5.8 1.3 5.8 6.3 0 3.2-1.5 4.5-5.1 4.5-3 0-4.6-1-4.6-4.1v-.4h3.8v.6c0 .7.3 1.2 1 1.2s1-.6 1-1.2c0-.9-.3-1.1-.8-1.4-.5-.3-1.2-.6-1.9-.9-2.1-1-2.8-1.8-2.8-3.9 0-1.9.6-3 1.5-3.6.7-.5 1.7-.9 3.2-.9 3.9 0 4.6 1.9 4.6 4.3h-3.7v-.4zM150 63h9.2v3.3h-2.6v10.6h-3.9V66.3H150V63zM164.9 74.8h-2.6l-.4 2.1h-4l3.3-13.9h4.9l3.3 13.9h-4l-.5-2.1zm-1.3-8.7l-.9 5.7h1.8l-.9-5.7zM169.9 63h3.9v10.7h4.2v3.2h-8.1V63zM185.1 63h4.2l-3.4 6.1 3.9 7.8h-4.4l-2-4.6-.6 1.1v3.5h-3.9V63h3.9v5.3l2.3-5.3z"/></g></svg>