<svg version="1.1" id="Layer_1" xmlns="http://www.w3.org/2000/svg" x="0" y="0" viewBox="0 0 252 142.7" xml:space="preserve"><style>.st174{fill:#e9515a}</style><path class="st174" d="M125.5 0v17.5c21.2 0 38.5 17.2 38.5 38.5h17.5c-.1-31-25.1-56-56-56z"/><path d="M87 55.9c0 21.2 17.2 38.5 38.5 38.5 21.2 0 38.5-17.2 38.5-38.5h-3.5l12.2-14 12.2 14h-3.5c0 30.9-25 55.9-55.9 55.9s-55.9-25-55.9-55.9H87z" fill="#7bc9f1"/><path class="st174" d="M125.5 17.5V0c-30.9 0-56 25-56 55.9H66l12.2 14 12.2-14H87c0-21.2 17.2-38.4 38.5-38.4z"/><g><path d="M96.8 64.6v-14h-3.9v-3.4c3.3 0 4.7-.7 5.4-3.2h3.9v20.6h-5.4zM114.1 44.1c4.8 0 7 2.2 7 10.5s-2.2 10.5-7 10.5-7-2.2-7-10.5 2.2-10.5 7-10.5zM112.5 58c0 2.9.5 3.7 1.6 3.7s1.6-.8 1.6-3.7v-6.8c0-2.9-.5-3.7-1.6-3.7s-1.6.8-1.6 3.7V58zM129.2 44.1c4.8 0 7 2.2 7 10.5s-2.2 10.5-7 10.5-7-2.2-7-10.5 2.2-10.5 7-10.5zM127.6 58c0 2.9.5 3.7 1.6 3.7s1.6-.8 1.6-3.7v-6.8c0-2.9-.5-3.7-1.6-3.7s-1.6.8-1.6 3.7V58zM141.8 44.1c3.4 0 4.6 1.5 4.6 5.6s-1.1 5.6-4.6 5.6c-3.4 0-4.6-1.5-4.6-5.6s1.2-5.6 4.6-5.6zm0 8.8c.8 0 1-.6 1-3.3s-.2-3.3-1-3.3-1 .6-1 3.3.2 3.3 1 3.3zm9.2-8.8h3.2l-9.2 21h-3.2l9.2-21zm3.3 9.8c3.4 0 4.6 1.5 4.6 5.6s-1.1 5.6-4.6 5.6c-3.4 0-4.6-1.5-4.6-5.6s1.2-5.6 4.6-5.6zm0 8.8c.8 0 1-.6 1-3.3 0-2.7-.2-3.3-1-3.3s-1 .6-1 3.3c0 2.8.2 3.3 1 3.3z"/></g><g><path d="M0 120.6h8.8c4.3 0 6 2.4 6 5.8 0 2.9-1.1 4.8-3.7 5.2v.1c2.7.2 3.6 2 3.6 4.9v1.9c0 1.1 0 2.6.3 3 .2.2.3.5.6.7v.3h-6c-.6-1.4-.6-3.4-.6-4.3v-1.5c0-2.5-.5-3.1-1.9-3.1H5.7v8.7H0v-21.7zm5.7 9.2h1.1c1.6 0 2.4-1 2.4-2.6 0-1.8-.7-2.5-2.4-2.5H5.7v5.1zM17.4 120.6h12.9v4.6h-7.2v3.7h6.7v4.4h-6.7v4.3h7.5v4.6H17.4v-21.6zM36.2 120.6h7.1l5.3 21.7h-6l-.6-3.8h-4.5l-.6 3.8h-6l5.3-21.7zm3.6 4.4l-1.6 9.2h3.2l-1.6-9.2zM49.5 120.6h8.2c6.5 0 6.9 5.2 6.9 10.8 0 5.7-.3 10.8-6.9 10.8h-8.2v-21.6zm5.7 17.6h1.1c2.2 0 2.5-.9 2.5-6.8 0-5.9-.3-6.8-2.5-6.8h-1.1v13.6zM69.8 133.8l-5.5-13.2h6.2l2.1 7.6h.1l2.1-7.6H81l-5.5 13.2v8.5h-5.7v-8.5zM91.5 125.4h-4.3v-4.8h14.2v4.8h-4.3v16.9h-5.7v-16.9zM109.8 120.2c5.8 0 7.7 3.2 7.7 11.3s-2 11.3-7.7 11.3c-5.8 0-7.7-3.2-7.7-11.3s1.9-11.3 7.7-11.3zm0 18.7c1.7 0 1.9-1.6 1.9-7.4 0-5.9-.2-7.4-1.9-7.4s-1.9 1.6-1.9 7.4c0 5.8.1 7.4 1.9 7.4zM127.4 120.6h5.7v8h3.5v-8h5.7v21.7h-5.7v-8.9h-3.5v8.9h-5.7v-21.7zM144.9 120.6h12.9v4.6h-7.2v3.7h6.7v4.4h-6.7v4.3h7.5v4.6H145v-21.6zM160.1 120.6h5.7v17.1h7v4.6h-12.6v-21.7zM173.9 120.6h8.5c4.3 0 6.3 2.9 6.3 6.7 0 4.4-2.5 6.7-7.1 6.7h-2v8.3h-5.7v-21.7zm5.7 9.4h1.1c1.4 0 2.2-.8 2.2-2.6s-.8-2.6-2.2-2.6h-1.1v5.2zM201 133.8l-5.5-13.2h6.2l2.1 7.6h.1l2.1-7.6h6.2l-5.5 13.2v8.5H201v-8.5zM219.3 120.2c5.8 0 7.7 3.2 7.7 11.3s-2 11.3-7.7 11.3c-5.8 0-7.7-3.2-7.7-11.3s1.9-11.3 7.7-11.3zm0 18.7c1.7 0 1.9-1.6 1.9-7.4 0-5.9-.2-7.4-1.9-7.4s-1.9 1.6-1.9 7.4c0 5.8.2 7.4 1.9 7.4zM234.5 120.6v15.6c0 2.1.6 2.6 1.7 2.6s1.7-.5 1.7-2.6v-15.6h5.7v14.2c0 6.1-2.6 7.9-7.4 7.9s-7.4-1.8-7.4-7.9v-14.2h5.7zM246.8 127.9v-7.3h5.3v7.3l-.6 8.1h-4.1l-.6-8.1zm.1 9.6h5.1v4.8h-5.1v-4.8z"/></g></svg>