<svg version="1.1" id="Layer_1" xmlns="http://www.w3.org/2000/svg" x="0" y="0" viewBox="0 0 240.2 174" xml:space="preserve"><style>.st107{fill:#221e20}.st187{opacity:.75;fill:#f8b01e}</style><path class="st187" d="M224.9 26.1c-.9 1.1-11.2 3.1-13.4 3.6-2.2.4-7.1 1.1-9.5 1.8-2.3.7-22.7 2.5-24.8 2.7-2.1.2-11.7 5.2-16.6 5.2-4.9 0-46.3 6.8-53 8.2-6.6 1.3-24.1 5.7-28.1 6.5-4 .8-15.5 7.4-24 8.7-8.6 1.3-21.3 7.2-30.3 9.9s-16 4.1-17.1 4.9C7 78.2 4.7 77 4.3 76c-.5-.9.6-7.2.5-8.9-.1-1.7-.2-2.7.4-4.4.6-1.7 1-6 1.4-6.8.4-.7.1-4.5 1.4-5.1 1.3-.6 15.6-4 18.9-4.6 3.2-.5 18.1-4.3 21.8-5.6 3.7-1.3 13.6-4.5 20-6s27.9-9.2 35.9-10.5c7.9-1.3 13.7-3.4 21.6-5.4 7.9-1.9 17.5-2.7 22.6-3.6 5.1-.9 21.8-3.3 27.2-5.3 5.4-2 11.5-4.3 17.3-4.1 5.8.2 20.6-2.3 24.4-2.6 3.8-.3 4.1-.4 6.4-1.5 2.2-1.1 4-.1 3.9 1.8-.1 1.9-.7 4.9-.5 7 .2 2.1 0 8.5-.8 10.1-.9 1.5-1.8 5.6-1.8 5.6z"/><path class="st187" d="M4 42.4c2-.1 10.9-2 14.6-2.6 3.6-.7 19-2.9 25.9-3.1 7-.2 37.5-.8 44.4-2 6.9-1.2 39.4-5 44.9-5.3 5.4-.3 35.7-1.7 41.7-2.4s26.2-1.6 30-2.2c3.9-.5 17.5 3.5 18.4 2.4.9-1.1 1.8-4 2.7-6.8.9-2.8.4-8.6.8-10.1.4-1.4 1.4-3.8.9-5.4-.5-1.6-1.4-6-2.3-4.9-.9 1.1-8.8 4.1-11 3.9-2.2-.2-42.8 2.1-47.9 1.7-5-.4-12.1 0-13.7-.2-1.5-.2-2.9 1.1-5.5 1-2.6-.1-5.5-1.3-3.4-1.5 2.1-.2 8.7-.9 5.8-1.1-2.8-.2-7.2 0-9.8.6-2.6.6-6.3 1.9-8.8 1.8-2.6-.1-3.9-.1-4 .8-.2.9-.4 1.4-1.7.1-1.3-1.3-2.7-.5-4.6-.5-1.9-.1-7.6 1.8-10.5 1.9-3 0-3-.6-5 .2-2.1.8-3.2-.1-4.5-.1-1.3 0-8.1 1.6-10.3 1.4-2.2-.2-7.6.1-7.6.1s0 .6-1.7.7c-1.7.1-1.7-.6-3.2-.7-1.5-.2-2.5 1-4 .1-1.5-.8 1.5 1.5-.9 1.1-2.4-.3-3.7-1-5.3-1.2-1.6-.1-21.6.6-24.1.9-2.5.3-13.3-.3-15.9.3-2.6.6-11.2.2-15.3.9-4 .8-8.4 1-9 2-.5 1-1.5 3.4-1.7 5-.2 1.5-1.1 5-1.4 8.1-.4 3.1-.8 8.8-1 11-.2 2.2 1.3 4.3 4 4.1zM8 50.8c2-.3 39.7-1.9 44.5-2.2 4.8-.4 90.8-8.4 97.3-8.8 6.5-.4 21.5-1.5 27.2-1.7 5.7-.2 14.8-2.5 21.5-2.8 6.7-.3 25.3-2.4 27.7-2.7 2.5-.3 10.6-1.5 11.7-2.2 1.1-.7 2 3.7 2.2 5.1.2 1.4-.3 5.4-.2 7.1.1 1.7-1.8 7.6-3.3 9.7-1.5 2.1-.5 4-2.2 4.7-1.7.7-14.7-.1-21.4-.4-6.7-.3-38.9 1-47.1.8-8.1-.1-33.1 3.5-37.7 3.6-4.7.1-37.7 2.3-42.1 3.2-4.4.9-15.2 3.3-20.4 3.1-5.2-.2-24.2 4-29 4.4-4.7.3-17.5 2.2-21.4 3.4-3.9 1.2-7.2 2.4-7.2 2.4s-3.5 1-3.8-1.5c-.3-2.5.4-7.4.5-8.9.2-1.5-.2-2.1.4-4.4.6-2.3 1.4-4.5 1.4-6.8-.1-2.3 0-4.9 1.4-5.1z"/><path class="st187" d="M238 30.3c1.7.6 2.2 2.5 2.2 3.8 0 1.3-.5 4-.3 5.4.2 1.4-1 8.6-1.6 9.6-.5 1-3.1 8.2-3.9 7.8-.8-.4-2.2 1.1-6.4 2.1s-3.7-1-5.8-.8c-2.1.2-22.8 6.4-27 6.8-4.1.4-26.3 6.8-31.8 7.1-5.4.3-14.5 3.7-19.9 4.7-5.5 1-51.2 14.7-58.1 15.9-6.9 1.2-30.2 8-34 8.9-3.8.9-20.5 4-25.1 4.5-4.5.5-6.8 1.6-7-.5-.2-2.1 1-6.7 1.2-9.5.2-2.8 1.3-11.5 1.7-12.9.4-1.4-.5-4.5 2-4.8 2.5-.3 14.4-3 20.8-3.9 6.4-.8 14.1-1.9 18.7-2.4 4.5-.5 18.6-3.4 23.3-4.2 4.7-.8 6.2-.6 10.1-.5 3.9.2 11.9-1.8 14.9-2.4 3-.7 25.2-9.7 32.2-10.5 7-.8 27.8-4.7 36.6-8.2 8.8-3.5 27-8.1 32.2-9.2 5.2-1.1 7.7-2.7 11.4-4 3.6-1.3 13.6-2.8 13.6-2.8z"/><path class="st187" d="M238.8 63.5c-1.7.1-6.1.3-7.1.4-1 .1-19.9 2.7-23.1 2.6-3.2-.1-21.1.1-17.1.6s20.8.4 16.6.8c-4.1.4-16.7 2.4-19.6 2.9-2.9.4-9.4.5-12.9.9s-34.3 2.2-38.8 2.7-38.9.3-43.7.7c-4.8.4-21.5.2-25.9.5-4.4.2-26.4 2.1-30.6 1.9-4.1-.3-11.3.8-12.3.9-1 .1-1.1 2-1.5 3.4-.4 1.4-1.9 5.9-1.7 9.3.2 3.4-.3 5.4-.5 7-.2 1.5.1 4.7 1.5 5.1 1.4.4 19.4-.7 25.4-1.4s19.2-3.4 28.1-4.5c8.8-1.1 24.8-3.4 30.1-3.4 5.3-.1 35.4-.6 39.6-1 4.1-.4 33-.3 41.4-.6 8.4-.4 18.2-.3 23.7-.7 5.4-.3 10.1-1.7 14.7-2.3 4.5-.5 8.8-.5 8.8-.5s2.2-4.7 4.2-8.9c1.9-4.2-.1-5.3 1-8.6s.7-3.2.9-4.8c0-1.7-1.2-3-1.2-3z"/><path class="st187" d="M4.9 107.6c2.1.4 8.8-1.1 11.3-2.1s3.8-2.2 7.3-2.6c3.5-.4 23.8-1.6 28.7-3.2 4.8-1.7 11-1.6 8.8-.5l-2.2 1.1s-7.3 2.6-3 2c4.3-.6 7.8-1 11.4-2.4 3.7-1.3 8.1-2.8 6.6-1.3-1.5 1.5-13.7 5.4-5.9 3.7 7.8-1.7 15.4-4.2 22.1-5.1 6.7-1 10.4-2.9 15.6-3.4 5.2-.5 35.3-1.6 39.4-2.4 4-.8 20.7-1.9 28.3-3.1 7.5-1.2 18.5-.8 23-1.3s15.8-2 14.6.3c-1.2 2.3-3.7 9.8-3.7 11.1 0 1.3-1.9 7.2-2.7 8.7-.8 1.5.5 3.2-2.7 3.1-3.2-.1-10.5 1.9-15.8 2.6-5.3.7-52.7 3.4-58.9 4-6.2.6-38.1 3.7-40.2 3.9-2.1.2-11.8 1.8-11.8 1.8s2.2-1.1 0-1.3c-2.2-.2-3.3-.5-5.4-.3-2.1.2-6 1.4-6 1.4s1.5.8 4.2.7c2.7-.2 6.7-.3 4.5.1s-6.7.3-9.6.7c-2.9.4-16.6 2.8-20.4 3.1-3.8.3-11.3 2.7-16.9 3.3-5.6.6-9.9 1.9-14.2 2.5-4.3.6-6.5 1.1-7.5 1.2-1 .1-2-1.1-3-2.3-1-1.2.5-7 .6-9.5.1-2.6.2-5.2.8-7.5.5-2.3.9-7.3 2.7-7z"/><path class="st187" d="M165.5 150c-1.2-2-2.8-4.5-3.9-6.7s-4.3-6-6.8-9.3c-2.5-3.3-6.8-8.6-8.8-10.4-2-1.7-12.3-7-15.9-8.9-3.6-1.9-11.1-3.7-14.5-5.9-3.4-2.2-12.6-5.8-13.6-4-1 1.8 0 4.3-1.6 5.4-1.6 1.1-2.2 3.4-2.1 5.7.1 2.3-.6 5.9-.8 8.1-.2 2.2-1.6 5.4-.2 7.1 1.4 1.7 3.5 3.9 8.8 8 5.3 4.2 10.2 7.2 16.8 11.4 6.6 4.2 11 8.2 19.2 13 8.2 4.8 11.1 5.6 11 6.9 0 1.3 1.6 3.8 2.7 3.4 1.2-.4 2.5-1.6 3.6-4.3 1.1-2.7 2.7-7.4 3-9.9.3-2.4 1.7-4.3 2.3-6 .6-1.4.8-3.6.8-3.6z"/><path class="st187" d="M210.9 87.2c-1-1.2-5.7-1.1-7.4-1.4-1.8-.3-19.2 2.1-21.5 2.8-2.3.7-17.5 4.4-21.9 4.6-4.4.2-12.6 1.4-20.1 2.6-7.5 1.2-24 4.4-27.3 5-3.3.5-6.3 1.9-7.7 2.7-1.4.9-4.4 1.5-4.5 4.1-.1 2.6-1 3.7-1.6 6-.6 2.3.2 4.4.2 6.3-.1 1.9-4 11.6-1.8 11.2 2.2-.4 25.7-6.8 31-6.9 5.3-.1 31.2-6.1 38.6-7.7 7.4-1.6 24.6-4.1 27.7-5.1 3.1-.9 6.2-1.2 7.3-1.3 1-.1.9-.5 2.7-3.1 1.8-2.7 1.5-5.8 2.7-8.7 1.3-2.9.9-2.8 1.8-5.2.9-2.5 1.8-5.9 1.8-5.9z"/><path class="st107" d="M45.1 40.3l5.3-.5 3.9 15.3h.1V39.4l5.7-.6-1.6 22.9-6.5.7-3.5-14.9h-.1L48 62.8l-6.4.7-6.1-22.1 5.7-.6 3.3 15.4h.1l.5-15.9zM60.8 38.7l13.3-1.4.5 4.8-7.5.8.4 3.8 7-.7.5 4.6-7 .7.5 4.5 7.8-.8.5 4.8L63 61.2l-2.2-22.5zM75.9 37.2l5.3-.5.6 5.7c.4 4.1-1 6.2-4.7 6.7l-.3-2.7c1.5-.3 1.9-1.2 1.7-2.9v-.4l-2 .2-.6-6.1zM83.4 36.4l9.2-.9c4.5-.5 6.4 1.9 6.8 5.4.3 3-.7 5.1-3.3 5.7v.1c2.9 0 3.9 1.7 4.2 4.7l.2 1.9c.1 1.2.3 2.7.6 3.1.2.2.3.5.7.6v.3l-6.2.6c-.7-1.1-.9-3.3-1-4.2l-.2-1.5c-.3-2.6-.8-3.2-2.2-3l-1.5.2.9 9-5.9.6-2.3-22.6zm6.9 9l1.2-.1c1.7-.2 2.3-1.3 2.2-2.9-.2-1.8-1-2.5-2.8-2.4l-1.1.1.5 5.3zM100.9 34.7l13.3-1.4.5 4.8-7.5.8.4 3.8 7-.7.5 4.6-7 .7.5 4.5 7.8-.8.5 4.8-13.6 1.4-2.4-22.5zM123.6 32.4l5.9-.6.8 8.3 3.6-.4-.8-8.3 5.9-.6 2.3 22.5-5.9.6-.9-9.3-3.6.4.9 9.3-5.9.6-2.3-22.5zM141.1 30.6l13.3-1.4.5 4.8-7.5.8.4 3.8 7-.7.5 4.6-7 .7.5 4.5 7.8-.8.5 4.8-13.6 1.4-2.4-22.5zM156.2 29.1l9.2-.9c4.5-.5 6.4 1.9 6.8 5.4.3 3-.7 5.1-3.3 5.7v.1c2.9 0 3.9 1.7 4.2 4.7l.2 1.9c.1 1.2.3 2.7.6 3.1.2.2.3.5.7.6v.3l-6.2.6c-.7-1.1-.9-3.3-1-4.2l-.2-1.5c-.3-2.6-.8-3.2-2.2-3l-1.5.2.9 9-5.9.6-2.3-22.6zM163 38l1.2-.1c1.7-.2 2.3-1.3 2.2-2.9-.2-1.8-1-2.5-2.8-2.4l-1.1.1.5 5.3zM173.7 27.3l13.3-1.4.5 4.8-7.5.8.4 3.8 7-.7.5 4.6-7 .7.5 4.5 7.8-.8.5 4.8-13.6 1.4-2.4-22.5zM190.4 33.2l-.8-7.5 5.5-.6.8 7.5.2 8.5-4.2.4-1.5-8.3zm1.1 10l5.3-.5.5 5-5.3.5-.5-5z"/><g><path class="st107" d="M48.2 74.9l-.1-.5c-.1-1.4-.8-2.4-1.9-2.3-1.3.1-1.7 1.2-1.6 2.2.5 4.4 9.8 1.3 10.6 9.5.5 4.8-2.1 7.2-7.3 7.7-4.9.5-7.7-.9-8.2-5.6l-.1-.8 5.7-.6.1.5c.2 1.9 1.1 2.5 2.2 2.4 1.2-.1 1.8-1.1 1.7-2.4-.5-4.4-9.4-1.3-10.2-9.3-.5-4.5 1.7-7.3 6.7-7.8 5.1-.5 7.5 1.4 8 6.2l-5.6.8zM54.8 67.7l8.8-.9c4.5-.5 6.8 2.3 7.2 6.3.5 4.6-1.9 7.3-6.7 7.7l-2 .2.9 8.6-5.9.6-2.3-22.5zm6.9 9.1l1.1-.1c1.5-.2 2.2-1.1 2-3-.2-1.9-1.1-2.7-2.5-2.5l-1.1.1.5 5.5zM71.4 66l13.3-1.4.5 4.8-7.5.8.4 3.8 7-.7.5 4.6-7 .7.5 4.5 7.8-.8.5 4.8-13.6 1.4L71.4 66z"/><path class="st107" d="M90.2 64.1l7.4-.7 7.8 21.9-6.2.6-1-3.9-4.7.5-.2 4-6.3.6 3.2-23zm4.2 4.2l-.7 9.7 3.3-.3-2.6-9.4zM103.2 62.8l5.9-.6.9 8.6h.1l3.5-9.1 6.2-.6-4.8 10.4 7.7 12-6.7.7-4.2-7.5-1 2 .6 6-5.9.6-2.3-22.5zM130.1 65.1l-4.4.4-.5-5 14.7-1.5.5 5-4.4.4 1.8 17.5-5.9.6-1.8-17.4zM147.9 57.8c6-.6 8.4 2.5 9.2 10.9.9 8.4-.9 11.9-6.9 12.5-6 .6-8.4-2.5-9.2-10.9-.8-8.4.9-11.9 6.9-12.5zm2 19.4c1.8-.2 1.8-1.8 1.2-7.9-.6-6.1-1-7.7-2.8-7.5-1.8.2-1.8 1.8-1.2 7.9s1 7.7 2.8 7.5zM170.7 55.9l1.6 16.2c.2 2.2.9 2.7 2 2.6 1.1-.1 1.7-.7 1.5-2.9l-1.6-16.2 5.9-.6 1.5 14.7c.6 6.3-1.9 8.5-6.8 9s-7.8-1.1-8.5-7.4l-1.5-14.7 5.9-.7zM191.4 60.4l-.1-.5c-.1-1.3-.8-2.4-1.9-2.3-1.3.1-1.7 1.2-1.6 2.2.5 4.4 9.8 1.3 10.6 9.5.5 4.8-2.1 7.2-7.3 7.7-4.9.5-7.7-.9-8.2-5.6l-.1-.8 5.7-.6.1.5c.2 1.9 1.1 2.5 2.2 2.4 1.2-.1 1.8-1.1 1.7-2.4-.5-4.4-9.4-1.3-10.2-9.3-.5-4.5 1.7-7.3 6.7-7.8 5.1-.5 7.5 1.4 8 6.2l-5.6.8z"/></g></svg>