<svg version="1.1" id="Layer_1" xmlns="http://www.w3.org/2000/svg" x="0" y="0" viewBox="0 0 251.6 68.1" xml:space="preserve"><style>.st141{fill:#2d5166}.st276{fill:#0e303f}</style><path class="st276" d="M34.2 60.3c.8 1.1.6 2.6-.5 3.4l-5.2 3.9c-1.1.8-2.6.6-3.4-.5l-10-13.4c-.8-1.1-.6-2.6.5-3.4l5.2-3.9c1.1-.8 2.6-.6 3.4.5l10 13.4z"/><path class="st141" d="M51 18.4c-2.4-.8-5 .5-5.8 2.9-.8 2.4.5 5 2.9 5.8 2.4.8 5-.5 5.8-2.9.9-2.4-.5-5-2.9-5.8z"/><path d="M17.4 24.4L26 41.5 48.9 30 35.5 3.6c-1.7 6.6-5.3 12.5-10.6 16.7-2.4 1.8-4.9 3.2-7.5 4.1z" fill="#fff"/><path class="st141" d="M17.9 24.1L5.4 30.4C.6 32.8-1.4 38.7 1 43.5l3 6c2.4 4.8 8.3 6.8 13.1 4.3l12.5-6.3-11.7-23.4z"/><path d="M58.5 46.3c-1.1.6-2.5 0-3.1-1.3L35.2 4.9c-.6-1.2-.3-2.7.8-3.3l2-1c1.1-.6 2.5 0 3.1 1.3l20.2 40.2c.6 1.3.3 2.7-.8 3.3l-2 .9z" fill="#eb622b"/><path d="M56.7 45.5L46.1 24.4 23.2 35.9l5.9 11.7c2.3-1.5 4.9-2.8 7.8-3.6 6.6-1.7 13.5-1.1 19.8 1.5z" fill="#a5d9e7"/><path class="st276" d="M23.8 35.7L2.5 46.4l1.6 3.1c2.4 4.8 8.3 6.8 13.1 4.3l12.5-6.3-5.9-11.8z"/><path d="M61.3 42.1L51.2 21.9l-5.9 3 10.2 20.2c.6 1.2 2 1.8 3.1 1.3l2-1c1-.6 1.4-2.1.7-3.3z" fill="#df3e19"/><path class="st141" d="M21 54.2c-.5-.7-1.5-.8-2.2-.3-.7.5-.8 1.5-.3 2.2L26 66c.5.7 1.5.8 2.2.3.7-.5.8-1.5.3-2.2L21 54.2z"/><g><path class="st141" d="M57 19.6c-.1 0-.2-.1-.3-.3-.1-.3 0-.6.2-.7l16.9-8.5c.3-.1.6 0 .7.2.1.3 0 .6-.2.7l-16.9 8.5c-.2.2-.3.2-.4.1zM54.8 16.1c-.1 0-.1 0-.2-.1-.2-.2-.3-.5-.1-.7L66 .2c.2-.2.5-.3.7-.1.2.2.3.5.1.7L55.4 16c-.2.1-.4.2-.6.1zM58.5 23.4c-.2-.1-.4-.3-.4-.5 0-.3.2-.5.5-.5l19-.2c.3 0 .5.2.5.5s-.2.5-.5.5l-19 .2c0 .1-.1.1-.1 0z"/></g><g><path class="st141" d="M92.4 10.9h4.9l2.1 14.3h.1l1.5-14.3h5.2l-3.5 20.7h-5.9L95 17.7h-.1l-1.9 14h-5.9L83.6 11h5.2l1.6 14.3h.1l1.9-14.4zM107.4 10.9h12.3v4.4h-6.9v3.5h6.4V23h-6.4v4.1h7.1v4.4h-12.5V10.9zM131.8 10.9h6.8l5.1 20.7h-5.8l-.6-3.6H133l-.6 3.6h-5.7l5.1-20.7zm3.4 4.3l-1.5 8.8h3l-1.5-8.8zM144.5 10.9h8.5c4.1 0 5.7 2.3 5.7 5.5 0 2.8-1.1 4.6-3.5 4.9v.1c2.6.2 3.4 1.9 3.4 4.6v1.8c0 1.1 0 2.5.3 2.9.1.2.3.5.6.6v.3h-5.7c-.5-1.1-.5-3.1-.5-3.9v-1.4c0-2.4-.5-3-1.8-3h-1.4v8.3h-5.4V10.9zm5.4 8.8h1.1c1.5 0 2.3-1 2.3-2.5 0-1.7-.7-2.4-2.3-2.4h-1v4.9zM161.2 10.9h12.3v4.4h-6.9v3.5h6.4V23h-6.4v4.1h7.1v4.4h-12.5V10.9zM183.3 10.9h5.4v7.6h3.3v-7.6h5.4v20.7H192v-8.5h-3.3v8.5h-5.4V10.9zM199.9 10.9h12.3v4.4h-6.9v3.5h6.4V23h-6.4v4.1h7.1v4.4h-12.5V10.9zM214.4 10.9h8.5c4.1 0 5.7 2.3 5.7 5.5 0 2.8-1.1 4.6-3.5 4.9v.1c2.6.2 3.4 1.9 3.4 4.6v1.8c0 1.1 0 2.5.3 2.9.1.2.3.5.6.6v.3h-5.7c-.5-1.1-.5-3.1-.5-3.9v-1.4c0-2.4-.5-3-1.8-3H220v8.3h-5.4V10.9zm5.4 8.8h1.1c1.5 0 2.3-1 2.3-2.5 0-1.7-.7-2.4-2.3-2.4h-1v4.9zM231.1 10.9h12.3v4.4h-6.9v3.5h6.4V23h-6.4v4.1h7.1v4.4h-12.5V10.9zM246.4 17.9V11h5.1v6.9l-.6 7.8H247l-.6-7.8zm.1 9.2h4.9v4.6h-4.9v-4.6z"/></g><g><path class="st141" d="M97.9 41.6c-.1-3.4-2.7-5.1-6.4-5.1-2.2 0-5.4.9-5.4 4.2 0 3.2 3.4 3.7 6.7 4.4 3.4.7 6.8 1.6 6.8 5.5 0 4.1-3.9 5.6-7 5.6-4.6 0-8.4-1.9-8.4-7h1.2c-.2 4.3 3.2 6 7.1 6 2.4 0 5.7-1.1 5.7-4.5s-3.4-3.9-6.8-4.6c-3.4-.7-6.7-1.5-6.7-5.3s3.5-5.3 6.7-5.3c4.1 0 7.4 1.8 7.6 6.1h-1.1zM102.5 35.9h8.4c2.2 0 5.8.8 5.8 5.6 0 3.5-2.3 5.4-6.2 5.4h-6.8v8.8h-1.2V35.9zm1.2 10h7c3.6 0 4.8-2.4 4.8-4.4 0-1.5-.7-4.5-4.6-4.5h-7.1v8.9zM132.3 54.7v1.1h-13.5V35.9h13.3V37H120v7.9h11.4V46H120v8.7h12.3z"/><path class="st141" d="M141.6 35.9l7.8 19.8h-1.3l-2.5-6.4h-9.5l-2.5 6.4h-1.3l8-19.8h1.3zm3.7 12.4L141 37.1l-4.4 11.2h8.7zM150.9 35.9h1.2v11.4l12.5-11.4h1.6l-9.1 8.2 9.6 11.6h-1.5l-9-10.7-4.1 3.7v7h-1.2V35.9zM173.5 37v-1.1h15.2V37h-7v18.8h-1.2V37h-7zM198.6 56.2c-5.9 0-9.4-4.6-9.4-10.4 0-5.8 3.5-10.4 9.4-10.4S208 40 208 45.8c0 5.8-3.5 10.4-9.4 10.4zm0-1c5.2 0 8.2-4.2 8.2-9.3s-3-9.3-8.2-9.3c-5.2 0-8.2 4.2-8.2 9.3s3 9.3 8.2 9.3zM219.5 35.9v11.9c0 2.4.5 7.4 6.2 7.4 4.9 0 6.5-2.9 6.5-7.4V35.9h1.2v11.9c0 4.7-1.8 8.4-7.7 8.4-7.1 0-7.4-5.8-7.4-8.4V35.9h1.2zM249.9 41.6c-.1-3.4-2.7-5.1-6.4-5.1-2.2 0-5.4.9-5.4 4.2 0 3.2 3.4 3.7 6.7 4.4 3.4.7 6.8 1.6 6.8 5.5 0 4.1-3.9 5.6-7 5.6-4.6 0-8.4-1.9-8.4-7h1.2c-.2 4.3 3.2 6 7.1 6 2.4 0 5.7-1.1 5.7-4.5s-3.4-3.9-6.8-4.6c-3.4-.7-6.7-1.5-6.7-5.3s3.5-5.3 6.7-5.3c4.1 0 7.4 1.8 7.6 6.1h-1.1z"/></g></svg>