<svg xmlns="http://www.w3.org/2000/svg" viewBox="0 0 233.5 61.3"><style>.st0{fill:#fff}.st151{fill:#d9204f}.st152{fill:#ff4867}</style><g id="Layer_1"><path d="M191.7 61.3H41.8c-6.1 0-11-4.9-11-11V18.2c0-6.1 4.9-11 11-11h149.8c6.1 0 11 4.9 11 11v32.1c.1 6.1-4.8 11-10.9 11z" fill="#643091"/><path class="st151" d="M191.1 56.6H42.5c-4.2 0-7.6-3.4-7.6-7.6V14c0-4.2 3.4-7.6 7.6-7.6h148.6c4.2 0 7.6 3.4 7.6 7.6v35c0 4.2-3.4 7.6-7.6 7.6z"/><path class="st152" d="M191.1 50.2H42.5c-4.2 0-7.6-3.4-7.6-7.6v-35C35 3.4 38.3 0 42.5 0h148.6c4.2 0 7.6 3.4 7.6 7.6v35.1c0 4.1-3.4 7.5-7.6 7.5z"/><path d="M41.1 42.2c-2 0-3.7-1.5-3.7-3.2V5.7c0-1.8 1.7-3.2 3.7-3.2h151.5c2 0 3.7 1.5 3.7 3.2V39c0 1.8-1.7 3.2-3.7 3.2H41.1z" fill="#ff7189"/><path d="M40.1 44.8c-2.1 0-3.7-1.5-3.7-3.3v-34c0-1.8 1.7-3.3 3.7-3.3h153.3c2.1 0 3.7 1.5 3.7 3.3v34c0 1.8-1.7 3.3-3.7 3.3H40.1z" fill="#ff4a65"/><path class="st151" d="M65.4 15.9h2.3v11.3c0 1.2-.1 2.1-.3 2.7-.2.7-.7 1.4-1.5 2.3-.8.8-2 1.3-3.7 1.3-1.2 0-2.1-.2-2.9-.7-.8-.5-1.4-1.2-1.9-2.2-1 1.9-2.5 2.9-4.6 2.9-1.6 0-2.9-.5-3.9-1.5s-1.5-2.4-1.5-4V16h2.3v11.4c0 2.7 1.1 4 3.2 4 1.1 0 1.9-.4 2.5-1.1.6-.7.9-1.7.9-3V15.9h2.3v11.4c0 1.3.3 2.3.9 3 .6.7 1.4 1.1 2.5 1.1 1.3 0 2.2-.4 2.7-1.2.5-.8.7-1.8.7-3V15.9zM80.2 27.7l1.4.8c-.9 3.2-3 4.8-6.1 4.8-1.7 0-3.1-.6-4.3-1.8-1.2-1.2-1.8-2.6-1.8-4.3 0-1.7.6-3.2 1.8-4.3 1.2-1.2 2.6-1.8 4.4-1.8 2.3 0 4.1 1.2 5.4 3.5l-7.5 4.9-.9-1.5 5.7-3.8c-.7-.8-1.6-1.2-2.7-1.2s-2.1.4-2.8 1.2c-.8.8-1.1 1.8-1.1 2.9 0 1.2.4 2.2 1.2 3.1s1.8 1.3 3 1.3c1.1 0 2-.3 2.8-1 .6-.7 1.1-1.6 1.5-2.8zM103 33.1h-2.3v-7.4h-6.5v-2h6.5v-1.1c0-1 0-1.7-.1-2.2-.1-.4-.4-1-.9-1.7s-1.4-1.1-2.6-1.1c-2.5 0-3.8 1.6-3.8 4.8v10.7H91V22.5c0-2.2.5-3.9 1.6-5.1 1.1-1.2 2.5-1.8 4.4-1.8 1.1 0 2 .2 2.9.7.9.5 1.5 1 2 1.7s.8 1.4.9 2.1c.1.7.2 1.5.2 2.6v10.4zM108 33.1h-2.1V21.4h2.1v2.1c.8-1.5 2.1-2.3 3.8-2.3h.8v1.9h-.4c-1.4 0-2.5.4-3.2 1.1-.7.8-1 1.9-1 3.6v5.3zM123.3 27.7l1.4.8c-.9 3.2-3 4.8-6.1 4.8-1.7 0-3.1-.6-4.3-1.8-1.2-1.2-1.8-2.6-1.8-4.3 0-1.7.6-3.2 1.8-4.3 1.2-1.2 2.6-1.8 4.4-1.8 2.3 0 4.1 1.2 5.4 3.5l-7.5 4.9-.9-1.5 5.7-3.8c-.7-.8-1.6-1.2-2.7-1.2s-2.1.4-2.8 1.2c-.8.8-1.1 1.8-1.1 2.9 0 1.2.4 2.2 1.2 3.1.8.9 1.8 1.3 3 1.3 1.1 0 2-.3 2.8-1 .6-.7 1.2-1.6 1.5-2.8zM146.6 33.1h-2.3v-7.9h-7.5v7.9h-2.3V15.9h2.3v7.3h7.5v-7.3h2.3v17.2zM159.3 27.7l1.4.8c-.9 3.2-3 4.8-6.1 4.8-1.7 0-3.1-.6-4.3-1.8-1.2-1.2-1.8-2.6-1.8-4.3 0-1.7.6-3.2 1.8-4.3 1.2-1.2 2.6-1.8 4.4-1.8 2.3 0 4.1 1.2 5.4 3.5l-7.5 4.9-.9-1.5 5.7-3.8c-.7-.8-1.6-1.2-2.7-1.2s-2.1.4-2.8 1.2c-.8.8-1.1 1.8-1.1 2.9 0 1.2.4 2.2 1.2 3.1.8.9 1.8 1.3 3 1.3 1.1 0 2-.3 2.8-1 .7-.7 1.2-1.6 1.5-2.8zM164.8 33.1h-2.1V21.4h2.1v2.1c.8-1.5 2.1-2.3 3.8-2.3h.8v1.9h-.4c-1.4 0-2.5.4-3.2 1.1-.7.8-1 1.9-1 3.6v5.3zM180.2 27.7l1.4.8c-.9 3.2-3 4.8-6.1 4.8-1.7 0-3.1-.6-4.3-1.8-1.2-1.2-1.8-2.6-1.8-4.3 0-1.7.6-3.2 1.8-4.3 1.2-1.2 2.6-1.8 4.4-1.8 2.3 0 4.1 1.2 5.4 3.5l-7.5 4.9-.9-1.5 5.7-3.8c-.7-.8-1.6-1.2-2.7-1.2s-2.1.4-2.8 1.2c-.8.8-1.1 1.8-1.1 2.9 0 1.2.4 2.2 1.2 3.1.8.9 1.8 1.3 3 1.3 1.1 0 2-.3 2.8-1 .6-.7 1.2-1.6 1.5-2.8zM184.6 30.3c.4 0 .8.1 1.1.4.3.3.4.7.4 1.1 0 .4-.1.8-.4 1.1-.3.3-.7.4-1.1.4s-.8-.1-1.1-.4c-.3-.3-.4-.7-.4-1.1 0-.4.1-.8.4-1.1.3-.3.6-.4 1.1-.4zm-1-1.1l-.2-13.3h2.3l-.2 13.3h-1.9z"/><g><path class="st0" d="M65.4 14.4h2.3v11.3c0 1.2-.1 2.1-.3 2.7-.2.7-.7 1.4-1.5 2.3-.8.8-2 1.3-3.7 1.3-1.2 0-2.1-.2-2.9-.7-.8-.5-1.4-1.2-1.9-2.2-1 1.9-2.5 2.9-4.6 2.9-1.6 0-2.9-.5-3.9-1.5s-1.5-2.4-1.5-4v-12h2.3v11.4c0 2.7 1.1 4 3.2 4 1.1 0 1.9-.4 2.5-1.1.6-.7.9-1.7.9-3V14.4h2.3v11.4c0 1.3.3 2.3.9 3 .6.7 1.4 1.1 2.5 1.1 1.3 0 2.2-.4 2.7-1.2.5-.8.7-1.8.7-3V14.4zM80.2 26.2l1.4.8c-.9 3.2-3 4.8-6.1 4.8-1.7 0-3.1-.6-4.3-1.8-1.2-1.2-1.8-2.6-1.8-4.3 0-1.7.6-3.2 1.8-4.3 1.2-1.2 2.6-1.8 4.4-1.8 2.3 0 4.1 1.2 5.4 3.5L73.5 28l-.9-1.5 5.7-3.8c-.7-.8-1.6-1.2-2.7-1.2s-2.1.4-2.8 1.2c-.8.8-1.1 1.8-1.1 2.9 0 1.2.4 2.2 1.2 3.1.8.9 1.8 1.3 3 1.3 1.1 0 2-.3 2.8-1 .6-.6 1.1-1.6 1.5-2.8zM103 31.6h-2.3v-7.4h-6.5v-2h6.5v-1.1c0-1 0-1.7-.1-2.2-.1-.4-.4-1-.9-1.7s-1.4-1.1-2.6-1.1c-2.5 0-3.8 1.6-3.8 4.8v10.7H91V21c0-2.2.5-3.9 1.6-5.1 1.1-1.2 2.5-1.8 4.4-1.8 1.1 0 2 .2 2.9.7.9.5 1.5 1 2 1.7s.8 1.4.9 2.1c.1.7.2 1.5.2 2.6v10.4zM108 31.6h-2.1V19.9h2.1V22c.8-1.5 2.1-2.3 3.8-2.3h.8v1.9h-.4c-1.4 0-2.5.4-3.2 1.1-.7.8-1 1.9-1 3.6v5.3zM123.3 26.2l1.4.8c-.9 3.2-3 4.8-6.1 4.8-1.7 0-3.1-.6-4.3-1.8-1.2-1.2-1.8-2.6-1.8-4.3 0-1.7.6-3.2 1.8-4.3 1.2-1.2 2.6-1.8 4.4-1.8 2.3 0 4.1 1.2 5.4 3.5l-7.5 4.9-.9-1.5 5.7-3.8c-.7-.8-1.6-1.2-2.7-1.2s-2.1.4-2.8 1.2c-.8.8-1.1 1.8-1.1 2.9 0 1.2.4 2.2 1.2 3.1.8.9 1.8 1.3 3 1.3 1.1 0 2-.3 2.8-1 .6-.6 1.2-1.6 1.5-2.8zM146.6 31.6h-2.3v-7.9h-7.5v7.9h-2.3V14.4h2.3v7.3h7.5v-7.3h2.3v17.2zM159.3 26.2l1.4.8c-.9 3.2-3 4.8-6.1 4.8-1.7 0-3.1-.6-4.3-1.8-1.2-1.2-1.8-2.6-1.8-4.3 0-1.7.6-3.2 1.8-4.3 1.2-1.2 2.6-1.8 4.4-1.8 2.3 0 4.1 1.2 5.4 3.5l-7.5 4.9-.9-1.5 5.7-3.8c-.7-.8-1.6-1.2-2.7-1.2s-2.1.4-2.8 1.2c-.8.8-1.1 1.8-1.1 2.9 0 1.2.4 2.2 1.2 3.1.8.9 1.8 1.3 3 1.3 1.1 0 2-.3 2.8-1 .7-.6 1.2-1.6 1.5-2.8zM164.8 31.6h-2.1V19.9h2.1V22c.8-1.5 2.1-2.3 3.8-2.3h.8v1.9h-.4c-1.4 0-2.5.4-3.2 1.1-.7.8-1 1.9-1 3.6v5.3zM180.2 26.2l1.4.8c-.9 3.2-3 4.8-6.1 4.8-1.7 0-3.1-.6-4.3-1.8-1.2-1.2-1.8-2.6-1.8-4.3 0-1.7.6-3.2 1.8-4.3 1.2-1.2 2.6-1.8 4.4-1.8 2.3 0 4.1 1.2 5.4 3.5l-7.5 4.9-.9-1.5 5.7-3.8c-.7-.8-1.6-1.2-2.7-1.2s-2.1.4-2.8 1.2c-.8.8-1.1 1.8-1.1 2.9 0 1.2.4 2.2 1.2 3.1.8.9 1.8 1.3 3 1.3 1.1 0 2-.3 2.8-1 .6-.6 1.2-1.6 1.5-2.8zM184.6 28.8c.4 0 .8.1 1.1.4.3.3.4.7.4 1.1 0 .4-.1.8-.4 1.1-.3.3-.7.4-1.1.4s-.8-.1-1.1-.4c-.3-.3-.4-.7-.4-1.1 0-.4.1-.8.4-1.1.3-.2.6-.4 1.1-.4zm-1-1.1l-.2-13.3h2.3l-.2 13.3h-1.9z"/></g><g><path class="st152" d="M212.4 44.2c.1 0 .3 0 .4.1l14.6 8.5c.4.2.5.7.3 1.1-.2.4-.7.5-1.1.3L212 45.7c-.4-.2-.5-.7-.3-1.1.1-.2.4-.4.7-.4zM216.2 33.7h.2l16.1 3.1c.4.1.7.5.6.9-.1.4-.5.7-.9.6l-16.1-3.1c-.4-.1-.7-.5-.6-.9 0-.3.3-.6.7-.6zM232.7 22c.4 0 .8.4.8.8s-.4.8-.8.8l-16.1.2c-.4 0-.8-.4-.8-.8s.4-.8.8-.8l16.1-.2zM227.9 3.9c.3 0 .6.2.7.5.2.4 0 .9-.4 1.1l-14.4 6.7c-.4.2-.9 0-1.1-.4-.2-.4 0-.9.4-1.1L227.6 4c.1 0 .2-.1.3-.1z"/></g><g><path class="st152" d="M21.1 44.2c-.1 0-.3 0-.4.1L6.1 52.8c-.4.2-.5.7-.3 1.1.2.4.7.5 1.1.3l14.6-8.5c.4-.2.5-.7.3-1.1-.2-.2-.4-.4-.7-.4zM17.3 33.7h-.2l-16 3.1c-.4.1-.7.5-.6.9.1.4.5.7.9.6l16.1-3.1c.4-.1.7-.5.6-.9-.1-.3-.4-.6-.8-.6zM.8 22c-.4 0-.8.3-.8.8 0 .4.4.8.8.8l16.1.2c.4 0 .8-.4.8-.8s-.4-.8-.8-.8L.8 22zM5.6 3.9c-.3 0-.6.2-.8.5-.2.4 0 .9.4 1.1l14.4 6.7c.4.2.9 0 1.1-.4.2-.4 0-.9-.4-1.1L5.9 4c-.1 0-.2-.1-.3-.1z"/></g></g></svg>