<svg xmlns="http://www.w3.org/2000/svg" viewBox="0 0 195.1 95.3"><style>.st64{fill:#ffb39a}.st66{fill:#e29700}.st67{fill:#fc0}.st70{fill:#418cc4}.st72{fill:#79e2d6}</style><g id="Layer_1"><path d="M132.3 10.9l-4.1.1c-4.3 4.8-11.9 13.3-11.9 14.2-.1 1.3 5.3 6.7 5.3 6.7l13.2 5.4c2.5-2.5 4.5-5.3 4.5-5.3l2.8-11.4-9.8-9.7zm-4.2 20.8s-5.4-5-5.1-5.9c.3-.9 7.8-5.7 7.8-5.7l5.3 8.8-8 2.8z" fill="#e49078"/><path d="M116.3 25.2c0-1 7.6-9.4 11.9-14.2l-11.1.4-9.9 9.7.5 3.6c-.5 9.1 15.3 15.4 19.7 16.6 2.1.6 5-1.6 7.3-3.9L121.6 32s-5.3-5.4-5.3-6.8z" fill="#ea9d88"/><path class="st64" d="M160.1 59.9s0-19.1-1.2-19.3c-1.2-.2-17.3.7-21.3-.5s-23.6-4.2-26.2-3.6c-2.7.6-10.7-4.9-1.2-7.1s17.3-2.1 19.5-4c2.2-1.9 0-7.8-1.9-8.5-1.9-.6-10.4-.9-11.7.3s-10.3 11.6-11.2 11.6c-.8-.1-3.8-1.4-1.4-7.2 2.4-5.8 7.1-14.5 11.5-15.7 4.4-1.3 21.4-3.6 22.5-2.7s30.8 19.9 34.1 22c5.2 3.4 14.8 32 15.2 36 .5 4-21.5 5-21.5 5l-5.2-6.3z"/><path d="M106 45.2c-1.4-.3-2.2-1.6-2-3l6.3-38.3c.4-2.6 3-4.3 5.5-3.8 2.6.6 4.2 3.2 3.5 5.7l-10.2 37.5c-.4 1.4-1.7 2.2-3.1 1.9z" fill="#333"/><path class="st66" d="M107.8 49.2l-5.1-1.1c-1.3-.3-2.1-1.5-1.8-2.8l.4-1.8c.3-1.3 1.5-2.1 2.8-1.8l5.1 1.1c1.3.3 2.1 1.5 1.8 2.8l-.4 1.8c-.3 1.3-1.5 2.1-2.8 1.8z"/><path class="st67" d="M121.6 79.5c.3-1.3-.4-2.8-2-4.3-1.7-1.7-2.6-4.2-2.5-6.8.3-8.9-1.8-20-11.3-22.1-9.5-2.1-16.1 7.2-19.5 15.4-1 2.4-2.8 4.4-5.1 5.2-2 .7-3.3 1.7-3.6 3.1-.2 1.1-.9 2.4 0 3.6 2.8 3.4 11.2 6.8 20.3 8.7 9.1 2 18.3 2.4 22.2.4 1.4-.7 1.2-2.2 1.5-3.2z"/><ellipse transform="rotate(-77.708 99.154 76.63)" class="st67" cx="99.2" cy="76.6" rx="5.7" ry="22.5"/><ellipse transform="rotate(-77.708 99.073 77)" class="st66" cx="99.1" cy="77" rx="3.5" ry="19.2"/><path d="M95.2 72.7c-.6.7-1.1 1.5-1.3 2.5-.6 2.9 1.2 5.8 4.1 6.5 2.9.6 5.8-1.2 6.5-4.1.2-1 .1-1.9-.2-2.8-1.5-.4-3-.7-4.6-1.1s-3-.7-4.5-1z" fill="#c17b00"/><g><path d="M86.7 66.1c-.1 0-.2-.1-.3-.1-.3-.2-.3-.7-.1-1 1.5-1.8 2.8-4.2 4.1-7.2 4.4-10.6 11.8-10.6 12.1-10.6.4 0 .7.3.7.7 0 .4-.3.7-.7.7-.3 0-6.8.1-10.8 9.8-1.3 3.1-2.8 5.7-4.3 7.6-.2.1-.5.2-.7.1z" fill="#fff"/></g><g><path class="st67" d="M131.2 80.4h-.4c-.4-.1-.6-.5-.5-.8 1.8-7.8-3.5-11.1-3.5-11.1-.3-.2-.4-.6-.2-.9.2-.3.6-.4.9-.2.1 0 6.3 3.8 4.2 12.6-.1.1-.3.3-.5.4zM136.7 80.3h-.3c-.4-.1-.6-.4-.6-.8 1.3-9.6-4.5-14.2-4.6-14.2-.3-.2-.4-.7-.1-1 .2-.3.7-.4 1-.1.3.2 6.6 5.1 5.1 15.5-.1.3-.3.5-.5.6z"/><g><path class="st67" d="M78.1 60.6c.1.1.1.2.2.3.1.4-.2.7-.5.8-7.8 1.6-8.6 7.8-8.6 7.9 0 .4-.4.7-.8.6-.4 0-.7-.4-.6-.8 0-.1.9-7.3 9.7-9.1.2 0 .5.1.6.3zM75.7 55.7c.1.1.1.2.2.3.1.4-.1.7-.5.9-9.3 2.8-11 10.1-11 10.1-.1.4-.4.6-.8.5-.4-.1-.6-.4-.5-.8.1-.3 1.9-8.1 11.9-11.2.3-.1.6 0 .7.2z"/></g></g><path class="st64" d="M114.8 28.5c-1.5.3-3 .6-4.6.9-9.5 2.2-1.5 7.7 1.2 7.1.6-.1 2-.1 3.9 0-.1-2.6-.1-5.4-.5-8z"/><g><path d="M123 25.7c-.3.9 5.1 5.9 5.1 5.9l8-2.8-5.3-8.8s-7.4 4.8-7.8 5.7z" fill="none"/></g><path class="st70" d="M159.8 47.8s-1.2 2 7.7.9c11.6-1.4 14.1-3 13.7-5 0 0 .5-.4 1-.2.9.5 3.4 6.6 1.7 8.2-1.7 1.6-23.9 6.2-24.9 2.5-.9-3.1-.8-7 .8-6.4z"/><path d="M159 54.2s-1-.5-.3 9.1 2 31.9 2 31.9h34.5s-7.6-41.2-10.7-45.9c-.1.1-9.1 8.2-25.5 4.9z" fill="#55bcb2"/><g><path class="st72" d="M166 80.3c-.2 0-.3-.1-.3-.3L164 62.4c0-.2.1-.3.3-.3.2 0 .3.1.3.3l1.7 17.6c.1.1-.1.3-.3.3.1 0 0 0 0 0zM172.3 77.9c-.1 0-.3-.1-.3-.3L169.4 62c0-.2.1-.3.3-.4.2 0 .3.1.4.3l2.6 15.6c0 .2-.1.4-.4.4.1 0 .1 0 0 0zM179 79c-.1 0-.3-.1-.3-.2l-3.8-17c0-.2.1-.3.2-.4.2 0 .3.1.4.2l3.8 17c.1.2-.1.3-.3.4.1 0 0 0 0 0zM184.8 76.6c-.1 0-.3-.1-.3-.2l-4.2-15c0-.2 0-.3.2-.4.2 0 .3 0 .4.2l4.2 15c0 .2-.1.3-.3.4z"/></g><g><path class="st70" d="M21.8 13.8c.5.5.8 1.1.9 1.9.1.8.1 1.8-.1 2.8-.2 1.1-.5 2.2-.9 3.5-.4 1.3-1 2.5-1.6 3.9-.6 1.3-1.3 2.6-2.1 4-.8 1.3-1.6 2.6-2.5 3.8-.4.5-.8 1-1.2 1.6-.5.5-.9 1-1.5 1.4-.5.4-1 .7-1.6.9-.5.2-1.1.2-1.6-.1-.3-.2-.6-.5-.8-.9-.2-.4-.3-.8-.4-1.3-.2.3-.4.6-.5.9l-.6.9c-.3.5-.7 1-1.1 1.6-.4.6-.8 1.1-1.3 1.5-.5.4-.9.8-1.4 1.1-.5.3-1 .4-1.5.4-.6 0-1.1-.3-1.3-.7-.4-.4-.6-1-.7-1.6-.1-.6 0-1.3.1-2.1s.3-1.6.5-2.4c.2-.8.4-1.6.7-2.3.2-.7.4-1.4.6-1.9.4-1.3.9-2.6 1.3-3.8.5-1.3.9-2.6 1.4-3.8.1-.2.1-.3.2-.6.1-.2.1-.4.2-.7 0-.1 0-.4.1-.5.1-.2.2-.4.3-.5.4-.5.7-.6 1.1-.5.3.1.5.4.6.9.1.5.1 1.1 0 1.7-.1.7-.2 1.4-.4 2.1l-.6 2.1c-.2.7-.4 1.3-.5 1.7-.3 1.2-.7 2.4-1.1 3.6-.4 1.2-.7 2.4-1 3.6-.1.3-.1.6-.1.8v.4c0 .1.1 0 .3-.1.1-.1.3-.4.6-.8.5-.8 1-1.6 1.5-2.5.5-.9.9-1.7 1.4-2.6.4-.9.8-1.7 1.2-2.6.4-.9.7-1.7 1-2.5.2-1.2.5-2.2.7-3.2.2-.9.4-1.7.7-2.4.3-.7.5-1.2.8-1.7.3-.4.7-.7 1.1-.9.7-.3 1.2-.1 1.5.5.3.7.3 1.6.1 3-.2 1.2-.5 2.3-.9 3.5-.4 1.2-.9 2.3-1.5 3.4-.1.8-.2 1.5-.2 2.2-.1 1-.1 1.7 0 2.1.1.4.2.5.5.4.2-.1.5-.5.9-1.1.4-.6.8-1.4 1.3-2.4.3-.6.7-1.3 1.1-2.2.4-.8.8-1.7 1.2-2.7.4-.9.8-1.9 1.2-2.9.4-1 .7-1.9 1-2.7.3-.8.5-1.6.6-2.3.1-.7.2-1.2.1-1.5-.1-.3 0-.6.1-.9.1-.3.3-.5.5-.7.2-.2.5-.3.7-.3.5.2.7.3.9.5zM26.7 27.4c.5.2 1 .2 1.5 0s1.1-.5 1.6-.9c.6-.4 1.1-.9 1.6-1.4.5-.6 1.1-1.1 1.5-1.7.5-.6.9-1.1 1.3-1.6s.7-1 .9-1.3c.1-.3.3-.4.5-.5.2-.1.3-.1.5 0 .1.1.2.2.3.4.1.2 0 .4 0 .7-.7 2.3-1.8 4.3-3.2 6-.4.5-.9 1.1-1.5 1.6-.5.5-1.1 1-1.7 1.4-.6.4-1.2.7-1.8.9-.6.2-1.3.4-1.9.3-.8 0-1.4-.2-1.9-.5s-.9-.7-1.2-1.3c-.3-.5-.4-1.1-.5-1.8-.1-.7 0-1.4.1-2.2.1-.8.3-1.5.5-2.3.2-.8.5-1.5.8-2.1.3-.6.6-1.3 1-1.9.4-.6.8-1.3 1.2-1.8.5-.6 1-1.1 1.5-1.6s1.1-.8 1.7-1.1c.7-.3 1.5-.4 2.2-.3.7.1 1.3.4 1.8 1 .5.5.7 1.2.8 1.8.1.7 0 1.4-.2 2.1-.2.7-.5 1.4-1 2.1-.4.7-.9 1.3-1.4 1.8-.8.8-1.7 1.4-2.6 1.8-.9.4-1.8.6-2.7.6-.1.5-.1.9-.1 1.2 0 .2.1.5.4.6zm1.9-5.2c.7-.5 1.2-1.1 1.6-1.9l.4-.8c.1-.3.2-.7.2-.9 0-.3 0-.5-.2-.5s-.4.1-.6.2c-.3.2-.6.4-.8.7-.2.3-.5.6-.6.9l-.9 1.5c-.3.5-.5 1-.7 1.6.6-.2 1.1-.5 1.6-.8zM46.5 25.5c-.3-.3-.5-.7-.7-1.1-.2-.4-.3-.9-.3-1.4-.1-.5-.1-1 0-1.4 0-.5.1-.9.1-1.3l-.6.3c-.2.1-.5.2-.7.3-.3.1-.5.1-.7.1-.2 0-.4 0-.5-.2-.2-.1-.2-.3-.2-.6 0-.2.1-.5.3-.7.1-.2.3-.5.5-.7.2-.2.3-.4.4-.5.4-.5.8-.9 1.4-1.3.5-.4 1.1-.8 1.7-1.1.7-1.4 1.5-2.8 2.4-4.1.9-1.3 1.8-2.5 2.9-3.6.5-.5 1-1.1 1.6-1.7.6-.6 1.3-1.1 2-1.6.7-.4 1.4-.8 2.2-1 .8-.2 1.5-.2 2.2 0 .6.2 1 .5 1.3.9.3.4.5.9.6 1.4.1.5.1 1.1 0 1.7-.1.6-.2 1.1-.3 1.6-.3.9-.6 1.9-.9 2.8-.4.9-.7 1.8-1.1 2.7-.3.7-.6 1.5-.9 2.2-.3.7-.5 1.4-.7 2.1-.1.5-.2.8 0 .9.1.1.4-.1.8-.5.9-.9 1.6-1.7 2.2-2.5.6-.8 1.2-1.7 1.7-2.6.1-.2.2-.3.4-.3h.4l.3.3c.1.2.1.3 0 .6-.2.6-.4 1.1-.6 1.7-.2.6-.4 1.1-.6 1.6-.2.5-.5 1-.7 1.5l-.9 1.5c-.3.5-.7.9-1.2 1.3-.4.4-.9.6-1.5.8-.4.1-.9.1-1.3.1-.4-.1-.8-.2-1.2-.4-.3-.2-.7-.5-.9-.8-.3-.3-.4-.7-.5-1.2-.1-.5-.1-.9-.1-1.4 0-.5.1-.9.2-1.4-.3-.3-.7-.4-1.2-.5-.5-.1-.9-.1-1.4 0-.5.1-.9.2-1.4.3-.4.1-.8.2-1 .3-.8 1.9-1.1 3.9-1 5.9 0 .3-.1.5-.2.7-.2.2-.3.3-.6.4-.2.1-.4.1-.7.1-.6.1-.8 0-1-.2zm8.9-9.1c.6-1.4 1.2-2.8 1.7-4 .6-1.3 1.1-2.6 1.5-3.9.1-.3.1-.5 0-.6-.1-.1-.3 0-.8.2-1.2.9-2.3 1.9-3.3 3.2-1 1.2-1.9 2.5-2.7 3.7.7.1 1.3.2 1.9.4.7.1 1.2.5 1.7 1z"/><path class="st70" d="M60.3 19.1c.3-.6.7-1.3 1-1.9.3-.6.6-1.2.9-1.9.3-.6.5-1.3.8-2 .2-.7.5-1.4.6-2.2-.3-.3-.5-.8-.6-1.3 0-.4 0-.8.2-1.2.2-.4.4-.7.6-1 .3-.3.6-.5.9-.7.4-.2.7-.2 1.1-.2.5.1.8.3 1.1.6.3.3.5.6.5 1 .5.1.9.3 1.3.4.6.3 1 .6 1.3.8.4.3.6.6.9 1 .2.4.4.9.4 1.4 0 .5 0 1-.2 1.6-.1.5-.3 1-.5 1.5s-.4 1-.7 1.5c-.2.5-.5.9-.6 1.4l-.3.9c-.1.3-.1.5-.1.7 0 .1.2.2.3.1.2-.1.5-.3.9-.7.7-.6 1.3-1.4 1.8-2.1.6-.8 1.1-1.5 1.7-2.3.1-.1.2-.3.3-.4.1-.1.2-.2.4-.3.2 0 .3 0 .4.1.1.1.2.2.2.4 0 .1 0 .4-.1.8s-.2.7-.4 1.1c-.2.4-.3.8-.5 1.1-.2.3-.3.6-.4.7-.3.5-.5 1.1-.9 1.6-.3.6-.7 1.1-1.2 1.6-.4.5-.9.9-1.5 1.2-.6.3-1.2.4-1.8.3-.8-.1-1.4-.5-1.9-1.1-.5-.6-.8-1.3-.9-2.1-.1-.6 0-1.3.2-2s.5-1.4.7-2.1c.3-.7.5-1.3.8-1.8.2-.5.3-.9.3-1.2 0-.1-.1-.2-.4-.3-.2 0-.4 0-.6-.1-.3.5-.5 1-.8 1.6-.3.5-.6 1.1-.9 1.6l-.9 1.5c-.3.5-.6 1-.9 1.4-.5.8-1 1.4-1.5 1.8-.5.5-.9.7-1.2.8-.3.1-.5 0-.5-.3.2-.1.4-.6.7-1.3z"/><path class="st70" d="M77.6 18.7c.5.3.9.5 1.5.5.5 0 1.1-.1 1.6-.3.5-.2 1.1-.5 1.6-.9s1-.7 1.5-1.2c.5-.4.9-.8 1.2-1.2.4-.4.6-.7.8-1 .1-.2.3-.3.5-.3s.3 0 .4.1c.1.1.2.3.3.5.1.2 0 .4 0 .7-.7 2-1.7 3.7-3.1 4.9-.4.4-.9.7-1.4 1.1-.5.3-1.1.6-1.6.8-.6.2-1.2.3-1.8.3-.6 0-1.3-.1-1.9-.3-.8-.3-1.4-.7-1.9-1.2s-.9-1.1-1.2-1.7c-.3-.6-.4-1.3-.5-2-.1-.7 0-1.4.1-2.2.1-.7.3-1.4.5-2.1.2-.7.5-1.3.8-1.8.3-.5.6-1 1-1.6.4-.5.8-1 1.2-1.4.5-.4.9-.8 1.5-1.1.5-.3 1.1-.5 1.7-.5.6 0 1.3.2 2 .5.7.4 1.3.9 1.8 1.6.4.7.7 1.4.7 2.1.1.7 0 1.4-.2 2-.2.6-.5 1.2-.9 1.8-.4.5-.9 1-1.4 1.3-.8.5-1.6.8-2.5.9-.9 0-1.8-.1-2.7-.4-.1.4-.1.8-.1 1.2.1.4.3.7.5.9zm1.9-4.5c.6-.3 1.2-.7 1.6-1.3.1-.1.2-.4.4-.7.1-.3.2-.6.2-.9 0-.3 0-.5-.2-.6-.2-.1-.3-.1-.5 0-.3.1-.5.2-.8.5-.2.2-.5.4-.6.6l-.9 1.2c-.3.4-.5.9-.7 1.3.5.1 1 .1 1.5-.1zM14.9 46.7c-.5 1.2-1 2.4-1.5 3.5-.5 1.2-1.1 2.3-1.6 3.5.7-.2 1.4-.2 2.1-.2.7 0 1.3.2 1.7.7.3-1 .7-2.1 1.2-3.3.5-1.2 1-2.4 1.6-3.5.6-1.1 1.1-2.2 1.8-3.1.6-.9 1.2-1.6 1.8-2.1.3-.3.7-.5 1-.5.3 0 .5 0 .7.2.2.1.3.4.3.7 0 .3-.1.7-.4 1-.6.9-1.1 2-1.7 3.3-.6 1.3-1.1 2.7-1.6 4.1-.5 1.4-.9 2.8-1.3 4.2-.4 1.4-.7 2.5-.8 3.5-.1.7-.1 1.1.2 1.1.2 0 .6-.2 1-.8l.6-.9c.2-.3.5-.7.8-1.2.3-.5.6-1 1-1.6.4-.6.8-1.4 1.3-2.2.2-.3.4-.5.6-.7.2-.1.4-.2.5-.1.1.1.2.2.3.4 0 .2 0 .4-.1.8l-.6 2.1c-.2.7-.4 1.4-.7 2-.3.7-.6 1.3-.9 1.9-.3.6-.8 1.2-1.2 1.8-.4.5-.8.9-1.4 1.3-.5.4-1 .6-1.5.8-.5.2-1 .2-1.5.1s-.9-.3-1.2-.8c-.5-.7-.8-1.5-.8-2.6s.2-2.1.4-3.3c-.1-.3-.4-.4-.8-.4s-.8.1-1.2.2c-.4.2-.9.4-1.4.6-.5.3-.9.5-1.3.7l-.6 1.8c-.2.6-.3 1.2-.5 1.8-.1.6-.2 1.2-.2 1.7 0 .6 0 1.1.1 1.6 0 .2.1.4.2.6.1.2.1.4.1.6 0 .4-.1.7-.3 1-.2.3-.5.5-.8.6-.3.1-.6.1-.8 0-.2-.1-.5-.3-.6-.6-.2-.2-.3-.5-.4-.8-.1-.3-.2-.6-.3-.8-.2-.7-.3-1.5-.2-2.3 0-.8.1-1.7.3-2.6-.4.3-.8.5-1.1.7l-.9.6c-.3.2-.5.3-.6.4-.2.1-.3 0-.4-.1-.3-.1-.4-.3-.3-.5 0-.2.1-.5.2-.7.1-.3.2-.5.4-.8.1-.2.3-.4.4-.6.4-.6.9-1.2 1.4-1.7.5-.5 1.2-1.1 2-1.8.3-.9.7-1.8 1.1-2.7.4-1 .8-1.9 1.3-2.8.5-.9 1-1.8 1.6-2.7.6-.8 1.3-1.6 2-2.2.3-.3.6-.5.9-.5.3-.1.5-.1.6 0 .2.1.3.3.3.6-.1.2-.1.5-.3 1z"/><path class="st70" d="M26.8 56c.5.2 1 .2 1.5 0s1.1-.5 1.6-.9c.6-.4 1.1-.9 1.6-1.4.5-.6 1.1-1.1 1.5-1.7.5-.6.9-1.1 1.3-1.6s.7-1 .9-1.3c.1-.3.3-.4.5-.5.2-.1.3-.1.5 0 .1.1.2.2.3.4.1.2 0 .4 0 .7-.7 2.3-1.8 4.3-3.2 6-.4.5-.9 1.1-1.5 1.6-.5.5-1.1 1-1.7 1.4-.6.4-1.2.7-1.8.9-.6.2-1.3.3-1.9.3-.8 0-1.4-.2-1.9-.5s-.9-.7-1.2-1.3c-.3-.5-.4-1.1-.5-1.8-.1-.7 0-1.4.1-2.2.1-.8.3-1.5.5-2.3.2-.8.5-1.5.8-2.1.3-.6.6-1.3 1-1.9.4-.6.8-1.3 1.2-1.8.5-.6 1-1.1 1.5-1.6s1.1-.8 1.7-1.1c.7-.3 1.5-.4 2.2-.3.7.1 1.3.4 1.8 1 .5.5.7 1.2.8 1.8.1.7 0 1.4-.2 2.1-.2.7-.5 1.4-1 2.1-.4.7-.9 1.3-1.4 1.8-.8.8-1.7 1.4-2.6 1.8-.9.4-1.8.6-2.7.6-.1.5-.1.9-.1 1.2-.1.2.1.5.4.6zm1.9-5.2c.7-.5 1.2-1.1 1.6-1.9l.4-.8c.1-.3.2-.7.2-.9 0-.3 0-.5-.2-.5s-.4.1-.6.2c-.3.2-.6.4-.8.7-.2.3-.5.6-.6.9l-.9 1.5c-.3.5-.5 1-.7 1.6.6-.2 1.1-.4 1.6-.8z"/><path class="st70" d="M32.8 53.5c.3-.7.7-1.4 1-2.1.3-.7.6-1.3.9-2 .3-.7.5-1.4.8-2.1.2-.7.5-1.5.7-2.3-.3-.3-.5-.7-.6-1.2 0-.4 0-.8.2-1.2.2-.4.4-.8.7-1.1.3-.3.6-.6.9-.8.4-.2.7-.3 1.1-.4.5 0 .9.1 1.1.3.3.2.5.6.6.9.5 0 .9.1 1.3.2s.8.2 1.2.5c.4.2.6.5.9.8.2.3.4.8.4 1.4 0 .5 0 1-.2 1.6-.1.5-.3 1.1-.5 1.6-.2.6-.5 1.1-.7 1.6-.2.5-.5 1-.7 1.5-.1.4-.2.7-.3 1-.1.3-.1.5-.1.7 0 .1.2.2.3.1.2-.1.5-.4.9-.9.7-.8 1.3-1.6 1.9-2.5.6-.9 1.1-1.7 1.7-2.6.1-.2.2-.3.3-.5.1-.2.2-.3.4-.3.2-.1.3-.1.4 0 .1.1.2.2.2.3 0 .1 0 .4-.1.8s-.2.8-.4 1.2c-.2.4-.3.8-.5 1.2-.2.4-.3.7-.4.8l-.9 1.8c-.3.7-.7 1.3-1.2 1.8-.5.6-1 1.1-1.5 1.5-.6.4-1.2.6-1.8.6-.8 0-1.4-.2-1.9-.7-.5-.5-.8-1.2-.9-1.9-.1-.6 0-1.3.2-2.1s.5-1.5.8-2.3c.3-.7.5-1.4.8-2 .2-.6.4-1 .3-1.3 0-.1-.1-.2-.4-.2h-.6c-.3.6-.5 1.1-.8 1.7l-.9 1.8c-.3.6-.6 1.1-.9 1.7-.3.6-.6 1.1-.9 1.5-.5.9-1 1.6-1.5 2.1s-.9.9-1.2 1c-.3.1-.5.1-.5-.2-.1-.1 0-.6.4-1.3z"/><path class="st70" d="M50.3 49.8c.5.3 1 .3 1.5.2.5-.1 1.1-.3 1.6-.6.6-.3 1.1-.7 1.6-1.2s1.1-.9 1.5-1.4c.5-.5.9-1 1.3-1.4.4-.5.7-.9.9-1.2.1-.2.3-.4.5-.4s.3 0 .4.1c.1.1.2.2.3.4.1.2 0 .4 0 .7-.7 2.2-1.8 4-3.2 5.5-.4.5-.9.9-1.5 1.3-.5.4-1.1.8-1.7 1.1-.6.3-1.2.5-1.8.7-.6.1-1.3.1-1.9 0-.8-.1-1.4-.4-2-.8-.5-.4-.9-.9-1.2-1.5-.3-.6-.4-1.2-.5-1.9-.1-.7 0-1.4.1-2.2.1-.7.3-1.5.5-2.2.2-.7.5-1.4.8-2 .3-.6.6-1.2 1-1.7.4-.6.8-1.1 1.2-1.6.5-.5 1-1 1.5-1.3.5-.4 1.1-.7 1.7-.8.7-.2 1.5-.2 2.2 0 .7.2 1.3.6 1.8 1.3.5.6.7 1.3.8 2 .1.7 0 1.4-.2 2.1-.2.7-.5 1.3-1 1.9-.4.6-.9 1.1-1.4 1.5-.8.7-1.7 1.1-2.6 1.3-.9.2-1.8.3-2.7.2-.1.4-.1.9-.1 1.2.1.3.3.6.6.7zm1.9-4.9c.7-.4 1.2-.9 1.6-1.6.1-.2.2-.4.4-.7.1-.3.2-.6.2-.9 0-.3 0-.5-.2-.5s-.4 0-.6.1c-.3.1-.6.3-.8.6-.2.3-.5.5-.6.8-.3.4-.6.9-.9 1.4-.3.5-.5 1-.7 1.4.6-.1 1.1-.3 1.6-.6zM63.4 50.8c-.1.3-.4.6-.7.9-.3.2-.6.4-1 .5-.4.1-.7 0-1.1-.1-.4-.1-.7-.4-1-.9-.2-.3-.2-.6-.2-.9 0-.3 0-.7.1-1 .1-.3.2-.6.4-.9.2-.3.4-.5.6-.6.4-.3.9-.4 1.3-.4.4.1.8.3 1.1.6.3.3.5.7.6 1.2.2.5.1 1-.1 1.6zm8-16.9c-.8.6-1.6 1.4-2.3 2.2-.7.8-1.4 1.7-2.1 2.6-.7.9-1.3 1.9-1.9 2.8-.6 1-1.2 1.9-1.7 2.8 0 .1-.1.2-.2.3-.1.1-.2.3-.3.4-.1.1-.3.3-.4.3-.1.1-.3.1-.4 0-.2-.1-.3-.3-.3-.5 0-.3 0-.5.1-.8.4-1.7.9-3.3 1.4-4.8.6-1.5 1.3-3 2.1-4.3.2-.4.6-.9 1-1.3.4-.5.8-.9 1.3-1.3s1-.7 1.6-.9c.5-.2 1.1-.2 1.6 0 .3.1.5.2.6.4.2.2.3.4.4.7.1.2.1.5 0 .7-.2.3-.3.5-.5.7z"/></g></g></svg>