<svg xmlns="http://www.w3.org/2000/svg" viewBox="0 0 184.3 120.8"><style>.st0{fill:#fff}.st117{fill:#119093}</style><g id="Layer_1"><path d="M21.6 88.6c.1-1.3.3-2.5.4-3.6L9.1 90.2s4.1 24.5 14.3 30.2c.8.5 1.8.6 2.8.4 0 0 5.4-1.5 6.1-3.9-.1-.9-.4-1.9-1.1-2.6-1.5-1.8-11-11.7-9.6-25.7z" fill="#fec817"/><path d="M25 83.9l-3 1.2c-.1 1.1-.2 2.2-.4 3.6-1.4 14 8.1 23.8 9.6 25.6.6.7.9 1.7 1.1 2.6.5-1 1-2.3 1.2-3.7.4-4.2-10.9-9.5-8.5-29.3z" fill="#dda60b"/><path d="M69.3 99.9l-8.2-66S44.6 48.3 26.9 58.2c-7.6 15 .3 28.5 3.5 32.9 12.9-.2 28.3 1.2 38.9 8.8z" fill="#3dd1a0"/><path d="M26.9 58.2c-7.4 4.2-15 7.5-21.7 8.8-1.7.3-3 1.4-3.6 3C-.1 74.2-2 82.9 4.9 90.9c1 1.1 2.4 1.7 3.8 1.7 3.7-.2 12-1.2 21.6-1.4-3.1-4.5-11.1-18-3.4-33z" fill="#2fbc91"/><ellipse transform="rotate(-8.959 70.055 66.82)" cx="70" cy="66.8" rx="16.1" ry="34.9" fill="#27bdc9"/><path class="st117" d="M86.5 68.5c-.3-1.9-1-3.7-1.4-5.5-.3-1.3-.7-2.4-1.2-3.5-.4.6-1.1 1-1.7 1.2-.1 0-.2.1-.3.1L74 70.1c-.9 1-.4 2.9 1.2 2.9l8.8-1c.7 1.3 2 3.7 2.9 4.7.1-1-.2-6.8-.4-8.2zM58.8 85.9l12.1-8.4s3-3.6 0-14l-16.3 8.6c0 .1 1.8 9 4.2 13.8z"/><path d="M68.6 75.8l-2.2-17.9-13.2-2c-.1 4.2.1 8.8.9 13.5.7 4.6 1.8 9 3.2 12.9l11.3-6.5z" fill="#40d4e7"/><ellipse transform="rotate(-8.959 67.184 66.82)" cx="67.2" cy="66.8" rx="4.2" ry="9.1" fill="#83f6ff"/><g><path d="M184.2 57.4l-4-42.1c-1-10.1-9.9-16.8-19.7-15l-65 13.1c-5.6 1.1-9.8 6.3-10.8 12.6-.2 1.1-1.1 23.4-1.6 33.7l-9.2 10.7c-.9 1.1 0 2.6 1.4 2.4l9.5-1.5c2.5 4.8 7 8.1 12.1 7.8l71-2.8c9.8-.2 17.3-8.8 16.3-18.9z" fill="#e5ae13"/><path d="M181.3 56.8l-3.9-41.7c-.9-10-9.7-16.7-19.1-14.8L95 13.3c-5.5 1.1-9.6 6.2-10.5 12.5-.2 1.1-1.1 23.1-1.5 33.4l-9 10.6c-.9 1 0 2.6 1.4 2.4l9.3-1.4c2.4 4.8 6.9 8 11.7 7.8l69.1-2.8c9.4-.5 16.7-9 15.8-19z" fill="#ffbe1d"/><path class="st0" d="M102.1 40.4l7.6-1.6.1 3-11 2.1-.4-18.9 3.4-.9.3 16.3zM117.3 25.7c.9-.2 1.8-.3 2.6-.2.8.1 1.5.4 2.1.8.6.4 1.1 1 1.4 1.8.3.8.5 1.7.6 2.7v.7c0 .2-.1.3-.1.5l-.3.3c-.1.1-.3.1-.4.2l-9.2 2c.1 1.4.6 2.4 1.3 3 .7.5 1.7.7 2.8.5.6-.1 1.1-.3 1.5-.5.4-.2.8-.4 1.1-.7.3-.2.6-.4.8-.6.2-.2.5-.3.7-.3h.4c.1 0 .2.1.3.2l1.1 1.1c-.4.5-.9 1-1.4 1.4-.5.4-1 .8-1.6 1.1-.5.3-1.1.5-1.7.7-.6.2-1.1.3-1.6.4-1 .2-2 .2-2.9 0-.9-.2-1.6-.5-2.3-1-.6-.5-1.1-1.2-1.5-2.1-.4-.9-.6-1.9-.6-3.2 0-1 .1-1.9.4-2.8.3-.9.7-1.8 1.3-2.5.6-.8 1.3-1.5 2.1-2 1-.8 2-1.2 3.1-1.5zm.1 2.5c-1 .3-1.8.7-2.4 1.4-.6.7-.9 1.6-1.1 2.7l6.7-1.5c0-.5-.1-.9-.2-1.3s-.3-.7-.6-.9c-.3-.2-.6-.4-1-.5-.4-.1-.8-.1-1.4.1zM132.6 37.7c-1.4.3-2.5.1-3.3-.5-.8-.6-1.2-1.5-1.2-2.9L128 26l-1.6.4c-.2 0-.4 0-.5-.1-.2-.1-.2-.3-.2-.5v-1.4l2.6-1 .7-4.3c0-.2.1-.4.3-.5.2-.1.3-.3.6-.3l2-.6.1 4.8 4.4-1.1.1 2.7-4.4 1.1.2 8.3c0 .5.1.8.4 1 .3.2.6.3 1 .2.3-.1.5-.1.6-.2.2-.1.3-.2.4-.3.1-.1.2-.2.3-.2.1-.1.2-.1.3-.1h.3c.1 0 .2.1.3.2l1.3 1.6c-.6.6-1.3 1.1-2 1.4-1 .2-1.8.5-2.6.6zM142.5 11.7c.4.5.7 1 .9 1.5.2.5.3 1.1.3 1.7 0 1-.3 2.1-.8 3.2-.6 1.1-1.4 2.2-2.5 3.2l-1.3-.4c-.1 0-.2-.1-.2-.2s-.1-.2-.1-.2c0-.2.1-.4.2-.5.1-.2.3-.4.5-.6.2-.2.3-.5.4-.8l.3-.9c.1-.3.1-.6.1-1s-.1-.7-.2-1.1c-.1-.4-.4-.7-.7-1.1-.1-.1-.2-.2-.2-.4 0-.3.2-.6.6-.9l2.7-1.5zM159.1 18.7c-.1.2-.3.4-.4.5-.1.1-.3.2-.5.2-.2.1-.5.1-.8 0-.3 0-.6-.1-.9-.1-.3-.1-.7-.1-1.2-.1-.4 0-1 .1-1.6.2-.9.2-1.6.6-2.2 1-.5.5-.8 1-.8 1.5 0 .4.1.6.4.8.3.2.6.3 1.1.4.4.1 1 .1 1.5.1.6 0 1.2 0 1.8.1.6 0 1.2.1 1.8.2.6.1 1.1.3 1.6.5s.9.6 1.1 1c.3.4.4 1 .5 1.7 0 .8-.1 1.6-.5 2.4-.3.8-.8 1.5-1.5 2.1-.7.6-1.5 1.2-2.5 1.7s-2.1.8-3.3 1.1c-.7.1-1.3.2-1.9.2-.6 0-1.2 0-1.8-.1-.6-.1-1.1-.2-1.6-.3-.5-.1-.9-.3-1.3-.5l1-1.7c.1-.2.3-.4.5-.5.2-.1.4-.2.7-.3.3-.1.5 0 .8 0 .3.1.5.2.9.3.3.1.7.2 1.2.2s1 0 1.7-.1c.6-.1 1-.3 1.4-.5.4-.2.7-.4 1-.6.3-.2.4-.5.6-.8.1-.3.2-.5.2-.8 0-.4-.2-.7-.4-.9-.3-.2-.6-.3-1.1-.4-.5-.1-1-.1-1.5-.2-.6 0-1.2-.1-1.7-.1-.6 0-1.2-.1-1.7-.2-.6-.1-1.1-.3-1.5-.5-.4-.3-.8-.6-1.1-1.1-.3-.4-.4-1-.4-1.7s.1-1.3.4-2c.3-.7.7-1.3 1.3-1.9.6-.6 1.3-1.1 2.2-1.6.9-.5 1.9-.9 3.1-1.2 1.3-.3 2.6-.5 3.7-.4 1.1.1 2.1.4 2.9.8l-1.2 1.6zM112.2 62.8c.2 0 .4 0 .5.2l1.5 1.5c-.8 1.1-1.8 1.9-3 2.5-1.2.6-2.5.9-4.1 1-1.4.1-2.7-.1-3.8-.5-1.1-.4-2-1-2.8-1.8-.8-.8-1.4-1.8-1.8-2.9-.4-1.1-.6-2.4-.7-3.8 0-1.4.2-2.7.6-4 .4-1.2 1-2.3 1.8-3.3s1.8-1.8 2.9-2.4c1.2-.6 2.5-1.1 3.9-1.3 1.4-.2 2.7-.1 3.8.2 1.1.3 2.1.8 2.9 1.5l-1.2 1.9-.3.3c-.1.1-.3.2-.5.2s-.4 0-.7-.2c-.2-.1-.5-.3-.8-.4-.3-.2-.8-.3-1.3-.4-.5-.1-1.2-.1-1.9 0-.9.1-1.7.4-2.5.8-.7.4-1.4.9-1.9 1.6-.5.6-.9 1.4-1.2 2.3-.3.9-.4 1.8-.4 2.9 0 1.1.2 2 .5 2.8.3.8.7 1.5 1.2 2s1.1.9 1.8 1.2c.7.3 1.5.4 2.3.3.5 0 .9-.1 1.3-.2s.8-.2 1.1-.3c.3-.1.7-.3 1-.5.3-.2.6-.5.9-.8.1-.1.2-.2.3-.2.4-.2.5-.2.6-.2zM117 67.2l-.4-20.9 3.6-.5.2 8.2c.6-.6 1.2-1.1 1.9-1.5.7-.4 1.6-.7 2.5-.8.9-.1 1.6 0 2.3.2.7.2 1.3.5 1.7 1 .5.5.8 1 1.1 1.7.3.7.4 1.4.4 2.3l.2 9.7-3.9.2-.2-9.5c0-.9-.3-1.6-.7-2.1-.5-.5-1.1-.6-2-.5-.6.1-1.2.3-1.8.6-.6.3-1.1.8-1.6 1.3l.2 10.6H117zM148.3 65.5l-2 .1c-.4 0-.7 0-1-.1-.2-.1-.4-.3-.5-.6l-.4-1.1c-.5.4-.9.7-1.3 1-.4.3-.9.6-1.3.8-.5.2-.9.4-1.5.5-.5.1-1.1.2-1.7.2-.7 0-1.4 0-2-.2-.6-.1-1.1-.4-1.6-.7-.4-.3-.8-.7-1-1.3-.2-.5-.4-1.1-.4-1.8 0-.6.1-1.2.5-1.8.3-.6.9-1.2 1.6-1.7.8-.5 1.8-1 3.1-1.4 1.3-.4 3-.7 5.1-.9v-.9c0-1.1-.3-1.9-.8-2.3-.5-.5-1.3-.6-2.2-.5-.7.1-1.3.2-1.7.4-.5.2-.8.4-1.2.6l-.9.6c-.3.2-.6.3-.9.3-.3 0-.5 0-.7-.1-.2-.1-.4-.3-.5-.4l-.8-1.1c1.9-1.8 4.3-2.9 7.1-3.3 1-.1 2-.1 2.8.1.8.2 1.6.6 2.2 1 .6.5 1.1 1.1 1.4 1.8.3.7.5 1.6.5 2.5l.1 10.3zm-8.5-1.9c.4 0 .8-.1 1.2-.2.4-.1.7-.2 1-.4l.9-.6c.3-.2.6-.5.9-.8l-.1-2.7c-1.3.1-2.3.3-3.1.5-.8.2-1.5.4-2 .7-.5.3-.8.5-1 .8-.2.3-.3.6-.3 1 0 .7.2 1.1.7 1.4.5.2 1.1.3 1.8.3zM159.3 65.1c-1.7.1-3.1-.2-4-1-.9-.8-1.4-1.9-1.4-3.3l-.2-9.3-2 .2c-.2 0-.5 0-.6-.1-.2-.1-.3-.3-.3-.6v-1.6l3.1-.8.9-4.7c0-.2.2-.4.3-.5.2-.1.4-.2.7-.3l2.5-.3.1 5.3 5.4-.6.1 2.9-5.4.6.2 9.1c0 .5.2.9.5 1.2.3.3.7.4 1.3.4.3 0 .6-.1.8-.1.2-.1.4-.2.5-.2.2-.1.3-.1.4-.2.1-.1.2-.1.4-.1.1 0 .3 0 .4.1.1.1.2.1.3.3l1.5 1.9c-.7.5-1.5 1-2.5 1.3-1.1.2-2.1.4-3 .4z"/></g><path d="M53.2 55.8c-.1 4.2.1 8.8.9 13.5.7 4.6 1.8 9 3.2 12.9l1.4-.8c-1.1-3-4.6-13.7-4.7-25.4l-.8-.2z" fill="#3ec2cc"/></g></svg>