<svg xmlns="http://www.w3.org/2000/svg" viewBox="0 0 181.9 85.5"><style>.st301{fill:#8c6239}.st302{fill:#ec9b47}.st303{fill:#cc966a}.st304{fill:#422f20}</style><g id="Layer_1"><path class="st301" d="M0 36h181.9v49.5H0z"/><path class="st302" d="M178.8 47.7l1.3-.6v-2l-1.3-.6 1.3-.7v-1.9l-1.3-.7 1.3-.6v-3.5H1.8v3.5l1.3.6-1.3.7v1.9l1.3.7-1.3.6v2l1.3.6-1.3.6v3.6h178.3v-3.6zM178.8 64l1.3-.7v-1.9l-1.3-.7 1.3-.6v-1.9l-1.3-.7 1.3-.6v-3.6H1.8v3.6l1.3.6-1.3.7v1.9l1.3.6-1.3.7v1.9l1.3.7-1.3.6v3.6h178.3v-3.6zM178.8 80.2l1.3-.6v-1.9l-1.3-.7 1.3-.6v-2l-1.3-.6 1.3-.6v-3.6H1.8v3.6l1.3.6-1.3.6v2l1.3.6-1.3.7v1.9l1.3.6-1.3.7v3.5h178.3v-3.5z"/><g><path class="st301" d="M0 36h181.9v49.5H0z"/><path class="st302" d="M178.8 47.7l1.3-.6v-2l-1.3-.6 1.3-.7v-1.9l-1.3-.7 1.3-.6v-3.5H1.8v3.5l1.3.6-1.3.7v1.9l1.3.7-1.3.6v2l1.3.6-1.3.6v3.6h178.3v-3.6z"/><path class="st301" d="M21.7 40.5c-.6 0-1.2-.3-1.6-.8-.3-.4-.4-.9-.4-1.5.1-.5.4-1 .8-1.3C48.2 16.5 70.9 12.1 90.1 2.3c.3-.1.6-.2.9-.2.7 0 1.4.4 1.7 1.1.2.5.3 1 .1 1.5-.2.5-.5.9-1 1.1-18.9 9.7-41.5 14-69 34.3-.3.3-.7.4-1.1.4z"/><path class="st301" d="M160.2 40.5c-.4 0-.8-.1-1.2-.4-27.5-20.3-50-24.6-69-34.3-.5-.2-.8-.6-1-1.1-.2-.5-.1-1 .1-1.5.3-.7 1-1.1 1.7-1.1.3 0 .6.1.9.2 19.1 9.8 41.9 14.2 69.5 34.7.4.3.7.8.8 1.3.1.5-.1 1-.4 1.5-.2.4-.8.7-1.4.7z"/><path class="st303" d="M21.7 39.5c-.3 0-.6-.1-.8-.4-.3-.4-.2-1 .2-1.4C48.7 17.3 71.4 13 90.5 3.2c.5-.2 1.1-.1 1.3.4.2.5.1 1.1-.4 1.3-19 9.8-41.6 14.1-69.1 34.4-.2.1-.4.2-.6.2z"/><path class="st303" d="M160.2 39.5c-.2 0-.4-.1-.6-.2C132.1 19 109.5 14.7 90.5 4.9c-.5-.2-.7-.8-.4-1.3.2-.5.8-.7 1.3-.4 19.1 9.8 41.8 14.2 69.4 34.6.4.3.5.9.2 1.4-.2.2-.5.3-.8.3z"/><path class="st301" d="M32.4 36.2c-2 0-4.9-.7-6.6-1.3-1.3-.5-2-1.6-1.8-2.8.2-1.3 1.5-2.5 3.4-2.5h1.3c1.9 0 3.3-.7 3.3-.7l.2-.1h.3c1 .1 4 .4 4.5 2.4.6 2-1.8 4-2.3 4.3-.4.5-1.2.7-2.3.7z"/><path class="st303" d="M32.5 29.9s-2.1 1-4.7.7-4 2.5-1.7 3.4 6.9 1.8 8.1.9c1.3-1 4.6-4.5-1.7-5z"/><path class="st301" d="M152.3 35.6c-2 0-4.9-.7-6.6-1.3-1.3-.5-2-1.6-1.8-2.8.2-1.3 1.5-2.5 3.4-2.5h1.3c1.9 0 3.3-.7 3.3-.7l.2-.1h.3c1 .1 4 .4 4.5 2.4.6 2-1.8 4-2.3 4.3-.4.5-1.2.7-2.3.7z"/><path class="st303" d="M152.3 29.3s-2.1 1-4.7.7c-2.6-.3-4 2.5-1.7 3.4 2.3.9 6.9 1.8 8.1.9 1.3-1 4.7-4.4-1.7-5z"/><circle cx="91" cy="4" r="4" fill="#fff"/><circle class="st301" cx="91" cy="4" r="3.3"/><path class="st302" d="M178.8 64l1.3-.7v-1.9l-1.3-.7 1.3-.6v-1.9l-1.3-.7 1.3-.6v-3.6H1.8v3.6l1.3.6-1.3.7v1.9l1.3.6-1.3.7v1.9l1.3.7-1.3.6v3.6h178.3v-3.6zM178.8 80.2l1.3-.6v-1.9l-1.3-.7 1.3-.6v-2l-1.3-.6 1.3-.6v-3.6H1.8v3.6l1.3.6-1.3.6v2l1.3.6-1.3.7v1.9l1.3.6-1.3.7v3.5h178.3v-3.5z"/></g><g><path class="st304" d="M14.8 69.9v-2H16V54h-1.2v-2h8.4v2h-1.6v13.8h1.9c.8 0 1.5-.3 1.9-.8.4-.5.7-1.2.7-2.1h1.8l-.4 5.8h-1.9v-.9H14.8zM40.9 56.9h1.9v4.9h-1.9v-1.2h-4.7v7.2h.8c1.3 0 2.2-.2 2.9-.5.7-.4 1-1.1 1-2.1h1.9v4.7H29.3v-2h1.2V54h-1.2v-2h13.4v3.7h-1.9v-.9c-1-.5-2-.8-3.1-.8h-1.6v4.1h4.7v-1.2zM47.9 69.9v-2h1.7V54.4c-.9 0-1.5.2-1.9.6-.4.4-.7 1-.9 1.9h-1.9l.4-5.4h2v.5h10.3v-.4h2L60 57h-2c-.2-.9-.5-1.6-.8-1.9-.4-.4-1-.6-1.9-.6v13.4h1.6v2h-9zM61.2 57.2c.5-.2.8-.4 1.1-.6.3-.2.4-.5.5-.8-.6 0-1.1-.2-1.5-.6-.4-.4-.6-.9-.6-1.5s.2-1.1.5-1.5c.4-.4.8-.6 1.4-.6.9 0 1.5.2 2 .7.5.5.7 1.2.7 2 0 1-.4 1.9-1.1 2.6-.8.7-1.6 1.2-2.7 1.5l-.3-1.2zM81.5 53.1l-3.1 4.6-.4-.4c-1-.9-1.9-1.7-2.7-2.2-.8-.5-1.6-.8-2.5-.8-.3 0-.6.1-1 .4-.3.2-.5.5-.5.8 0 .5.3.9.8 1.3.5.3 1.4.7 2.7 1.1 1 .3 1.9.6 2.5.9.7.3 1.3.7 2 1.1.6.5 1.2 1.1 1.5 1.8s.6 1.6.6 2.6c0 .8-.2 1.6-.6 2.4-.4.7-1 1.4-1.7 1.9s-1.6 1-2.5 1.3c-.9.3-1.9.4-2.9.4-1.4 0-2.7-.3-3.9-.8-1.3-.5-2.5-1.2-3.9-2.2l3.1-4.4c.6.6 1.1 1.2 1.6 1.6.5.5 1.1.9 1.6 1.3.6.4 1.2.8 1.9 1 .7.3 1.3.4 2 .4.5 0 .9-.1 1.2-.4.3-.2.5-.6.5-1.1 0-.5-.3-.9-.8-1.2-.6-.3-1.5-.7-2.8-1.2-1-.4-1.9-.7-2.5-1-.7-.3-1.3-.7-1.9-1.1-.6-.5-1.1-1-1.5-1.7-.4-.7-.6-1.4-.6-2.3 0-.8.2-1.6.5-2.3.3-.7.8-1.3 1.5-1.9.6-.5 1.3-.9 2.2-1.2.8-.3 1.7-.4 2.7-.4.7 0 1.5.1 2.3.4.8.3 1.5.6 2.2 1l.8-1 1.6 1.3zM104.9 52.9l1.2 1.5-5.8 4.6-1.1-1.3c.2-.1.3-.3.5-.6.1-.3.2-.5.2-.8 0-.7-.2-1.2-.5-1.6-.3-.4-.8-.6-1.4-.6-.5 0-.8.1-1.1.4-.3.3-.5.6-.7 1s-.3.8-.3 1.2c-.1.4-.1.9-.1 1.3 0 1.3.1 2.4.4 3.4.3 1 .7 1.9 1.2 2.7.5.7 1.1 1.3 1.7 1.7.6.4 1.3.6 1.9.6 1 0 1.8-.2 2.4-.5.6-.3 1.4-.9 2.1-1.7l1.3 1.3c-1.1 1.6-2.3 2.8-3.6 3.6-1.3.8-2.8 1.2-4.6 1.2-1.2 0-2.2-.2-3.3-.5-1-.3-1.9-.8-2.7-1.5-.8-.7-1.4-1.6-1.9-2.6-.5-1.1-.7-2.3-.7-3.8 0-1.4.3-2.8.8-4.1.5-1.3 1.2-2.4 2.1-3.3.9-.9 1.9-1.6 3.1-2.2 1.2-.5 2.4-.8 3.7-.8.8 0 1.5.2 2.1.5.6.3 1.3.8 2.1 1.4l1-.5zM108.1 69.9v-2h1.3V54h-1.3v-2h8.2v2H115v4.1h4.5V54h-1.2v-2h8.1v2h-1.3v13.8h1.3v2h-8.1v-2h1.2v-7.2H115v7.2h1.3v2h-8.2zM127.7 69.9v-2h1l5.4-15.8h5l5.6 15.8h1v2h-8.2v-2h1.4l-.8-2.2h-5.9l-.8 2.2h1.5v2h-5.2zm7.4-12.8l-2.1 6.1h4.3l-2.2-6.1zM147 69.9v-2h1.7V54.4c-.9 0-1.5.2-1.9.6-.4.4-.7 1-.9 1.9H144l.4-5.4h2v.5h10.3v-.4h2l.3 5.4h-1.9c-.2-.9-.5-1.6-.8-1.9-.4-.4-1-.6-1.9-.6v13.4h1.6v2h-9zM163.2 64.3c0-1.4-.1-2.6-.3-3.6-.2-1-.5-2.1-.8-3.4-.2-.7-.4-1.3-.5-1.7-.1-.4-.1-.9-.1-1.3 0-.8.2-1.4.7-1.9.5-.5 1.2-.8 2.1-.8.9 0 1.6.3 2.1.8s.7 1.1.7 1.9c0 .4 0 .9-.1 1.3s-.2 1-.5 1.8c-.3 1.2-.6 2.3-.8 3.3-.2 1-.3 2.3-.3 3.7h-2.2zm-.5 2.1c.4-.4 1-.7 1.6-.7.6 0 1.1.2 1.6.7.4.4.7 1 .7 1.6 0 .6-.2 1.1-.7 1.6-.4.4-1 .7-1.6.7-.6 0-1.1-.2-1.6-.7-.4-.4-.7-1-.7-1.6.1-.7.3-1.2.7-1.6z"/></g></g></svg>