<svg version="1.1" id="Layer_1" xmlns="http://www.w3.org/2000/svg" x="0" y="0" viewBox="0 0 162.1 132.1" xml:space="preserve"><style>.st26{fill:#fff}.st395{fill-rule:evenodd;clip-rule:evenodd;fill:#ffd004}</style><path d="M80.6 127.6c-34.9 0-63.3-28.4-63.3-63.3S45.7 1 80.6 1s63.3 28.4 63.3 63.3-28.4 63.3-63.3 63.3z" fill="none" stroke="#bbb5d6" stroke-miterlimit="10"/><circle cx="80.6" cy="64.3" r="53.3" fill="#bbb5d6"/><path class="st26" d="M57.5 31h3.4v20.2h6.7v3.4H57.5V31zM68.8 31h3.4v23.6h-3.4V31zM81.1 54.6h-3L73.3 31h3.6l2.7 16.5h.1L82.4 31H86l-4.9 23.6zM87 31h10v3.2h-6.7v6.9h5.8v3.2h-5.8v6.9H97v3.4H87V31z"/><g><path class="st26" d="M48.3 67.3h-3.4v-.8c0-.8-.2-1.4-.5-2-.4-.6-1-.8-1.8-.8-.5 0-.8.1-1.1.3-.3.2-.5.4-.7.7-.2.3-.3.6-.3 1-.1.4-.1.7-.1 1.1V68c0 .3.1.6.2.8.1.2.3.4.6.6.3.2.6.4 1 .5l2.6 1c.8.3 1.4.6 1.8 1 .5.4.8.8 1.1 1.4.3.5.4 1.1.5 1.8.1.7.1 1.4.1 2.3 0 1-.1 1.9-.3 2.8-.2.8-.5 1.6-1 2.2-.5.6-1.1 1.1-1.8 1.4-.8.4-1.7.5-2.7.5-.8 0-1.6-.1-2.3-.4-.7-.3-1.3-.7-1.8-1.2s-.9-1.1-1.2-1.8c-.3-.7-.4-1.4-.4-2.2v-1.3H40v1.1c0 .6.2 1.2.5 1.7.4.5 1 .7 1.8.7.6 0 1-.1 1.3-.2.3-.2.6-.4.7-.7.2-.3.3-.7.3-1.1 0-.4.1-.9.1-1.5s0-1.1-.1-1.5c0-.4-.1-.7-.3-1-.1-.2-.3-.4-.6-.6-.3-.2-.6-.3-1-.5l-2.4-1c-1.5-.6-2.4-1.4-2.9-2.4s-.7-2.2-.7-3.7c0-.9.1-1.7.4-2.5.2-.8.6-1.5 1.1-2.1s1.1-1 1.8-1.4 1.6-.5 2.5-.5c.8 0 1.6.2 2.3.5.7.3 1.3.7 1.8 1.2s.9 1.1 1.1 1.7c.3.6.4 1.3.4 1.9v1.8zM60.7 78.8c0 .8-.1 1.5-.4 2.2-.3.7-.7 1.2-1.2 1.7s-1.1.9-1.7 1.2c-.7.3-1.4.4-2.1.4-.8 0-1.5-.1-2.1-.4-.7-.3-1.2-.7-1.7-1.2s-.9-1.1-1.2-1.7c-.3-.7-.4-1.4-.4-2.2V60.5h3.4v17.9c0 .8.2 1.5.6 1.9.4.4.9.6 1.5.6s1.1-.2 1.5-.6c.4-.4.6-1 .6-1.9V60.5h3.4v18.3zM62.9 60.5H68c.9 0 1.7.1 2.5.4.7.2 1.3.7 1.9 1.3.6.6 1 1.3 1.2 2.2.2.8.3 1.9.3 3.4 0 1-.1 1.9-.2 2.7-.1.7-.4 1.4-.8 2.1-.5.8-1.1 1.4-1.9 1.8-.8.4-1.8.6-3 .6h-1.7v9.2h-3.4V60.5zm3.4 11.2h1.6c.7 0 1.2-.1 1.6-.3.4-.2.7-.5.8-.8.2-.3.3-.8.3-1.2v-1.6-1.6c0-.5-.1-.9-.3-1.3-.2-.4-.4-.7-.8-.9-.4-.2-.9-.3-1.5-.3h-1.8v8zM75.4 60.5h5.1c.9 0 1.7.1 2.5.4.7.2 1.3.7 1.9 1.3.6.6 1 1.3 1.2 2.2.2.8.3 1.9.3 3.4 0 1-.1 1.9-.2 2.7-.1.7-.4 1.4-.8 2.1-.5.8-1.1 1.4-1.9 1.8-.8.4-1.8.6-3 .6h-1.7v9.2h-3.4V60.5zm3.3 11.2h1.6c.7 0 1.2-.1 1.6-.3.4-.2.7-.5.8-.8.2-.3.3-.8.3-1.2v-1.6-1.6c0-.5-.1-.9-.3-1.3-.2-.4-.4-.7-.8-.9-.4-.2-.9-.3-1.5-.3h-1.8v8zM87.7 66.1c0-.9.2-1.8.5-2.5s.8-1.3 1.3-1.8 1.1-.8 1.8-1.1c.7-.2 1.4-.4 2-.4.7 0 1.4.1 2 .4.7.2 1.3.6 1.8 1.1s1 1.1 1.3 1.8c.3.7.5 1.6.5 2.5v12.4c0 1-.2 1.8-.5 2.5s-.8 1.3-1.3 1.8-1.1.9-1.7 1.2c-.7.2-1.4.4-2 .4-.7 0-1.4-.1-2-.4-.7-.2-1.3-.6-1.8-1.1s-1-1.1-1.3-1.8c-.3-.7-.5-1.6-.5-2.5V66.1zM91 78.6c0 .8.2 1.4.7 1.8.5.4 1 .6 1.6.6.6 0 1.2-.2 1.6-.6.5-.4.7-1 .7-1.8V66.1c0-.8-.2-1.4-.7-1.8-.5-.4-1-.6-1.6-.6-.6 0-1.2.2-1.6.6-.5.4-.7 1-.7 1.8v12.5zM101 60.5h5.4c4 0 6 2.3 6 6.9 0 1.4-.2 2.5-.6 3.5-.4 1-1.2 1.8-2.3 2.4l3.6 10.8h-3.6L106.4 74h-2v10.1H101V60.5zm3.3 10.6h1.9c.6 0 1.1-.1 1.4-.2.4-.2.6-.4.8-.7.2-.3.3-.7.4-1.1.1-.5.1-1 .1-1.6s0-1.1-.1-1.6-.2-.8-.4-1.2c-.2-.3-.5-.6-.9-.7-.4-.2-.9-.2-1.5-.2h-1.8v7.3z"/><path class="st26" d="M115.7 63.7h-3.9v-3.2H123v3.2h-3.9v20.4h-3.4V63.7z"/></g><g><path class="st395" d="M124.1 132.1c-.4-.2-.6-.3-.9-.5-1.2-.9-1.1-1.9-.1-2.6.6-.5 1.2-.9 1.6-1.6 0-.1.1-.1.2-.2 1.7-1.2 2.9-2.8 4-4.6 1.2-2 2.4-4 3.5-6.1.6-1.2 1-2.6 1.5-3.9.1-.2.1-.4.2-.6.6 0 1 .3 1.3.8.3.4.5.7.8 1.1.5.5.6 1.1.5 1.8 0 .2 0 .3-.1.5-.3.9-.4 1.7-.4 2.6 0 1.1-.1 2.1-.1 3.2.8-.2 1.4-.7 1.8-1.3.6-.9 1.2-1.9 1.7-2.8.6-1 1.3-2.1 1.9-3.1l1.2-2.1c.1-.2.2-.4.4-.6.5-.6 1-.9 1.8-.6.4.2.9.3 1.4.5 0 .8-.5 1.4-.8 2.1-1 1.7-2 3.5-3 5.2-.2.3-.3.6-.5.9-.6 1.2-1.3 2.2-2.4 2.9.1.4.3.3.5.3.9.1 1.8.1 2.7.1 1.1 0 2.1.4 3 1.1.1.5.3.9.4 1.3.1.3 0 .6-.3.9-.5.5-1.1.8-1.8 1-2.1.4-4.1.8-6.2 1.2-2 .4-3.9.4-5.9.9-.9.2-1.7.5-2.6.7-1.3.3-2.6.7-3.8 1.3-.5 0-1.1 0-1.5.2zM149.2 102.5c0-.4-.1-.8.1-1.2.5-1.2 1.1-2.4 1.5-3.7.5-1.4 1.3-2.8 2-4.2.9-1.7 1.5-3.6 2.1-5.4l.3-.9c.3-.9.6-1.8.8-2.8.1-.6.4-.8 1-.9.2 0 .3.1.5 0 1.5 0 1.7.6 1.4 1.8-.2 1-.5 2-.8 3.1-.6 2.3-1.5 4.4-2.6 6.5-.9 1.6-1.5 3.3-2.2 5-.2.4-.4.9-.6 1.3-.4.9-.9 1.5-1.9 1.6-.7.2-1.1.4-1.6-.2zM160.1 51.7c0 .1-.1.2-.1.3-.5.5-1 .8-1.7.7-.4-.1-.6-.2-.6-.6-.1-.6-.3-1.2-.4-1.8-.3-1.6-.5-3.3-.8-4.9-.4-2.1-1-4.1-1.8-6-.2-.5-.6-1-.8-1.5-.4-.8-.2-1.4.7-1.7.3-.1.5-.2.8-.2.7-.2 1.1 0 1.4.6 1 1.8 1.6 3.7 2.1 5.7.3 1.2.6 2.5.8 3.7.3 1.7.6 3.4.4 5.2v.5zM153.9 31.1c-.1.7-.9 1.4-1.6 1.4-.2 0-.4-.2-.5-.3-.1-.1-.1-.2-.2-.3-.6-1.9-1.6-3.6-2.7-5.3-.2-.3-.4-.6-.5-1-.9-1.8-2.1-3.3-3.6-4.6-.2-.2-.5-.4-.8-.6-.6-.4-.6-1-.1-1.5.3-.3.7-.6 1-.8.4-.2.8-.2 1.1.1 1.2 1.1 2.5 2.2 3.4 3.6 1.1 1.7 2.2 3.5 3.3 5.3.6 1 .8 2.1 1 3.2.2.3.2.6.2.8zM162 69.7c-.2 1.1-.7 2.2-1.2 3.2-.2.3-.4.6-.8.7-.4.1-.8.3-1.3.4-.3.1-.6-.3-.6-.6 0-.1 0-.2.1-.4.2-1.2.5-2.4.7-3.6.1-.8.1-1.5.1-2.3v-2.8c0-.3 0-.6-.1-1-.1-.9-.3-1.8-.5-2.7-.2-.6.1-1.1.6-1.4.6-.3 1.2-.6 1.8-.5.5.1.8.4.8.9v1.1c.1 1.9.2 3.7.3 5.6.2 1.1.1 2.3.1 3.4zM129.2 3.8c2.4 1.1 4.3 2.8 6.4 4.2.7.5 1.5 1 2.3 1.4.3.2.5.4.7.6.6 1 1.2 1.9 1.9 2.9-.1.3-.2.6-.4.9-.2.3-.6.5-.9.3-.3-.1-.5-.3-.7-.5-1-1.2-2.3-1.9-3.5-2.8-1.5-1.1-3-2.1-4.5-3.1-.8-.5-1.6-1.1-2.6-1.4-.5-.2-.7-.6-.4-1.1.5-.6.9-1.3 1.7-1.4z"/></g><g><path class="st395" d="M34.2 0c.4.2.7.3.9.5 1.2.8 1.2 1.8.3 2.6-.6.5-1.2 1-1.5 1.7 0 .1-.1.1-.1.2-1.7 1.3-2.7 3-3.7 4.8-1.1 2.1-2.2 4.2-3.1 6.3-.6 1.3-.8 2.6-1.2 3.9-.1.2-.1.4-.2.6-.6 0-1-.3-1.4-.7-.3-.3-.6-.7-.9-1-.5-.5-.7-1.1-.6-1.8 0-.2 0-.3.1-.5.2-.8.2-1.7.2-2.6 0-1.1-.1-2.1-.1-3.2-.8.2-1.4.8-1.7 1.4-.6.9-1 1.9-1.6 2.9-.6 1.1-1.2 2.1-1.7 3.2-.4.7-.7 1.5-1.1 2.2-.1.2-.2.5-.3.7-.4.6-1 1-1.8.7-.5-.2-.9-.3-1.4-.4 0-.8.4-1.5.7-2.1.9-1.8 1.8-3.6 2.7-5.3.1-.3.3-.6.4-.9.5-1.2 1.2-2.3 2.2-3.1-.1-.3-.3-.3-.5-.3h-2.7c-1.1 0-2.2-.2-3-.9-.2-.4-.3-.9-.5-1.3-.1-.3 0-.6.2-.9.5-.5 1.1-.9 1.7-1.1 2-.5 4.1-1.1 6.1-1.6 1.9-.5 3.9-.7 5.8-1.3.9-.3 1.7-.6 2.5-.8 1.3-.4 2.5-.9 3.7-1.5.6-.2 1.2-.3 1.6-.4zM10.9 31c.1.4.1.8 0 1.2-.4 1.3-.9 2.5-1.3 3.8-.5 1.5-1.1 2.9-1.8 4.3-.9 1.7-1.3 3.6-1.8 5.5-.1.3-.1.6-.2.9-.3.9-.5 1.9-.6 2.8-.1.6-.3.9-.9.9h-.5c-1.5.1-1.7-.5-1.6-1.7.1-1 .4-2.1.6-3.1.5-2.3 1.3-4.5 2.2-6.7.8-1.7 1.3-3.4 1.9-5.1.2-.5.3-.9.5-1.4.3-.9.8-1.5 1.8-1.7.7 0 1.2-.3 1.7.3zM3 82.3c0-.1 0-.2.1-.3.4-.5.9-.9 1.7-.8.4 0 .6.2.7.6.2.6.3 1.2.5 1.8.4 1.6.7 3.2 1.1 4.9.5 2.1 1.2 4 2.1 5.9.2.5.6 1 .9 1.4.5.8.2 1.4-.6 1.7-.3.1-.5.2-.8.3-.7.2-1.1.1-1.4-.5-1.1-1.7-1.8-3.6-2.4-5.6-.3-1.2-.7-2.4-1-3.6-.6-1.8-.9-3.5-.9-5.3v-.5zM10.4 102.5c.1-.7.9-1.5 1.5-1.5.2 0 .4.1.5.2.1.1.2.2.2.3.7 1.9 1.8 3.5 3 5.1l.6.9c1 1.7 2.3 3.1 3.8 4.3.3.2.5.3.8.5.6.4.7 1 .2 1.5-.3.3-.6.6-1 .9-.4.3-.8.3-1.1 0-1.3-1.1-2.6-2-3.6-3.4-1.2-1.7-2.4-3.3-3.6-5.1-.6-.9-.9-2.1-1.2-3.2-.1 0-.1-.3-.1-.5zM0 64.5c.2-1.2.6-2.2 1-3.2.2-.3.4-.6.8-.7.4-.2.8-.3 1.3-.4.3-.1.6.2.6.6 0 .1 0 .2-.1.4-.2 1.2-.4 2.4-.5 3.6-.1.8 0 1.5 0 2.3 0 .9.1 1.9.1 2.8 0 .3.1.6.1 1 .2.9.4 1.8.7 2.7.2.6 0 1.1-.5 1.5-.5.4-1.1.7-1.8.6-.5-.1-.8-.4-.9-.8-.1-.4 0-.7-.1-1.1-.2-1.9-.5-3.7-.6-5.6-.1-1.5-.1-2.6-.1-3.7zM36.6 128.4c-2.5-1-4.5-2.5-6.6-3.8-.8-.5-1.5-.9-2.3-1.3-.3-.2-.5-.3-.7-.6-.7-.9-1.3-1.8-2-2.8l.3-.9c.2-.4.5-.5.9-.4.3.1.5.2.7.4 1 1.1 2.4 1.8 3.6 2.6 1.5 1 3.1 1.9 4.7 2.9.8.5 1.7 1 2.6 1.3.5.2.7.6.4 1-.4.6-.7 1.4-1.6 1.6z"/></g></svg>