<svg version="1.1" id="Layer_1" xmlns="http://www.w3.org/2000/svg" x="0" y="0" viewBox="0 0 210 173.6" xml:space="preserve"><style>.st26{fill:#fff}</style><path d="M209.9 168.9c.2-2-1.7 0 0 0z" fill="#01aeb4"/><path d="M174.7 79.3c2.8-5.3 4.4-11.3 4.4-17.5 0-22.8-20.6-41.4-46.1-41.4-2.6 0-5.2.2-7.7.6-8.1-12.5-23.7-21-41.7-21C57.9 0 37 17.3 36.1 39 14.9 47 0 65.4 0 86.8c0 28.7 26.8 52 59.9 52 9.9 0 19.3-2.1 27.5-5.8l-5.9 40.7 24.9-34.1c8.4 5.8 18.9 9.2 30.4 9.2 27 0 49-19.1 49-42.5 0-10.3-4.2-19.6-11.1-27zm-79.4 49.4c.1.1.1.2.2.3l-.8.1c.2-.1.4-.3.6-.4z" fill="#f1dc25"/><path class="st26" d="M75.2 88.4c0 2.6-2.1 4.8-4.8 4.8-2.6 0-4.8-2.1-4.8-4.8 0-2.6 2.1-4.8 4.8-4.8 2.6 0 4.8 2.1 4.8 4.8zM94.3 88.4c0 2.6-2.1 4.8-4.8 4.8-2.6 0-4.8-2.1-4.8-4.8 0-2.6 2.1-4.8 4.8-4.8 2.7 0 4.8 2.1 4.8 4.8zM113.4 88.4c0 2.6-2.1 4.8-4.8 4.8-2.6 0-4.8-2.1-4.8-4.8 0-2.6 2.1-4.8 4.8-4.8 2.7 0 4.8 2.1 4.8 4.8z"/></svg>