<svg xmlns="http://www.w3.org/2000/svg" xmlns:xlink="http://www.w3.org/1999/xlink" viewBox="0 0 235.1 128.1"><style>.st0{fill:#fff}.st23{fill:#ffc7b6}.st24{fill:#ffe1cc}.st25{fill:#5c5d64}.st50{fill:#ffbe1d}.st75{fill:#ba71e1}.st76{fill:#fcf}.st77{fill:#edb6ef}.st80{fill:#353d42}.st81{fill:#272223}.st87{fill:#9456bb}</style><g id="Layer_1"><path class="st75" d="M176.4 124.9H99V83.1c0-10.3 8.3-18.6 18.6-18.6h40.1c10.3 0 18.6 8.3 18.6 18.6v41.8z"/><path class="st24" d="M168.3 108.2c-1.2-2.8-1-7.2-3-10.5-2.9-4.5-5.2-15.8-12.5-19.9L139 86.2l25.5 29c3.6-2.8 0-4.3 3.8-7z"/><path class="st76" d="M154.5 119.6c2.3-2 8.5-.7 10.8-2 1.7-1 6.4-6.1 5.6-8-2.3-5.8-8.6-28.3-18.2-31.8-4.7 3.3-1.7 27.4-1.7 27.4l2.5 3.7 1 10.7z"/><path class="st24" d="M100.8 77.7s-14 6.7-18.6 28.4c.8.4 1.6.8 2.4 1.3 3.1 1.6 6.2 3.6 9.4 5.1 1.4-3.7 3.9-8 8.4-12.6l1.2-.1 2.8-18.4-5.6-3.7z"/><path class="st76" d="M100.8 105.9s1 11.7.6 19.4l55.8.8c1.5-4.1-2.9-30.5-2.9-30.5L152.8 78l-35.9 5.3-16-5.5v28.1z"/><path class="st77" d="M154.9 125.7c.2-.5-2.3-29.2-1.9-28.7.4.5 2.5 11.5 2.5 11.5l2 15.1-2.6 2.1z"/><path class="st24" d="M118.9 69.1v-5.7l8 5.7 8-5.7v5.7c0 2.5 2.5 2.5 2.5 2.5L126.8 82l-10.5-10.5c0 .1 2.6.1 2.6-2.4z"/><path d="M118.9 63.4l8 5.7 8-5.7v5.9c-4.4 2-8 2.1-8 2.1s-3.6-.2-8-2.1v-5.9z" fill="#efd1bd"/><ellipse class="st23" cx="147.1" cy="46.8" rx="5.5" ry="6.3"/><ellipse class="st23" cx="106.7" cy="46.8" rx="5.5" ry="6.3"/><path d="M105.5 58.9c-.4 0-.8-.4-.8-.8V51c0-.4.4-.8.8-.8s.8.4.8.8v7.1c0 .4-.3.8-.8.8z" fill="#fbb040"/><path class="st80" d="M154.3 23.2c-1.3.8-4.7-1.7-4.7-1.7 2.3-1.1 2.1-7.4 2.1-7.4-2.3 3.2-15.1 2.8-21.6 2.3-1.2-.2-2.5-.3-3.8-.3-4.1 0-7.9 1.1-11.2 2.9-8.2 4.6-12.7 13.9-11.5 23.2l.5 5.4h44.5l.5-5.4c.6-4.5-.1-8.9-1.9-12.8 6.9-1.2 7.1-6.2 7.1-6.2z"/><path class="st24" d="M140 30.5c3.8 0 6.9 3.1 6.9 6.9l.2 15.7c0 3.2-9.2 16.4-19.9 17.3-7.9.6-20.5-12.2-20.5-17.3l-.2-15.6c0-3.9 3.1-7 6.9-7H140z"/><path class="st80" d="M109.1 29.6s3.1 6 10.8 6.6l-2.5-4.9s8.1 6.1 14.8 5.5l-4.8-5.1s9.7 3.7 17 3.4l.8-5.3-6.4-3.7-23.7.5-6 3z"/><path class="st25" d="M140.2 46.2c.2.2.6.3.7.2l1-.7c.2-.2.2-.5-.1-.8-.3-.3-.6-.4-.9-.3l-1 .7c-.2.2-.2.5.1.8.1 0 .2 0 .2.1z"/><path class="st25" d="M132.3 46.5c.2 0 .3-.1.4-.2.1-.1 3.6-3.5 7.5-.1.3.2.7.2.9-.1.2-.3.2-.7-.1-.9-4.8-4.2-9.1.1-9.2.2-.2.2-.2.6 0 .9.2.2.4.2.5.2zM113.9 46.2c-.2.2-.6.3-.7.2l-1-.7c-.2-.2-.2-.5.1-.8.3-.3.6-.4.9-.3l1 .7c.2.2.2.5-.1.8-.1 0-.2 0-.2.1z"/><path class="st25" d="M113.9 46.2c-.2.2-.6.3-.7.2l-1-.7c-.2-.2-.2-.5.1-.8.3-.3.6-.4.9-.3l1 .7c.2.2.2.5-.1.8-.1 0-.2 0-.2.1z"/><path class="st25" d="M121.8 46.5c-.2 0-.3-.1-.4-.2-.1-.1-3.6-3.5-7.5-.1-.3.2-.7.2-.9-.1-.2-.3-.2-.7.1-.9 4.8-4.2 9.1.1 9.2.2.2.2.2.6 0 .9-.2.2-.4.2-.5.2z"/><path class="st23" d="M122.7 52.7c0-.5.6-.9 1.4-1.2.9-.4 1.6-1 2.3-1.8.5-.5.9-.5 1.3.1.6.8 1.4 1.3 2.2 1.7.7.3 1.3.7 1.3 1.2 0 .9-.7 1.7-1.6 1.7-.4 1-1.4 1.7-2.6 1.7-1.2 0-2.1-.7-2.6-1.7-1 0-1.7-.7-1.7-1.7z"/><path class="st81" d="M132.1 40.2h.2c.1 0 5.3-1.3 8.4.6.4.2.8 0 1-.6.2-.5.1-1.2-.3-1.4-3.5-2.1-9-.8-9.2-.7-.4.1-.7.6-.7 1.2.1.5.3.9.6.9zM121.9 40.2h-.2c-.1 0-5.3-1.3-8.4.6-.4.2-.8 0-1-.6-.2-.5-.1-1.2.3-1.4 3.5-2.1 9-.8 9.2-.7.4.1.7.6.7 1.2 0 .5-.3.9-.6.9z"/><path d="M126.8 62.6c3.2 0 5.5-1.7 5.6-1.7.3-.2.4-.7.2-1-.2-.3-.7-.4-1-.2-.2.1-4.4 3.1-9.3 0-.3-.2-.8-.1-1 .2-.2.3-.1.8.2 1 1.9 1.3 3.7 1.7 5.3 1.7z" fill="#dc9b80"/><path class="st23" d="M127.1 53.2c1 0 1.8-.8 1.8-1.8v-4.2c0-1-.8-1.8-1.8-1.8s-1.8.8-1.8 1.8v4.2c0 1 .8 1.8 1.8 1.8z"/><g><circle class="st23" cx="114.9" cy="53.1" r="2.1"/><circle class="st23" cx="138.6" cy="53.1" r="2.1"/></g><g><path d="M143.5 14.5c-3.9-9.9-4.9-17.5-21.6-13.4-17.4 4.2-20.3 14.5-18.4 25 3.7-2.7 18.9-12.7 40-11.6z" fill="#acc4dd"/><path d="M103.6 23.2c-.8.5-1.2 1.5-1 2.5 0 .2.1.3.1.5l1.5 5.4c.1.3.4.5.7.4 0 0 4.8-5.7 19.1-9.7 14.3-4 21.4-1.7 21.4-1.7.3-.1.5-.4.4-.7l-1.6-5.6c-.1-.2-.1-.4-.2-.6-.3-.9-1.1-1.6-2.1-1.6-19-.5-33.1 7.6-38.3 11.1z" fill="#9097a0"/></g><g><defs><path id="SVGID_15_" d="M145.4 20.4c-.7-.2-7.9-2.1-21.4 1.7-13.5 3.8-18.7 9.2-19.2 9.7-.2 0-.4-.1-.4-.3l-1.5-5.4c0-.2-.1-.3-.1-.5-.2-.9.1-1.8.9-2.3 3.2-2.1 9.8-6.1 18.9-8.6 6.4-1.8 12.9-2.6 19.4-2.4.9 0 1.7.6 2 1.5.1.2.1.4.2.6l1.6 5.6c-.1.1-.2.3-.4.4z"/></defs><clipPath id="SVGID_2_"><use xlink:href="#SVGID_15_" overflow="visible"/></clipPath><g clip-path="url(#SVGID_2_)"><path transform="rotate(-15.719 104.022 25.681)" class="st0" d="M104 19h.2v13.4h-.2z"/><path transform="rotate(-15.719 105.706 25.208)" class="st0" d="M105.6 18.5h.2v13.4h-.2z"/><path transform="rotate(-15.719 107.39 24.734)" class="st0" d="M107.3 18h.2v13.4h-.2z"/><path transform="rotate(-15.719 109.073 24.26)" class="st0" d="M109 17.5h.2v13.4h-.2z"/><path transform="rotate(-15.719 110.757 23.787)" class="st0" d="M110.7 17.1h.2v13.4h-.2z"/><path transform="rotate(-15.719 112.44 23.313)" class="st0" d="M112.4 16.6h.2V30h-.2z"/><path transform="rotate(-15.719 114.124 22.84)" class="st0" d="M114.1 16.1h.2v13.4h-.2z"/><path transform="rotate(-15.719 115.809 22.366)" class="st0" d="M115.7 15.7h.2v13.4h-.2z"/><path transform="rotate(-15.719 117.492 21.892)" class="st0" d="M117.4 15.2h.2v13.4h-.2z"/><path transform="rotate(-15.719 119.176 21.419)" class="st0" d="M119.1 14.7h.2v13.4h-.2z"/><path transform="rotate(-15.719 120.86 20.945)" class="st0" d="M120.8 14.2h.2v13.4h-.2z"/><path transform="rotate(-15.719 122.543 20.471)" class="st0" d="M122.5 13.8h.2v13.4h-.2z"/><path transform="rotate(-15.719 124.227 19.997)" class="st0" d="M124.2 13.3h.2v13.4h-.2z"/><path transform="rotate(-15.719 125.911 19.524)" class="st0" d="M125.8 12.8h.2v13.4h-.2z"/><path transform="rotate(-15.719 127.595 19.05)" class="st0" d="M127.5 12.3h.2v13.4h-.2z"/><path transform="rotate(-15.719 129.279 18.576)" class="st0" d="M129.2 11.9h.2v13.4h-.2z"/><path transform="rotate(-15.719 130.962 18.103)" class="st0" d="M130.9 11.4h.2v13.4h-.2z"/><path transform="rotate(-15.719 132.646 17.63)" class="st0" d="M132.6 10.9h.2v13.4h-.2z"/><path transform="rotate(-15.719 134.33 17.155)" class="st0" d="M134.3 10.4h.2v13.4h-.2z"/><path transform="rotate(-15.719 136.014 16.682)" class="st0" d="M135.9 10h.2v13.4h-.2z"/><path transform="rotate(-15.719 137.697 16.208)" class="st0" d="M137.6 9.5h.2v13.4h-.2z"/><path transform="rotate(-15.719 139.381 15.734)" class="st0" d="M139.3 9h.2v13.4h-.2z"/><path transform="rotate(-15.719 141.065 15.26)" class="st0" d="M141 8.5h.2v13.4h-.2z"/><path transform="rotate(-15.719 142.748 14.787)" class="st0" d="M142.7 8.1h.2v13.4h-.2z"/></g></g><g><path class="st76" d="M126.8 91c10.6 0 20.1-5.2 25.9-13.1l-13.9-6h-1.3l-3.5 3.9c-3.8 4.3-10.6 4.3-14.5 0l-3.5-3.9h-1.3l-14 5.9c5.9 7.9 15.4 13.2 26.1 13.2"/><circle cx="125.9" cy="106.6" r="18.3" fill="#f5baf7"/><path d="M136.9 70.5l-3.5 3.2c-3.7 3.5-9.5 3.5-13.3 0l-3.5-3.2-1.9 1.3 3.9 3.9c4.5 4.5 11.8 4.5 16.2 0l3.9-3.9-1.8-1.3z" fill="#db7ce5"/></g><path class="st76" d="M100.8 77.7c-13.9 8-19 25.1-20.8 34.9 2.9.8 5.7 1.7 8.5 2.6l6-3c2.2-6.6 10.3-14.1 10.3-14.1l-4-20.4z"/><path class="st77" d="M100.6 102.5l.2-18.2-1.8 20.2z"/><circle class="st76" cx="160.5" cy="111.1" r="10.9"/><circle class="st77" cx="159.6" cy="111.1" r="8.8"/><g><path class="st75" d="M229.8 128.1H5.2c-2.9 0-5.2-2.3-5.2-5.2 0-2.9 2.3-5.2 5.2-5.2h224.6c2.9 0 5.2 2.3 5.2 5.2.1 2.9-2.3 5.2-5.2 5.2z"/></g><g><circle class="st50" cx="184.2" cy="83.9" r="7.2"/></g><path class="st87" d="M204.3 105.7c-6.6 0-11.9 5.3-11.9 11.9h23.8c0-6.5-5.3-11.9-11.9-11.9z"/><g><path class="st87" d="M206 109.3h-3.4v-9.9c0-2.4-1-4.8-2.7-6.5l-11-11 2.4-2.4 12 12c1.7 1.7 2.7 4 2.7 6.5v11.3z"/></g><g><path class="st75" d="M91.7 113.4h-69c-.6 0-1.2-.3-1.6-.7-.4-.4-.7-1-.7-1.6V70.8c0-.6.3-1.2.7-1.6.4-.4 1-.7 1.6-.7h69c.3 0 .6.1.9.2.8.4 1.4 1.2 1.4 2.1v40.3c0 .6-.3 1.2-.7 1.6-.3.4-.9.7-1.6.7z"/><path class="st24" d="M153.4 104.7c-12.2-.3-28.5 2.8-34.2 2.4-2.7-.2-8.8-2.9-11.4-2-2.6.9-9.7 4.8-10.2 7.8 0 0 3.5 2.9 20 2.9 13.2 0 23.4 2 35.9 2.1h7.7c3.6 0 6.6-2.9 6.6-6.6 0-3.6-2.9-6.6-6.6-6.6h-7.8z"/><path class="st87" d="M119 113.4H22.5c-1.2 0-2.1 1-2.1 2.1 0 1.2 1 2.1 2.1 2.1H119c1.2 0 2.1-1 2.1-2.1 0-1.2-.9-2.1-2.1-2.1z"/></g><path class="st75" d="M193.3 79.8l-6.1-5.4 1.7-1.9c1.5-1.7 4-1.8 5.7-.4 1.7 1.5 1.8 4 .4 5.7l-1.7 2z"/><path class="st87" d="M192.1 75c-4.9-4.3-12.5-3.9-16.8 1.1l17.9 15.7c4.3-5 3.8-12.5-1.1-16.8z"/><g><path class="st50" d="M29.7 9.1c-.7 1-1.3 2-1.8 3.2-.6 1.2-1.1 2.3-1.7 3.6-.5 1.2-1.1 2.4-1.6 3.6-.5 1.2-1.1 2.4-1.6 3.4-.6 1.3-1.3 2.7-2 4-.7 1.3-1.5 2.6-2.3 3.9 1.9-.2 3.7-.5 5.3-.9 1.6-.4 3.2-1.2 4.8-2.2 1.2-.8 2.3-1.7 3.3-2.7 1-.9 1.9-1.9 2.6-2.9.3-.4.5-.6.8-.7.3-.1.5-.1.7 0 .2.1.3.3.4.6.1.3 0 .6-.2 1.1-.8 1.9-1.9 3.7-3.2 5.4-1.3 1.7-2.9 3.2-4.6 4.4-1.1.8-2.3 1.4-3.5 2-1.2.5-2.5.9-3.9 1.2-1 .2-2.1.3-3.2.3s-2.1.1-3.2.3c-.4.3-.8.6-1.2.8-.5.2-.9.4-1.4.4-.5.1-.9.1-1.4.1-.4 0-.8-.2-1.1-.4-.6-.4-.9-1-.9-1.6 0-.6.2-1.2.6-1.7.4-.6 1-1.1 1.7-1.5.7-.5 1.5-.8 2.4-1 .8-1.6 1.5-3.4 2.1-5.4.6-1.9 1.4-3.8 2.2-5.7.5-1.1 1-2.2 1.6-3.4.6-1.2 1.3-2.4 2-3.6.7-1.2 1.5-2.3 2.4-3.3.9-1 1.8-1.8 2.8-2.4.4-.2.8-.4 1.3-.5.5-.1.9-.1 1.2 0 .6 0 .8.2.9.5.1.2 0 .6-.3 1.1z"/><path class="st50" d="M40 27.1c.6.3 1.3.4 2.1.3.7-.1 1.5-.4 2.3-.9.8-.4 1.5-1 2.3-1.6.7-.6 1.4-1.3 2.1-1.9.6-.7 1.2-1.3 1.7-1.9.5-.6.9-1.1 1.2-1.6.2-.3.4-.5.6-.6.2-.1.4-.1.6 0 .2.1.3.3.3.6.1.3 0 .6-.1.9-1 2.8-2.4 5.3-4.3 7.3-.6.6-1.3 1.3-2 1.8-.7.6-1.5 1.1-2.3 1.5-.8.4-1.7.7-2.5.9-.9.2-1.8.2-2.7.1-1.1-.2-2-.5-2.7-1-.7-.5-1.3-1.2-1.6-2-.4-.8-.6-1.6-.7-2.6-.1-1 0-1.9.1-2.9.2-1 .4-2 .8-2.9.3-1 .7-1.8 1.2-2.6.4-.8.9-1.5 1.4-2.3.5-.8 1.1-1.5 1.8-2.1.7-.6 1.4-1.2 2.1-1.7.8-.5 1.6-.8 2.4-1 1-.3 2-.2 3 0 1 .3 1.8.8 2.4 1.7.6.8.9 1.6 1 2.5.1.9-.1 1.8-.4 2.7-.3.9-.7 1.7-1.3 2.5-.6.8-1.2 1.5-1.9 2-1.1.9-2.3 1.5-3.5 1.8-1.2.3-2.5.4-3.8.2-.1.6-.2 1.1-.1 1.6-.1.6.1 1 .5 1.2zm2.8-6.4c.9-.5 1.7-1.2 2.2-2.1.1-.2.3-.5.5-1 .2-.4.3-.8.3-1.2.1-.4 0-.7-.2-.7-.2-.1-.5 0-.8.1-.4.2-.8.5-1.1.8-.3.4-.6.7-.9 1-.5.6-.9 1.2-1.3 1.8-.4.6-.7 1.3-1 1.9.9-.1 1.6-.3 2.3-.6z"/><path class="st50" d="M64.2 9.4c-.2.5-.5.9-.8 1.2-.4.3-.8.6-1.3.8-.5.2-1 .4-1.5.5-.5.1-1 .2-1.5.2-.2.5-.5 1.3-.9 2.3-.4 1-.7 2-1.1 3.1-.4 1.1-.7 2.2-1 3.2-.3 1.1-.5 2-.6 2.7-.1.8-.1 1.3.2 1.4.2.2.7 0 1.3-.6.5-.4.9-.9 1.3-1.5s.8-1.1 1.2-1.7c.4-.6.7-1.2 1.1-1.7.3-.6.6-1.1.9-1.5.2-.4.4-.6.6-.7.2-.1.4-.1.6 0 .2.1.3.2.3.5.1.2 0 .5-.1.9-.3.8-.5 1.7-.8 2.5-.3.9-.6 1.7-.9 2.5-.3.8-.7 1.6-1.1 2.3-.4.7-.9 1.4-1.5 2-.7.7-1.5 1.2-2.5 1.5-.9.3-1.9.2-2.7-.2-.7-.3-1.2-.8-1.5-1.5-.3-.6-.5-1.4-.6-2.1-.1-.8-.1-1.6 0-2.4.1-.8.2-1.6.3-2.2.1-.6.2-1.2.4-1.9.2-.6.4-1.3.6-2 .2-.7.5-1.5.7-2.3.3-.8.6-1.7 1-2.7-.3 0-.6 0-.9-.1-.3-.1-.5-.2-.8-.3-.3-.3-.4-.6-.3-1 .1-.4.4-.9.7-1.3.4-.4.8-.8 1.4-1.1.6-.3 1.1-.5 1.7-.5l.9-1.5c.3-.5.7-.9 1.1-1.3.3-.3.7-.6 1.2-.8.5-.2.9-.3 1.4-.4.4 0 .9.1 1.2.3.4.2.6.6.8 1.2.1.5.1 1.1-.1 1.6s-.4 1-.7 1.4c.3.1.5.1.8.1h.8c.4-.1.6.1.8.3 0 .3 0 .5-.1.8z"/><path class="st50" d="M64 7.1c-.5-.6-.6-1.3-.5-2 .2-.7.5-1.2 1-1.6.5-.4 1.1-.6 1.7-.7.7 0 1.2.3 1.7.9.5.7.8 1.4.7 2.2-.1.8-.4 1.5-.8 2.2-.5.7-1 1.3-1.7 1.9-.7.6-1.3 1-1.8 1.3-.2.2-.5.2-.7 0-.2-.1-.4-.4-.4-.7 0-.2 0-.4.2-.7.1-.2.2-.5.3-.7l.3-.9c.1-.3.3-.7.4-1-.2.1-.3-.1-.4-.2zM75 12.9c.3-.6.4-1.1.4-1.4 0-.3 0-.5-.2-.6-.1-.1-.3-.1-.6 0s-.5.3-.8.5c-.3.2-.6.4-.9.7-.3.2-.5.5-.7.7-.7.7-1.1 1.3-1.3 1.7-.2.4-.2.8-.1.9.1.1.2.1.4.1s.4-.1.7-.1c.2-.1.5-.1.7-.2.2-.1.4-.1.6-.2.7-.2 1.3-.2 1.9-.1.6.1 1 .4 1.4.7.4.3.7.8.9 1.4.2.6.3 1.2.2 1.9-.1.9-.3 1.9-.8 2.8-.5.9-1.1 1.8-1.8 2.5-.8.7-1.6 1.3-2.7 1.8-1 .4-2.1.6-3.3.5-.3 0-.7-.1-1-.2-.3-.1-.6-.3-.9-.5-.3-.2-.5-.5-.7-.8-.2-.3-.3-.7-.4-1 0-.5 0-.9.2-1.3s.5-.7.8-.9c.3-.2.7-.3 1-.3.3 0 .6.2.9.6.3.4.6.6.9.6.4 0 .8-.2 1.2-.5.3-.2.7-.5 1-.9.4-.4.7-.8 1-1.2.3-.4.5-.8.7-1.2.2-.4.2-.6 0-.8-.1-.1-.2-.2-.5-.1-.2 0-.4.1-.5.2-.5.2-1 .3-1.5.4-.5.1-1.1.1-1.6 0s-1-.3-1.4-.6c-.4-.3-.7-.8-.9-1.4-.3-.7-.4-1.4-.3-2.1.1-.7.2-1.4.5-2.1.3-.7.6-1.3 1-1.9.4-.6.9-1.1 1.3-1.6.5-.4 1-.8 1.6-1.2.6-.4 1.3-.7 1.9-.8.7-.2 1.3-.2 2-.1.6.1 1.2.4 1.7 1 .4.5.7 1 .8 1.6.1.6.1 1.2-.1 1.8-.2.6-.4 1.1-.8 1.6s-.8.9-1.3 1.2c-.4.2-.7.2-.9 0 .2-.4.2-.7.3-1.1zM42.7 45.4c.2-.4.5-.8.6-1.2.2-.5.3-.9.4-1.4.1-.4.1-.8.1-1.2 0-.4-.2-.6-.4-.8-.2-.2-.5-.2-.9-.1s-.9.4-1.6.9c-.7.6-1.4 1.2-1.9 2-.6.8-1.1 1.5-1.5 2.4-.3.5-.6 1.3-1 2.1-.4.9-.6 1.7-.8 2.6-.2.9-.2 1.8-.1 2.6s.5 1.5 1.1 1.9c.3.2.8.3 1.3.3s1-.1 1.6-.3c.5-.2 1.1-.4 1.6-.7.5-.3 1-.5 1.3-.8 1.1-.8 2.2-1.6 3-2.6.9-.9 1.6-1.9 2.3-2.9.1-.2.3-.3.5-.4.2 0 .3 0 .5.1.1.1.2.2.3.4.1.2 0 .4-.1.7-.3.7-.6 1.5-1 2.3-.4.8-.8 1.5-1.2 2.2-.8 1.2-1.7 2.2-2.8 3.2-1.1 1-2.3 1.7-3.7 2.3-1 .4-2.1.6-3.2.6s-2.1-.3-3.1-.9c-.7-.4-1.2-1-1.7-1.6-.4-.6-.8-1.3-1-2-.2-.7-.4-1.5-.4-2.3 0-.8 0-1.6.1-2.4.1-.9.4-1.9.7-2.9.3-1 .7-2 1.2-3s1-1.9 1.7-2.8c.6-.9 1.3-1.7 2.1-2.4.7-.7 1.5-1.3 2.4-1.8.9-.5 1.7-.8 2.6-1 .5-.1 1.1-.1 1.6 0s1 .2 1.5.4.9.5 1.3.9.7.8.9 1.4c.2.7.3 1.3.3 2.1 0 .7-.1 1.5-.4 2.2-.2.7-.6 1.4-1 2-.4.6-.9 1.1-1.4 1.6-.4.3-.7.5-1.1.5-.4 0-.7-.1-.9-.2-.2-.2-.3-.5-.4-.8.2-.3.3-.7.6-1.2z"/><path class="st50" d="M52.9 45.2l-.6 1.6c.3-.5.5-.9.8-1.4.3-.5.5-.9.8-1.4.3-.5.7-1.1 1.2-1.8s.9-1.3 1.5-1.8c.5-.5 1.1-.9 1.8-1.2.6-.2 1.3-.2 2 .1.4.2.7.4 1 .7.3.3.5.6.6 1 .1.4.2.8.2 1.2 0 .4 0 .9-.1 1.3-.3 1.3-.7 2.5-1.2 3.7-.6 1.2-1.1 2.3-1.6 3.5-.3.6-.4 1-.4 1.2 0 .3 0 .4.2.4.1 0 .3-.1.6-.3.3-.2.5-.5.8-.8l.9-1.2c.3-.4.6-.9.8-1.3.3-.5.6-.9 1-1.4l.9-1.5c.1-.2.3-.4.4-.4.2-.1.3-.1.4 0l.3.3c.1.2 0 .3 0 .6-.1.3-.3.7-.5 1.1-.2.4-.4.9-.7 1.4-.2.5-.5.9-.7 1.3-.2.4-.4.8-.6 1.1-.3.5-.6 1.1-.9 1.7-.4.6-.8 1.2-1.2 1.6-.5.5-1 .9-1.5 1.1-.6.3-1.2.3-1.8.2-.6-.1-1-.4-1.4-.7-.3-.4-.6-.8-.8-1.3-.2-.5-.2-1-.2-1.6 0-.6.1-1.1.2-1.6.2-.7.4-1.4.7-2.1.3-.7.6-1.3.9-1.9.3-.6.6-1.2 1-1.8.3-.6.6-1.2.9-1.9.2-.4.2-.6.1-.7-.1-.1-.2 0-.5.1-.2.2-.5.4-.9.8s-.8.8-1.2 1.4c-.5.6-1 1.3-1.4 2-.4.7-.8 1.4-1.3 2.1-.3.6-.7 1.2-1 1.7-.3.6-.6 1.2-.9 1.7-.3.6-.5 1.2-.7 1.8-.2.6-.3 1.3-.3 2 0 .4-.1.7-.3.9-.2.3-.4.5-.7.6-.3.1-.5.2-.8.2-.3 0-.6-.1-.8-.2-.4-.2-.6-.5-.8-.9-.2-.4-.3-.9-.3-1.5 0-.5 0-1.1.1-1.7l.3-1.8c.1-.6.3-1.1.4-1.6.1-.5.2-.9.3-1.2.4-1.5.9-3 1.5-4.5s1.2-2.9 1.8-4.3c.1-.3.3-.7.6-1.2.2-.5.5-1 .8-1.6.3-.5.6-1.1 1-1.6s.7-1 1.1-1.3c.4-.3.8-.6 1.3-.7.4-.1.9-.1 1.3.2.5.2.8.6.9 1.1.2.5.2 1 0 1.5-.1.5-.4 1-.6 1.6-.3.5-.6 1.1-1 1.7-.4.6-.8 1.2-1.3 1.9s-1.1 1.5-1.7 2.3l-.7 1.5z"/><path class="st50" d="M75.1 40.4c-.9 0-1.7.2-2.5.6-.8.4-1.5 1-2.1 1.6-.6.7-1.2 1.4-1.7 2.2-.5.8-.9 1.6-1.2 2.4-.6 1.4-.8 2.3-.7 2.7.1.4.3.4.8.1.4-.3 1-1 1.6-1.9.6-.9 1.2-2 1.8-3.3.1-.3.3-.6.5-.9l.6-.9c.2-.3.4-.5.7-.7.3-.2.6-.3.9-.4.4-.1.8-.1 1.1 0 .3.1.5.3.7.5.2.3.3.6.3.9 0 .4-.1.8-.2 1.2-.1.2-.2.5-.3.8-.1.3-.3.6-.4 1-.1.3-.3.7-.4 1.1-.1.4-.2.7-.3 1-.3.4-.3.6-.1.6.2-.1.5-.3.8-.7.6-.7 1.1-1.4 1.5-2.2.5-.8.9-1.5 1.3-2.1.1-.1.2-.2.3-.2h.3c.1 0 .2.1.2.2.1.1.1.3.1.4-.1.7-.3 1.5-.6 2.4-.3.9-.7 1.9-1.2 2.8-.5.9-1.1 1.7-1.7 2.4-.6.7-1.2 1.2-1.8 1.4-.4.1-.8.2-1.2.1-.4-.1-.7-.2-1-.4-.3-.2-.5-.5-.7-.9-.2-.4-.3-.8-.4-1.2 0-.4-.1-.7 0-1.1 0-.4.1-.7.1-1.1-.2.6-.5 1.3-.7 2-.3.7-.6 1.4-.9 2-.4.6-.8 1.1-1.3 1.5-.5.4-1.1.5-1.8.5-.8-.1-1.4-.3-1.8-.8-.4-.5-.7-1.1-.8-1.8-.1-.7-.1-1.4-.1-2.2.1-.8.2-1.5.4-2.1.4-1.6 1.1-3 1.9-4.4.8-1.4 1.8-2.6 2.9-3.6.5-.5 1.1-.9 1.7-1.3.6-.4 1.3-.7 2-.9.7-.2 1.4-.3 2-.2.7.1 1.3.3 1.9.7.2.2.4.4.5.7.1.3.1.5 0 .8-.1.3-.2.5-.4.7-.1-.1-.3 0-.6 0z"/><path class="st50" d="M86.7 36.4c-.1.4-.3.7-.6 1-.3.3-.6.5-.9.6-.3.2-.7.3-1.1.3-.4.1-.7.1-1.1.1-.2.4-.4 1-.6 1.8-.3.8-.5 1.6-.8 2.4-.3.9-.5 1.7-.7 2.6-.2.9-.3 1.6-.4 2.2-.1.6 0 1 .1 1.2.2.2.5 0 .9-.4.3-.3.6-.7 1-1.1.3-.4.6-.9.9-1.4.3-.5.5-.9.8-1.4l.6-1.2c.1-.3.3-.5.4-.5.2-.1.3-.1.4 0 .1.1.2.2.2.4s0 .4-.1.7c-.2.7-.4 1.3-.6 2-.2.7-.4 1.3-.6 2-.2.6-.5 1.2-.8 1.8-.3.6-.7 1.1-1.1 1.5-.5.5-1.1.9-1.8 1.1-.7.2-1.3.1-2-.2-.5-.3-.9-.7-1.1-1.2-.2-.5-.4-1.1-.5-1.7-.1-.6-.1-1.2 0-1.9 0-.6.1-1.2.2-1.8l.3-1.5c.1-.5.2-1 .4-1.6.1-.6.3-1.2.5-1.8.2-.6.4-1.3.7-2.1-.2 0-.5 0-.7-.1-.2 0-.4-.1-.5-.3-.2-.2-.3-.5-.2-.8.1-.3.3-.7.5-1 .3-.3.6-.6 1-.8.4-.2.8-.3 1.2-.3l.6-1.2c.2-.4.5-.7.8-1 .2-.3.5-.5.8-.6.3-.2.7-.3 1-.3.3 0 .6.1.9.3.3.2.5.5.6.9.1.4.1.8 0 1.3-.1.4-.3.8-.5 1.1.2.1.4.1.6.1h.6c.3 0 .5.1.6.3.2.1.2.3.1.5zM88.9 49.5c-.1.3-.3.6-.6.9-.3.3-.6.4-.9.5-.3.1-.7.1-1 0-.3-.1-.6-.4-.9-.8-.1-.3-.2-.5-.2-.9 0-.3 0-.7.1-1 .1-.3.2-.6.4-.9.2-.3.3-.5.5-.7.4-.3.8-.5 1.2-.4.4.1.7.2 1 .5.3.3.5.7.5 1.2.1.6.1 1.1-.1 1.6zm7-17c-.7.7-1.4 1.4-2 2.3-.6.8-1.3 1.7-1.8 2.7-.6.9-1.1 1.9-1.7 2.9-.5 1-1.1 1.9-1.5 2.9 0 .1-.1.2-.2.3-.1.2-.2.3-.3.4-.1.1-.2.3-.4.3-.1.1-.2.1-.4 0s-.3-.3-.3-.5c0-.3 0-.5.1-.8.4-1.7.8-3.3 1.3-4.8s1.1-3 1.9-4.3c.2-.4.5-.9.8-1.4.3-.5.7-.9 1.2-1.3.4-.4.9-.7 1.4-.9.5-.2.9-.2 1.4-.1.2.1.4.2.6.4.1.2.3.4.3.6.1.2.1.5 0 .7-.1.3-.2.5-.4.6z"/></g></g></svg>