<svg version="1.1" id="Layer_1" xmlns="http://www.w3.org/2000/svg" x="0" y="0" viewBox="0 0 251.4 63.6" xml:space="preserve"><style>.st26{fill:#fff}</style><path fill="#221e20" d="M.2 0h215l-39.4 63.3H0z"/><path d="M249.4 48.9l-20-34.7c-4.7-8.1-12.3-8.1-17 0l-20 34.7c-4.7 8.1-.9 14.7 8.5 14.7H241c9.2 0 13.1-6.6 8.4-14.7zm-28.5 8.8c-2.8 0-5-2.2-5-5s2.2-5 5-5 5 2.2 5 5-2.3 5-5 5zm0-12.6c-3 0-5.4-15.4-5.4-18.3s.2-9.2 5.4-9.2 5.4 6.3 5.4 9.2-2.5 18.3-5.4 18.3z" fill="#ffd035"/><path class="st26" d="M15.2 9.4H22l5 20.7h-5.8l-.6-3.6h-4.3l-.6 3.6H9.9l5.3-20.7zm3.4 4.2L17 22.4h3l-1.4-8.8zM29 14h-4V9.4h13.5V14h-4.1v16.1H29V14z"/><path class="st26" d="M42.4 14h-4.1V9.4h13.5V14h-4.1v16.1h-5.4V14zM53.1 9.4h12.3v4.4h-6.9v3.5H65v4.2h-6.4v4.1h7.1V30H53.1V9.4zM67.6 9.4h6l3.5 12.8h.1V9.4h5.1v20.7h-5.9l-3.6-12.8h-.1v12.8h-5.1V9.4zM87.6 14h-4.1V9.4H97V14h-4v16.1h-5.4V14zM98 9.4h5.4v20.7H98V9.4zM112.6 9c5.5 0 7.4 3 7.4 10.8s-1.9 10.8-7.4 10.8-7.4-3-7.4-10.8S107.1 9 112.6 9zm0 17.8c1.7 0 1.8-1.5 1.8-7.1s-.2-7.1-1.8-7.1-1.8 1.5-1.8 7.1.1 7.1 1.8 7.1zM121.9 9.4h6l3.5 12.8h.1V9.4h5.1v20.7h-5.9l-3.6-12.8h-.1v12.8h-5.1V9.4zM139.9 16.3V9.4h5.1v6.9l-.6 7.8h-3.9l-.6-7.8zm.1 9.2h4.9v4.6H140v-4.6z"/><g><path class="st26" d="M19.3 35.5h4.9l2.1 14.3h.1l1.5-14.3h5.2l-3.5 20.7h-5.9l-1.8-13.9h-.1L20 56.2h-6l-3.5-20.7h5.2l1.6 14.3h.1l1.9-14.3zM34.3 35.5h12.3v4.4h-6.9v3.5h6.4v4.2h-6.4v4.1h7.1v4.4H34.3V35.5zM58.7 35.5h6.8l5.1 20.7h-5.8l-.6-3.6H60l-.6 3.6h-5.8l5.1-20.7zm3.5 4.3l-1.5 8.8h3l-1.5-8.8zM71.5 35.5H80c4.1 0 5.7 2.3 5.7 5.5 0 2.8-1.1 4.6-3.5 4.9v.1c2.6.2 3.4 1.9 3.4 4.6v1.8c0 1.1 0 2.5.3 2.9.1.2.3.5.6.6v.3h-5.7c-.5-1.1-.5-3.1-.5-3.9v-1.4c0-2.4-.5-3-1.8-3h-1.4v8.3h-5.4V35.5zm5.4 8.8H78c1.5 0 2.3-1 2.3-2.5 0-1.7-.7-2.4-2.3-2.4h-1v4.9zM88.1 35.5h12.3v4.4h-6.9v3.5h6.4v4.2h-6.4v4.1h7.1v4.4H88.1V35.5zM110.2 35.5h5.4v7.6h3.3v-7.6h5.4v20.7h-5.4v-8.5h-3.3v8.5h-5.4V35.5zM126.9 35.5h12.3v4.4h-6.9v3.5h6.4v4.2h-6.4v4.1h7.1v4.4h-12.5V35.5zM141.4 35.5h8.5c4.1 0 5.7 2.3 5.7 5.5 0 2.8-1.1 4.6-3.5 4.9v.1c2.6.2 3.4 1.9 3.4 4.6v1.8c0 1.1 0 2.5.3 2.9.1.2.3.5.6.6v.3h-5.7c-.5-1.1-.5-3.1-.5-3.9v-1.4c0-2.4-.5-3-1.8-3H147v8.3h-5.4V35.5zm5.4 8.8h1.1c1.5 0 2.3-1 2.3-2.5 0-1.7-.7-2.4-2.3-2.4h-1v4.9zM158.1 35.5h12.3v4.4h-6.9v3.5h6.4v4.2h-6.4v4.1h7.1v4.4h-12.5V35.5z"/></g></svg>