<?xml version="1.0" encoding="iso-8859-1"?>
<!-- Generator: Adobe Illustrator 19.0.0, SVG Export Plug-In . SVG Version: 6.00 Build 0)  -->
<svg version="1.1" id="Capa_1" xmlns="http://www.w3.org/2000/svg" xmlns:xlink="http://www.w3.org/1999/xlink" x="0px" y="0px"
	 viewBox="0 0 512 512" style="enable-background:new 0 0 512 512;" xml:space="preserve">
<path style="fill:#FFC107;" d="M394.667,256C318.122,255.906,256.094,193.878,256,117.333c0-3.605,0.277-7.125,0.533-10.667H96
	c-5.891,0.005-10.662,4.785-10.657,10.677c0.001,0.655,0.062,1.309,0.182,1.953l32,170.667c0.944,5.043,5.344,8.699,10.475,8.704
	h292.992c26.9,0.003,49.592-20.027,52.928-46.72l2.901-23.168C453.072,246.443,424.265,255.988,394.667,256z"/>
<g>
	<circle style="fill:#455A64;" cx="394.667" cy="458.667" r="53.333"/>
	<circle style="fill:#455A64;" cx="181.333" cy="458.667" r="53.333"/>
	<path style="fill:#455A64;" d="M437.333,384H191.125c-35.561-0.074-66.163-25.156-73.216-60.011L65.92,64H10.667
		C4.776,64,0,59.224,0,53.333s4.776-10.667,10.667-10.667h64c5.07-0.001,9.439,3.566,10.453,8.533l53.717,268.587
		c5.035,24.896,26.888,42.817,52.288,42.88h246.208c5.891,0,10.667,4.776,10.667,10.667S443.224,384,437.333,384z"/>
</g>
<circle style="fill:#4CAF50;" cx="394.667" cy="117.333" r="117.333"/>
<g>
	<path style="fill:#FAFAFA;" d="M437.333,128H352c-5.891,0-10.667-4.776-10.667-10.667s4.776-10.667,10.667-10.667h85.333
		c5.891,0,10.667,4.776,10.667,10.667S443.224,128,437.333,128z"/>
	<path style="fill:#FAFAFA;" d="M394.667,170.667c-5.891,0-10.667-4.776-10.667-10.667V74.667C384,68.776,388.776,64,394.667,64
		c5.891,0,10.667,4.776,10.667,10.667V160C405.333,165.891,400.558,170.667,394.667,170.667z"/>
</g>
<path d="M394.667,512c-29.455,0-53.333-23.878-53.333-53.333s23.878-53.333,53.333-53.333S448,429.211,448,458.667
	S424.122,512,394.667,512z M394.667,426.667c-17.673,0-32,14.327-32,32s14.327,32,32,32s32-14.327,32-32
	S412.34,426.667,394.667,426.667z"/>
<path d="M181.333,512C151.878,512,128,488.122,128,458.667s23.878-53.333,53.333-53.333c29.455,0,53.333,23.878,53.333,53.333
	S210.789,512,181.333,512z M181.333,426.667c-17.673,0-32,14.327-32,32s14.327,32,32,32s32-14.327,32-32
	S199.006,426.667,181.333,426.667z"/>
<path d="M437.333,384H191.125c-35.561-0.074-66.163-25.156-73.216-60.011L65.92,64H10.667C4.776,64,0,59.224,0,53.333
	s4.776-10.667,10.667-10.667h64c5.07-0.001,9.439,3.566,10.453,8.533l53.717,268.587c5.035,24.896,26.888,42.817,52.288,42.88
	h246.208c5.891,0,10.667,4.776,10.667,10.667S443.224,384,437.333,384z"/>
<path d="M420.992,298.667H128c-5.891,0-10.667-4.776-10.667-10.667c0-5.891,4.776-10.667,10.667-10.667h292.992
	c16.143,0.006,29.764-12.013,31.765-28.032c0.592-5.861,5.824-10.132,11.685-9.54c5.861,0.592,10.132,5.824,9.54,11.685
	c-0.017,0.167-0.038,0.334-0.063,0.5C470.584,278.639,447.892,298.67,420.992,298.667z"/>
<path d="M245.333,128H96c-5.891,0-10.667-4.776-10.667-10.667S90.109,106.667,96,106.667h149.333
	c5.891,0,10.667,4.776,10.667,10.667S251.224,128,245.333,128z"/>
<path d="M394.667,234.667c-64.801,0-117.333-52.532-117.333-117.333S329.865,0,394.667,0S512,52.532,512,117.333
	C511.929,182.106,459.439,234.596,394.667,234.667z M394.667,21.333c-53.019,0-96,42.981-96,96s42.981,96,96,96s96-42.981,96-96
	S447.686,21.333,394.667,21.333z"/>
<g>
</g>
<g>
</g>
<g>
</g>
<g>
</g>
<g>
</g>
<g>
</g>
<g>
</g>
<g>
</g>
<g>
</g>
<g>
</g>
<g>
</g>
<g>
</g>
<g>
</g>
<g>
</g>
<g>
</g>
</svg>
