<?xml version="1.0" encoding="iso-8859-1"?>
<!-- Generator: Adobe Illustrator 19.0.0, SVG Export Plug-In . SVG Version: 6.00 Build 0)  -->
<svg version="1.1" id="Capa_1" xmlns="http://www.w3.org/2000/svg" xmlns:xlink="http://www.w3.org/1999/xlink" x="0px" y="0px"
	 viewBox="0 0 512.001 512.001" style="enable-background:new 0 0 512.001 512.001;" xml:space="preserve">
<g>
	<path style="fill:#7AEAE7;" d="M245.798,325.019c0,10.982,0.986,21.305,2.774,30.986C264.132,440.298,340.354,476,353.899,476
		s89.768-35.701,105.328-119.994c1.786-9.682,2.774-20.004,2.774-30.986v-56.828c-36.244-9.842-74.162-25.59-108.102-45.455
		c-34.055,19.934-69.672,35.018-108.102,45.455v56.827H245.798z"/>
	<path style="fill:#F9D973;" d="M245.798,325.019v-56.828c38.43-10.438,74.047-25.522,108.102-45.455
		c33.939,19.865,71.857,35.613,108.102,45.455v56.828c0,10.982-0.987,21.305-2.788,30.982h22.913
		c10.932,0,19.875-8.945,19.875-19.873V155.999H10v180.129c0,10.928,8.944,19.873,19.875,19.873h218.712
		C246.784,346.324,245.798,336.001,245.798,325.019L245.798,325.019z M102.499,250.687c5.146-2.979,11.125-4.684,17.498-4.684
		c19.334,0,35.002,15.67,35.002,34.998c0,19.33-15.668,35-35.002,35c-6.373,0-12.352-1.705-17.498-4.684
		c-5.148,2.978-11.123,4.684-17.499,4.684c-19.332,0-35.001-15.67-35.001-35c0-19.328,15.669-34.998,35.001-34.998
		C91.376,246.003,97.351,247.708,102.499,250.687z"/>
	<path style="fill:#FF5A5A;" d="M119.997,281.001c0-12.953-7.037-24.264-17.498-30.314c-5.148-2.979-11.123-4.684-17.499-4.684
		c-19.332,0-35.001,15.67-35.001,34.998c0,19.33,15.669,35,35.001,35c6.374,0,12.351-1.705,17.499-4.684
		C112.96,305.269,119.997,293.957,119.997,281.001z"/>
	<path style="fill:#FF8C5A;" d="M102.499,250.687c10.461,6.051,17.498,17.361,17.498,30.314c0,12.955-7.037,24.268-17.498,30.316
		c5.146,2.978,11.125,4.684,17.498,4.684c19.334,0,35.002-15.67,35.002-35c0-19.328-15.668-34.998-35.002-34.998
		C113.624,246.003,107.645,247.708,102.499,250.687z"/>
	<rect x="10" y="96" style="fill:#0586AD;" width="492" height="59.998"/>
	<path style="fill:#F9D973;" d="M10,96.002h492.001V55.876c0-10.934-8.943-19.875-19.875-19.875H29.875
		C18.944,36.001,10,44.943,10,55.876V96.002z"/>
</g>
<path d="M407.04,385.22c-4.539-3.148-10.77-2.016-13.915,2.523c-3.048,4.4-6.502,8.678-10.271,12.717
	c-2.525,2.709-5.999,5.975-9.779,9.191c-4.206,3.58-4.714,9.891-1.135,14.098c1.978,2.324,4.791,3.518,7.621,3.518
	c2.291,0,4.594-0.783,6.477-2.385c4.41-3.754,8.369-7.482,11.443-10.783c4.422-4.738,8.488-9.773,12.084-14.965
	C412.71,394.595,411.58,388.365,407.04,385.22z"/>
<path d="M350.174,425.251l-0.313,0.141c-5.053,2.229-7.341,8.133-5.11,13.186c1.65,3.74,5.312,5.965,9.153,5.965
	c1.349,0,2.72-0.275,4.032-0.854c0.244-0.107,0.486-0.217,0.729-0.33c5-2.346,7.153-8.299,4.809-13.301
	C361.128,425.058,355.176,422.906,350.174,425.251z"/>
<path d="M482.126,26.001H29.875C13.401,26.001,0,39.404,0,55.876v280.252c0,16.471,13.401,29.873,29.875,29.873h210.586
	c8.927,37.77,29.114,64.52,46.757,81.658C312.97,472.677,342.49,486,353.899,486c11.408,0,40.928-13.322,66.681-38.34
	c17.643-17.139,37.831-43.889,46.757-81.658h14.789c16.473,0,29.875-13.402,29.875-29.873V55.876
	C512.001,39.404,498.599,26.001,482.126,26.001z M20,106.002h472.001V146H20V106.002z M29.875,46.001h452.251
	c5.444,0,9.875,4.43,9.875,9.875v30.125H20V55.876C20,50.431,24.43,46.001,29.875,46.001z M407.276,432.697
	c-24.203,23.773-49.03,33.02-53.377,33.301c-4.348-0.281-29.176-9.527-53.379-33.301c-20.402-20.041-44.723-54.99-44.723-107.678
	v-49.246c34.43-9.957,66.646-23.584,98.105-41.492c30.75,17.453,64.41,31.686,98.098,41.486v49.252
	C452.001,377.707,427.68,412.656,407.276,432.697z M482.126,346.001h-11.311c0.766-6.701,1.186-13.689,1.186-20.982v-56.828
	c0-4.514-3.024-8.467-7.379-9.65c-36.313-9.861-72.854-25.227-105.672-44.436c-3.12-1.826-6.982-1.824-10.104,0.002
	c-33.748,19.754-68.313,34.287-105.67,44.434c-4.355,1.184-7.379,5.137-7.379,9.65v56.828c0,7.293,0.419,14.281,1.186,20.982H29.875
	c-5.445,0-9.875-4.43-9.875-9.873V165.999h472.001v170.129C492.001,341.572,487.57,346.001,482.126,346.001z"/>
<path d="M119.997,236.003c-6.029,0-11.982,1.219-17.492,3.543c-5.383-2.281-11.299-3.543-17.503-3.543
	c-24.813,0-45.001,20.186-45.001,44.998s20.187,45,45.001,45c6.204,0,12.12-1.262,17.502-3.543
	c5.511,2.324,11.464,3.543,17.493,3.543c24.814,0,45.002-20.188,45.002-45S144.811,236.003,119.997,236.003z M60.001,281.001
	c0-13.785,11.215-24.998,25.001-24.998c13.784,0,24.999,11.213,24.999,24.998c0,13.785-11.215,25-24.999,25
	C71.216,306.001,60.001,294.787,60.001,281.001z M122.476,305.879c4.75-7.131,7.525-15.686,7.525-24.877s-2.775-17.744-7.524-24.875
	c12.625,1.248,22.521,11.928,22.521,24.875S135.102,304.63,122.476,305.879z"/>
<path d="M49.999,211.001h51.437c5.523,0,10-4.479,10-10c0-5.523-4.477-10-10-10H49.999c-5.523,0-10,4.477-10,10
	C39.999,206.523,44.476,211.001,49.999,211.001z"/>
<path d="M130.522,211.001h0.474c5.522,0,10-4.479,10-10c0-5.523-4.478-10-10-10h-0.474c-5.523,0-10,4.477-10,10
	C120.522,206.523,124.999,211.001,130.522,211.001z"/>
<path d="M394.649,302.025l-53.477,53.473l-28.023-28.025c-3.906-3.902-10.238-3.904-14.143,0c-3.905,3.906-3.906,10.238,0,14.143
	l35.095,35.096c1.953,1.953,4.512,2.93,7.071,2.93c2.559,0,5.119-0.977,7.07-2.93l60.547-60.543
	c3.906-3.904,3.906-10.236,0.001-14.143C404.887,298.123,398.556,298.121,394.649,302.025z"/>
<g>
</g>
<g>
</g>
<g>
</g>
<g>
</g>
<g>
</g>
<g>
</g>
<g>
</g>
<g>
</g>
<g>
</g>
<g>
</g>
<g>
</g>
<g>
</g>
<g>
</g>
<g>
</g>
<g>
</g>
</svg>
