<?xml version="1.0"?>
<svg xmlns="http://www.w3.org/2000/svg" xmlns:xlink="http://www.w3.org/1999/xlink" version="1.1" id="Capa_1" x="0px" y="0px" viewBox="0 0 512 512" style="enable-background:new 0 0 512 512;" xml:space="preserve" width="512px" height="512px" class=""><g><g>
	<g>
		<path d="M195.5,219v45h25.885c7.331-7.788,15.406-14.867,24.115-21.119V219H195.5z" data-original="#000000" class="active-path" data-old_color="#000000" fill="#FFFFFF"/>
	</g>
</g><g>
	<g>
		<rect x="125.5" y="219" width="40" height="45" data-original="#000000" class="active-path" data-old_color="#000000" fill="#FFFFFF"/>
	</g>
</g><g>
	<g>
		<rect x="125.5" y="294" width="40" height="45" data-original="#000000" class="active-path" data-old_color="#000000" fill="#FFFFFF"/>
	</g>
</g><g>
	<g>
		<path d="M295.5,110V0h-260v512h211.242c-42.45-29.885-70.242-79.255-70.242-135c0-2.682,0.07-5.349,0.197-8H95.5V189h250v23.051    c21.226,0.508,41.471,5.042,60,12.869V110H295.5z M95.5,79h88v30h-88V79z M243.5,159h-148v-30h148V159z" data-original="#000000" class="active-path" data-old_color="#000000" fill="#FFFFFF"/>
	</g>
</g><g>
	<g>
		<polygon points="325.5,8.787 325.5,80 396.713,80   " data-original="#000000" class="active-path" data-old_color="#000000" fill="#FFFFFF"/>
	</g>
</g><g>
	<g>
		<path d="M447.004,292.877l-84.358,84.358l84.148,84.148C465.368,438.253,476.5,408.904,476.5,377    C476.5,345.216,465.452,315.967,447.004,292.877z" data-original="#000000" class="active-path" data-old_color="#000000" fill="#FFFFFF"/>
	</g>
</g><g>
	<g>
		<path d="M425.809,271.646C402.691,253.108,373.37,242,341.5,242c-74.439,0-135,60.561-135,135s60.561,135,135,135    c31.75,0,60.97-11.023,84.049-29.436l-105.33-105.329L425.809,271.646z" data-original="#000000" class="active-path" data-old_color="#000000" fill="#FFFFFF"/>
	</g>
</g></g> </svg>
