<?xml version="1.0" encoding="iso-8859-1"?>
<!-- Generator: Adobe Illustrator 19.0.0, SVG Export Plug-In . SVG Version: 6.00 Build 0)  -->
<svg version="1.1" id="Capa_1" xmlns="http://www.w3.org/2000/svg" xmlns:xlink="http://www.w3.org/1999/xlink" x="0px" y="0px"
	 viewBox="0 0 480.001 480.001" style="enable-background:new 0 0 480.001 480.001;" xml:space="preserve">
<g>
	<circle style="fill:#FF7754;" cx="352" cy="403.997" r="40"/>
	<circle style="fill:#FF7754;" cx="176" cy="403.997" r="40"/>
	<path style="fill:#FF7754;" d="M92.96,307.997h254.672c44.7,0.003,83.487-30.846,93.544-74.4L472,99.997H68.96L92.96,307.997z
		 M201.76,141.773L264,203.997l62.224-62.224L264,203.997l62.224,62.224L264,203.997l-62.224,62.224L264,203.997L201.76,141.773z"/>
</g>
<g>
	<path style="fill:#231F20;" d="M478.264,95.021c-1.518-1.91-3.824-3.024-6.264-3.024H76.08l-3.328-28.616
		c-2.343-20.168-19.424-35.382-39.728-35.384H8c-4.418,0-8,3.582-8,8s3.582,8,8,8h25.024c12.181-0.001,22.431,9.124,23.84,21.224
		L92.8,376.581c2.183,18.697,17.152,33.316,35.896,35.056c4.251,26.135,28.885,43.876,55.02,39.624
		c20.223-3.29,36.121-19.067,39.564-39.264h81.44c4.418,26.139,29.19,43.747,55.329,39.329s43.747-29.19,39.329-55.329
		s-29.19-43.747-55.329-39.329c-20.143,3.405-35.924,19.186-39.329,39.329h-81.44c-4.423-26.107-29.172-43.685-55.278-39.263
		c-19.976,3.384-35.669,18.96-39.202,38.911c-10.64-1.639-18.872-10.186-20.112-20.88l-6.752-58.768h245.696
		c48.49,0.176,90.605-33.328,101.336-80.616l30.832-133.6C480.342,99.411,479.776,96.924,478.264,95.021L478.264,95.021z
		 M352,371.997c17.673,0,32,14.327,32,32s-14.327,32-32,32s-32-14.327-32-32S334.327,371.997,352,371.997z M176,371.997
		c17.673,0,32,14.327,32,32s-14.327,32-32,32s-32-14.327-32-32S158.327,371.997,176,371.997z M433.376,231.789
		c-9.079,40.012-44.715,68.36-85.744,68.208H100.088l-22.152-192h384L433.376,231.789z"/>
	<path style="fill:#231F20;" d="M196.12,271.877c3.124,3.123,8.188,3.123,11.312,0L264,215.309l56.568,56.568
		c3.178,3.07,8.242,2.982,11.312-0.196c2.995-3.1,2.995-8.016,0-11.116l-56.568-56.568l56.568-56.568
		c3.069-3.178,2.982-8.243-0.196-11.312c-3.1-2.994-8.015-2.994-11.116,0L264,192.685l-56.568-56.568
		c-3.178-3.069-8.243-2.981-11.312,0.197c-2.994,3.1-2.994,8.015,0,11.115l56.568,56.568l-56.568,56.568
		C192.997,263.689,192.997,268.753,196.12,271.877L196.12,271.877z"/>
</g>
<g>
</g>
<g>
</g>
<g>
</g>
<g>
</g>
<g>
</g>
<g>
</g>
<g>
</g>
<g>
</g>
<g>
</g>
<g>
</g>
<g>
</g>
<g>
</g>
<g>
</g>
<g>
</g>
<g>
</g>
</svg>
