<?xml version="1.0"?>
<svg xmlns="http://www.w3.org/2000/svg" height="512px" viewBox="0 0 60 60" width="512px"><g><g id="Page-1" fill="none" fill-rule="evenodd"><g id="031---Refresh-Messages" fill="rgb(0,0,0)" fill-rule="nonzero"><path id="Shape" d="m51.217 8.783c-10.6108439-10.5485731-27.3583059-11.70377612-39.317-2.712-1.0984453.83331917-2.13978083 1.73935122-3.117 2.712-.127.128-.24.264-.365.394l1.343-5.823c.12398793-.53820149-.21179851-1.07501207-.75-1.199s-1.07501207.21179851-1.199.75l-2.121 9.195c-.07794576.3362293.02300398.6888861.26705896.932941.24405497.244055.59671177.3450048.93294104.267059l9.193-2.121c.3481553-.0803847.6269794-.340402.7314418-.6821057s.0186929-.71318106-.225-.97450003-.6082865-.37277904-.9564418-.29239427l-5.772 1.328c.113-.117.217-.242.332-.357.9109485-.90866055 1.8817922-1.75522554 2.906-2.534 10.373331-7.86005553 24.7948568-7.53618336 34.8048724.78163226 10.0100156 8.31781564 12.9689679 22.43623984 7.1411276 34.07336774-.2474057.4937439-.047729 1.0945647.446 1.342.1385625.0700713.2917279.1063924.447.106.3806024.0022675.7294938-.2117192.9-.552 5.7897695-11.5495684 3.5237288-25.5097818-5.622-34.635z" data-original="#000000" class="active-path" data-old_color="#000000" fill="#FFFFFF"/><path id="Shape" d="m53.11 46.7-9.193 2.121c-.3481553.0803848-.6269793.340402-.7314418.6821057-.1044624.3417037-.0186929.713181.225.9745s.6082865.3727791.9564418.2923943l5.771-1.331c-.113.117-.217.242-.332.357-.9122343.9087994-1.8844177 1.7553674-2.91 2.534-10.3731756 7.8534573-24.7892913 7.5268107-34.7961096-.7884254-10.00681838-8.3152361-12.96737871-22.4278607-7.1458904-34.0635746.16076952-.3193954.13893124-.7002985-.05728857-.9992267-.1962198-.2989282-.53701068-.4704672-.894-.45s-.67594191.2298313-.83671143.5492267c-6.20929143 12.464775-3.02955912 27.5633624 7.6794915 36.4651684 10.7090507 8.901806 26.1344683 9.2685891 37.2545085.8858316 1.0981017-.8333546 2.1391023-1.7393859 3.116-2.712.127-.128.24-.264.365-.394l-1.343 5.823c-.0598468.2585983-.0144271.5303806.1262522.7554674.1406792.2250868.3650749.3850091.6237478.4445326.0738414.0166481.1493052.025033.225.025.4654679-.000167.8692698-.3214673.974-.775l2.122-9.196c.0779458-.3362293-.023004-.6888861-.267059-.932941-.2440549-.244055-.5967117-.3450048-.932941-.267059z" data-original="#000000" class="active-path" data-old_color="#000000" fill="#FFFFFF"/><path id="Shape" d="m46.03 39.38 2.05 5.48-6.02-2.73c-1.5992882.6831693-3.3209112 1.0336182-5.06 1.03-3.2407221.0278899-6.3635774-1.2140732-8.7-3.46 7.33-1.4 12.86-7.46 12.86-14.7.0015892-1.1640916-.1462863-2.3235702-.44-3.45 4.7873424 1.2890801 8.1564297 5.5736802 8.28 10.53-.0173615 2.724138-1.080605 5.3374975-2.97 7.3z" data-original="#000000" class="active-path" data-old_color="#000000" fill="#FFFFFF"/><path id="Shape" d="m25.08 12c-7.78 0-14.08 5.82-14.08 13 .0163247 3.1995044 1.2664702 6.2693458 3.49 8.57l-2.41 6.43 7.06-3.21c1.8768135.8040385 3.8982181 1.2158061 5.94 1.21 7.78 0 14.08-5.82 14.08-13s-6.3-13-14.08-13zm6.92 19h-14c-.5522847 0-1-.4477153-1-1s.4477153-1 1-1h14c.5522847 0 1 .4477153 1 1s-.4477153 1-1 1zm0-5h-14c-.5522847 0-1-.4477153-1-1s.4477153-1 1-1h14c.5522847 0 1 .4477153 1 1s-.4477153 1-1 1zm0-5h-14c-.5522847 0-1-.4477153-1-1s.4477153-1 1-1h14c.5522847 0 1 .4477153 1 1s-.4477153 1-1 1z" data-original="#000000" class="active-path" data-old_color="#000000" fill="#FFFFFF"/></g></g></g> </svg>
