<?xml version="1.0"?>
<svg xmlns="http://www.w3.org/2000/svg" height="512px" viewBox="0 0 58 58" width="512px"><g><g id="Page-1" fill="none" fill-rule="evenodd"><g id="001---Speech-Bubble" fill="rgb(0,0,0)" fill-rule="nonzero"><circle id="Oval" cx="13" cy="24" r="3" data-original="#000000" class="active-path" data-old_color="#000000" fill="#FFFFFF"/><circle id="Oval" cx="29" cy="24" r="3" data-original="#000000" class="active-path" data-old_color="#000000" fill="#FFFFFF"/><circle id="Oval" cx="45" cy="24" r="3" data-original="#000000" class="active-path" data-old_color="#000000" fill="#FFFFFF"/><path id="Shape" d="m47 0h-36c-6.07513225 0-11 4.92486775-11 11v26c0 6.0751322 4.92486775 11 11 11h28.144c.2838823.0000458.5543666.1207458.744.332l8.382 9.348c.3045628.3224127.7851027.4056973 1.1804007.2045807.3952981-.2011165.6108974-.6385772.5295993-1.0745807l-1.287-8.01c-.0866183-.507487.2317819-.9961943.731-1.122 4.9742593-1.1633539 8.513359-5.5698963 8.576-10.678v-26c0-2.91738139-1.1589252-5.71527443-3.2218254-7.77817459-2.0629002-2.06290017-4.8607932-3.22182541-7.7781746-3.22182541zm-32 3c.5522847 0 1 .44771525 1 1s-.4477153 1-1 1-1-.44771525-1-1 .4477153-1 1-1zm-10 8c0 .5522847-.44771525 1-1 1s-1-.4477153-1-1c.00495988-4.41622192 3.58377808-7.99504012 8-8 .5522847.00000001 1 .44771526 1 1s-.4477153.99999999-1 1c-3.31233757.00330738-5.99669262 2.68766243-6 6zm8 18c-2.7614237 0-5-2.2385763-5-5s2.2385763-5 5-5 5 2.2385763 5 5c-.0033061 2.7600532-2.2399468 4.9966939-5 5zm16 0c-2.7614237 0-5-2.2385763-5-5s2.2385763-5 5-5 5 2.2385763 5 5c-.0033061 2.7600532-2.2399468 4.9966939-5 5zm16 0c-2.7614237 0-5-2.2385763-5-5s2.2385763-5 5-5 5 2.2385763 5 5c-.0033061 2.7600532-2.2399468 4.9966939-5 5z" data-original="#000000" class="active-path" data-old_color="#000000" fill="#FFFFFF"/></g></g></g> </svg>
