<?xml version="1.0"?>
<svg xmlns="http://www.w3.org/2000/svg" height="512px" viewBox="0 0 55 58" width="512px"><g><g id="Page-1" fill="none" fill-rule="evenodd"><g id="021---Phone-Calls" fill="rgb(0,0,0)" fill-rule="nonzero"><path id="Shape" d="m38.1 14.673-2.44-2.439-7.352 7.352c-.7809997.7807639-2.0470003.7807639-2.828 0l-2.071-2.071c-.7807639-.7809997-.7807639-2.0470003 0-2.828l7.353-7.352-2.435-2.435c-.5424344-.54385281-.7254733-1.35031216-.4709645-2.07504401s.901592-1.23967184 1.6649645-1.32495599l11-1.218c.6036266-.06685162 1.2049293.14419443 1.6343674.57363258.4294382.42943815.6404842 1.03074079.5736326 1.63436742l-1.218 11c-.0855779.7661811-.6039135 1.4149586-1.3322964 1.6675757s-1.5371115.0640908-2.0787036-.4845757z" data-original="#000000" class="active-path" data-old_color="#000000" fill="#FFFFFF"/><path id="Shape" d="m38.9 20.327 2.44 2.439 7.352-7.352c.7809997-.7807639 2.0470003-.7807639 2.828 0l2.071 2.071c.7807639.7809997.7807639 2.0470003 0 2.828l-7.353 7.352 2.44 2.44c.5424344.5438528.7254733 1.3503122.4709645 2.075044-.2545088.7247319-.901592 1.2396719-1.6649645 1.324956l-11 1.218c-.6036266.0668516-1.2049293-.1441944-1.6343674-.5736326-.4294382-.4294381-.6404842-1.0307408-.5736326-1.6343674l1.218-11c.0854511-.7648978.6022412-1.4128976 1.3289599-1.6663743.7267187-.2534768 1.5344133-.0674523 2.0770401.4783743z" data-original="#000000" class="active-path" data-old_color="#000000" fill="#FFFFFF"/><path id="Shape" d="m46.372 44.814-5.281-5.282c-1.0398382-1.0419677-2.4514402-1.6275183-3.9235-1.6275183s-2.8836618.5855506-3.9235 1.6275183l-3.668 3.668c-.7929507.8019535-2.0488076.9147778-2.972.267-2.3166567-1.6759382-4.5047565-3.5227532-6.546-5.525-2.0023006-2.0397723-3.8491256-4.2265468-5.525-6.542-.6476307-.9228778-.5348002-2.1783807.267-2.971l3.667-3.668c1.0424595-1.0395767 1.6283502-2.4512767 1.6283502-3.9235s-.5858907-2.8839233-1.6283502-3.9235l-5.281-5.281c-2.1669654-2.16670528-5.6800346-2.16670528-7.847 0-5.049 5.044-6.221 12.647-4.747 19.461 1.277 5.873 4.771 10.69 8.926 14.892.43.418.847.813 1.265 1.231s.813.835 1.231 1.265c4.2 4.155 9.019 7.649 14.892 8.926 1.7965224.3885557 3.6289459.5869817 5.467.592 5.1920188.1579782 10.2320602-1.7644376 14-5.34 1.0422665-1.0395386 1.6279526-2.4511477 1.627765-3.9232075s-.5862335-2.8835196-1.628765-3.9227925zm-37.5-29.65c-3.4 3.4-4.675 8.962-3.4 14.869.05612625.2592519.00694961.5301816-.13670851.7531705-.14365812.222989-.37002621.3797651-.62929149.4358295-.06971796.0146306-.14076343.0220033-.212.022-.47048896-.0001269-.87725635-.3282054-.977-.788-1.417-6.574.056-12.819 3.944-16.706.39237889-.3789722 1.01608478-.3735524 1.40181858.0121814.38573379.3857338.39115363 1.0094397.01218142 1.4018186zm35.386 35.368c-3.2107232 3.0085458-7.4864825 4.6160931-11.884 4.468-1.626939-.0049759-3.2488491-.1809426-4.839-.525-.5401345-.1154275-.8844275-.6468655-.769-1.187s.6468655-.8844275 1.187-.769c1.4527284.3148817 2.9345457.4761018 4.421.481 3.866624.145136 7.6326212-1.2511964 10.47-3.882.3923789-.3789722 1.0160848-.3735524 1.4018186.0121814s.3911536 1.0094397.0121814 1.4018186z" data-original="#000000" class="active-path" data-old_color="#000000" fill="#FFFFFF"/></g></g></g> </svg>
